<svg width="40" height="40" viewBox="0 0 40 40" fill="none" xmlns="http://www.w3.org/2000/svg">
    <path d="M0 12.8C0 8.31958 0 6.07937 0.871948 4.36808C1.63893 2.86278 2.86278 1.63893 4.36808 0.871948C6.07937 0 8.31958 0 12.8 0H27.2C31.6804 0 33.9206 0 35.6319 0.871948C37.1372 1.63893 38.3611 2.86278 39.1281 4.36808C40 6.07937 40 8.31958 40 12.8V27.2C40 31.6804 40 33.9206 39.1281 35.6319C38.3611 37.1372 37.1372 38.3611 35.6319 39.1281C33.9206 40 31.6804 40 27.2 40H12.8C8.31958 40 6.07937 40 4.36808 39.1281C2.86278 38.3611 1.63893 37.1372 0.871948 35.6319C0 33.9206 0 31.6804 0 27.2V12.8Z"
          fill="#0361FF"/>
    <path d="M15.0649 31.2H7.19995C8.8248 24.3133 9.95413 16.9493 10.5879 9.10801C10.5879 8.96027 10.7723 8.73867 11.1411 8.4432C11.5214 8.14773 11.844 8 12.1091 8H19.9567C19.1155 11.5002 18.401 15.2504 17.8133 19.2506C19.4036 19.5574 20.4234 19.796 20.8729 19.9665C20.8729 20.6711 20.7404 21.1881 20.4753 21.5177C19.2884 21.6086 18.2743 21.7393 17.433 21.9098C17.0758 24.6826 16.7877 27.4044 16.5688 30.0749C16.5688 30.2227 16.3844 30.45 16.0156 30.7568C15.6469 31.0523 15.33 31.2 15.0649 31.2ZM27.9081 31.2H20.0604C21.6623 24.4383 22.7916 17.0743 23.4484 9.10801C23.4484 8.96027 23.6328 8.73867 24.0016 8.4432C24.3703 8.14773 24.6872 8 24.9523 8H32.7999C31.1981 14.7276 30.0688 22.0859 29.412 30.0749C29.412 30.2227 29.2218 30.45 28.8415 30.7568C28.4728 31.0523 28.1616 31.2 27.9081 31.2Z"
          fill="white"/>
</svg>
