<svg width="120" height="25" viewBox="0 0 120 25" fill="none" xmlns="http://www.w3.org/2000/svg">
    <path d="M15.3 10.375L13.83 5.53501C13.54 4.58501 12.2 4.58501 11.92 5.53501L10.44 10.375H5.98998C5.01998 10.375 4.61998 11.625 5.40998 12.185L9.04998 14.785L7.61998 19.395C7.32998 20.325 8.40999 21.075 9.17999 20.485L12.87 17.685L16.56 20.495C17.33 21.085 18.41 20.335 18.12 19.405L16.69 14.795L20.33 12.195C21.12 11.625 20.72 10.385 19.75 10.385H15.3V10.375Z"
          fill="#FFB800"/>
    <path d="M39.1796 9.9275L37.7096 5.0875C37.4196 4.1375 36.0796 4.1375 35.7996 5.0875L34.3196 9.9275H29.8696C28.8996 9.9275 28.4996 11.1775 29.2896 11.7375L32.9296 14.3375L31.4996 18.9475C31.2096 19.8775 32.2896 20.6275 33.0596 20.0375L36.7496 17.2375L40.4396 20.0475C41.2096 20.6375 42.2896 19.8875 41.9996 18.9575L40.5696 14.3475L44.2096 11.7475C44.9996 11.1775 44.5996 9.9375 43.6296 9.9375H39.1796V9.9275Z"
          fill="#FFB800"/>
    <path d="M62.9388 9.9275L61.4688 5.0875C61.1788 4.1375 59.8388 4.1375 59.5588 5.0875L58.0788 9.9275H53.6288C52.6588 9.9275 52.2588 11.1775 53.0488 11.7375L56.6888 14.3375L55.2588 18.9475C54.9688 19.8775 56.0488 20.6275 56.8188 20.0375L60.5088 17.2375L64.1988 20.0475C64.9688 20.6375 66.0488 19.8875 65.7588 18.9575L64.3288 14.3475L67.9688 11.7475C68.7588 11.1775 68.3588 9.9375 67.3888 9.9375H62.9388V9.9275Z"
          fill="#FFB800"/>
    <path d="M86.698 9.9275L85.228 5.0875C84.938 4.1375 83.598 4.1375 83.318 5.0875L81.838 9.9275H77.388C76.418 9.9275 76.018 11.1775 76.808 11.7375L80.448 14.3375L79.018 18.9475C78.728 19.8775 79.808 20.6275 80.578 20.0375L84.268 17.2375L87.958 20.0475C88.728 20.6375 89.808 19.8875 89.518 18.9575L88.088 14.3475L91.728 11.7475C92.518 11.1775 92.118 9.9375 91.148 9.9375H86.698V9.9275Z"
          fill="#FFB800"/>
    <path d="M110.457 9.9275L108.987 5.0875C108.697 4.1375 107.357 4.1375 107.077 5.0875L105.597 9.9275H101.147C100.177 9.9275 99.7772 11.1775 100.567 11.7375L104.207 14.3375L102.777 18.9475C102.487 19.8775 103.567 20.6275 104.337 20.0375L108.027 17.2375L111.717 20.0475C112.487 20.6375 113.567 19.8875 113.277 18.9575L111.847 14.3475L115.487 11.7475C116.277 11.1775 115.877 9.9375 114.907 9.9375H110.457V9.9275Z"
          fill="#FFB800"/>
</svg>
