<svg xmlns="http://www.w3.org/2000/svg" xmlns:xlink="http://www.w3.org/1999/xlink" viewBox="0,0,256,256" width="68px" height="68px"><g fill="#999ba7" fill-rule="nonzero" stroke="none" stroke-width="1" stroke-linecap="butt" stroke-linejoin="miter" stroke-miterlimit="10" stroke-dasharray="" stroke-dashoffset="0" font-family="none" font-weight="none" font-size="none" text-anchor="none" style="mix-blend-mode: normal"><g transform="scale(4,4)"><path d="M32,10c-13.785,0 -25,8.95013 -25,19.95313c0,6.873 4.34638,13.15183 11.48438,16.79883c-2.037,3.434 -3.98091,6.19942 -4.00391,6.23242c-0.453,0.644 -0.48598,1.49388 -0.08399,2.17188c0.364,0.611 1.0207,0.98047 1.7207,0.98047c0.076,0 0.15252,-0.00467 0.22852,-0.01367c0.261,-0.03 6.30288,-0.77725 13.67188,-6.28125c0.672,0.043 1.33642,0.06445 1.98242,0.06445c13.785,0 25,-8.95012 25,-19.95312c0,-11.003 -11.215,-19.95312 -25,-19.95312zM32,14c11.579,0 21,7.15612 21,15.95313c0,8.797 -9.421,15.95313 -21,15.95313c-0.778,0 -1.59102,-0.03442 -2.41602,-0.10742c-0.5,-0.046 -1.00239,0.10211 -1.40039,0.41211c-2.748,2.131 -5.30228,3.51239 -7.36328,4.40039c0.715,-1.152 1.48733,-2.44411 2.23633,-3.78711c0.28,-0.499 0.33158,-1.09477 0.14258,-1.63477c-0.189,-0.54 -0.59991,-0.97245 -1.12891,-1.18945c-6.829,-2.803 -11.07031,-8.18687 -11.07031,-14.04687c0,-8.797 9.421,-15.95312 21,-15.95312zM32,20c-1.657,0 -3,1.343 -3,3c0,1.657 1.343,3 3,3c1.657,0 3,-1.343 3,-3c0,-1.657 -1.343,-3 -3,-3zM32,29c-1.105,0 -2,0.896 -2,2v8c0,1.104 0.895,2 2,2c1.105,0 2,-0.896 2,-2v-8c0,-1.104 -0.895,-2 -2,-2z"></path></g></g></svg>