<svg width="33" height="32" viewBox="0 0 33 32" fill="none" xmlns="http://www.w3.org/2000/svg">
<rect x="0.5" width="32" height="32" rx="8" fill="#F9F9F9"/>
<path fill-rule="evenodd" clip-rule="evenodd" d="M16.5 7.5C11.813 7.5 8 11.313 8 16C8 20.687 11.813 24.5 16.5 24.5C21.187 24.5 25 20.687 25 16C25 11.313 21.187 7.5 16.5 7.5ZM16.5 26C10.986 26 6.5 21.514 6.5 16C6.5 10.486 10.986 6 16.5 6C22.014 6 26.5 10.486 26.5 16C26.5 21.514 22.014 26 16.5 26Z" fill="#999BA7"/>
<path fill-rule="evenodd" clip-rule="evenodd" d="M19.9311 19.6927C19.8001 19.6927 19.6681 19.6587 19.5471 19.5877L15.7771 17.3387C15.5511 17.2027 15.4111 16.9577 15.4111 16.6937V11.8457C15.4111 11.4317 15.7471 11.0957 16.1611 11.0957C16.5761 11.0957 16.9111 11.4317 16.9111 11.8457V16.2677L20.3161 18.2977C20.6711 18.5107 20.7881 18.9707 20.5761 19.3267C20.4351 19.5617 20.1861 19.6927 19.9311 19.6927Z" fill="#999BA7"/>
</svg>
