<svg width="32" height="32" viewBox="0 0 32 32" fill="none" xmlns="http://www.w3.org/2000/svg">
    <circle cx="16" cy="16" r="15.5" fill="white" stroke="#999BA7"/>
    <path fill-rule="evenodd" clip-rule="evenodd"
          d="M7.5 14.3178C7.5 9.71789 11.3439 6 15.9934 6C20.6561 6 24.5 9.71789 24.5 14.3178C24.5 16.6357 23.657 18.7876 22.2695 20.6116C20.7388 22.6235 18.8522 24.3765 16.7285 25.7524C16.2425 26.0704 15.8039 26.0944 15.2704 25.7524C13.1347 24.3765 11.2481 22.6235 9.7305 20.6116C8.34198 18.7876 7.5 16.6357 7.5 14.3178ZM13.1942 14.5768C13.1942 16.1177 14.4517 17.3297 15.9934 17.3297C17.5362 17.3297 18.8058 16.1177 18.8058 14.5768C18.8058 13.0478 17.5362 11.7768 15.9934 11.7768C14.4517 11.7768 13.1942 13.0478 13.1942 14.5768Z"
          fill="#999BA7"/>
</svg>
