<?xml version="1.0" encoding="utf-8"?>
<svg viewBox="0 0 64 64" width="64" height="64" xmlns="http://www.w3.org/2000/svg">
  <defs>
    <filter id="filter0_d_1784_4139" x="0" y="0" width="184" height="184" filterUnits="userSpaceOnUse" color-interpolation-filters="sRGB">
      <feFlood flood-opacity="0" result="BackgroundImageFix"/>
      <feColorMatrix in="SourceAlpha" type="matrix" values="0 0 0 0 0 0 0 0 0 0 0 0 0 0 0 0 0 0 127 0" result="hardAlpha"/>
      <feOffset dy="4"/>
      <feGaussianBlur stdDeviation="30"/>
      <feComposite in2="hardAlpha" operator="out"/>
      <feColorMatrix type="matrix" values="0 0 0 0 0 0 0 0 0 0 0 0 0 0 0 0 0 0 0.1 0"/>
      <feBlend mode="normal" in2="BackgroundImageFix" result="effect1_dropShadow_1784_4139"/>
      <feBlend mode="normal" in="SourceGraphic" in2="effect1_dropShadow_1784_4139" result="shape"/>
    </filter>
    <linearGradient id="paint0_linear_1784_4139" x1="92" y1="56" x2="92" y2="120" gradientUnits="userSpaceOnUse">
      <stop stop-color="#7351FF"/>
      <stop offset="1" stop-color="#5E3CE6"/>
    </linearGradient>
    <filter id="filter1_dd_1784_4139" x="67.833" y="65.333" width="49.334" height="49.3328" filterUnits="userSpaceOnUse" color-interpolation-filters="sRGB">
      <feFlood flood-opacity="0" result="BackgroundImageFix"/>
      <feColorMatrix in="SourceAlpha" type="matrix" values="0 0 0 0 0 0 0 0 0 0 0 0 0 0 0 0 0 0 127 0" result="hardAlpha"/>
      <feOffset dy="2"/>
      <feGaussianBlur stdDeviation="1.5"/>
      <feComposite in2="hardAlpha" operator="out"/>
      <feColorMatrix type="matrix" values="0 0 0 0 0 0 0 0 0 0 0 0 0 0 0 0 0 0 0.25 0"/>
      <feBlend mode="normal" in2="BackgroundImageFix" result="effect1_dropShadow_1784_4139"/>
      <feColorMatrix in="SourceAlpha" type="matrix" values="0 0 0 0 0 0 0 0 0 0 0 0 0 0 0 0 0 0 127 0" result="hardAlpha"/>
      <feOffset dy="2"/>
      <feGaussianBlur stdDeviation="4"/>
      <feComposite in2="hardAlpha" operator="out"/>
      <feColorMatrix type="matrix" values="0 0 0 0 0 0 0 0 0 0 0 0 0 0 0 0 0 0 0.25 0"/>
      <feBlend mode="normal" in2="effect1_dropShadow_1784_4139" result="effect2_dropShadow_1784_4139"/>
      <feBlend mode="normal" in="SourceGraphic" in2="effect2_dropShadow_1784_4139" result="shape"/>
    </filter>
  </defs>
  <g filter="url(#filter0_d_1784_4139)" transform="matrix(0.9999999999999999, 0, 0, 0.9999999999999999, -60.05384153207899, -56.07619178408669)">
    <rect x="60" y="56" width="64" height="64" rx="10" fill="url(#paint0_linear_1784_4139)"/>
  </g>
  <g filter="url(#filter1_dd_1784_4139)" transform="matrix(0.9999999999999999, 0, 0, 0.9999999999999999, -61.03293700565302, -56.59388435771888)">
    <path fill-rule="evenodd" clip-rule="evenodd" d="M80.0663 71.333H85.6997C88.0497 71.333 89.933 73.2497 89.933 75.6013V81.283C89.933 83.6497 88.0497 85.5497 85.6997 85.5497H80.0663C77.733 85.5497 75.833 83.6497 75.833 81.283V75.6013C75.833 73.2497 77.733 71.333 80.0663 71.333ZM80.0663 90.4492H85.6997C88.0497 90.4492 89.933 92.3508 89.933 94.7175V100.399C89.933 102.749 88.0497 104.666 85.6997 104.666H80.0663C77.733 104.666 75.833 102.749 75.833 100.399V94.7175C75.833 92.3508 77.733 90.4492 80.0663 90.4492ZM104.933 71.333H99.2998C96.9498 71.333 95.0665 73.2497 95.0665 75.6013V81.283C95.0665 83.6497 96.9498 85.5497 99.2998 85.5497H104.933C107.267 85.5497 109.167 83.6497 109.167 81.283V75.6013C109.167 73.2497 107.267 71.333 104.933 71.333ZM99.2998 90.4492H104.933C107.267 90.4492 109.167 92.3508 109.167 94.7175V100.399C109.167 102.749 107.267 104.666 104.933 104.666H99.2998C96.9498 104.666 95.0665 102.749 95.0665 100.399V94.7175C95.0665 92.3508 96.9498 90.4492 99.2998 90.4492Z" fill="white"/>
  </g>
</svg>