<svg width="33" height="34" viewBox="0 0 33 34" fill="none" xmlns="http://www.w3.org/2000/svg">
<g clip-path="url(#clip0_2610_22589)">
<path d="M25.4962 32.1594C23.7516 33.9008 21.8468 33.6259 20.0132 32.801C18.0729 31.9578 16.2927 31.9211 14.2455 32.801C11.682 33.9375 10.3291 33.6076 8.79816 32.1594C0.110921 22.9389 1.39264 8.89734 11.2548 8.38407C13.658 8.51239 15.3314 9.74056 16.7377 9.85055C18.8383 9.4106 20.8499 8.14576 23.0929 8.31074C25.781 8.53072 27.8104 9.63058 29.1455 11.6103C23.5914 15.0382 24.9087 22.5723 30 24.6803C28.9853 27.43 27.668 30.1613 25.4784 32.1777L25.4962 32.1594ZM16.5597 8.27408C16.2927 4.18626 19.5148 0.813357 23.2175 0.483398C23.7338 5.2128 19.0519 8.73236 16.5597 8.27408Z" fill="#909091"/>
</g>
<defs>
<clipPath id="clip0_2610_22589">
<rect width="32.9082" height="32.9082" fill="white" transform="translate(0 0.483398)"/>
</clipPath>
</defs>
</svg>
