<svg width="128" height="128" viewBox="0 0 128 128" fill="none" xmlns="http://www.w3.org/2000/svg">
<g clip-path="url(#clip0_2523_18908)">
<path d="M64 127.5C99.0701 127.5 127.5 99.0701 127.5 64C127.5 28.9299 99.0701 0.5 64 0.5C28.9299 0.5 0.5 28.9299 0.5 64C0.5 99.0701 28.9299 127.5 64 127.5Z" fill="#26A3D4"/>
<path d="M57.1477 120.25C55.3477 115.75 52.7477 111.65 49.9477 107.7C48.1477 105.15 46.2477 101.85 47.8477 99.2C48.3477 98.35 49.1977 97.65 49.3477 96.65C49.4977 95.35 48.2977 94.3 47.0977 93.7C45.8977 93.1 44.5477 92.65 43.8977 91.5C43.1477 90.25 43.4977 88.6 43.8477 87.15C45.1477 81.25 44.9977 75.05 43.3977 69.25C42.0477 70.75 40.3477 71.95 38.5977 73C35.3977 74.85 31.9477 76.2 28.8977 78.25C22.7977 82.4 18.0977 87.85 16.0977 94.95C15.3977 97.4 14.5477 100 13.6477 102.65C18.0477 108.4 23.4477 113.35 29.5477 117.3C29.6977 116.65 29.8477 116 29.8977 115.35C30.3477 116.35 30.7977 117.3 31.1977 118.3C39.5477 123.35 49.0977 126.55 59.3477 127.3C58.7477 124.9 58.0477 122.55 57.1477 120.25Z" fill="#AA804B"/>
<path d="M43.8011 87.1503C43.5011 88.6003 43.1011 90.2003 43.8511 91.5003C44.5511 92.6503 45.9011 93.1003 47.0511 93.7003C48.2511 94.3003 49.4511 95.3503 49.3011 96.6503C49.2011 97.6503 48.3511 98.3503 47.8011 99.2003C46.2011 101.85 48.1511 105.15 49.9011 107.7C52.7011 111.65 55.3011 115.8 57.1011 120.25C58.0511 122.55 58.7511 124.95 59.2511 127.35C60.4011 127.45 61.5511 127.5 62.7511 127.5L62.3011 121.05C62.1011 117.7 61.8011 114.2 60.2511 111.25C58.7511 108.4 56.1511 106.15 55.2511 103.05C54.5011 100.5 55.0011 97.7003 54.0511 95.2503C53.6511 94.2003 53.0011 93.2503 52.6511 92.2003C52.3511 91.2503 52.3511 90.2003 52.3511 89.2003C52.3511 84.3503 52.3511 79.5503 52.4011 74.7003C52.3511 74.6003 52.3011 74.4503 52.2511 74.3503C51.4011 72.2503 50.8511 70.0003 50.7011 67.7503C50.5511 65.9503 49.2011 64.6003 47.9511 63.3503C47.4511 62.9003 46.9511 62.4003 46.4511 61.9503C46.3511 63.0003 46.2011 64.1003 45.8511 65.1003C45.3511 66.7003 44.4511 68.1003 43.3011 69.3003C44.9511 75.0503 45.1011 81.2503 43.8011 87.1503Z" fill="#886136"/>
<path d="M52.7477 92.1497C53.0477 93.2497 53.7477 94.1997 54.1477 95.1997C55.0977 97.6497 54.5977 100.5 55.3477 103C56.2477 106.1 58.8977 108.35 60.3477 111.2C61.8977 114.2 62.1477 117.65 62.3977 121L62.8477 127.45H64.0477C64.6977 127.45 65.2977 127.45 65.9477 127.4C65.9477 122.2 65.8477 117 65.6477 111.85C65.6477 111.6 65.6477 111.35 65.5977 111.05V110.85C65.5977 110.6 65.5477 110.35 65.5477 110.1V110.05C65.5477 109.75 65.4977 109.5 65.4977 109.2V109C65.4477 108.75 65.4477 108.5 65.3977 108.25V108.15C65.3477 107.85 65.2977 107.6 65.2477 107.3C65.2477 107.25 65.2477 107.2 65.1977 107.15L65.0477 106.4C65.0477 106.35 65.0477 106.3 64.9977 106.3C64.9477 106.05 64.8477 105.75 64.7977 105.5C64.7977 105.45 64.7977 105.45 64.7477 105.4C64.6977 105.15 64.5977 104.95 64.4977 104.7C64.1477 103.85 63.7477 103.05 63.1477 102.3C61.7977 100.55 59.7977 99.3997 58.6477 97.4997C56.4977 94.0497 57.8977 89.5997 57.2977 85.5997C56.6977 81.5997 54.0977 78.2497 52.4477 74.5497C52.4477 79.3997 52.4477 84.1997 52.3977 89.0497C52.4477 90.1497 52.4477 91.1997 52.7477 92.1497Z" fill="#886136"/>
<path d="M64.7523 105.55C64.8523 105.8 64.9023 106.1 64.9523 106.35C64.9523 106.4 64.9523 106.45 65.0023 106.45L65.1523 107.2C65.1523 107.25 65.1523 107.3 65.2023 107.35C65.2523 107.65 65.3023 107.9 65.3523 108.2V108.3C65.4023 108.55 65.4023 108.8 65.4523 109.05V109.25C65.5023 109.55 65.5023 109.8 65.5023 110.1V110.15C65.5023 110.4 65.5523 110.65 65.5523 110.9V111.1C65.5523 111.35 65.5523 111.6 65.6023 111.9C65.8023 117.1 65.8523 122.25 65.9023 127.45C66.2523 127.45 66.6023 127.45 66.9523 127.4C66.9523 126.5 67.0023 125.6 67.0023 124.7C67.1023 121.3 67.1523 117.85 67.8523 114.5C69.4023 107.1 74.0523 100.5 80.1523 96.0497C80.9023 95.4997 81.7023 94.9497 82.2023 94.1997C82.7023 93.4497 82.9023 92.3497 82.4023 91.5997C81.7523 90.6497 80.1523 89.8997 80.7023 88.8497C80.8523 88.5997 81.1023 88.3997 81.3523 88.2997C83.0523 87.6497 85.5523 88.9997 86.5523 87.4497C87.0523 86.6497 86.7523 85.6497 86.4523 84.7497C85.5523 82.0497 85.0023 79.1497 85.3023 76.2997C85.4523 75.0997 85.7523 73.9497 86.2023 72.8497C85.4523 71.9997 84.7523 71.0497 84.1523 70.0497C83.4023 71.0997 82.5023 72.0497 81.6023 72.9497C78.7523 75.7997 75.4023 78.3497 73.4023 81.8497C71.4023 85.3497 70.8523 89.4997 69.3023 93.2497C68.6523 94.8497 67.7523 96.3997 67.0523 97.9997C66.4523 99.4497 65.9523 100.9 65.3523 102.35C65.0523 103.15 64.7023 103.9 64.3523 104.7C64.3523 104.75 64.3523 104.75 64.4023 104.8C64.5023 105.05 64.5523 105.25 64.6523 105.5C64.7523 105.5 64.7523 105.55 64.7523 105.55Z" fill="#886136"/>
<path d="M65.4 109.05C65.35 108.8 65.35 108.55 65.3 108.3C65.35 108.55 65.4 108.8 65.4 109.05ZM65.55 110.9C65.55 110.65 65.5 110.4 65.5 110.15C65.55 110.4 65.55 110.65 65.55 110.9ZM65.5 110.05C65.5 109.75 65.45 109.5 65.45 109.2C65.45 109.5 65.5 109.8 65.5 110.05ZM64.5 104.75C64.6 105 64.65 105.2 64.75 105.45C64.65 105.25 64.55 105 64.5 104.75ZM65.3 108.2C65.25 107.9 65.2 107.65 65.15 107.35C65.25 107.65 65.3 107.9 65.3 108.2ZM65 106.4C64.95 106.15 64.85 105.85 64.8 105.6C64.85 105.85 64.9 106.1 65 106.4Z" fill="#886136"/>
<path d="M113.45 103.849C111.45 98.3494 109.2 92.9494 106.7 87.8994C105.3 85.0494 103.65 82.2494 101.05 80.3994C97.6 77.9494 92.95 77.6994 89.35 75.4994C88.15 74.7994 87.15 73.8994 86.25 72.8494C85.8 73.9494 85.5 75.1494 85.35 76.2994C85.05 79.1494 85.6 81.9994 86.5 84.7494C86.8 85.6494 87.1 86.6494 86.6 87.4494C85.6 88.9494 83.1 87.5994 81.4 88.2994C81.15 88.3994 80.85 88.5994 80.75 88.8494C80.2 89.8494 81.85 90.5994 82.45 91.5994C82.95 92.3994 82.75 93.4494 82.25 94.1994C81.75 94.9494 80.95 95.4994 80.2 96.0494C74.1 100.549 69.45 107.099 67.9 114.499C67.2 117.849 67.1 121.299 67.05 124.699C67.05 125.599 67 126.499 67 127.399C77.35 126.949 87.05 123.999 95.55 119.149C95.65 118.299 95.8 117.499 95.9 116.649C96.3 117.199 96.7 117.699 97.05 118.249C103.25 114.449 108.85 109.549 113.45 103.849Z" fill="#AA804B"/>
<path d="M67.1523 98.0005C67.8523 96.4005 68.7023 94.8505 69.4023 93.2505C70.9523 89.5005 71.5023 85.3505 73.5023 81.8505C75.5023 78.3505 78.8523 75.8005 81.7023 72.9505C82.6023 72.0505 83.4523 71.1005 84.2523 70.0505C83.3023 68.5005 82.5523 66.8005 81.9523 65.1005C80.5023 61.0005 79.6523 56.7005 77.9023 52.7005C77.5523 51.9005 77.1023 51.1005 76.3523 50.7005C75.8523 50.4505 75.2523 50.4505 74.7023 50.4005C68.0523 50.2005 61.3523 50.2505 54.7023 50.4505C53.2023 50.5005 51.6523 50.6005 50.3523 51.3005C48.1523 52.5005 47.2023 55.1505 46.9023 57.6005C46.7523 59.0005 46.7023 60.4505 46.6023 61.8505C47.1023 62.3005 47.6023 62.7505 48.1023 63.2505C49.4023 64.5005 50.7523 65.8505 50.8523 67.6505C51.0023 69.9005 51.5523 72.1505 52.4023 74.2505C54.0023 78.1005 56.7523 81.5505 57.4023 85.6505C58.0023 89.6505 56.6523 94.1005 58.7523 97.5505C59.9023 99.4005 61.9023 100.601 63.2523 102.351C63.8023 103.051 64.2023 103.851 64.5523 104.651C64.9023 103.901 65.2523 103.101 65.5523 102.301C66.0023 100.901 66.5023 99.4005 67.1523 98.0005Z" fill="#D9A27D"/>
<path d="M55.3489 61.9001C57.6489 64.4001 60.2989 66.9001 63.6489 67.4001C67.6489 67.9501 71.4989 65.4001 74.2989 62.5001C80.8989 55.6001 84.4489 45.5501 82.3489 36.2001C81.7489 33.4501 80.6489 30.8001 79.4989 28.2001C77.8989 24.5501 75.9989 20.7001 72.4989 18.7501C71.2489 18.0501 69.8489 17.6001 68.4489 17.3501C63.6489 16.4501 58.2489 17.5001 54.8989 21.0501C52.8489 23.1501 51.6989 25.9501 50.6489 28.7001C47.8989 35.8001 45.4989 43.8001 47.9989 51.0501C49.4489 55.2001 52.3489 58.7001 55.3489 61.9001Z" fill="#ECBA94"/>
<path d="M73.0011 12.5002C77.3511 14.3002 80.4511 18.3002 82.3011 22.6002C84.1011 26.9502 84.8011 31.6502 85.4011 36.3002C86.7511 46.2002 88.1511 56.1002 89.5011 66.0002C90.3011 71.7502 91.2011 77.7502 94.5011 82.5502C93.9511 82.5002 93.4511 82.4002 92.9011 82.3502L93.3511 83.4002C92.8011 83.5502 92.6011 84.4002 93.0011 84.8002C92.6511 84.4502 92.0511 84.8002 91.7011 85.2002C91.2511 85.6502 90.8511 86.1502 90.4011 86.6002C89.9011 86.1502 89.5011 85.6002 89.2511 84.9502C89.2011 85.4002 89.0011 85.8002 88.7011 86.1002C88.3011 85.4002 87.9011 84.6502 87.5511 83.9502C87.2511 84.4502 87.1511 85.0502 87.3011 85.6502C86.5511 86.0002 85.8511 85.1502 85.4511 84.4502C83.9511 81.7002 82.5011 78.9502 81.0011 76.2502C80.0011 79.5002 79.6511 82.9502 80.0511 86.3502C79.8511 84.4502 79.7011 82.5502 79.5011 80.6502C79.4011 81.8002 79.3511 83.0002 79.2511 84.1502C78.8511 83.2502 78.6511 82.2502 78.6511 81.2502C78.5011 81.9502 78.3011 82.7002 78.1511 83.4002C77.6011 80.2002 77.4011 76.9502 77.5511 73.7002C76.5011 71.2502 75.9511 68.5502 75.8511 65.9002C75.8011 64.5002 75.9011 63.0502 76.3011 61.7002C76.8511 59.8502 77.9011 58.2002 78.7511 56.4502C80.6011 52.7002 81.6511 48.5502 81.6511 44.3502C81.6511 41.4502 81.0511 38.3002 78.7511 36.5502C77.6511 35.7002 76.2511 35.3002 75.0011 34.6502C73.7511 34.0002 72.6011 32.9002 72.5511 31.5002C73.0511 32.7502 73.5011 34.0002 74.0011 35.2502C71.6011 32.3002 70.2011 28.5502 70.1011 24.7002C70.6011 28.1502 71.0511 31.6502 71.5511 35.1002C70.9511 34.4002 70.5011 33.5502 70.2011 32.6502C70.1511 33.4002 70.0511 34.1502 70.0011 34.9002C69.1511 31.2002 68.3011 27.4502 67.4011 23.7502C67.7011 26.6502 68.0011 29.5502 68.2511 32.4502C67.4011 29.6002 66.9011 26.7002 66.7011 23.7502V34.5002C65.9511 29.9502 65.6011 25.3502 65.7011 20.7002C63.3511 25.5502 64.2511 31.3002 64.0011 36.7002C63.9511 37.2502 63.5011 38.0502 63.0511 37.6502C62.5011 37.1502 61.9511 36.6002 61.4011 36.1002C61.3511 36.8002 60.1011 36.8502 59.9511 36.1502C59.7511 36.4502 59.6011 36.8002 59.4011 37.1002C59.0011 36.4502 58.2011 36.1002 57.4511 36.2502C57.6011 33.7502 57.9011 31.3002 58.4011 28.8502C57.6011 31.0002 56.7511 33.2502 55.2011 35.0002C54.2011 36.1502 52.9011 37.0502 51.9011 38.2502C49.9511 40.5002 49.1011 43.6002 49.1511 46.6002C49.2011 49.6002 50.0511 52.5002 51.1511 55.3002C51.7511 56.8002 52.3511 58.3002 52.7011 59.8502C53.4011 63.2002 52.6511 66.6502 51.9011 70.0002C51.1511 73.3002 50.4011 76.5502 49.6511 79.8502C49.2511 81.6502 48.8011 83.5002 47.9011 85.1002C47.0011 86.7002 45.4511 88.1002 43.6511 88.3502C44.5511 88.0502 45.3511 87.5502 46.0011 86.8502C45.1511 87.5502 44.1011 88.0502 43.0011 88.2002C43.0011 87.5502 43.5011 86.9002 44.1511 86.7002C43.7511 86.9002 43.3511 87.1502 43.0011 87.3502C42.9011 86.9502 42.9511 86.5502 43.1011 86.2002C42.5511 86.3002 42.0011 86.4502 41.5011 86.7502C41.8011 86.2002 42.1011 85.7002 42.4011 85.1502C42.1011 85.3002 41.7511 85.5002 41.4511 85.6502C41.4511 85.0502 40.7511 84.6002 40.2011 84.8502C40.8511 83.2502 41.7011 81.6502 42.6511 80.2002C41.8511 80.9502 41.0511 81.6502 40.2511 82.4002C40.5511 81.8502 40.9011 81.3502 41.2011 80.8002C40.7511 81.0502 40.4011 81.3502 40.1511 81.8002C40.4011 80.9502 40.6511 80.1002 40.8511 79.2502C40.1511 81.2502 38.4011 82.8002 36.3011 83.2502L37.9511 81.7502C37.3511 81.8502 37.5511 80.6002 38.1011 80.8502C37.9511 81.1002 37.5011 80.8502 37.5011 80.5502C37.5011 80.2502 37.7011 80.0002 37.9011 79.8002C36.5511 80.1002 35.2011 80.4002 33.8011 80.6502C34.2511 80.2002 34.7011 79.8002 35.1011 79.3502C34.4011 79.8002 33.5011 79.8002 32.8011 79.4002C36.0511 76.7002 38.0511 72.7002 39.1011 68.6002C40.1511 64.5002 40.3511 60.2502 40.5511 56.0002C41.1011 45.4002 41.9511 34.6502 46.0011 24.8502C47.5011 21.5002 49.3011 18.1502 51.9511 15.5002C54.6011 12.8502 58.1011 10.9502 61.8511 10.8002C62.8511 10.7502 63.9011 10.8502 64.9011 10.9502C67.6511 11.2002 70.4511 11.4502 73.0011 12.5002Z" fill="#141010"/>
</g>
<defs>
<clipPath id="clip0_2523_18908">
<rect width="128" height="128" fill="white"/>
</clipPath>
</defs>
</svg>
