<svg width="43" height="49" viewBox="0 0 43 49" fill="none" xmlns="http://www.w3.org/2000/svg">
    <path d="M37.355 28.7875C37.685 27.835 37.6625 26.5788 36.8075 24.9738C36.8075 24.9738 35.3862 23.1588 36.8862 20.7887C36.8862 20.7887 38.5437 19.21 36.4137 17.0763C36.201 16.8571 36.0587 16.5792 36.0053 16.2785C35.9518 15.9777 35.9896 15.6678 36.1138 15.3888C36.4663 14.29 36.6763 13.015 36.1663 11.9275C35.585 10.6862 34.0062 10.0525 33.1213 8.99125C31.9428 7.67844 30.9256 6.2294 30.0913 4.675C30.0913 4.675 27.7738 0.49 21.755 0.25H21.245C15.2262 0.49 12.9088 4.675 12.9088 4.675C12.0738 6.2311 11.0553 7.68145 9.875 8.995C8.99 10.0375 7.41125 10.6862 6.83 11.9312C6.32 13.0188 6.53 14.29 6.8825 15.3925C7.00615 15.6717 7.04366 15.9814 6.99021 16.2821C6.93677 16.5827 6.7948 16.8605 6.5825 17.08C4.44875 19.2138 6.11 20.7925 6.11 20.7925C7.61 23.1625 6.18875 24.9775 6.18875 24.9775C5.33 26.5825 5.3075 27.835 5.64125 28.7913C3.15875 30.2087 0.73625 32.5375 0.5 36.25C0.5 36.25 0.63125 40.375 1.14875 45.25C1.25487 46.0697 1.65235 46.8238 2.26857 47.3746C2.88479 47.9254 3.67861 48.2361 4.505 48.25H38.4912C39.3114 48.2359 40.0984 47.9236 40.705 47.3715C41.3117 46.8194 41.6965 46.0652 41.7875 45.25C42.1925 40.855 42.5 36.25 42.5 36.25C42.2637 32.5375 39.8413 30.2087 37.355 28.7875ZM21.5 1.75H21.6987C26.6075 1.93375 28.5987 5.09125 28.7675 5.37625C29.6506 7.02673 30.7269 8.5663 31.9738 9.9625C32.4311 10.473 32.9429 10.932 33.5 11.3312C34.0625 11.7587 34.5988 12.1637 34.7863 12.565C35.0375 13.1012 34.9963 13.8963 34.6625 14.9313C34.1525 16.5175 34.745 17.5562 35.33 18.1375C35.7837 18.5912 36.23 19.2288 35.8175 19.7125L35.7238 19.7875L35.5962 19.9862C34.0287 22.4575 34.7675 24.7262 35.51 25.7725C35.9712 26.665 36.125 27.4412 35.975 28.0938C34.6081 27.4719 33.1716 27.0162 31.6963 26.7362C30.4896 26.5367 29.3974 25.9032 28.625 24.955C30.0012 22.735 31.2125 19.5025 31.8425 14.7887C31.8425 14.7925 24.875 11.875 22.25 6.4375C22.5012 4.1875 21.9987 2.6875 21.4775 1.75375H21.5V1.75ZM21.5413 8.275C23.96 12.1862 28.2125 14.65 30.1963 15.6663C28.205 28.0413 22.0475 28.2963 21.6987 28.3H21.4738C14.87 28.3 13.16 19.0112 12.7625 15.7825C17.6338 13.84 20.2063 10.75 21.5413 8.2825V8.275ZM21.4738 29.8037H21.695C21.9537 29.8037 24.9912 29.725 27.7512 26.2075C28.5625 27.0836 29.6011 27.7171 30.7512 28.0375C29.6112 34.1537 25.7412 38.5 21.2975 38.5C16.8538 38.5 13.0287 34.1875 11.8812 28.1388C13.0517 27.8837 14.1288 27.3101 14.9938 26.4812C16.4975 28.4162 18.5825 29.8113 21.4738 29.8113V29.8037ZM7.47125 25.7725C8.22125 24.7225 8.94875 22.4575 7.385 19.9862L7.2875 19.8288L7.1525 19.7013C7.06292 19.5745 7.01093 19.425 7.0025 19.27C7.07328 18.8281 7.3042 18.4276 7.65125 18.145C8.23625 17.56 8.82875 16.525 8.31875 14.9387C7.985 13.9037 7.94375 13.1088 8.195 12.5725C8.3825 12.1713 8.915 11.7662 9.48125 11.3387C10.0449 10.9406 10.5631 10.4816 11.0262 9.97C12.2714 8.57605 13.3465 7.03901 14.2288 5.39125C14.3675 5.155 15.9613 2.6275 19.7712 1.9375C20.1462 2.38 21.1025 3.8125 20.705 6.59125C19.625 9.03625 17.0562 12.7862 11.1575 14.7925C11.1575 14.7925 11.4912 20.7925 14.1575 25.225C13.3952 26.0247 12.3912 26.5517 11.3 26.725C9.82463 27.0049 8.38813 27.4607 7.02125 28.0825C6.85625 27.4412 7.01 26.665 7.47125 25.7725ZM40.2987 45.1263C40.2395 45.5662 40.0261 45.9708 39.6964 46.2681C39.3668 46.5655 38.9424 46.7362 38.4987 46.75H4.505C4.05098 46.7385 3.61521 46.5688 3.27291 46.2703C2.9306 45.9718 2.70322 45.5632 2.63 45.115C2.16125 40.6787 2.01125 36.865 1.98875 36.2837C2.375 31.1687 8 29.125 10.4188 28.4725C11.7163 35.2225 16.1863 40 21.2938 40C26.4013 40 30.9275 35.1663 32.2025 28.375C34.3475 28.8888 40.5838 30.8463 41 36.25C40.9475 36.9588 40.6588 41.1587 40.295 45.1263H40.2987Z"
          fill="#888888"/>
</svg>
