<svg width="128" height="128" viewBox="0 0 128 128" fill="none" xmlns="http://www.w3.org/2000/svg">
<g clip-path="url(#clip0_2523_19290)">
<path d="M127.502 63.4504C127.802 98.9504 98.9523 127.8 63.4523 127.5C29.5023 127.2 0.802319 98.5004 0.502319 64.5504C0.202319 29.0504 29.0523 0.200427 64.5523 0.500427C98.5023 0.800427 127.202 29.5004 127.502 63.4504Z" fill="#E17D37"/>
<path d="M54.1481 65.3997C54.2981 66.3497 54.3981 67.3497 54.4481 68.2997C54.9981 70.4997 56.2981 72.4497 58.0981 73.7997C58.9481 73.2497 65.3481 69.0997 72.3981 64.6497C78.5481 60.7497 80.0481 58.1497 80.3981 57.2997C80.3981 57.1497 80.3481 56.9497 80.3481 56.7997C79.7481 50.8497 79.7981 44.7997 79.8981 38.8497C76.0981 38.8497 72.3481 38.7997 68.5481 38.7997C67.2481 38.7997 65.9481 38.7997 64.6981 39.1497C62.9481 39.6497 61.4981 40.8497 60.0981 42.0497C58.1481 43.6997 56.1481 45.3497 54.1981 46.9997C53.5981 47.4997 52.9481 48.0497 52.7981 48.7997C52.6481 49.4997 52.8981 50.2497 52.8981 50.9997C52.8981 52.3997 51.8981 53.6997 51.7981 55.0997C51.7481 55.8997 51.9981 56.7497 52.2481 57.5497C53.0481 60.0997 53.7481 62.6497 54.1481 65.2497C54.1481 65.1497 54.1481 65.0997 54.1981 64.9997C54.1481 65.1497 54.1481 65.2997 54.1481 65.3997ZM58.0481 73.9997C57.9981 73.9997 57.9981 74.0497 57.9481 74.0497C57.9981 74.0997 58.0481 74.0997 58.0981 74.1497L58.0481 73.9997Z" fill="#D3AA6F"/>
<path d="M61.7977 84.2994C61.0477 85.0994 60.3977 85.9494 60.1977 87.0494L60.1477 86.9994C60.5477 92.7994 60.6977 98.5994 60.3477 104.349C62.8977 96.9994 65.6977 89.7994 69.0977 82.8494L63.3977 88.6494L61.7977 84.2994Z" fill="#859199"/>
<path d="M60.1511 86.9997L60.2011 87.0497C60.4011 85.9997 61.0511 85.1497 61.8011 84.2997L58.1011 74.1497C58.0511 74.0997 58.0011 74.0997 57.9511 74.0497C57.0511 74.7497 56.7511 75.9997 56.3511 77.0997C55.6511 79.1997 54.5511 81.1497 53.5511 83.0997C53.5511 83.9497 53.6011 84.7997 53.8011 85.6497V85.7497C56.0511 85.3497 58.3511 85.7997 60.1511 86.9997Z" fill="#2E4555"/>
<path d="M72.4011 64.65C65.3511 69.1 58.9511 73.25 58.1011 73.8C58.1511 73.8 58.1511 73.85 58.2011 73.85C58.1511 73.9 58.1011 73.95 58.0511 73.95L58.1011 74.1L61.8011 84.25L63.4011 88.6L69.1011 82.8C72.0011 76.9 75.3011 71.25 79.1511 65.95C80.4511 64.2 81.8011 62.45 82.6011 60.5L80.5011 57C80.5011 57 80.5011 57.1 80.4011 57.3C80.0511 58.15 78.6011 60.75 72.4011 64.65Z" fill="#BBC2C6"/>
<path d="M52.902 73.1006C52.802 73.6006 52.652 74.1506 52.502 74.6506C52.352 75.2506 52.152 75.8506 51.952 76.4506C51.002 79.9006 50.952 83.6506 51.902 87.1506C52.302 85.7506 52.952 84.4506 53.602 83.1506C54.602 81.1506 55.702 79.2506 56.402 77.1506C56.752 76.0506 57.102 74.8006 58.002 74.1006C58.052 74.1006 58.052 74.0506 58.102 74.0506C58.152 74.0006 58.202 73.9506 58.252 73.9506C58.202 73.9506 58.202 73.9006 58.152 73.9006C56.352 72.5506 55.202 70.7006 54.602 68.5506C54.352 67.6006 54.302 66.4506 54.352 65.5006C54.352 65.4006 54.152 65.2506 54.152 65.1506C54.152 65.2506 54.152 65.3006 54.102 65.4006C53.902 66.6506 53.752 67.9506 53.552 69.2006C53.452 69.8006 53.352 70.4006 53.302 71.0006C53.252 71.3006 53.202 71.5506 53.152 71.8506C53.102 72.1506 53.002 72.6506 52.902 73.1006Z" fill="#BBC2C6"/>
<path d="M82.1467 45.9998C82.5467 43.4498 82.9467 40.8998 82.6467 38.3498C82.3467 36.0498 81.4967 33.8998 80.6467 31.7498C79.3467 28.4998 77.9967 25.1998 76.0967 22.1998C74.1967 19.1998 71.7467 16.4998 68.6467 14.8498C67.9467 14.4998 67.2467 14.1498 66.4967 13.9998C64.2967 13.4998 62.0467 14.2998 59.9467 15.0998C57.0967 16.1498 54.0467 17.3998 52.4967 20.0498C50.0467 20.8498 47.8467 22.4498 46.3467 24.4998C44.4967 26.9498 43.6467 29.9998 43.1467 33.0498C42.9967 33.7998 42.8967 34.5498 42.9467 35.2998C43.0467 36.3998 43.4967 37.4498 43.8467 38.4998C45.6967 43.8498 44.9467 49.7998 46.2967 55.2998C46.6467 56.6998 47.1467 58.0498 47.8967 59.2998C48.6467 60.4998 49.6467 61.5498 50.6467 62.5998C52.5967 64.6498 54.6467 66.7498 57.3467 67.5498C61.3467 68.7498 65.5467 66.7998 69.0967 64.6498C71.5967 63.0998 73.9967 61.4498 76.3467 59.7498C77.4967 58.8998 78.6467 58.0498 79.4467 56.8998C80.7467 55.1498 81.0967 52.8998 81.4467 50.7498C81.6467 49.0498 81.8967 47.5498 82.1467 45.9998Z" fill="#EEC98F"/>
<path d="M85.2989 37.95C85.3989 39.6 85.2989 41.3 85.0489 42.9C84.9989 43.35 84.8989 43.85 84.6489 44.25C84.4489 44.6 84.1989 44.85 83.9489 45.15C83.4989 45.75 83.1989 46.5 82.8489 47.2C82.6489 47.65 82.4489 48.1 82.0489 48.4C81.6489 48.7 81.0489 48.75 80.7489 48.35C80.4989 48.05 80.4989 47.6 80.5489 47.15C80.6489 46.45 80.7489 45.75 80.9489 45.1C81.0989 44.75 81.2489 44.45 81.3489 44.1C81.5989 43.35 81.4989 42.55 81.4989 41.8C81.4489 40.7 81.4989 39.55 81.5989 38.45C81.6989 37.2 81.9989 35.85 82.9989 35.1C83.2989 34.9 83.6989 34.75 84.0489 34.85C84.4489 34.95 84.6989 35.3 84.8989 35.7C85.1989 36.5 85.2989 37.25 85.2989 37.95Z" fill="#D3AA6F"/>
<path d="M85.0509 37.8002C86.7509 29.2002 83.1009 19.7002 76.0009 14.5002C74.9509 13.7502 73.8509 13.0502 72.6009 12.7002C71.6509 12.4002 70.6509 12.3502 69.7509 11.9502C69.0509 11.6502 68.4009 11.2002 67.7009 10.8002C65.1509 9.45019 62.0509 9.50019 59.3009 10.4502C56.6009 11.4002 54.2009 13.1502 52.0509 15.0502C51.6509 15.4002 51.3009 15.7502 50.8509 15.9502C50.4509 16.1502 50.0009 16.3002 49.5509 16.4502C47.9009 17.1002 46.6509 18.4002 45.6509 19.8502C43.1509 23.2002 41.5009 27.3002 41.6009 31.4502C41.6009 31.6502 41.6509 31.9002 41.8009 32.0502C41.9009 32.1502 42.1009 32.1502 42.2009 32.2502C42.3009 32.3502 42.3009 32.5002 42.3009 32.6002C42.3009 34.3002 42.2509 36.0002 42.2509 37.7002C42.5009 37.4002 42.7509 37.1502 43.0009 36.8502C42.5009 39.6502 43.4009 42.6002 45.3509 44.7002C46.6509 41.2002 43.8009 37.2502 44.9509 33.7502C44.7509 33.8002 44.5509 33.9502 44.4509 34.1502C44.8509 32.5002 45.2009 30.8502 45.3509 29.2002C45.0509 29.3002 44.7509 29.5002 44.5509 29.7002C45.0509 28.7502 45.6009 27.8502 46.2009 27.0002C49.8509 25.3502 53.7509 24.1502 57.4009 22.5502C61.1009 20.9502 64.6509 18.8002 67.1509 15.6002C65.9509 18.5502 63.8509 21.1502 61.2009 22.9502C63.9009 21.0002 66.7509 18.9502 68.3509 16.0002C66.8009 18.6002 65.3009 21.1502 63.7509 23.7502C65.9509 22.0502 67.6509 19.7002 68.6509 17.1502C68.3509 18.4502 68.0509 19.7502 67.7009 21.1002C68.1009 20.5002 68.5009 19.8502 68.8509 19.2002C68.8009 20.5502 69.0009 21.9002 69.3509 23.2002C69.5009 22.5002 69.6509 21.8502 69.8009 21.1502C69.5509 22.9002 69.8509 24.7002 70.6509 26.3002C70.4509 25.8502 70.4509 25.3002 70.6009 24.8002C71.0009 26.7502 71.7009 28.6002 72.7509 30.2502C72.6009 29.7002 72.5009 29.1502 72.3509 28.6002L74.1509 30.7002C74.9009 32.0502 75.5509 33.4502 76.0509 34.9502L75.9009 33.4502C76.2009 34.3502 76.5509 35.2502 77.0509 36.0502C77.5009 37.4502 78.4009 38.6002 79.1509 39.8502C79.9509 41.2002 80.6509 42.7502 80.2509 44.2502C81.6509 44.0502 82.2009 42.3002 82.5009 40.9002C82.9009 39.4502 83.6509 37.7502 85.0509 37.8002Z" fill="#EDF0F2"/>
<path d="M85.7 78.8494C85.45 79.4994 85.15 80.1994 84.5 80.5494C84.1 80.7494 83.6 80.7494 83.15 80.7494C81.25 80.6994 79.35 80.6994 77.45 80.6494C78.45 82.2994 79.45 83.8994 80.5 85.5494C80.7 85.8994 80.95 86.2994 80.95 86.6994C80.95 87.0494 80.75 87.3994 80.55 87.6994C77.3 93.3494 73.65 98.7994 70.4 104.499C66.2 111.899 62.65 119.599 59 127.299C60.65 127.449 62.35 127.499 64.05 127.499C87.3 127.499 107.65 114.999 118.7 96.3494C118.7 95.9494 118.65 95.4994 118.65 95.0994C118.45 91.4994 118.2 87.6994 116.35 84.5994C113.75 80.1994 108.6 78.0994 103.95 76.0994C98.35 73.6494 92.9 70.8994 87.6 67.8494C88.55 71.4994 87.1 75.3494 85.7 78.8494ZM51.6 71.2494C51.45 71.2994 51.3 71.3494 51.25 71.3994C51.35 71.3494 51.5 71.2994 51.6 71.2494ZM34.25 107.449C34.25 104.899 34.25 102.349 34.6 99.7994C35.15 95.9994 36.45 92.3494 37.75 88.7494C38 88.0494 38.25 87.2994 38.75 86.7494C39.85 85.3994 41.75 85.0994 43 83.8994C42.35 82.8994 41.45 82.0994 40.4 81.4994C42.75 77.0494 46.6 73.4494 51.2 71.3994C51.2 71.3994 51.25 71.3994 51.25 71.3494C48.75 72.3994 45.8 74.1494 43.15 75.1494C39.45 76.5994 35.5 77.6494 32.5 80.1994C30.9 81.5494 29.7 83.2494 28.65 85.0994C24.2 92.8494 23.35 102.099 22.1 110.949C22.05 111.149 22.05 111.349 22 111.599C25.75 114.899 29.9 117.799 34.35 120.149C34.3 115.949 34.25 111.699 34.25 107.449Z" fill="#59413F"/>
<path d="M51.6023 74.3003C51.5523 74.4503 51.5023 74.5503 51.4523 74.6503C50.7523 76.0503 50.1023 77.5503 49.5023 79.0503C44.0023 92.9003 40.4023 107.55 38.8523 122.35C39.7023 122.75 40.6023 123.1 41.5023 123.4C41.8023 121.9 41.9023 120.5 42.1523 118.75C42.3523 117.2 43.3023 115.15 43.5523 113.6C43.7023 112.55 44.0523 111.5 44.4023 110.45C47.0023 102.45 49.9523 94.6003 53.3523 86.9003C53.4523 86.6003 53.7523 86.1503 53.9523 85.6503C53.7523 84.8003 53.7023 83.9503 53.7023 83.1003C53.0523 84.4003 52.4523 85.7003 52.0023 87.1003C51.0523 83.6003 51.0523 79.9003 52.0523 76.4003C52.2023 75.8003 52.4023 75.2003 52.6023 74.6003C52.7523 74.1003 53.6023 72.0003 53.7023 71.4503C53.5523 71.4503 53.4023 71.5003 53.2523 71.5503V71.6503C52.6023 72.5503 52.0523 73.4003 51.6023 74.3003Z" fill="#859199"/>
<path d="M44.3489 110.45C43.9989 111.5 43.6989 112.5 43.4989 113.6C43.2489 115.15 42.3489 117.2 42.0989 118.75C41.8489 120.5 41.7489 121.9 41.4489 123.4C45.1989 124.85 49.1489 125.9 53.1989 126.6C53.4489 125.7 53.7489 124.75 54.0489 123.85C56.0489 117.35 58.0489 110.8 60.2989 104.35C60.6989 98.5999 60.4989 92.8 60.0989 87C58.2989 85.8 55.9989 85.35 53.8489 85.8V85.6999C53.6489 86.1499 53.3989 86.6499 53.2489 86.9499C49.9489 94.5999 46.9489 102.5 44.3489 110.45Z" fill="#2E4555"/>
<path d="M53.2523 126.6C55.1523 126.9 57.0523 127.15 58.9523 127.3C62.6023 119.6 66.1523 111.9 70.3523 104.5C73.6023 98.8 77.2523 93.35 80.5023 87.7C80.7023 87.4 80.8523 87.05 80.9023 86.7C80.9023 86.3 80.7023 85.9 80.4523 85.55C79.4523 83.9 78.4523 82.3 77.4023 80.65C79.3023 80.7 81.2023 80.7 83.1023 80.75C83.5523 80.75 84.0523 80.75 84.4523 80.55C85.1023 80.25 85.4023 79.5 85.6523 78.85C87.0523 75.35 88.5023 71.5 87.4523 67.85V67.75C86.6523 65.05 84.7023 62.3 82.7023 60.25C82.6523 60.35 82.6023 60.4 82.6023 60.5C81.7523 62.5 80.4023 64.2 79.1523 65.95C75.2523 71.25 71.9523 76.9 69.1023 82.8C65.7023 89.7 62.9023 96.95 60.3523 104.3C58.1023 110.75 56.1023 117.3 54.1023 123.8C53.8023 124.75 53.5023 125.65 53.2523 126.6ZM52.1523 71.05C52.0023 71.1 51.9023 71.15 51.7523 71.2C51.7023 71.2 51.6523 71.25 51.6023 71.25C51.8023 71.2 51.9523 71.1 52.1523 71.05Z" fill="#6E5857"/>
<path d="M51.6 71.2499C51.45 71.2999 51.35 71.3499 51.2 71.4499C46.65 73.4999 42.75 77.0999 40.4 81.5499C41.45 82.1499 42.35 82.9499 43 83.9499C41.75 85.1499 39.85 85.4499 38.75 86.7999C38.25 87.3999 38 88.0999 37.75 88.7999C36.45 92.3999 35.15 96.0499 34.6 99.8499C34.25 102.35 34.25 104.95 34.25 107.5C34.25 111.75 34.3 116 34.4 120.25C35.85 121 37.3 121.7 38.8 122.35C40.4 107.5 44 92.8499 49.5 78.9999C50.1 77.4999 50.7 76.0499 51.45 74.5999C51.5 74.4999 51.55 74.3999 51.6 74.2499C51.9 73.4999 52.25 71.8999 53.2 71.5499C53.25 71.2999 53.3 71.0499 53.3 70.8499C52.95 70.7999 52.55 70.8999 52.15 70.9999C52.05 71.1499 51.85 71.1999 51.6 71.2499Z" fill="#6E5857"/>
<path d="M52.1523 71.0497C51.9523 71.0997 51.8023 71.1997 51.6023 71.2497C51.8523 71.1997 52.0523 71.1497 52.1523 71.0497ZM51.6023 74.2997C52.0523 73.3997 52.6023 72.5497 53.1523 71.6997V71.5997C52.2523 71.9497 51.9023 73.4997 51.6023 74.2997Z" fill="#6E5857"/>
</g>
<defs>
<clipPath id="clip0_2523_19290">
<rect width="128" height="128" fill="white"/>
</clipPath>
</defs>
</svg>
