<svg width="128" height="128" viewBox="0 0 128 128" fill="none" xmlns="http://www.w3.org/2000/svg">
<g clip-path="url(#clip0_2523_19063)">
<path d="M64 127.5C99.0701 127.5 127.5 99.0701 127.5 64C127.5 28.9299 99.0701 0.5 64 0.5C28.9299 0.5 0.5 28.9299 0.5 64C0.5 99.0701 28.9299 127.5 64 127.5Z" fill="#38B29A"/>
<path d="M101.504 109.8C100.954 108.85 99.8039 108.25 98.7539 108.4C97.9039 107.65 98.9039 106.299 99.9539 105.85C100.954 105.35 102.304 104.65 102.054 103.549C101.904 102.799 101.104 102.399 100.554 101.899C100.004 101.35 99.9539 100.149 100.704 100.099C99.5539 99.4995 98.4539 98.8995 97.3039 98.2995C98.4539 98.3995 99.2039 96.9495 98.9539 95.8495C98.6539 94.7495 97.7039 93.9495 96.8039 93.1995C98.4039 93.2995 100.704 92.4995 100.204 90.9995C99.4539 90.9495 98.7039 90.8995 97.9539 90.8995C98.0539 91.6495 97.7039 92.3995 97.1039 92.8495C95.5539 92.4995 94.1539 91.6495 93.2039 90.3995C95.2039 90.6995 97.3539 89.5495 98.2539 87.7495C97.0039 87.5995 95.6039 87.5495 94.6039 88.2995C93.6039 89.0495 93.6039 91.0495 94.8539 91.3495C95.8539 89.8995 95.8039 87.8495 94.7539 86.4495C95.9539 85.9495 98.0539 86.0495 97.8039 87.3495C98.0039 86.7495 98.1539 86.1495 98.3539 85.5495C101.054 86.3995 103.954 82.8495 102.604 80.3495C100.604 79.9995 98.7539 79.0995 97.2539 77.7495C98.1539 76.8995 99.0539 76.0495 99.5039 74.8995C99.9539 73.7495 99.8039 72.2995 98.8539 71.5495C98.5539 71.2995 98.1039 71.1495 97.9539 70.7495C97.6039 69.8495 99.1539 69.2995 99.3039 68.3495C99.4039 67.8495 99.1039 67.3995 99.0539 66.8995C98.9539 65.8495 99.9039 65.0495 100.254 64.0495C100.604 63.0495 99.5039 61.5995 98.8039 62.3495C99.3039 61.4995 99.6539 60.5995 99.8039 59.6495C98.0039 58.5995 97.1039 56.1495 97.8039 54.1995C97.2039 53.8995 96.6039 53.6495 96.0039 53.3495C98.1039 53.7495 100.104 54.6995 101.754 56.0995C102.154 53.7995 102.004 50.6995 99.7539 50.1495C100.804 50.0995 101.904 50.0495 102.954 49.9995C101.554 49.1995 100.304 48.1995 99.2539 46.9495C97.6039 44.9495 96.6539 41.6995 98.6039 39.9495C97.6539 39.7995 96.6539 39.6495 95.7039 39.4995C96.4539 38.6995 96.9539 37.6495 97.1039 36.5495C96.6039 36.4995 96.1039 36.3995 95.6039 36.3495C95.4539 34.1495 94.6539 31.9495 93.3539 30.1495C92.2539 31.0995 90.7039 29.3495 90.7039 27.8995C90.7539 26.4495 91.3539 24.7995 90.5539 23.5995C90.1539 22.9995 89.5039 22.6995 88.9039 22.3495C87.7039 21.7495 86.5039 21.0995 85.3039 20.4995C85.8539 18.6995 84.3539 16.8495 82.6039 16.2495C80.8539 15.6495 78.9039 16.0495 77.1039 16.3995C77.5039 15.6495 77.0039 14.7495 76.3039 14.3495C75.6039 13.9495 74.7539 13.9495 73.9039 13.9495C72.0039 13.9495 72.6539 12.6995 70.7539 12.6995C70.9039 10.9495 68.5039 12.1495 68.2539 10.3995C67.5039 10.6495 66.5039 9.14949 65.8039 9.44949C65.9039 8.34949 64.4539 7.74949 63.4039 7.99949C62.3539 8.24949 61.5039 9.04949 60.5039 9.44949C58.0039 10.4995 55.2539 9.19949 52.6539 8.44949C50.0539 7.69949 46.5539 7.89949 45.6039 10.4495C45.3039 11.1995 45.3039 12.0995 44.7039 12.6495C43.7039 13.5495 41.9539 12.6995 40.8039 13.3995C40.0039 13.8495 39.7539 14.8995 39.0539 15.4995C38.4539 15.9995 37.7039 16.1495 36.9539 16.3495C33.9039 17.2495 31.6039 20.0995 31.2539 23.2495C31.1539 24.2495 31.2039 25.2495 30.8539 26.1995C30.1039 28.0495 27.8039 29.0995 27.4539 31.0995C27.2539 32.0495 27.5539 33.0495 27.1539 33.9495C26.8039 34.6495 26.1039 35.0995 25.6039 35.6995C24.3039 37.2995 24.8539 39.6495 25.2539 41.6995C25.3539 42.2495 25.4039 42.7995 25.1039 43.2495C24.8539 43.5995 24.4039 43.7495 24.0039 43.9495C21.2539 45.2495 20.0539 48.4495 19.1039 51.2995C19.4539 51.4995 19.7539 51.6495 20.1039 51.8495C18.6539 54.4995 17.6539 57.3995 17.1539 60.3995C16.8539 62.1995 17.1539 64.6495 18.9539 64.9495C16.9039 66.2995 16.5539 69.0995 16.4039 71.5495C16.2539 74.1995 16.1039 76.8995 15.9039 79.5495C15.8039 81.0995 16.4539 83.3495 18.0039 82.9995C17.7039 85.3995 17.8539 87.8495 18.3539 90.2495C15.5539 93.5995 14.9539 98.6495 16.9039 102.549L17.8039 98.7995C17.0539 100.2 16.8039 101.899 17.1539 103.449C17.9539 103.199 18.7539 102.899 19.5539 102.649C18.0039 108.049 21.3039 114.299 26.6039 116.15C27.2039 116.35 27.8539 116.5 28.4039 116.25C28.9539 116 29.3039 115.2 28.9039 114.75C27.4539 115.149 25.7539 114.1 25.5539 112.6C27.1039 110.7 28.1039 108.349 28.4539 105.95C27.8039 104.849 26.1039 106.2 26.0039 107.5C25.9039 108.75 26.0539 110.399 24.9039 110.95C23.9039 109.749 24.2539 107.7 25.5539 106.85C25.1039 106.1 23.7539 106.499 23.4539 107.35C23.1539 108.2 23.5539 109.149 23.9039 109.95C24.3039 110.749 24.7039 111.65 24.4039 112.55C22.7539 111.45 21.9539 109.25 22.4539 107.4C23.0039 105.5 24.8039 104.049 26.8039 104C26.0039 104.75 24.9539 105.25 23.8539 105.3C23.1039 106.2 23.8539 107.799 25.0039 107.95C26.1539 108.099 27.2539 107.049 27.3039 105.85C27.3539 104.7 26.5039 103.599 25.4539 103.099C24.9039 103.499 24.5039 104.149 24.4039 104.85C23.2039 104.2 22.8039 102.5 23.6039 101.399C24.4539 101.35 25.3539 101.299 26.2039 101.249C24.8539 101.2 23.5039 101.399 22.2539 101.749C22.0539 102.85 22.5039 104.049 23.4039 104.7C22.7039 103.049 22.7039 101.149 23.3539 99.4995C24.7539 99.1495 26.2539 99.1495 27.6539 99.4995C27.1539 99.7995 26.6539 100.149 26.2039 100.449C26.2539 101.499 27.2039 102.45 28.2539 102.549C28.5039 101.35 28.3039 100.1 27.8039 98.9995C27.6539 98.6495 27.4039 98.3495 27.0539 98.2495C26.7039 98.1995 26.3039 98.5995 26.5539 98.8995C26.7039 98.0495 26.9039 97.1495 27.0539 96.2995C26.1539 96.1995 25.2539 96.3495 24.5039 96.7995C23.8539 95.4495 25.2539 93.6495 26.7039 93.9495C28.1539 94.2495 28.8039 96.4495 27.6539 97.4495C28.2539 98.3495 29.9539 97.8495 30.0039 96.7495C30.0539 95.6995 28.4539 94.9995 27.7039 95.7995C27.8039 94.5995 27.9039 93.3995 28.0039 92.1495C27.6039 91.6495 26.7539 91.9495 26.3539 92.4495C26.0039 92.9995 25.8539 93.6495 25.4539 94.1495C24.4039 95.4995 22.2539 94.8495 20.7539 94.0995C20.1539 96.3495 21.5539 98.9495 23.7039 99.7495C24.5039 98.2495 23.3539 96.1495 21.7039 95.9495C21.5539 97.0495 21.3539 98.1495 21.2039 99.2495C19.7039 97.8495 19.0539 95.6495 19.5039 93.6995C21.1039 92.9495 22.8539 92.4995 24.6039 92.4995C22.9039 92.0995 22.5539 89.2995 24.1039 88.4995C25.6539 87.6995 27.7539 89.6495 27.0539 91.2495C29.3039 89.8995 31.8539 89.0995 34.5039 88.9495L32.2539 95.3995C33.8539 95.0995 34.0539 92.8995 34.8539 91.4995C36.1039 89.2495 39.1039 88.8495 41.6539 88.6995L52.3039 88.0995C53.1539 88.0495 54.0039 87.9995 54.7539 88.3495C55.5039 88.6995 56.0039 89.3495 56.6039 89.9495C59.1039 92.5495 62.7039 93.9495 66.3039 93.6995C62.9039 94.5495 59.2039 91.1995 59.7539 87.7495C60.3539 87.6995 61.0039 87.5995 61.6039 87.5495C62.1039 90.7495 64.2039 93.5995 67.1039 94.9495C70.0039 96.2995 73.6039 96.1495 76.3539 94.4995C77.7039 93.6995 78.9039 91.9495 78.0039 90.6995C77.3539 89.7995 76.1039 89.7495 75.0539 89.3495C74.0039 88.9495 73.1039 87.5495 73.9539 86.8495C74.8039 86.7995 75.6539 86.7495 76.4539 86.6995C76.8539 87.6995 76.7039 88.8495 76.1039 89.6995C76.7039 89.6495 77.3039 89.6495 77.9039 89.5995C79.1039 88.6495 77.8039 86.7495 76.6039 85.8495C75.3539 84.9495 74.0039 83.1995 75.1039 82.0995C75.5039 81.6995 76.1539 81.5995 76.7039 81.2995C77.2039 80.9995 77.5539 80.1995 77.0539 79.8495C78.1039 80.0995 79.2039 79.2495 79.6539 78.2495C80.1039 77.2495 80.0539 76.0995 80.0039 74.9995C79.9539 73.4995 79.8539 71.9495 79.8039 70.4495C81.9039 71.4495 82.8039 74.2995 81.6539 76.2995C81.2539 76.9995 80.6539 77.5995 80.3039 78.3495C79.3539 80.5995 82.2039 83.3495 84.4039 82.2495C84.9039 84.3995 81.9039 85.4495 80.4539 87.1495C79.1039 88.6995 79.2539 91.2995 80.7539 92.6995C82.2539 94.0995 84.8539 94.0495 86.3039 92.5995C87.0539 93.3495 86.6539 94.5995 85.9539 95.3495C85.2539 96.0995 84.3039 96.6495 83.7539 97.4995C83.2039 98.3495 83.3039 99.7995 84.3039 100.099C85.0039 100.299 85.8539 99.7995 86.5039 100.149C87.2039 100.549 87.1039 101.549 86.7539 102.249C86.4039 102.95 85.8539 103.649 85.9539 104.4C87.2539 104.65 88.6539 104.2 89.6039 103.199C89.5039 102.399 89.4039 101.649 89.3039 100.849C88.6039 100.799 87.9039 100.7 87.2039 100.649C87.0539 99.8495 86.8539 99.0995 86.7039 98.2995C88.3039 97.9495 89.9039 99.6495 89.5039 101.249C90.6039 101.649 92.0039 100.7 92.0039 99.4995C90.7539 99.3495 89.5539 98.7995 88.6539 97.9495C89.5039 97.4995 90.6539 97.5495 91.4539 98.0495C90.2039 97.8995 89.3539 96.3995 89.9039 95.2495C91.9039 95.0995 93.2539 98.1495 91.7539 99.4995C93.0039 100.299 94.6539 100.549 96.1039 100.099C95.3539 98.0495 93.7539 96.3495 91.7039 95.4995C90.9539 95.1995 90.1539 94.9995 89.5539 94.4495C88.9539 93.8995 88.7539 92.8495 89.4039 92.3495C91.1539 92.4995 92.5539 90.1995 91.6039 88.7495C92.6539 89.7995 93.7539 90.8995 94.3039 92.2995C94.8539 93.6995 94.7039 95.4495 93.5539 96.4495C94.8539 95.9995 96.4539 96.9995 96.6539 98.3495C96.8039 99.4995 96.3039 101.049 97.3039 101.549C97.6039 101.7 98.0039 101.7 98.3039 101.899C99.0039 102.399 98.6039 103.45 98.3539 104.3C97.8539 106.75 99.3039 109.3 101.504 109.8Z" fill="#10100F"/>
<path d="M73.649 30.6494C73.649 32.3994 73.649 34.1994 73.149 35.8994C72.649 37.6994 71.599 39.2994 70.649 40.9494C67.049 47.2994 64.999 54.4494 64.849 61.6994C64.799 63.8994 64.949 66.0994 65.049 68.2994C65.299 72.3994 65.499 76.4994 65.749 80.5994C65.799 81.8494 65.899 83.1494 66.349 84.3494C66.749 85.3494 67.449 86.2494 68.099 87.1494C69.999 89.5994 71.849 92.0494 73.749 94.4994C80.499 86.7494 84.499 76.9494 86.249 66.9494C87.999 56.9494 87.549 46.6494 86.149 36.5494C85.899 34.8994 85.6489 33.1994 85.1989 31.5994C83.0989 24.2494 76.899 18.4494 69.749 15.3494C69.149 16.3494 69.699 17.5994 70.249 18.5994C71.399 20.7494 72.6489 22.8494 73.1989 25.1994C73.6489 26.9994 73.649 28.7994 73.649 30.6494Z" fill="#10100F"/>
<path d="M94.8011 113.35C87.3511 105.1 79.8011 96.8497 71.0011 90.0497C70.0511 89.3497 69.1011 88.5997 68.2011 87.7997C66.0011 85.9497 64.0511 83.8497 63.5511 81.0497C68.0511 82.6497 72.6011 84.2997 76.4011 87.1997C79.2011 89.3497 81.5011 92.1497 83.7011 94.8997C88.6011 100.95 93.5011 106.95 98.4011 113C99.1511 113.95 99.9511 114.9 100.651 115.85C99.8511 116.4 99.1011 116.95 98.3011 117.45C97.2011 116.05 96.0011 114.65 94.8011 113.35Z" fill="#0B2C48"/>
<path d="M45.8503 68.5507C46.3503 66.0507 46.9003 63.5507 47.4003 61.1007C47.7503 59.4507 48.3003 57.5007 49.7503 56.8507C51.3503 56.1507 53.0503 57.3007 54.4003 58.4007C57.1503 60.5507 59.8503 62.7007 62.6003 64.8507C64.3503 66.2507 66.2503 67.6507 68.4503 67.6507C67.6503 74.4007 67.5003 81.2507 67.9003 88.0507C66.7503 88.7007 65.0503 89.3007 62.7003 89.3007C59.0003 87.3507 55.1503 85.7007 51.6503 83.4507C48.9003 81.6507 46.2503 79.2507 45.4503 75.9507C44.8503 73.5007 45.3503 70.9507 45.8503 68.5507Z" fill="#D3AA6F"/>
<path d="M54.6996 67.7994C52.7996 66.4994 50.9496 65.1994 49.3996 63.5494C45.2496 58.9494 44.4996 52.1994 44.5496 45.9994C44.5996 43.0994 44.7496 40.1494 45.3496 37.2994C46.2496 32.8994 48.1496 28.7994 50.0496 24.7494C50.3496 24.1494 50.5996 23.4994 51.0496 22.9994C51.5496 22.3994 52.2496 21.9994 52.9996 21.5994C57.0996 19.4494 61.7996 18.3994 66.3996 18.6494C66.6996 18.6494 66.9996 18.6994 67.2496 18.7994C67.5496 18.8994 67.7496 19.1494 67.9996 19.2994C68.6496 19.7994 69.3996 20.0494 70.1496 20.3494C74.3996 21.9994 78.9996 24.4494 80.1496 28.8494C80.4496 30.0994 80.4496 31.4494 80.4496 32.7494C80.3996 37.2494 80.3496 41.7494 80.3496 46.1994C80.2996 49.4994 80.2996 52.8494 79.2996 55.9994C77.7496 60.9494 74.0996 64.8494 70.5496 68.5994C69.7996 69.3994 69.0496 70.1494 68.1496 70.7494C66.0996 71.9994 63.4496 71.9994 61.1496 71.2494C58.6996 70.5494 56.6996 69.1994 54.6996 67.7994Z" fill="#EEC98F"/>
<path d="M82.0997 34C82.2997 32.95 82.4997 31.85 82.4497 30.8C82.3997 29 81.6497 27.35 80.7497 25.95C78.3497 22.2 74.6997 19.65 70.7997 19C70.4997 21.55 72.1997 23.85 73.9997 25.3C75.7997 26.75 77.8997 27.85 79.0997 30C79.6497 31 79.9997 32.15 80.2997 33.3C80.6997 34.65 81.0497 36 81.4497 37.35C81.6497 36.25 81.8997 35.1 82.0997 34Z" fill="#10100F"/>
<path d="M94.8023 113.35C96.0023 114.65 97.2023 116.05 98.2523 117.5C95.0523 119.55 91.6523 121.35 88.1023 122.8C85.9523 117.35 82.2023 111.7 78.6023 107.85C72.5023 101.4 68.8023 97.8997 63.6023 90.6497C63.2523 90.1997 62.9523 89.7497 62.6023 89.2497H62.7523C64.6523 89.2497 66.6023 88.7997 68.2023 87.7997C69.1023 88.5997 70.1023 89.2997 71.0023 90.0497C79.8023 96.7997 87.3023 105.1 94.8023 113.35Z" fill="white"/>
<path d="M28.5511 85.5503C30.3011 83.6503 32.5511 82.3003 34.8011 81.0003C36.3011 80.1003 37.8511 79.2003 39.3511 78.3003C41.8511 75.3503 44.1011 72.2003 44.1011 68.4503C50.5511 74.3003 57.2511 82.1503 62.5511 89.3003C62.9011 89.7503 63.2511 90.2003 63.5511 90.7003C68.7511 97.9003 72.4511 101.4 78.5511 107.9C82.1511 111.75 85.9011 117.4 88.0511 122.85C80.6011 125.9 72.5011 127.6 63.9511 127.6C48.5011 127.6 34.3511 122.1 23.3011 112.9C23.3511 110.25 23.3511 107.6 23.4011 104.95C23.5511 98.0503 23.9011 90.5503 28.5511 85.5503Z" fill="#0B2C48"/>
<path d="M47.499 57.1004C46.999 57.7004 46.499 58.3004 45.999 58.9504C45.499 59.5504 44.949 60.2504 44.899 61.0504C44.849 62.2004 45.849 63.1504 46.499 64.0504C47.199 65.0004 47.499 66.6004 46.449 67.1504C47.049 67.6504 47.699 68.1504 47.999 68.8504C48.299 69.5504 48.199 70.5504 47.549 70.9504C47.249 71.1504 46.849 71.2004 46.549 71.4004C46.249 71.6504 46.099 72.0504 45.999 72.4504C45.799 73.2004 45.599 73.9004 45.399 74.6504C44.899 76.3504 43.649 78.4504 41.999 77.8004C42.949 79.1004 41.899 81.3004 40.249 81.4004C38.399 81.5004 37.199 79.5004 35.499 78.8004C36.549 73.4504 33.449 68.2504 32.199 62.9504C30.049 53.8004 33.199 44.3004 36.699 35.6004C38.099 32.1004 39.549 28.6004 41.849 25.6004C46.499 19.5004 53.999 16.2504 61.449 15.5504C69.449 14.8004 77.649 16.8004 84.399 21.1004C79.499 20.7004 75.049 19.9004 70.149 19.5004C71.749 20.0004 70.949 22.9504 69.599 23.9004C68.249 24.8504 66.449 24.9004 64.899 25.5004C62.299 26.5004 60.499 29.0004 59.649 31.6504C58.799 34.3004 58.699 37.1004 58.449 39.9004C58.249 42.3004 57.899 44.9004 56.199 46.6504C57.799 43.6004 58.599 40.1004 58.349 36.6004C58.249 34.7504 57.849 32.8504 57.999 31.0004C58.149 29.1504 58.999 27.2004 60.649 26.3004C61.849 25.6504 63.749 25.2004 63.599 23.8504C62.849 23.1004 61.449 23.4004 60.749 24.2004C60.049 25.0004 59.849 26.1004 59.649 27.2004C58.999 26.3004 57.499 26.8004 56.849 27.7004C56.199 28.6004 55.899 29.8004 55.099 30.5004C54.649 30.9004 53.999 31.2504 53.849 31.8504C53.699 32.5004 54.149 33.1004 54.449 33.6504C55.199 34.9504 55.199 36.6004 54.549 37.9004C51.899 38.7004 52.699 43.4004 50.199 44.5504C51.249 45.6004 51.549 47.4004 50.749 48.7004C49.949 49.9504 47.999 50.4004 46.849 49.4504C47.899 50.2504 49.049 51.1504 49.349 52.4504C49.799 54.1504 48.599 55.7504 47.499 57.1004Z" fill="#10100F"/>
<path d="M70.6523 21.5497V22.1997C70.6023 22.6497 70.4523 23.2497 70.0523 23.8997C69.8523 24.1997 69.6023 24.5497 69.3023 24.8497C68.9523 25.1497 68.6523 25.4497 68.2523 25.6997C67.9023 25.9497 67.5023 26.1997 67.0523 26.4997L66.4523 26.9497C66.2523 27.0997 66.0523 27.2497 65.8523 27.4497C64.2523 28.7997 62.6023 30.6997 61.4023 33.0997C60.8023 34.2997 60.3523 35.5997 60.0523 36.9497C59.7523 38.3497 59.6023 39.7497 59.4523 41.1997C58.9523 46.9997 58.4523 52.8497 58.0523 57.1997C57.9523 58.2997 57.9023 59.2997 57.7523 60.1997C57.6523 61.0997 57.4523 61.8497 57.2523 62.4497C57.0523 63.0497 56.7523 63.4997 56.5523 63.7997C56.4523 63.9497 56.3523 64.0497 56.3023 64.0997L56.2023 64.1997L56.1023 64.0997L56.2023 63.9997C56.2523 63.9497 56.3523 63.8497 56.4523 63.6997C56.6523 63.3997 56.9023 62.9997 57.1023 62.3997C57.3023 61.7997 57.4523 61.0497 57.5523 60.1497C57.6523 59.2497 57.6523 58.2497 57.7523 57.1497C58.0023 52.7997 58.3523 46.9497 58.7023 41.0997C58.8023 39.6497 58.9023 38.1497 59.1523 36.6997C59.4523 35.2497 59.9023 33.8497 60.5023 32.5997C61.7023 30.0497 63.3523 27.9497 65.0523 26.4497C65.2523 26.2497 65.5023 26.0497 65.7023 25.8997C65.9023 25.7497 66.1023 25.5997 66.3023 25.3997C66.7023 25.0997 67.1023 24.8497 67.4523 24.5497C67.8023 24.2997 68.1023 24.0497 68.3023 23.7997C68.5523 23.5497 68.7023 23.2997 68.8523 23.0997C69.1523 22.6497 69.2023 22.2497 69.2023 21.9997V21.5997L70.6523 21.5497Z" fill="#111111"/>
</g>
<defs>
<clipPath id="clip0_2523_19063">
<rect width="128" height="128" fill="white"/>
</clipPath>
</defs>
</svg>
