<svg width="128" height="128" viewBox="0 0 128 128" fill="none" xmlns="http://www.w3.org/2000/svg">
<g clip-path="url(#clip0_2523_19308)">
<path d="M64 127.5C99.0701 127.5 127.5 99.0701 127.5 64C127.5 28.9299 99.0701 0.5 64 0.5C28.9299 0.5 0.5 28.9299 0.5 64C0.5 99.0701 28.9299 127.5 64 127.5Z" fill="#26A3D4"/>
<path d="M51.6011 73.4506C51.3011 74.4006 51.2511 75.3506 51.2011 76.3506C51.1011 78.0006 51.0011 79.7006 51.5011 81.2506C51.7511 82.0506 52.2011 82.8006 52.7011 83.5006C53.2011 84.2006 53.8011 84.9006 54.5511 85.4006C56.6511 87.0006 59.5011 87.1506 62.1511 87.3006L68.4511 87.6006C69.7011 87.6506 71.0511 87.7006 72.1511 87.0506C73.2511 86.4006 73.9011 85.2006 74.6511 84.1506C75.6511 82.7006 76.9011 81.5006 77.9011 80.0506C78.9011 78.6506 79.7011 76.9506 79.5511 75.2006C79.4011 73.6506 78.5511 72.3006 78.0511 70.8506C77.0011 67.8506 77.3511 64.5506 77.7511 61.4006C69.8011 62.5006 61.8011 63.3506 53.7511 64.0006C53.4011 64.0506 52.9511 64.0506 52.7511 63.7006C52.6011 63.5006 52.6511 63.2006 52.6011 62.9506C52.5011 62.3006 51.7011 61.8006 51.0511 62.0006C52.0011 64.6006 52.4511 67.4006 52.3511 70.1506C52.3511 70.6506 52.3011 71.1506 52.1511 71.6006C52.0011 72.3006 51.7511 72.8506 51.6011 73.4506Z" fill="#D3AA6F"/>
<path d="M60.1489 91.8494C58.7489 93.4994 57.3989 95.3494 56.6989 96.9994C56.0989 98.3494 55.6989 99.2494 55.4489 99.7494C56.6489 104.199 58.0989 109.349 59.8989 115.349L63.1489 95.1994L60.1489 91.8494ZM70.1989 91.5994L67.2489 95.2494L70.9489 114.499C72.5989 108.849 73.9989 103.999 75.0989 99.7994C74.8489 99.2494 74.4489 98.3994 73.8489 97.0494C73.0989 95.2494 71.6989 93.2994 70.1989 91.5994Z" fill="#3C698A"/>
<path d="M67.2477 95.2494L70.1977 91.5994C67.7977 88.7994 65.2977 86.5994 65.2977 86.5994C65.2977 86.5994 62.5977 88.9494 60.1477 91.8994L63.1477 95.2994H67.2477V95.2494Z" fill="#B31F24"/>
<path d="M65.3977 86.5H65.1477C65.1977 86.55 65.2477 86.55 65.2477 86.6C65.3477 86.55 65.3977 86.5 65.3977 86.5Z" fill="#1F1E24"/>
<path d="M55.5012 99.7994C55.7512 99.2494 56.1512 98.3994 56.7512 97.0494C57.5012 95.3994 58.8012 93.5494 60.2012 91.8994C62.6512 88.9994 65.3512 86.5994 65.3512 86.5994C65.3012 86.5494 65.2512 86.5494 65.2512 86.4994C49.7012 76.3994 52.0012 72.3494 52.0012 72.3494C51.5012 72.4994 51.1012 72.7994 50.7512 73.2994C50.5012 74.0494 49.8512 78.6494 55.5012 99.7994Z" fill="#79ACC8"/>
<path d="M70.203 91.5994C71.703 93.3494 73.103 95.2494 73.903 97.0494C74.503 98.3994 74.903 99.2994 75.153 99.7994C80.753 78.6494 80.153 74.0494 79.953 73.2994C79.603 72.7994 79.203 72.4994 78.703 72.3494C78.703 72.3494 81.003 76.3494 65.453 86.4994C65.403 86.5494 65.353 86.5494 65.353 86.5994C65.303 86.5994 67.803 88.7994 70.203 91.5994Z" fill="#79ACC8"/>
<path d="M81.8015 57.1996C81.4015 56.8996 81.3515 56.3496 81.4515 55.8496C81.6015 54.6996 82.1515 53.6496 82.5015 52.5496C83.0015 50.8496 82.9515 48.9996 83.2515 47.2496C83.5515 45.4996 84.3515 43.6496 86.0015 42.8996C86.3515 42.7496 86.7515 42.5996 87.1015 42.7496C87.5015 42.8996 87.8015 43.2996 87.9015 43.7496C88.0015 44.1996 87.9015 44.5996 87.8515 45.0496C87.5015 47.2496 87.1015 49.4496 86.7515 51.6496C86.5515 52.8996 86.3015 54.1996 85.7015 55.3496C85.0515 56.4496 83.9015 57.3996 82.6515 57.3996C82.3015 57.3996 82.0015 57.3496 81.8015 57.1996ZM45.6515 55.6996C46.2015 56.3496 46.9515 56.9496 47.8015 56.7496C48.4015 56.5996 48.8015 56.0996 49.0015 55.5496C49.1515 54.9996 49.1515 54.3996 49.0515 53.7996C48.5015 50.1996 46.2515 46.9996 45.8015 43.3996C45.1515 43.1496 44.4515 43.0996 43.7515 43.1496C43.6015 43.1496 43.4515 43.1996 43.4015 43.2496C43.3015 43.3496 43.3015 43.4996 43.3015 43.6496C43.1515 45.7496 43.0515 47.8496 43.3515 49.9496C43.6515 52.0496 44.3015 54.0996 45.6515 55.6996Z" fill="#D3AA6F"/>
<path d="M80.0523 22.9002C75.8523 20.0002 69.6523 18.4502 64.6523 17.6502C58.5023 16.7002 53.5023 19.1502 48.2523 22.0502C48.0023 22.2002 47.8023 22.3002 47.5523 22.3502C45.5023 27.9502 44.3523 34.6502 44.3523 41.8002C44.3523 61.6002 53.3523 77.6502 64.4023 77.6502C75.4523 77.6502 84.4523 61.6002 84.4523 41.8002C84.4523 35.1502 83.4523 28.9002 81.6523 23.5502C81.1023 23.5002 80.5523 23.3002 80.0523 22.9002Z" fill="#EEC98F"/>
<path d="M46.5502 45.8495L45.9502 37.7495C45.8002 35.9495 45.7002 34.0495 46.2502 32.3495C46.7502 30.7495 47.8002 29.3995 48.8002 28.0995C49.9002 26.6995 51.4502 25.0995 53.2002 25.5995C53.9002 25.7995 54.4002 26.2995 55.0502 26.6495C56.5502 27.4995 58.4002 27.4995 60.1502 27.4495C62.2002 27.3995 64.3002 27.2995 66.2002 26.5495C67.8502 25.8995 69.2502 24.7495 70.9002 24.1995C73.3502 23.3995 76.1502 23.9995 78.0502 25.7495C80.8502 28.3495 81.1002 32.5995 81.1002 36.4495C81.1002 40.2495 81.1002 44.4495 83.6002 47.3495C85.4502 43.5495 87.0502 42.6495 87.9502 38.5495C88.6502 35.3995 88.8002 29.5495 87.1502 26.7495C85.5502 23.9495 83.2502 21.5995 81.0002 19.2995C79.8502 18.0995 78.6502 16.8995 77.2502 15.9995C76.1502 15.2995 74.9002 14.7495 73.6502 14.3495C69.5002 12.8995 65.0502 12.3995 60.6502 12.7995C53.9002 13.4495 47.0002 16.6495 43.6502 22.5995C41.8502 25.6995 41.2002 29.3495 40.7002 32.8995C40.4002 34.9995 40.1502 37.0995 40.5502 39.1995C40.9502 41.2495 42.1002 43.2995 43.9502 44.2995C44.9002 44.5495 46.1002 44.8995 46.5502 45.8495Z" fill="#3A3434"/>
<path d="M43.9011 40.3C43.9511 40.25 44.0511 40.25 44.1011 40.25C44.1511 40.25 44.2011 40.35 44.2511 40.4C45.0511 41.55 45.7011 42.8 46.2011 44.15C46.3511 44.6 46.5011 45.1 46.5511 45.6V46.2C46.5011 46.9 46.5011 47.55 46.4511 48.25V48.35C46.4011 48.4 46.4011 48.4 46.3511 48.4C45.9511 48.45 45.5511 48.5 45.1511 48.5C44.9511 47.45 44.8011 46.35 44.6011 45.3C44.5511 44.95 44.5011 44.65 44.3011 44.35C44.0511 44.05 43.6511 43.9 43.3511 43.6C42.8511 43.1 42.8011 42.35 42.8011 41.65C42.8011 41.4 42.8011 41.15 42.9511 41C43.0511 40.8 43.3011 40.65 43.5011 40.55C43.6011 40.45 43.7511 40.35 43.9011 40.3ZM81.8511 43C82.0011 42.85 82.2011 42.8 82.3511 42.7C83.5011 42.35 84.7511 42.4 85.8511 42.7C85.7011 43.3 85.4011 43.8 85.1011 44.35C84.4011 45.7 84.0511 47.2 84.0011 48.7C84.0011 48.85 84.0011 49.05 83.8511 49.1C83.8011 49.15 83.7011 49.15 83.6511 49.15C83.2511 49.15 82.8511 49.15 82.4511 49.2C82.5011 48 82.6011 46.8 82.3011 45.65C82.2511 45.4 82.1511 45.1 82.0511 44.85C81.9511 44.55 81.8511 44.3 81.8011 44C81.7511 43.7 81.6511 43.3 81.8511 43Z" fill="#3A3434"/>
<path d="M64.0023 127.5C65.0023 127.5 66.0023 127.45 67.0023 127.45C68.5023 122.75 69.8023 118.45 70.9523 114.5L67.2523 95.25H63.1023L59.8523 115.4C60.9523 119.1 62.2023 123.1 63.5523 127.5H64.0023Z" fill="#B31F24"/>
<path d="M54.2011 126.75C48.7011 116.1 44.3511 105.7 44.3511 105.7L49.3511 98.0503L43.3011 98.7503C43.3011 98.7503 41.9011 96.4503 41.9011 88.9503C41.9011 85.4003 43.9011 81.6503 46.0511 78.7003C39.9511 80.7503 19.8511 87.6503 17.7511 91.1003C16.9511 92.4503 15.4511 96.9503 13.8011 102.7C23.4011 115.35 37.7511 124.2 54.2011 126.75Z" fill="#30383A"/>
<path d="M43.2511 98.8L49.3011 98.1L44.3011 105.75C44.3011 105.75 48.6511 116.15 54.1511 126.8C57.2511 127.3 60.4011 127.55 63.6011 127.55C62.2511 123.2 61.0011 119.15 59.9011 115.45C58.1011 109.45 56.6511 104.25 55.4511 99.85C49.8511 78.7 50.4511 74.1 50.6511 73.35C50.6511 73.25 50.7011 73.25 50.7011 73.25C50.7011 73.25 48.2511 75.55 45.9511 78.8C43.8511 81.75 41.8011 85.5 41.8011 89.05C41.8511 96.45 43.2511 98.8 43.2511 98.8Z" fill="#484D51"/>
<path d="M87.3489 98.8L81.2989 98.1L86.2989 105.75C86.2989 105.75 82.0989 115.8 76.6989 126.25C92.9989 122.95 106.999 113.4 116.199 100.25C114.849 95.7 113.649 92.3 112.949 91.15C110.849 87.7 90.7489 80.75 84.6489 78.75C86.7489 81.7 88.7989 85.45 88.7989 89C88.7489 96.45 87.3489 98.8 87.3489 98.8Z" fill="#30383A"/>
<path d="M76.7 126.25C82.1 115.8 86.3 105.75 86.3 105.75L81.3 98.1003L87.35 98.8003C87.35 98.8003 88.75 96.5003 88.75 89.0003C88.75 85.4503 86.75 81.7003 84.6 78.7503C82.3 75.5003 79.85 73.2003 79.85 73.2003C79.85 73.2003 79.85 73.2503 79.9 73.3003C80.1 74.0503 80.7 78.6503 75.1 99.8003C74 104 72.6 108.9 70.95 114.5C69.8 118.45 68.45 122.75 67 127.45C70.3 127.25 73.55 126.85 76.7 126.25Z" fill="#484D51"/>
</g>
<defs>
<clipPath id="clip0_2523_19308">
<rect width="128" height="128" fill="white"/>
</clipPath>
</defs>
</svg>
