<svg width="128" height="128" viewBox="0 0 128 128" fill="none" xmlns="http://www.w3.org/2000/svg">
<g clip-path="url(#clip0_2523_19222)">
<path d="M64.0977 63.7003C64.0477 63.9003 63.9977 64.1003 63.8977 64.3003C63.9477 64.1003 64.0477 63.9003 64.0977 63.7003Z" fill="#131212"/>
<path d="M64 129.05C99.0701 129.05 127.5 100.62 127.5 65.5497C127.5 30.4796 99.0701 2.04972 64 2.04972C28.9299 2.04972 0.5 30.4796 0.5 65.5497C0.5 100.62 28.9299 129.05 64 129.05Z" fill="#F89F6B"/>
<path d="M65.2489 81.3004C77.2489 81.3004 87.1488 77.6004 88.5989 72.8004C85.9488 71.2004 83.4488 69.3504 81.1988 67.2504C80.4988 66.6004 79.7989 65.9504 78.8989 65.6504C78.1489 65.4504 77.3489 65.5004 76.5489 65.6504C72.7989 66.1504 69.1489 67.0004 65.4989 68.0504C61.8989 66.9504 58.1989 66.1504 54.4489 65.6504C53.6489 65.5504 52.8489 65.4504 52.0989 65.6504C51.1989 65.9004 50.4989 66.6004 49.7989 67.2504C47.3989 69.4504 44.7489 71.4004 41.9489 73.0504C43.6989 77.7504 53.4489 81.3004 65.2489 81.3004Z" fill="#D3AA6F"/>
<path d="M64 129.05C87.55 129.05 108.1 116.25 119.05 97.1997C118.8 95.9497 118.55 94.6997 118.25 93.4997C117.5 90.2497 116.65 86.8497 114.5 84.2997C110.8 79.8997 104.6 79.0497 99.1 77.4497C95.4 76.3497 91.9 74.7997 88.6 72.7997C87.2 77.5997 77.3 81.2997 65.25 81.2997C53.45 81.2997 43.65 77.6997 42 73.0497C38.85 74.8997 35.45 76.3997 31.9 77.4497C26.4 79.0997 20.15 79.9497 16.5 84.2997C14.35 86.8497 13.45 90.2497 12.75 93.4997C12.2 95.9497 11.7 98.4497 11.25 100.9C22.65 117.9 42 129.05 64 129.05Z" fill="#B7608A"/>
<path d="M46.6023 6.05028C46.7523 4.25028 47.0023 2.45028 47.3023 0.700284C46.9523 2.50028 46.7023 4.25028 46.6023 6.05028Z" fill="#D3D3CB"/>
<path d="M82.9007 77.1997C84.7507 78.0497 86.7507 78.5997 88.8007 78.7497C89.2007 78.7997 89.6007 78.7997 89.9507 78.5997C90.3007 78.3997 90.5007 77.9997 90.6007 77.5997C91.1007 75.8997 90.6507 73.9997 89.9507 72.3497C89.2507 70.6997 88.3507 69.0997 87.9506 67.3997C87.6007 65.9997 87.6507 64.5497 87.3007 63.0997C86.9507 61.5497 86.2507 60.1497 85.4007 58.8497C84.5507 57.5497 83.6007 56.3997 82.6007 55.1997C81.6507 54.0497 80.7507 52.9497 79.8007 51.7997C79.8007 52.6497 79.6507 53.4497 79.4506 54.2997C79.3006 55.0997 79.1006 55.9497 78.9506 56.7497C78.7506 57.6997 78.5507 58.6497 78.3007 59.5497C77.7007 61.4997 76.6507 63.3997 76.6007 65.4497C76.6007 66.8497 77.0507 68.1997 77.0007 69.5997C77.0007 70.3497 76.8507 71.2497 77.3507 71.8497C77.5506 72.0497 77.8007 72.2497 77.9007 72.4997C78.0007 72.7497 78.0007 72.9997 78.0507 73.2997C78.2007 73.9497 78.8506 74.3997 79.4506 74.6997C80.0506 74.9997 80.7506 75.1997 81.2006 75.6997C81.5006 75.9997 81.6507 76.3997 81.9506 76.6997C82.3506 76.8997 82.6507 77.0497 82.9007 77.1997ZM25.0506 91.2497C25.8506 90.1497 27.4006 89.5997 27.9506 88.2997C28.5006 86.9497 27.7006 85.2497 28.5006 84.0497C28.8006 83.6497 29.2006 83.3497 29.5006 82.9997C30.8506 81.3497 29.4506 78.6997 30.4506 76.8497C31.1506 75.4997 32.8006 75.0497 34.2506 74.5997C38.3006 73.3997 42.1006 71.4997 45.5006 69.0497C46.8506 68.0997 48.1506 66.9997 49.6507 66.3497C51.1507 65.6997 53.0006 65.4497 54.4506 66.1997C54.0506 69.9497 53.6506 73.9997 55.5006 77.2997C56.5506 79.1497 58.2006 80.5997 59.5506 82.2497C63.1006 86.4997 64.5506 92.7997 62.0006 97.6997C62.9506 92.6997 60.1006 87.2997 55.5006 85.1497C56.8006 87.4497 57.5506 90.0497 57.6006 92.6997C57.6006 93.4997 57.5506 94.4497 57.0006 95.0497C56.2006 95.8997 54.8006 95.7997 53.7506 96.2997C51.8006 97.2997 51.4007 100.25 49.4007 101.05C47.7506 101.7 46.0006 100.65 44.2506 100.3C42.0506 99.8497 39.8006 100.55 37.6006 101.05C35.4006 101.55 32.9006 101.75 31.1006 100.4C30.7006 100.1 30.3506 99.7497 30.2506 99.2497C30.2006 98.9497 30.2506 98.5997 30.2006 98.2497C30.1006 97.3497 29.2006 96.7497 28.3506 96.4497C27.5006 96.1497 26.5506 96.0497 25.8006 95.5497C24.4506 94.6997 24.0506 92.5497 25.0506 91.2497Z" fill="#261511"/>
<path d="M30.0477 82.0997C28.4977 79.5497 28.4977 76.1497 29.9977 73.5997C27.0477 72.9997 23.7477 72.1497 22.3977 69.4997C24.0477 70.3497 25.7977 71.1997 27.6477 71.3997C29.4977 71.5997 31.5477 70.9997 32.6477 69.4997C34.3977 66.9997 32.8477 63.3997 33.8977 60.5497C34.5477 58.8497 36.0977 57.6497 37.5477 56.4997C41.2977 53.5497 45.0977 50.2497 46.7977 45.7997C46.9477 45.3497 47.1477 44.8497 47.4977 44.4997C48.0977 43.8997 49.1477 43.9497 49.8977 44.3497C50.6477 44.7497 51.1477 45.4997 51.5977 46.2497C56.2477 53.5497 57.6477 62.7997 55.3977 71.1497C54.9977 72.6497 54.4477 74.1497 53.3977 75.2997C51.0477 77.7997 47.1477 77.6997 43.7977 78.5997C39.6477 79.6997 36.0477 82.6497 31.7477 82.9997C31.3977 83.0497 30.9977 83.0497 30.6477 82.8497C30.3977 82.6497 30.1977 82.3997 30.0477 82.0997Z" fill="#361F19"/>
<path d="M65.5011 73.2506C74.7243 73.2506 82.2011 61.6995 82.2011 47.4506C82.2011 33.2016 74.7243 21.6506 65.5011 21.6506C56.278 21.6506 48.8011 33.2016 48.8011 47.4506C48.8011 61.6995 56.278 73.2506 65.5011 73.2506Z" fill="#EEC98F"/>
<path d="M69.9004 16.0003C70.6504 16.9003 71.3503 17.8503 71.9503 18.8503C72.9003 20.4503 73.5003 22.2503 74.0003 24.0503C74.2003 24.7003 74.3503 25.3503 74.3503 26.0003C74.3503 28.1003 72.7003 29.8503 70.9004 30.8503C69.1004 31.9003 67.0003 32.4503 65.2503 33.5503C64.4003 34.1003 63.6503 34.7503 62.7503 35.1503C62.2503 35.4003 61.7003 35.5503 61.2003 35.8003C60.4003 36.2503 59.8003 37.0003 59.1003 37.7003C56.0503 40.8503 51.4003 42.3503 47.1003 41.5503C46.9503 41.5503 46.8003 41.5003 46.7003 41.4003C46.6003 41.3003 46.5503 41.1503 46.5003 41.0003C46.1003 39.6003 45.8003 38.1503 45.6003 36.7503C45.4503 35.8003 45.3503 34.8503 45.5003 33.9003C45.6003 33.0503 45.9003 32.2003 46.2503 31.4003C47.4003 28.7503 49.1003 26.3003 50.4503 23.7503C50.9503 22.8503 51.4003 21.9003 52.0503 21.0503C52.7003 20.2003 53.5504 19.4503 54.4503 18.9003C58.2503 16.4503 63.1003 16.5503 67.4004 15.1003C67.8004 14.9503 68.2003 14.8003 68.6003 14.9003C69.2003 15.1003 69.6004 15.5503 69.9004 16.0003Z" fill="#EEC98F"/>
<path d="M38.5495 44.2495C40.5495 37.7995 42.5995 31.2995 44.5995 24.8495C45.5495 21.8495 46.5496 18.6495 48.8996 16.4995C52.4996 13.1495 57.9996 13.1995 62.8996 13.4995C63.5496 13.5495 64.2496 13.5995 64.7996 13.9495C65.5496 14.4495 65.8496 15.3495 66.0496 16.1995C66.7996 19.0495 67.4496 21.9495 67.9996 24.8495C66.8996 26.4995 64.4496 26.4995 62.5496 25.9995C60.6496 25.5495 58.5996 24.7495 56.7496 25.4495C55.2996 25.9995 54.2496 27.3495 53.4996 28.6995C50.6496 34.1495 51.1996 40.6495 51.2496 46.7995C51.3496 52.9495 50.5996 59.7495 46.0496 63.8995C42.6495 66.9995 37.2495 68.6495 36.3495 73.1495C36.2495 69.7495 36.0995 66.3995 35.9995 62.9995C34.2995 64.3995 31.6495 62.1495 31.6995 59.9495C31.7495 57.7495 33.2995 55.8995 34.4995 54.0495C36.4495 51.0995 37.4995 47.6995 38.5495 44.2495Z" fill="#412922"/>
<path d="M69.999 13.4502C69.949 13.7002 69.749 13.8502 69.549 14.0002C68.599 14.7002 67.349 14.8502 66.499 15.6502C66.049 16.0502 65.799 16.5502 65.349 16.9502C64.749 17.5502 63.899 17.9002 63.049 18.1002C62.199 18.2502 61.299 18.2502 60.449 18.3002C58.799 18.3002 57.099 18.4002 55.449 18.7502C53.399 19.2002 51.449 20.1002 49.499 20.9502C48.699 21.3002 47.949 21.6502 47.149 22.0502C46.949 21.2502 47.499 20.4502 47.749 19.6502C48.049 18.9002 48.099 18.0502 48.449 17.3502C48.649 16.9002 48.949 16.5502 49.299 16.2002C52.249 12.9002 57.099 11.3502 61.449 12.3502C62.049 12.5002 62.699 12.7002 63.299 12.7002C64.199 12.7502 65.099 12.5002 65.999 12.4002C66.949 12.3002 67.899 12.3002 68.849 12.5002C69.099 12.5502 69.399 12.6002 69.599 12.8002C69.849 12.9002 70.049 13.2002 69.999 13.4502Z" fill="#412922"/>
<path d="M79.8488 56.7505C79.6488 58.9005 79.0488 60.9505 78.7988 63.0505C78.3488 66.6505 78.9988 70.4005 80.5988 73.6505C81.3488 75.2005 82.3488 76.7005 82.4488 78.4005C82.5488 80.7505 81.0988 83.5005 82.6988 85.2005C83.5988 86.1505 85.1988 86.2505 85.8488 87.3505C86.9988 89.1505 84.6988 91.4005 85.0488 93.5005C85.2988 95.1505 87.0988 96.1005 88.6988 96.4005C90.2988 96.7005 92.0988 96.6505 93.5488 97.3505C94.9988 98.0505 96.4988 99.5005 97.8988 98.7505C98.5488 98.4005 98.8988 97.6505 99.4488 97.2005C100.249 96.5505 101.399 96.5505 102.449 96.6005C104.699 96.6505 106.949 96.7505 109.249 96.8005C109.799 96.8005 110.399 96.8005 110.849 96.5005C111.299 96.2005 111.449 95.6505 111.599 95.1005C111.999 93.6005 112.299 91.8505 111.249 90.7005C110.049 89.3505 107.649 89.5505 106.599 88.1005C105.649 86.7505 106.399 84.9005 106.549 83.2505C106.749 80.4505 104.899 77.9005 102.899 75.9005C102.249 75.2505 101.499 74.5505 101.199 73.6505C100.899 72.7505 101.249 71.5505 102.149 71.3005C102.449 71.2005 102.749 71.2005 103.049 71.1005C103.599 70.8505 103.799 70.0505 103.449 69.6005C101.449 69.7005 99.4988 68.3005 98.9988 66.3505C98.6988 65.3005 98.7988 64.2505 98.7988 63.1505C98.7988 59.7005 97.8488 56.2005 96.0488 53.2505C94.4988 50.6505 92.3488 48.4505 91.2488 45.6505C90.3488 43.4005 90.1988 40.9005 89.7988 38.5005C89.1988 34.8505 87.9988 31.3005 86.5988 27.8505C85.1488 24.2505 83.4988 20.6505 80.9488 17.7005C78.3988 14.7505 74.8488 12.5505 70.9488 12.3005C69.5988 12.2005 68.1488 12.4005 67.0488 13.1505C65.8988 13.9005 65.1988 15.3505 65.5488 16.7005C65.8988 17.8505 66.9488 18.6505 67.5488 19.7005C68.4988 21.5005 67.9988 23.9005 69.2488 25.5005C70.2488 26.7505 72.0488 27.0505 73.4988 27.7005C77.3988 29.4005 79.4988 33.8505 79.9488 38.1005C80.4488 42.3505 79.6988 46.6505 79.7488 50.9005C79.8488 52.8505 80.0488 54.8005 79.8488 56.7505Z" fill="#361F19"/>
</g>
<defs>
<clipPath id="clip0_2523_19222">
<rect width="128" height="128" fill="white"/>
</clipPath>
</defs>
</svg>
