<svg width="128" height="128" viewBox="0 0 128 128" fill="none" xmlns="http://www.w3.org/2000/svg">
<g clip-path="url(#clip0_2523_19032)">
<path d="M64 127.5C99.0701 127.5 127.5 99.0701 127.5 64C127.5 28.9299 99.0701 0.5 64 0.5C28.9299 0.5 0.5 28.9299 0.5 64C0.5 99.0701 28.9299 127.5 64 127.5Z" fill="#38B29A"/>
<path d="M54.3015 78.2506C57.0015 74.9506 57.4515 70.3506 57.3515 66.1006C57.3515 64.7506 57.2515 63.3506 57.0015 62.0506C56.7015 60.5506 56.1015 59.1006 55.5515 57.6506C52.5015 49.7006 50.3015 41.4506 49.1015 33.0006C48.2515 27.1506 48.0015 20.6506 51.5015 15.9006C45.3515 22.5506 41.7515 31.2506 39.9515 40.1506C38.1515 49.0506 38.0515 58.1506 38.1515 67.2506C38.2015 71.2506 38.3015 75.2506 38.4015 79.2506C38.5015 82.2506 38.6015 85.2506 39.0015 88.2006L48.1515 82.9506C50.3515 81.6006 52.6515 80.3006 54.3015 78.2506Z" fill="#301A1C"/>
<path d="M70.9489 127.1C87.0489 125.35 101.349 117.6 111.499 106.1C111.049 100.85 110.349 95.6497 108.799 90.5997C107.299 85.6997 104.799 80.6997 100.299 78.3497C97.6989 76.9997 94.6989 76.5997 91.8989 75.7997C89.1489 81.4497 87.6489 87.6997 85.8489 93.7497C82.2489 105.45 77.2489 116.7 70.9489 127.1Z" fill="#871719"/>
<path d="M76.1011 98.8006C76.1011 98.9006 76.0511 99.0006 76.0511 99.1006C76.0011 99.4506 75.9011 99.8006 75.8511 100.151C75.5011 101.751 74.8011 103.201 74.1011 104.701L72.0011 109.501C69.4511 115.451 66.9011 121.451 64.5511 127.501C66.7011 127.501 68.8011 127.351 70.9011 127.151C77.2011 116.701 82.2511 105.501 85.7511 93.8006C87.6011 87.7506 89.0511 81.5006 91.8011 75.8506C91.7511 75.8506 91.6511 75.8006 91.6011 75.8006C89.3511 75.1506 87.2011 74.1506 85.2511 72.9006C84.7511 74.4506 84.2511 76.0506 83.9011 77.6506C83.4011 79.8506 83.0511 82.0506 82.4511 84.2006C81.6511 87.2006 81.3011 91.4506 78.6011 93.0006C77.5511 93.6006 77.0011 94.6506 76.6511 95.8506C76.4011 96.7006 76.2511 97.6506 76.1011 98.5506C76.1511 98.6006 76.1511 98.7006 76.1011 98.8006Z" fill="#971B25"/>
<path d="M47.1977 101.499V101.549C47.2977 102.099 47.4477 102.599 47.5477 103.149C47.5977 103.299 47.5977 103.399 47.6477 103.549C47.7477 103.949 47.8477 104.399 47.9477 104.799C47.9977 104.949 48.0477 105.099 48.0977 105.299C48.1977 105.699 48.3477 106.099 48.4477 106.499L48.5977 106.949C48.7477 107.499 48.9477 107.999 49.0977 108.549C51.2477 115.049 54.3477 121.199 57.6477 127.199C59.7477 127.399 61.8477 127.499 63.9477 127.499H64.4977C66.7977 121.449 69.3477 115.449 71.9477 109.499L74.0477 104.699C74.6977 103.199 75.4477 101.749 75.7977 100.149C75.8977 99.7994 75.9477 99.4494 75.9977 99.0994C75.9977 98.9994 76.0477 98.8994 76.0477 98.7994C76.0477 98.6994 76.0977 98.5994 76.0977 98.4994C76.2477 97.5994 76.3977 96.6494 76.6477 95.7994C66.3477 96.6994 56.0977 96.6994 46.1477 94.3494L46.2977 96.1494C46.5477 97.9494 46.8477 99.7494 47.1977 101.499Z" fill="#207ABF"/>
<path d="M76.7011 95.8494C76.4511 96.6994 76.3011 97.6494 76.1511 98.5494C76.3011 97.5994 76.4511 96.6994 76.7011 95.8494ZM76.0511 99.1494C76.0511 99.0494 76.1011 98.9494 76.1011 98.8494C76.1011 98.8994 76.1011 99.0494 76.0511 99.1494Z" fill="#207ABF"/>
<path d="M50.1023 125.949C48.1023 123.749 46.2023 121.399 44.4523 118.949C39.6523 112.049 36.3023 103.899 36.4523 95.4994C38.0023 95.5494 39.5523 95.5994 41.0523 95.6494C40.5023 95.2994 40.0023 94.9494 39.4523 94.5494C37.4523 93.1994 35.3023 91.5994 34.9023 89.2494C34.6023 87.6494 35.2023 86.0494 35.9023 84.5494C37.1023 81.9994 38.7523 79.5994 40.7523 77.5494L40.9523 77.3494C38.5523 78.2994 36.0523 79.1994 33.6523 80.1494C28.4523 82.2494 23.2523 85.1994 20.5023 90.0994C19.2523 92.3494 18.6023 94.8494 17.9523 97.3494C17.2523 99.9994 16.5523 102.699 15.8523 105.349C24.6523 115.599 36.5523 122.949 50.1023 125.949Z" fill="#871719"/>
<path d="M35.8993 84.6503C35.1993 86.1003 34.5993 87.7503 34.8993 89.3503C35.3493 91.7003 37.4993 93.3003 39.4493 94.6503C39.9993 95.0003 40.4993 95.3503 41.0493 95.7503C39.4993 95.7003 37.9493 95.6503 36.4493 95.6003C36.2493 104 39.6493 112.15 44.4493 119.05C46.1493 121.5 48.0493 123.8 50.0993 126.05C52.5993 126.6 55.0993 127 57.6993 127.25C54.3993 121.25 51.2993 115.1 49.1493 108.6C48.9493 108.05 48.7993 107.55 48.6493 107L48.4993 106.55C48.3993 106.15 48.2493 105.75 48.1493 105.35C48.0993 105.2 48.0493 105.05 47.9993 104.85C47.8993 104.45 47.7993 104 47.6993 103.6C47.6493 103.45 47.6493 103.35 47.5993 103.2C47.4493 102.7 47.3493 102.15 47.2493 101.6V101.55C46.8993 99.8003 46.5993 98.0003 46.3993 96.2003C45.9993 92.4003 45.9993 88.5503 46.5993 84.8003C47.0493 81.8503 47.9493 78.8503 49.8493 76.5503C50.6993 75.5503 51.7493 74.3503 51.7993 73.1503C51.3493 72.2503 49.8493 72.7503 48.9493 73.4003C46.4993 75.1003 43.7493 76.3503 40.9493 77.4503L40.7493 77.6503C38.7493 79.6503 37.1493 82.0503 35.8993 84.6503Z" fill="#971B25"/>
<path d="M48.6 106.95L48.45 106.5C48.55 106.6 48.55 106.8 48.6 106.95ZM47.7 103.55C47.65 103.4 47.65 103.3 47.6 103.15C47.6 103.3 47.65 103.4 47.7 103.55Z" fill="#971B25"/>
<path d="M76.6992 95.8003C77.0492 94.6003 77.5992 93.6003 78.6492 92.9503C81.3492 91.4003 81.6492 87.1503 82.4992 84.1503C83.0992 82.0003 83.4492 79.8003 83.9492 77.6003C84.2992 76.0003 84.7992 74.4503 85.2992 72.8503C80.9992 70.1503 77.5492 66.1503 75.4992 61.5003C75.2492 60.9003 74.8992 60.2003 74.2992 59.9503C73.8492 59.8003 73.3992 59.9503 72.9492 60.0503C67.0492 61.7003 60.8492 62.1003 54.7992 61.2003C54.1992 61.1003 53.5492 61.0503 53.0992 61.4003C52.7492 61.7003 52.5992 62.1503 52.4992 62.6003C52.0992 64.4003 52.0992 66.3503 52.5492 68.1503C52.9992 69.9003 53.5492 72.3003 51.9492 73.1503C51.9492 73.1003 51.8992 73.1003 51.8992 73.0503C51.8492 74.2003 50.7492 75.4003 49.9492 76.4503C48.0492 78.7503 47.1492 81.7503 46.6992 84.7003C46.1992 87.9003 46.0992 91.1003 46.2992 94.3003C56.1492 96.7003 66.4492 96.7003 76.6992 95.8003Z" fill="#D3AA6F"/>
<path d="M62.55 70.9003C72.6568 70.9003 80.85 58.7672 80.85 43.8003C80.85 28.8334 72.6568 16.7003 62.55 16.7003C52.4432 16.7003 44.25 28.8334 44.25 43.8003C44.25 58.7672 52.4432 70.9003 62.55 70.9003Z" fill="#EEC98F"/>
<path d="M84.298 35.0998C84.498 37.2998 84.648 39.5498 84.098 41.6498C83.548 43.7998 82.148 45.7998 80.048 46.5498C79.848 39.0498 74.798 32.3998 68.548 28.2498C66.898 27.1498 65.148 26.1998 63.798 24.6998C62.498 23.1998 61.698 21.0498 62.448 19.2498C61.648 22.1998 58.648 23.8498 56.148 25.5998C49.948 29.9498 45.548 36.7498 44.148 44.1498C41.648 40.9498 42.098 36.4498 42.848 32.4498C43.648 28.1998 44.598 23.8998 46.798 20.1498C48.998 16.3998 52.598 13.2998 56.898 12.6498C58.448 12.3998 60.048 12.4998 61.598 12.5998C66.548 12.8998 71.798 13.3998 75.898 16.2498C78.798 18.2998 80.848 21.3498 82.098 24.6498C83.398 27.9998 83.948 31.5498 84.298 35.0998Z" fill="#301A1C"/>
<path d="M69.4495 104.25C71.7495 104.75 73.9995 105.6 76.3495 105.6C79.7995 105.6 83.1995 103.6 84.8495 100.55H93.3495C94.4995 100.55 95.6495 100.55 96.6995 100.15C97.7495 99.7503 98.6995 98.8503 98.8495 97.7503C98.8995 97.2003 98.8495 96.6003 99.2495 96.2003C99.5495 95.9003 100.049 95.9003 100.449 95.8003C102.249 95.4003 102.649 93.0503 102.699 91.2003C102.749 88.0503 102.749 84.6503 100.949 82.1003C99.2995 79.8003 96.5495 78.6503 94.5495 76.7003C90.4495 72.7003 90.3495 66.2503 89.8995 60.5503C89.4995 55.5003 88.5995 50.4503 87.6995 45.4503C86.0995 36.4003 84.1995 26.7003 77.6495 20.2003C77.2995 29.9003 81.7495 39.6503 79.7495 49.1503C78.6495 54.5003 75.4995 59.3503 74.5495 64.7503C74.3495 65.9503 74.2495 67.2003 74.0495 68.4003C73.2495 73.5503 70.9995 78.4503 67.5495 82.4003C65.9995 84.2003 64.1495 85.8503 61.8495 86.5503C60.1995 87.0503 58.1995 87.2003 57.0995 88.5503C56.2495 89.6003 56.2495 91.0503 56.3995 92.3503C56.6495 94.3003 57.3995 96.4503 59.2495 97.1503C61.0495 97.8503 63.4495 96.9503 64.9495 98.2003C66.5495 99.5503 65.9995 102.55 67.7495 103.7C68.2495 104 68.8495 104.1 69.4495 104.25Z" fill="#301A1C"/>
</g>
<defs>
<clipPath id="clip0_2523_19032">
<rect width="128" height="128" fill="white"/>
</clipPath>
</defs>
</svg>
