<svg width="128" height="128" viewBox="0 0 128 128" fill="none" xmlns="http://www.w3.org/2000/svg">
<g clip-path="url(#clip0_2523_18768)">
<path d="M64 127.5C99.0701 127.5 127.5 99.0701 127.5 64C127.5 28.9299 99.0701 0.5 64 0.5C28.9299 0.5 0.5 28.9299 0.5 64C0.5 99.0701 28.9299 127.5 64 127.5Z" fill="#37505F"/>
<path d="M63.2 85.65C71.75 85.65 79.15 81.75 82.65 76.1C80.75 75.15 78.75 74.1 77.7 72.3C77.1 71.2 76.85 69.95 76.7 68.7C76.35 65.9 76.2 63.1 76.3 60.35C76.3 60 76.3 59.55 76.05 59.3C75.8 59.05 75.35 59 74.95 59C66.5 59.1 58 59.25 49.55 59.35C49.9 62.2 50.1 65.1 50.05 67.95C50.05 70.2 49.75 72.75 47.9 74.1C46.85 74.85 45.55 75.05 44.35 75.35C44.05 75.45 43.75 75.5 43.5 75.6C46.8 81.5 54.4 85.65 63.2 85.65Z" fill="#B58969"/>
<path d="M45.8075 56.0124C47.3868 55.7457 48.1937 52.7262 47.6097 49.2681C47.0258 45.8101 45.2721 43.223 43.6929 43.4897C42.1136 43.7563 41.3067 46.7758 41.8907 50.2339C42.4746 53.6919 44.2283 56.279 45.8075 56.0124Z" fill="#B58969"/>
<path d="M84.7921 43.4991C83.2128 43.2325 81.4592 45.8196 80.8752 49.2776C80.2913 52.7357 81.0981 55.7552 82.6774 56.0218C84.2567 56.2885 86.0103 53.7014 86.5943 50.2434C87.1782 46.7853 86.3714 43.7658 84.7921 43.4991Z" fill="#B58969"/>
<path d="M79.3486 64.3002C77.8986 66.9002 75.5986 69.0002 73.2986 71.0502C72.4486 71.8502 71.5486 72.6502 70.5486 73.2502C67.3986 75.2002 63.1986 75.1502 59.7486 73.8502C56.2486 72.5502 53.3986 70.0502 51.0486 67.3002C49.9986 66.0502 49.0486 64.7502 48.3486 63.3502C47.6486 61.9002 47.2486 60.3502 46.8986 58.7502C46.4486 57.0002 46.0486 55.2502 45.5986 53.5002C45.3486 52.4002 45.0486 51.2502 44.8986 50.1002C44.7486 49.0002 44.7486 47.8502 44.7486 46.7002C44.6986 43.9502 44.6986 41.2002 44.6486 38.5002C44.6486 37.3502 44.5986 36.2002 44.7986 35.0502C44.9986 33.8002 45.4486 32.5502 45.8986 31.4002C47.1986 28.1502 48.7486 24.8002 51.5486 22.5002C53.3986 20.9502 55.7486 19.9002 58.1486 19.2002C64.5986 17.3002 72.0486 17.8002 77.4486 21.6502C81.0986 24.2502 83.5486 28.2502 84.0986 32.5502C84.5986 36.5502 83.5486 40.5002 83.3986 44.5002C83.2986 46.5002 83.4486 48.4502 83.2986 50.4502C83.0986 53.1502 82.3486 55.7502 81.5986 58.3502C80.9486 60.4002 80.3986 62.4502 79.3486 64.3002Z" fill="#CA9F7D"/>
<path d="M64.0013 127.501C85.9513 127.501 105.301 116.351 116.701 99.4506C116.201 97.4506 115.551 95.5006 114.401 93.8006C112.201 90.5506 108.451 88.6506 104.851 86.9506C97.5013 83.3506 90.1013 79.8006 82.7513 76.2006C82.7013 76.2006 82.6513 76.1506 82.6013 76.1506C79.1513 81.8006 71.7513 85.7006 63.1513 85.7006C54.3513 85.7006 46.7513 81.5506 43.4513 75.6506C41.4513 76.3006 39.5513 77.3006 37.7013 78.3006C32.8513 80.8506 28.0513 83.4506 23.2013 86.0006C19.8013 87.8006 16.3013 89.7006 14.0013 92.8006C12.5513 94.7006 11.7513 97.0006 11.1013 99.3006C22.5513 116.251 41.9513 127.501 64.0013 127.501Z" fill="#F1595A"/>
<path d="M41.4491 31.9503C41.7491 30.6503 41.9991 29.3503 42.2991 28.0503C42.5491 26.8503 42.8491 25.5503 43.5491 24.5503C44.0491 23.8003 44.7491 23.2502 45.2991 22.5503C46.8491 20.6003 47.2991 17.7003 49.5491 16.6003C50.5991 16.1003 51.8491 16.1003 52.8991 15.5503C53.5491 15.2003 54.0991 14.7003 54.6991 14.2503C56.6491 12.9003 59.1991 12.7503 61.5491 13.1503C62.3991 13.3003 63.2491 13.4503 64.0491 13.3003C64.7991 13.1503 65.4491 12.7503 66.1991 12.6003C68.3491 12.0503 70.4991 13.4003 72.6991 13.6503C73.3491 13.7503 73.9991 13.7003 74.6491 13.9503C75.8991 14.4003 76.7991 15.7503 78.0991 16.0003C78.9491 16.1503 79.8991 15.8503 80.6491 16.2503C81.0491 16.5003 81.2991 16.9003 81.5491 17.3003C82.5491 18.9003 83.5491 20.5503 84.5991 22.1503C85.3991 23.4503 86.1991 24.7503 86.6491 26.2003C86.9491 27.1503 87.0491 28.2003 87.0991 29.2003C87.4491 34.1003 87.0991 39.0503 86.0491 43.9003C84.8491 43.7003 83.7491 44.7003 83.3491 45.8003C82.8991 46.9002 82.9991 48.1502 82.9991 49.3503C82.9991 49.6502 82.6491 50.1003 82.4991 49.8503C82.0991 47.1502 81.6991 44.4503 81.3491 41.7503C81.1491 40.3003 80.8991 38.8003 80.3491 37.4503C79.6491 35.8503 78.4491 34.5003 76.9491 33.6503C76.1991 33.2003 75.3991 32.9003 74.6491 32.5003C71.8491 31.0003 69.6991 28.3003 68.8491 25.2003C66.8491 27.2503 64.1491 28.6003 61.3491 28.9503C59.8491 29.1503 58.2991 29.0503 56.8491 29.5003C55.1991 29.9503 53.7991 31.0003 52.6991 32.3003C51.6991 33.5003 50.9991 34.8503 50.2991 36.2003C49.3491 38.1003 48.3491 40.0003 47.5991 42.0003C46.6491 44.5003 46.0491 47.1003 45.7991 49.7503C45.4991 49.7503 45.2491 49.7003 44.9491 49.7003C45.3491 47.6003 44.6491 45.3003 43.1991 43.8003C42.8491 43.4503 42.4991 43.1503 42.2991 42.7003C42.0991 42.2503 42.1491 41.7003 42.0491 41.1503C41.9491 40.2503 41.4991 39.4503 41.1991 38.6003C40.4991 36.4503 40.9991 34.1503 41.4491 31.9503Z" fill="#161616"/>
</g>
<defs>
<clipPath id="clip0_2523_18768">
<rect width="128" height="128" fill="white"/>
</clipPath>
</defs>
</svg>
