<svg width="128" height="128" viewBox="0 0 128 128" fill="none" xmlns="http://www.w3.org/2000/svg">
<g clip-path="url(#clip0_2523_18776)">
<path d="M127.5 64C127.5 28.95 99.05 0.5 64 0.5C28.95 0.5 0.5 28.95 0.5 64C0.5 95 22.75 120.85 52.15 126.4C52.95 125.55 54.1 124.95 55.25 124.6C56.85 124.15 58.5 124.1 60.15 124C64.1 123.75 68.1 123.15 71.95 124C73.85 124.4 75.65 125.2 77.35 126.1C106 119.95 127.5 94.5 127.5 64Z" fill="#D5E0E1"/>
<path d="M60.1487 124C58.4987 124.1 56.8487 124.15 55.2487 124.6C54.0987 124.95 52.9487 125.55 52.1487 126.4C55.9987 127.15 59.9487 127.5 63.9987 127.5C68.5987 127.5 73.0487 127 77.3487 126.1C75.5987 125.2 73.8487 124.4 71.9487 124C68.0987 123.1 64.0987 123.75 60.1487 124Z" fill="#FAFAF8"/>
<path d="M28.25 92.6504C36.05 94.0504 43.75 90.1504 51.45 88.3004C56.65 87.1004 62.05 86.7504 67.1 85.0504C74.75 82.4004 81.1 76.5504 85.05 69.4504C89 62.3504 90.65 54.1504 90.65 46.0504C90.65 38.7504 89.3 31.4004 85.75 25.0004C82.25 18.6504 76.45 13.3504 69.45 11.4004C60.15 8.7504 49.55 12.5504 43.35 20.0004C40.55 23.4004 38.6 27.4504 36.85 31.5504C33.75 38.8504 31.15 46.7504 32.35 54.5504C33 58.8004 34.8 62.8004 35.65 67.0004C37.55 76.1004 34.65 86.0004 28.25 92.6504Z" fill="#161616"/>
<path d="M80.9002 59.7503C80.7502 59.7003 80.6502 59.6003 80.5502 59.5003C80.4502 59.3503 80.4002 59.2003 80.3502 59.0003C79.9002 56.9503 80.2002 54.8003 80.5002 52.7003C80.6002 52.0003 80.7002 51.3503 80.8002 50.6503C81.0002 49.4003 81.2002 48.1003 81.9002 47.0503C82.6502 46.0003 84.0502 45.3503 85.2002 45.9003C85.5502 46.0503 85.8502 46.3503 86.0002 46.7003C86.1002 47.0003 86.1002 47.3003 86.1502 47.6003C86.2002 48.5503 86.2002 49.5003 86.2502 50.4503C86.3002 52.6503 86.3502 54.9003 85.5502 56.9503C85.2002 57.9003 84.6002 58.7503 83.8002 59.3503C82.9502 59.9503 81.8002 60.1503 80.9002 59.7503ZM88.4002 113.1C88.4002 113.05 88.4502 113 88.4502 113C91.6002 106 94.2502 98.1003 91.9002 90.8003C91.1002 88.3503 89.7502 86.1003 88.4502 83.8503C88.3502 83.7003 88.3002 83.5503 88.2002 83.4503C88.0002 83.7003 87.8502 84.0003 87.6002 83.9003C86.0002 83.1503 81.9002 81.9003 80.7002 80.6003C77.6002 77.1503 77.9502 71.9003 78.5002 67.3003C71.9002 68.0503 65.1502 67.6503 58.7002 66.0003C58.3002 65.9003 57.9002 65.8003 57.5502 65.9503C56.9502 66.1503 56.7002 66.8503 56.5002 67.4503C54.7502 72.9003 50.7002 83.7503 39.0502 82.9503C38.3502 83.7003 37.7002 84.5003 37.2002 85.4003C35.5502 88.3503 35.0002 91.8003 35.2002 95.2003C35.5002 100.65 37.5502 105.65 40.3002 110.4C55.3002 117.05 72.7502 118 88.4002 113.1Z" fill="#B47447"/>
<path d="M83.0966 50.2499C83.0466 56.7999 82.9466 63.4999 80.4466 69.5499C77.9466 75.5999 72.4466 80.8499 65.9466 81.0499C61.3966 81.1999 56.9966 78.8499 53.8966 75.4499C50.7966 72.0499 48.9466 67.7499 47.6466 63.3999C46.0466 57.8999 45.2466 52.0999 45.3966 46.3499C45.4966 42.5499 45.9966 38.6499 47.9466 35.3499C49.8466 32.0499 53.4466 29.5499 57.2466 29.7499C58.5466 29.8499 59.8466 30.1999 61.1466 30.2999C64.5466 30.4999 67.7466 28.4999 71.1466 28.0999C75.3966 27.6499 79.8466 30.0499 81.7466 33.8999C83.2466 36.8999 83.2466 40.3999 83.1966 43.7499C83.1466 45.8999 83.1466 48.0999 83.0966 50.2499Z" fill="#D68A59"/>
<path d="M51.7489 126.3C50.5489 124.7 49.2989 123.1 48.0989 121.5C47.7489 121.05 47.4488 120.6 47.0989 120.2C41.4489 112.7 35.8489 104.55 35.2989 95.2003C35.0989 91.8503 35.5989 88.3503 37.2989 85.4003C37.7989 84.5003 38.4489 83.7003 39.1489 82.9503C32.6989 83.6503 34.5489 83.7503 28.3489 85.6503C21.1489 87.8503 13.5489 91.6003 10.6989 98.5003C19.8489 112.65 34.5489 122.95 51.7489 126.3ZM88.2989 113.3C87.2989 115.5 86.2489 117.7 85.1489 119.9V119.95C84.5989 121.05 83.9989 122.15 83.4489 123.25C83.1488 123.75 82.8989 124.3 82.5989 124.8C96.5489 120.55 108.449 111.6 116.499 99.8503C116.449 99.6503 116.349 99.5003 116.299 99.3003C113.999 93.7003 107.999 89.1503 102.249 87.3503C96.9489 85.7003 93.8489 85.3003 88.6989 83.2003C88.4989 83.1503 88.3489 83.3003 88.2489 83.5003C88.3489 83.6503 88.3989 83.8003 88.4989 83.9003C89.7989 86.1503 91.1488 88.3503 91.9489 90.8503C94.2989 98.1503 91.6489 106.05 88.4989 113.05C88.4989 113.1 88.4489 113.15 88.4489 113.15C88.3489 113.15 88.2989 113.2 88.2989 113.3Z" fill="#7267AE"/>
<path d="M83.4013 123.2C84.0013 122.1 84.5513 121 85.1013 119.9V119.85C86.2013 117.7 87.2513 115.5 88.2513 113.25C88.3013 113.2 88.3013 113.15 88.3513 113.05C72.7513 117.95 55.3013 117 40.3513 110.3C42.3513 113.7 44.6513 116.95 47.0513 120.05C47.4013 120.5 47.7013 120.95 48.0513 121.35C49.2513 122.95 50.5013 124.55 51.7013 126.15C52.0013 126.2 52.3513 126.3 52.6513 126.35H75.3013C77.7513 125.9 80.1513 125.3 82.5013 124.6C82.8013 124.25 83.1013 123.7 83.4013 123.2ZM51.8513 126.5H52.6513C52.3513 126.45 52.0013 126.4 51.7013 126.3C51.8013 126.35 51.8013 126.45 51.8513 126.5Z" fill="#FAFAF8"/>
<path d="M82.5513 124.749C82.8513 124.249 83.1513 123.699 83.4013 123.199C83.1013 123.699 82.8013 124.249 82.5513 124.749ZM82.5513 124.749C82.2513 125.349 81.9013 125.899 81.6013 126.499C81.9013 125.899 82.2013 125.349 82.5513 124.749ZM88.4013 113.099C88.3513 113.149 88.3513 113.199 88.3013 113.299C88.3013 113.199 88.3513 113.149 88.4013 113.099Z" fill="#FAFAF8"/>
<path d="M50.3519 110.851C46.9519 110.551 43.3519 111.001 40.4519 112.901C39.3019 113.651 38.3019 114.551 37.0519 115.051C35.1019 115.801 32.9019 115.301 30.8519 114.801C29.1019 114.351 27.3019 113.901 25.5519 113.451C23.7019 113.001 21.6519 112.351 20.8519 110.651C19.7519 108.251 21.8519 105.551 21.8519 102.901C21.8519 101.501 21.2519 100.201 21.0019 98.8509C20.4519 95.7509 21.8019 92.6509 23.7519 90.1509C25.6519 87.7009 28.1519 85.7009 30.3019 83.4509C33.5019 80.0009 36.1019 76.0009 37.8519 71.6009C38.1519 70.8009 38.5019 69.9509 39.2519 69.5009C39.6519 69.2509 40.1519 69.1509 40.6519 69.1009C43.7519 68.7509 47.0019 69.5009 49.6519 71.1509C50.3019 71.5509 50.9019 72.0009 51.2519 72.7009C51.8519 73.8009 51.5019 75.1509 51.2519 76.3509C50.7519 78.9509 50.6519 81.6009 50.9519 84.2009C51.2019 86.5509 51.8019 88.9009 51.4019 91.2509C51.2019 92.3509 50.8019 93.4509 50.7519 94.5509C50.6519 96.6009 51.7519 98.5009 52.9019 100.151C54.0519 101.801 55.4019 103.451 55.9019 105.451C56.4019 107.451 55.7019 109.901 53.8019 110.651C52.7019 111.101 51.5019 110.951 50.3519 110.851Z" fill="#161616"/>
</g>
<defs>
<clipPath id="clip0_2523_18776">
<rect width="128" height="128" fill="white"/>
</clipPath>
</defs>
</svg>
