<svg width="43" height="49" viewBox="0 0 43 49" fill="none" xmlns="http://www.w3.org/2000/svg">
    <path d="M42.665 36.25C42.1588 28.375 31.8238 26.7288 31.8238 26.7288C29.1988 26.2563 28.1075 23.9912 27.6988 22.5212C29.7024 20.1843 31.1511 17.424 31.9363 14.4475C32.24 13.3481 32.3951 12.213 32.3975 11.0725C32.3952 10.4436 32.3375 9.81621 32.225 9.1975C33.5188 7 33.125 4.53625 32.8175 3.35125C32.7599 3.18394 32.6483 3.04049 32.5004 2.94344C32.3524 2.84638 32.1764 2.8012 32 2.815H31.88C31.7317 2.83015 31.5828 2.83766 31.4338 2.8375C29.075 2.8375 25.1713 1.27 25.1713 1.27C23.726 0.618983 22.1625 0.271807 20.5775 0.25V1.75C21.9573 1.77547 23.3174 2.08169 24.575 2.65H24.6088C25.0363 2.8225 28.8538 4.32625 31.43 4.32625H31.5013C31.8763 6.325 31.655 9.34375 27.71 10.9225C26.3952 11.3852 25.0126 11.626 23.6188 11.635C21.3913 11.635 19.5575 10.9563 18.1625 9.62125C17.9616 9.42841 17.7109 9.29532 17.4386 9.23689C17.1663 9.17846 16.8831 9.197 16.6207 9.29042C16.3583 9.38385 16.1272 9.54847 15.9531 9.76586C15.779 9.98324 15.6688 10.2448 15.635 10.5212L15.5375 11.2975L15.0613 10.9637C14.7945 10.7757 14.4736 10.6799 14.1474 10.6907C13.8213 10.7015 13.5075 10.8185 13.2538 11.0238C12.8893 11.3284 12.5699 11.6832 12.305 12.0775C11.93 9.30625 11.9825 5.88625 13.7638 5.29C14.067 5.1846 14.3294 4.98651 14.5138 4.72375C15.2318 3.79959 16.1512 3.0514 17.202 2.53609C18.2527 2.02077 19.4072 1.75193 20.5775 1.75V0.25C19.1662 0.259542 17.7759 0.591969 16.5129 1.22182C15.25 1.85167 14.148 2.76223 13.2913 3.88375C10.9138 4.67875 10.5088 7.7425 10.6663 10.4275C10.6663 10.6487 10.64 10.87 10.64 11.0912C10.7217 15.3772 12.2628 19.5071 15.0088 22.7987C15.0875 22.8888 15.1663 22.975 15.2488 23.0575C14.7275 24.49 13.6175 26.32 11.2775 26.7362C11.2775 26.7362 0.938757 28.39 0.436257 36.2575C0.0580182 39.2437 0.0240455 42.2635 0.335007 45.2575C0.44952 46.075 0.852717 46.8245 1.47171 47.3706C2.0907 47.9167 2.88464 48.2233 3.71001 48.235H39.3913C40.2147 48.2255 41.0062 47.9152 41.6168 47.3626C42.2273 46.8101 42.6148 46.0534 42.7063 45.235C42.9364 42.2438 42.9226 39.2389 42.665 36.25ZM29.1313 27.4975L25.4263 32.7887L23.975 30.4075L23.915 30.31L23.84 30.2238C23.7839 30.1404 23.7514 30.0433 23.7461 29.9429C23.7408 29.8425 23.7629 29.7426 23.81 29.6538L27.8 26.3237L28.3475 26.9313L28.4788 27.0775L28.6438 27.1825L29.1313 27.4975ZM12.9125 15.8725C12.8008 15.2031 12.8605 14.5164 13.0861 13.8764C13.3117 13.2363 13.6958 12.6639 14.2025 12.2125L16.22 13.6337C16.3045 13.7119 16.4128 13.7595 16.5275 13.7687C16.6925 13.7687 16.8013 13.6225 16.8013 13.3563L17.1275 10.7313C19.1113 12.625 21.5375 13.15 23.6225 13.15C25.2002 13.1418 26.765 12.8653 28.25 12.3325C29.2055 11.9719 30.0931 11.452 30.875 10.795V11.0912C30.8715 12.0938 30.7341 13.0914 30.4663 14.0575C29.4613 17.7175 27.5263 20.9387 25.1525 22.8888C24.0849 23.7736 22.7404 24.2553 21.3538 24.25C20.3606 24.2377 19.3816 24.0136 18.4821 23.5926C17.5825 23.1716 16.7832 22.5634 16.1375 21.8088C14.672 20.0643 13.575 18.0411 12.9125 15.8612V15.8725ZM14.3525 27.1975L14.5175 27.0925L14.6488 26.9463L15.1963 26.3387L19.1825 29.665C19.2296 29.7538 19.2517 29.8538 19.2464 29.9542C19.2411 30.0545 19.2087 30.1516 19.1525 30.235L19.0775 30.3213L19.0175 30.4187L17.5663 32.8037L13.8688 27.4975L14.3525 27.1975ZM41.21 45.1413C41.1466 45.5827 40.9294 45.9877 40.5967 46.2847C40.264 46.5818 39.8371 46.7519 39.3913 46.765H3.71001C3.25607 46.7512 2.821 46.5802 2.47906 46.2814C2.13711 45.9825 1.90947 45.5742 1.83501 45.1263C1.5393 42.2571 1.56949 39.3636 1.92501 36.5013V36.3737C2.34501 29.8113 11.42 28.255 11.5063 28.24H11.5325C11.8238 28.1792 12.1107 28.099 12.3913 28L16.625 34.03C16.6929 34.2262 16.8162 34.3986 16.9799 34.5263C17.1435 34.6541 17.3407 34.7318 17.5475 34.75C17.7198 34.74 17.8877 34.6921 18.0394 34.6098C18.1911 34.5275 18.3227 34.4128 18.425 34.2738L20.3 31.1875C20.5942 30.8194 20.7516 30.3607 20.7455 29.8896C20.7393 29.4184 20.57 28.964 20.2663 28.6038L15.9838 25.0262C16.1553 24.7306 16.3094 24.425 16.445 24.1112C17.8669 25.1626 19.5854 25.7363 21.3538 25.75C23.0879 25.7556 24.7691 25.1532 26.105 24.0475C26.2363 23.9387 26.3638 23.8263 26.48 23.7137C26.6436 24.147 26.8405 24.567 27.0688 24.97L22.73 28.6038C22.4263 28.964 22.257 29.4184 22.2508 29.8896C22.2446 30.3607 22.4021 30.8194 22.6963 31.1875L24.5713 34.2738C24.6739 34.4132 24.8062 34.5283 24.9585 34.6106C25.1109 34.6929 25.2796 34.7405 25.4525 34.75C25.6593 34.7318 25.8565 34.6541 26.0202 34.5263C26.1838 34.3986 26.3071 34.2262 26.375 34.03L30.6275 27.9738C30.9326 28.0762 31.2446 28.1564 31.5613 28.2137H31.5875C31.6775 28.2137 40.7488 29.755 41.1688 36.3475V36.3962C41.4182 39.3004 41.432 42.2199 41.21 45.1263V45.1413Z"
          fill="#888888"/>
    <path fill-rule="evenodd" clip-rule="evenodd"
          d="M21.5 29.5C21.9142 29.5 22.25 29.8358 22.25 30.25V47.6875H20.75V30.25C20.75 29.8358 21.0858 29.5 21.5 29.5Z"
          fill="#888888"/>
</svg>
