<svg width="128" height="128" viewBox="0 0 128 128" fill="none" xmlns="http://www.w3.org/2000/svg">
<g clip-path="url(#clip0_2523_19238)">
<path d="M64 127.5C99.0701 127.5 127.5 99.0701 127.5 64C127.5 28.9299 99.0701 0.5 64 0.5C28.9299 0.5 0.5 28.9299 0.5 64C0.5 99.0701 28.9299 127.5 64 127.5Z" fill="#38B29A"/>
<path d="M35.8977 120.95C36.9977 121.5 38.0977 122 39.2477 122.5C39.4477 121.65 39.6977 120.8 39.9477 119.95C42.5477 111.85 45.5977 103.85 48.9977 96.0497C49.1977 95.5497 49.9477 94.2997 49.7977 93.7497C51.6977 92.9497 53.8477 93.7997 55.7977 94.3497C56.2477 100.85 56.5477 107.3 56.0977 113.75C56.4977 112.6 56.8977 111.5 57.2977 110.4C57.3977 110.1 57.4977 109.8 57.6477 109.45C57.8977 108.75 58.1477 108.05 58.4477 107.35C58.6477 106.85 58.7977 106.4 58.9977 105.9C59.1477 105.5 59.3477 105.05 59.4977 104.65C59.7477 103.95 60.0477 103.3 60.2977 102.6C60.4477 102.25 60.5977 101.9 60.7477 101.5L61.4977 99.6997C61.5977 99.3997 61.7477 99.0997 61.8477 98.8497L62.8977 96.4497C62.9977 96.1997 63.1477 95.9497 63.2477 95.6497C63.6477 94.7997 63.9977 93.9997 64.3977 93.1497C64.4477 93.0497 64.4977 92.8997 64.5977 92.7997C64.9477 91.9997 65.3477 91.2497 65.7477 90.4997C65.8477 90.2997 65.9477 90.1497 66.0477 89.9497C66.4977 89.0997 66.8977 88.2997 67.3477 87.4497C67.4477 87.2997 67.5477 87.0997 67.6477 86.9497C68.0977 86.0997 68.5977 85.2497 69.0977 84.3997C65.6977 83.9997 62.2977 83.7997 58.8977 83.7497C55.7477 83.6997 51.4977 82.3997 49.6977 79.7997C48.4477 80.4497 47.2477 82.3497 46.6477 83.3997C45.8977 84.8497 45.7977 86.5497 45.1977 88.0497C40.9477 98.6497 37.8477 109.7 35.8977 120.95Z" fill="#0B2C48"/>
<path d="M49.8523 53.4503H76.3523V87.5003H49.8523V53.4503Z" fill="#D3AA6F"/>
<path d="M40.8029 25.25C40.0029 25.25 39.0029 25.3 38.6029 26C38.4029 26.3 38.4029 26.7 38.4029 27.05C38.3029 29.9 38.2029 32.7 38.1029 35.55C38.0529 36.4 38.0529 37.3 38.1529 38.15C38.3029 39.3 38.7529 40.4 39.2029 41.5C39.7529 42.85 40.2529 44.15 40.8029 45.5C41.2029 46.5 41.6529 47.55 42.5029 48.2C44.2529 42.3 45.1029 36.1 44.9529 29.9C44.9029 28.4 44.7029 26.7 43.5029 25.85C42.7529 25.3 41.7529 25.25 40.8029 25.25Z" fill="#181715"/>
<path d="M53.9489 69.3002C57.6989 69.9002 61.4989 68.5002 64.7489 66.6002C70.1989 63.3502 74.8989 58.3002 76.3489 52.0502C76.8489 49.9002 76.9489 47.7002 77.0489 45.5502C77.1489 42.8002 77.2989 40.0502 76.5989 37.4002C75.4989 33.3002 72.5989 30.0502 69.7489 26.9502C67.8489 24.9502 65.8989 22.8502 63.3989 21.7002C60.9489 20.5502 58.1489 20.3502 55.4489 20.2002C52.7489 20.0502 49.9489 19.9002 47.4489 20.9002C46.1989 21.4002 45.0489 22.2002 43.9489 23.0002C43.4989 23.3502 42.9989 23.7002 42.6489 24.1502C42.2489 24.7002 42.0989 25.4502 41.9489 26.1002C40.2489 34.3002 39.9989 42.8002 41.2489 51.1002C41.8489 55.0502 42.7989 59.0002 44.8489 62.4002C46.7989 65.8502 50.0989 68.6502 53.9489 69.3002Z" fill="#EEC98F"/>
<path d="M44.9499 25.7496C45.8999 25.3996 46.8499 24.9496 47.8499 24.5996C50.6999 23.6996 53.7499 24.2496 56.6999 24.7496C55.6999 23.6496 54.0499 23.0496 52.5499 23.2996C54.3499 23.6996 56.1999 22.6996 58.0499 22.8496C60.5999 23.0496 62.3999 25.2496 63.9999 27.1496C65.5999 29.0496 67.7999 31.0496 70.3499 30.6996C69.9499 30.8496 69.3999 30.4996 69.4499 30.0496C69.7999 30.4996 70.0999 30.9996 70.3999 31.4996C72.8499 35.7996 73.9499 40.7996 73.5999 45.6996C74.0499 45.6996 74.4999 45.6496 74.9499 45.6496C74.7499 43.2996 76.6499 40.9496 79.0499 40.5996C79.6999 35.4496 80.2999 30.0496 78.2999 25.1996C76.3999 20.6496 72.2999 17.1496 67.6499 15.2996C62.9499 13.4496 57.7499 13.1996 52.7499 13.7996C51.3499 13.9996 49.8999 14.2496 48.5999 14.8996C46.6499 15.8996 45.2999 17.7996 43.4999 19.0496C41.5499 20.3996 38.9999 21.1996 37.9999 23.2996C37.5999 24.1496 37.5499 25.2996 38.3499 25.8496C38.6999 26.0996 39.0999 26.1496 39.5499 26.1996C41.2999 26.5996 43.1999 26.3996 44.9499 25.7496Z" fill="#2D2C2A"/>
<path d="M74.7507 49.6997C74.9507 48.9997 74.7007 48.2497 74.6007 47.4997C74.3507 45.5997 75.0007 43.6497 75.9507 41.9997C76.5007 41.0497 77.3007 40.0497 78.4007 40.0497C79.6507 40.0997 80.4507 41.3997 80.7507 42.5997C81.5007 45.5997 80.8007 48.9997 78.8507 51.3997C78.0507 52.3997 76.9507 53.2997 75.6507 53.4497C74.8507 53.5497 73.9007 53.1997 73.7007 52.4497C73.4507 51.4997 74.4507 50.6497 74.7507 49.6997Z" fill="#D3AA6F"/>
<path d="M52.2498 82.5996C51.4998 82.8496 51.4998 83.8496 51.3498 84.5996C51.0998 85.6496 50.3498 86.4496 49.9498 87.4496C49.4998 88.4996 49.4498 89.7496 49.3998 90.8996C49.3498 92.2496 49.3498 93.5996 49.6498 94.8996C51.8498 94.4496 54.1998 94.8996 56.0498 96.1496C56.4498 94.0496 58.5998 92.7996 59.6498 90.9496C59.7498 90.7996 59.8498 90.5996 59.8498 90.3996C59.8498 90.1996 59.7498 89.9496 59.6498 89.7996C58.8498 88.2996 57.9998 86.8496 56.8998 85.5496C55.9498 84.4496 54.7998 83.4996 53.4998 82.7996C53.0998 82.6496 52.6498 82.4996 52.2498 82.5996Z" fill="#D3D3CB"/>
<path d="M81.9023 87.9003C81.6523 88.5503 81.3023 89.3003 80.7023 89.6003C80.3023 89.8003 79.8023 89.8003 79.3023 89.8003C77.3523 89.7503 75.4523 89.7503 73.5023 89.7003C74.5023 91.3503 75.5523 93.0003 76.5523 94.6503C76.7523 95.0003 77.0023 95.4003 77.0023 95.8003C77.0023 96.1503 76.8023 96.5003 76.6023 96.8503C73.3023 102.6 69.6023 108.15 66.3023 113.9C63.8023 118.25 61.5523 122.75 59.3523 127.3C60.8523 127.4 62.4023 127.45 63.9523 127.45C84.9023 127.45 103.502 117.3 115.052 101.65C114.802 98.8503 114.302 96.1003 112.852 93.7003C110.202 89.2503 105.002 87.1503 100.252 85.0503C94.6023 82.6003 89.0523 79.8003 83.7023 76.7003C84.8023 80.4503 83.3523 84.3503 81.9023 87.9003ZM29.7523 116.9C29.7523 114.3 29.7523 111.7 30.1023 109.15C30.6523 105.3 31.9523 101.6 33.3023 97.9503C33.5523 97.2503 33.8523 96.5003 34.3023 95.9003C35.4023 94.5503 37.3523 94.2503 38.6023 93.0003C37.9023 92.0003 37.0023 91.1503 35.9523 90.5503C38.3523 86.0503 42.2523 82.4003 46.9023 80.3003C47.0523 80.1003 48.1023 80.1003 48.2523 79.9003C46.0023 79.9003 41.7523 82.9503 38.7523 84.1003C35.0023 85.5503 31.0023 86.6003 27.9523 89.2503C26.3523 90.6003 25.1023 92.3503 24.0523 94.2003C21.4523 98.7003 20.0523 103.7 19.1023 108.85C22.3023 112.05 25.8523 114.95 29.7023 117.4C29.7523 117.3 29.7523 117.1 29.7523 116.9Z" fill="#1E1E1E"/>
<path d="M36.0011 90.5993C37.0511 91.1993 37.9511 92.0493 38.6511 93.0493C37.4011 94.2493 35.4511 94.5993 34.3511 95.9493C33.8511 96.5493 33.6011 97.2493 33.3511 97.9993C32.0511 101.649 30.7011 105.349 30.1511 109.199C29.8011 111.749 29.8011 114.349 29.8011 116.949V117.549C31.8011 118.799 33.8511 119.999 35.9511 121.049C37.9011 109.799 41.0011 98.7493 45.2011 88.1493C45.8011 86.6493 46.4511 85.1493 47.1511 83.6993C47.8011 82.3993 48.5511 81.1493 49.4511 79.9993C48.8011 79.6993 48.1011 79.9493 47.4511 80.1993C47.2511 80.2993 47.1012 80.3493 46.9011 80.4493C42.3011 82.4493 38.3511 86.0993 36.0011 90.5993Z" fill="#131212"/>
<path d="M56.2023 113.75C56.6523 107.35 56.3523 100.85 55.9023 94.3501C53.9523 93.8001 51.8023 92.9501 49.9023 93.7501C50.0023 94.3001 49.3023 95.5001 49.1023 96.0501C45.7023 103.85 42.6523 111.85 40.0523 119.95C39.8023 120.8 39.5023 121.65 39.3523 122.5C43.4023 124.2 47.7023 125.55 52.1523 126.35C53.4023 122.15 54.7523 117.95 56.2023 113.75Z" fill="#D3D3CB"/>
<path d="M66.0477 90.0003C66.4977 89.1503 66.8977 88.3503 67.3477 87.5003C66.9477 88.3503 66.4977 89.2003 66.0477 90.0003ZM63.2977 95.7503C63.6977 94.9003 64.0477 94.1003 64.4477 93.2503C64.0977 94.0503 63.6977 94.9003 63.2977 95.7503ZM64.6477 92.9003C65.0477 92.1003 65.3977 91.3503 65.7977 90.6003C65.3977 91.3503 64.9977 92.1003 64.6477 92.9003ZM58.4977 107.35C58.6977 106.85 58.8477 106.4 59.0477 105.9C58.8477 106.4 58.6977 106.9 58.4977 107.35ZM59.5477 104.65C59.7977 103.95 60.0977 103.3 60.3477 102.6C60.0977 103.3 59.7977 104 59.5477 104.65Z" fill="#131212"/>
<path d="M47.6967 85.4494C47.8467 84.8494 48.0467 84.1994 48.2467 83.5994C48.7467 81.7494 49.0467 79.8494 49.2967 77.9494C49.4967 76.5994 49.6967 75.2494 49.8967 73.8494C49.5967 77.2994 51.2467 80.7994 53.9967 82.8494C52.8967 83.5494 52.5467 84.8994 52.1467 86.1494C50.9967 89.6994 48.6967 92.7494 47.5967 96.2994C46.6967 92.7994 46.6967 88.9994 47.6967 85.4494Z" fill="#4F6673"/>
<path d="M76.6523 65.75C76.6523 65.75 76.1523 68.65 68.4523 73.5C60.8023 78.35 53.8523 82.85 53.8523 82.85L59.3023 97.8L78.9023 77.9L79.7023 70.8L76.6523 65.75Z" fill="#677B83"/>
<path d="M67.4 87.4994C66.95 88.3494 66.5 89.1494 66.1 89.9994C66 90.1994 65.9 90.3494 65.8 90.5494C65.4 91.2994 65.05 92.0994 64.65 92.8494C64.6 92.9494 64.55 93.0994 64.45 93.1994C64.05 93.9994 63.65 94.8494 63.3 95.6994C63.2 95.9494 63.05 96.1994 62.95 96.4994L61.9 98.8994C61.8 99.1994 61.65 99.4994 61.55 99.7494L60.8 101.549C60.65 101.899 60.5 102.249 60.35 102.649C60.1 103.349 59.8 103.999 59.55 104.699C59.4 105.099 59.2 105.549 59.05 105.949C58.85 106.449 58.7 106.899 58.5 107.399C58.25 108.099 57.95 108.799 57.7 109.499C57.6 109.799 57.45 110.099 57.35 110.449C56.95 111.549 56.55 112.699 56.15 113.799C54.7 117.999 53.35 122.199 52 126.399C54.4 126.849 56.85 127.199 59.35 127.349C61.55 122.799 63.8 118.299 66.3 113.949C69.6 108.199 73.3 102.649 76.6 96.8994C76.8 96.5994 77 96.2494 77 95.8494C77 95.4494 76.8 95.0494 76.55 94.6994C75.55 93.0494 74.5 91.3994 73.5 89.7494C75.45 89.7994 77.35 89.7994 79.3 89.8494C79.75 89.8494 80.25 89.8494 80.7 89.6494C81.35 89.3494 81.65 88.5994 81.9 87.9494C83.35 84.3994 84.75 80.4994 83.75 76.7994V76.6994C82.95 73.9494 80.95 71.1994 78.95 69.0994C78.1 71.2494 76.65 73.0494 75.3 74.8994C73.05 77.9994 71 81.1494 69.1 84.4494C68.6 85.2994 68.15 86.1494 67.65 86.9994C67.55 87.1994 67.45 87.3494 67.4 87.4994Z" fill="#131212"/>
</g>
<defs>
<clipPath id="clip0_2523_19238">
<rect width="128" height="128" fill="white"/>
</clipPath>
</defs>
</svg>
