<svg width="18" height="18" viewBox="0 0 18 18" fill="none" xmlns="http://www.w3.org/2000/svg">
    <path d="M0 2.91176C0 2.13952 0.306774 1.3989 0.852836 0.852836C1.3989 0.306774 2.13952 0 2.91176 0H14.0294C14.8017 0 15.5423 0.306774 16.0883 0.852836C16.6344 1.3989 16.9412 2.13952 16.9412 2.91176V8.74271C16.6146 8.47303 16.2595 8.23977 15.8824 8.04706V6.35294H7.10153L8.84541 8.09577C8.94482 8.19517 9.00067 8.33 9.00067 8.47059C9.00067 8.61117 8.94482 8.746 8.84541 8.84541C8.746 8.94482 8.61117 9.00067 8.47059 9.00067C8.33 9.00067 8.19517 8.94482 8.09577 8.84541L6.35294 7.10153V11.6471H7.63094C7.53297 11.9932 7.46739 12.3476 7.43506 12.7059H2.91176C2.13952 12.7059 1.3989 12.3991 0.852836 11.853C0.306774 11.307 0 10.5664 0 9.79412V2.91176ZM2.91176 1.05882C2.42033 1.05882 1.94903 1.25404 1.60154 1.60154C1.25404 1.94903 1.05882 2.42033 1.05882 2.91176V5.29412H2.40141C2.16837 4.89041 2.07504 4.42109 2.1359 3.95894C2.19676 3.49679 2.40841 3.06763 2.73802 2.73802C3.06763 2.40841 3.49679 2.19676 3.95894 2.1359C4.42109 2.07504 4.89041 2.16837 5.29412 2.40141V1.05882H2.91176ZM6.35294 1.05882V2.40141C6.75665 2.16837 7.22597 2.07504 7.68812 2.1359C8.15027 2.19676 8.57943 2.40841 8.90904 2.73802C9.23865 3.06763 9.4503 3.49679 9.51116 3.95894C9.57202 4.42109 9.47869 4.89041 9.24565 5.29412H15.8824V2.91176C15.8824 2.42033 15.6871 1.94903 15.3396 1.60154C14.9921 1.25404 14.5208 1.05882 14.0294 1.05882H6.35294ZM6.35294 5.29412H7.41177C7.62118 5.29412 7.82589 5.23202 8.00002 5.11567C8.17414 4.99933 8.30985 4.83396 8.38999 4.64049C8.47013 4.44701 8.4911 4.23412 8.45024 4.02873C8.40939 3.82334 8.30855 3.63467 8.16047 3.48659C8.01239 3.33851 7.82372 3.23767 7.61833 3.19682C7.41294 3.15596 7.20005 3.17693 7.00657 3.25707C6.8131 3.33721 6.64773 3.47292 6.53139 3.64704C6.41504 3.82117 6.35294 4.02588 6.35294 4.23529V5.29412ZM4.23529 3.17647C3.95448 3.17647 3.68516 3.28803 3.48659 3.48659C3.28803 3.68516 3.17647 3.95448 3.17647 4.23529C3.17647 4.51611 3.28803 4.78543 3.48659 4.984C3.68516 5.18256 3.95448 5.29412 4.23529 5.29412H5.29412V4.23529C5.29412 3.95448 5.18256 3.68516 4.984 3.48659C4.78543 3.28803 4.51611 3.17647 4.23529 3.17647ZM1.05882 9.79412C1.05882 10.8169 1.88894 11.6471 2.91176 11.6471H5.29412V7.10153L3.55129 8.84541C3.45188 8.94482 3.31706 9.00067 3.17647 9.00067C3.03588 9.00067 2.90106 8.94482 2.80165 8.84541C2.70224 8.746 2.64639 8.61117 2.64639 8.47059C2.64639 8.33 2.70224 8.19517 2.80165 8.09577L4.54553 6.35294H1.05882V9.79412ZM18 13.2353C18 14.499 17.498 15.7109 16.6045 16.6045C15.7109 17.498 14.499 18 13.2353 18C11.9716 18 10.7597 17.498 9.86614 16.6045C8.97258 15.7109 8.47059 14.499 8.47059 13.2353C8.47059 11.9716 8.97258 10.7597 9.86614 9.86614C10.7597 8.97258 11.9716 8.47059 13.2353 8.47059C14.499 8.47059 15.7109 8.97258 16.6045 9.86614C17.498 10.7597 18 11.9716 18 13.2353ZM13.7647 11.1176C13.7647 10.9772 13.7089 10.8426 13.6096 10.7433C13.5104 10.644 13.3757 10.5882 13.2353 10.5882C13.0949 10.5882 12.9602 10.644 12.8609 10.7433C12.7617 10.8426 12.7059 10.9772 12.7059 11.1176V12.7059H11.1176C10.9772 12.7059 10.8426 12.7617 10.7433 12.8609C10.644 12.9602 10.5882 13.0949 10.5882 13.2353C10.5882 13.3757 10.644 13.5104 10.7433 13.6096C10.8426 13.7089 10.9772 13.7647 11.1176 13.7647H12.7059V15.3529C12.7059 15.4934 12.7617 15.628 12.8609 15.7273C12.9602 15.8266 13.0949 15.8824 13.2353 15.8824C13.3757 15.8824 13.5104 15.8266 13.6096 15.7273C13.7089 15.628 13.7647 15.4934 13.7647 15.3529V13.7647H15.3529C15.4934 13.7647 15.628 13.7089 15.7273 13.6096C15.8266 13.5104 15.8824 13.3757 15.8824 13.2353C15.8824 13.0949 15.8266 12.9602 15.7273 12.8609C15.628 12.7617 15.4934 12.7059 15.3529 12.7059H13.7647V11.1176Z"
          fill="white"/>
</svg>
