<svg width="42" height="43" viewBox="0 0 42 43" fill="none" xmlns="http://www.w3.org/2000/svg">
    <circle cx="21" cy="21.5" r="21" fill="#0361FF"/>
    <path d="M8 13.7059C8 12.5904 8.44312 11.5206 9.23187 10.7319C10.0206 9.94312 11.0904 9.5 12.2059 9.5H28.2647C29.3802 9.5 30.45 9.94312 31.2387 10.7319C32.0275 11.5206 32.4706 12.5904 32.4706 13.7059V22.1284C31.9988 21.7388 31.486 21.4019 30.9412 21.1235V18.6765H18.2578L20.7767 21.1939C20.9203 21.3375 21.001 21.5322 21.001 21.7353C21.001 21.9384 20.9203 22.1331 20.7767 22.2767C20.6331 22.4203 20.4384 22.501 20.2353 22.501C20.0322 22.501 19.8375 22.4203 19.6939 22.2767L17.1765 19.7578V26.3235H19.0225C18.881 26.8235 18.7862 27.3355 18.7395 27.8529H12.2059C11.0904 27.8529 10.0206 27.4098 9.23187 26.6211C8.44312 25.8323 8 24.7625 8 23.6471V13.7059ZM12.2059 11.0294C11.496 11.0294 10.8153 11.3114 10.3133 11.8133C9.8114 12.3153 9.52941 12.996 9.52941 13.7059V17.1471H11.4687C11.1321 16.5639 10.9973 15.886 11.0852 15.2185C11.1731 14.5509 11.4788 13.931 11.9549 13.4549C12.431 12.9788 13.0509 12.6731 13.7185 12.5852C14.386 12.4973 15.0639 12.6321 15.6471 12.9687V11.0294H12.2059ZM17.1765 11.0294V12.9687C17.7596 12.6321 18.4375 12.4973 19.1051 12.5852C19.7726 12.6731 20.3925 12.9788 20.8686 13.4549C21.3447 13.931 21.6504 14.5509 21.7383 15.2185C21.8262 15.886 21.6914 16.5639 21.3548 17.1471H30.9412V13.7059C30.9412 12.996 30.6592 12.3153 30.1573 11.8133C29.6553 11.3114 28.9746 11.0294 28.2647 11.0294H17.1765ZM17.1765 17.1471H18.7059C19.0084 17.1471 19.3041 17.0574 19.5556 16.8893C19.8071 16.7213 20.0031 16.4824 20.1189 16.2029C20.2346 15.9235 20.2649 15.616 20.2059 15.3193C20.1469 15.0226 20.0012 14.7501 19.7873 14.5362C19.5734 14.3223 19.3009 14.1766 19.0043 14.1176C18.7076 14.0586 18.4001 14.0889 18.1206 14.2047C17.8411 14.3204 17.6023 14.5164 17.4342 14.768C17.2662 15.0195 17.1765 15.3152 17.1765 15.6176V17.1471ZM14.1176 14.0882C13.712 14.0882 13.323 14.2494 13.0362 14.5362C12.7494 14.823 12.5882 15.212 12.5882 15.6176C12.5882 16.0233 12.7494 16.4123 13.0362 16.6991C13.323 16.9859 13.712 17.1471 14.1176 17.1471H15.6471V15.6176C15.6471 15.212 15.4859 14.823 15.1991 14.5362C14.9123 14.2494 14.5233 14.0882 14.1176 14.0882ZM9.52941 23.6471C9.52941 25.1245 10.7285 26.3235 12.2059 26.3235H15.6471V19.7578L13.1296 22.2767C12.9861 22.4203 12.7913 22.501 12.5882 22.501C12.3852 22.501 12.1904 22.4203 12.0468 22.2767C11.9032 22.1331 11.8226 21.9384 11.8226 21.7353C11.8226 21.5322 11.9032 21.3375 12.0468 21.1939L14.5658 18.6765H9.52941V23.6471ZM34 28.6176C34 30.443 33.2749 32.1935 31.9842 33.4842C30.6935 34.7749 28.943 35.5 27.1176 35.5C25.2923 35.5 23.5418 34.7749 22.2511 33.4842C20.9604 32.1935 20.2353 30.443 20.2353 28.6176C20.2353 26.7923 20.9604 25.0418 22.2511 23.7511C23.5418 22.4604 25.2923 21.7353 27.1176 21.7353C28.943 21.7353 30.6935 22.4604 31.9842 23.7511C33.2749 25.0418 34 26.7923 34 28.6176ZM27.8824 25.5588C27.8824 25.356 27.8018 25.1615 27.6584 25.0181C27.515 24.8747 27.3205 24.7941 27.1176 24.7941C26.9148 24.7941 26.7203 24.8747 26.5769 25.0181C26.4335 25.1615 26.3529 25.356 26.3529 25.5588V27.8529H24.0588C23.856 27.8529 23.6615 27.9335 23.5181 28.0769C23.3747 28.2203 23.2941 28.4148 23.2941 28.6176C23.2941 28.8205 23.3747 29.015 23.5181 29.1584C23.6615 29.3018 23.856 29.3824 24.0588 29.3824H26.3529V31.6765C26.3529 31.8793 26.4335 32.0738 26.5769 32.2172C26.7203 32.3606 26.9148 32.4412 27.1176 32.4412C27.3205 32.4412 27.515 32.3606 27.6584 32.2172C27.8018 32.0738 27.8824 31.8793 27.8824 31.6765V29.3824H30.1765C30.3793 29.3824 30.5738 29.3018 30.7172 29.1584C30.8606 29.015 30.9412 28.8205 30.9412 28.6176C30.9412 28.4148 30.8606 28.2203 30.7172 28.0769C30.5738 27.9335 30.3793 27.8529 30.1765 27.8529H27.8824V25.5588Z"
          fill="white"/>
</svg>
