<svg width="77" height="33" viewBox="0 0 77 33" fill="none" xmlns="http://www.w3.org/2000/svg">
    <g clip-path="url(#clip0_1132_16287)">
        <path fill-rule="evenodd" clip-rule="evenodd"
              d="M29.533 11.2024L29.6469 11.3163V11.6581L29.419 13.2532C29.1104 16.5957 28.4614 19.8979 27.4822 23.1086C27.2708 23.8206 26.9843 24.508 26.6276 25.1594L25.4313 27.0963L23.8362 28.6914C23.3149 29.2213 22.7424 29.6984 22.1272 30.1156C21.0682 30.7909 19.9169 31.309 18.7092 31.6537C16.4076 32.3612 13.9467 32.3612 11.6452 31.6537C10.4377 31.3082 9.2865 30.7902 8.22713 30.1156C6.07654 28.8395 4.39754 26.9006 3.44186 24.5898L2.75825 23.1086L2.18858 21.4565L1.78981 19.8615L1.448 18.2094L0.593486 12.5696L0.479553 11.4872V11.2024L0.707422 10.8606C1.66748 10.3816 2.68099 10.0183 3.7267 9.77821L4.80908 9.55034L5.94843 9.32247L7.08778 9.15157L8.22713 9.03763H8.51197L8.79681 8.41099L9.02468 7.72738L9.36648 7.10074L9.53738 6.47409V6.24622C10.1071 5.16384 10.5058 3.85359 11.5312 2.82817C11.898 2.21506 12.4145 1.7052 13.0323 1.34646C13.6501 0.987731 14.349 0.791895 15.0632 0.777344C15.7286 0.826159 16.3763 1.01355 16.965 1.32749C17.5536 1.64143 18.0701 2.07497 18.4813 2.6003L19.2788 4.25236L20.0194 5.84745L20.8169 7.49951L21.5575 9.0946H21.8424L23.0387 9.20853L24.178 9.32247L25.3174 9.55034L26.4567 9.83518C27.5106 10.0442 28.5156 10.45 29.419 11.0315L29.533 11.2024ZM18.7092 8.9237L18.4813 8.63886L18.3104 7.72738L17.9686 6.9868L17.6268 6.13229L17.228 5.39171L16.6583 4.42326C16.4656 4.17373 16.2255 3.96475 15.9517 3.80833C15.678 3.65191 15.376 3.55113 15.0632 3.51178C14.7504 3.55113 14.4485 3.65191 14.1747 3.80833C13.901 3.96475 13.6609 4.17373 13.4681 4.42326L12.8985 5.27778L12.5567 6.13229L12.2149 6.8159L11.8161 7.67041L11.4743 8.46796L11.3603 8.9237H18.7092Z"
              fill="url(#paint0_linear_1132_16287)"/>
        <path d="M49.3008 18.7796V6.01884C49.3253 5.53974 49.4932 5.07905 49.7827 4.69656C50.0722 4.31407 50.4701 4.02745 50.9246 3.87391C51.3791 3.72037 51.8692 3.70699 52.3314 3.83552C52.7936 3.96404 53.2065 4.22853 53.5164 4.59466C53.9436 5.12977 54.1837 5.79008 54.2 6.47458V18.3238C54.1899 19.0473 53.9047 19.7398 53.4025 20.2607C52.0353 21.9128 49.3008 20.7165 49.3008 18.7796ZM63.6566 21.3431V8.41148L63.9984 7.44303C64.1625 7.15032 64.3848 6.89443 64.6518 6.69121C64.9188 6.488 65.2247 6.3418 65.5505 6.26168C65.8764 6.18156 66.2152 6.16923 66.5459 6.22545C66.8767 6.28167 67.1924 6.40525 67.4735 6.58852C68.5559 7.3291 68.5558 8.52542 68.5558 9.7787V13.9943L68.6698 16.273V18.6656L68.7837 20.9443L69.0686 21.0583H70.9485C72.2018 21.0583 73.7969 21.0583 74.3665 21.4001C74.7214 21.589 75.028 21.857 75.2626 22.1834C75.4973 22.5098 75.6537 22.8858 75.7198 23.2823C75.7859 23.6788 75.7599 24.0852 75.6437 24.4701C75.5276 24.855 75.3245 25.2079 75.0501 25.5017C74.5476 25.8612 73.957 26.0778 73.3411 26.1284H68.4419C67.7794 26.0978 67.1257 25.9633 66.505 25.7296L65.1948 24.5902L64.9669 24.3624L64.6821 24.0775C64.1207 23.3549 63.784 22.4833 63.7136 21.571L63.6566 21.3431Z"
              fill="#37474F"/>
        <path fill-rule="evenodd" clip-rule="evenodd"
              d="M50.1554 27.8926C49.4148 27.323 49.3009 26.6394 49.3009 25.6709C49.3246 25.3319 49.4239 25.0024 49.5915 24.7067C49.7591 24.411 49.9907 24.1565 50.2693 23.9619C50.839 23.5631 51.4087 23.5631 52.2062 23.5631H55.2255C56.3649 23.5631 56.5358 23.2213 56.5358 22.1389V16.4991C56.5358 15.5307 56.5358 15.075 57.2194 14.3344C57.4555 14.1038 57.7358 13.9233 58.0435 13.8038C58.3511 13.6843 58.6798 13.6281 59.0096 13.6388C59.3395 13.6494 59.6639 13.7266 59.9632 13.8657C60.2625 14.0048 60.5306 14.203 60.7514 14.4483C61.2198 15.0267 61.4627 15.7553 61.435 16.4991V22.9934C61.435 26.2406 59.2702 28.4054 56.137 28.4054H52.1493C51.2378 28.4054 50.6111 28.2914 50.1554 27.8357V27.8926ZM35.173 19.7463C35.7996 18.55 36.768 18.55 37.9644 18.55H40.9836C41.4394 18.55 41.6103 18.55 41.8381 18.2082C42.066 18.0373 42.066 17.8094 42.066 17.3537V11.7708C42.066 10.5745 42.066 10.2327 42.6357 9.60608C42.8519 9.33466 43.1246 9.11353 43.4349 8.95803C43.7451 8.80252 44.0854 8.71636 44.4323 8.70552C44.7791 8.69468 45.1242 8.75942 45.4435 8.89526C45.7629 9.03109 46.0489 9.23476 46.2816 9.49214C46.7043 9.96313 46.9465 10.5686 46.9652 11.2012V18.55C46.9652 21.2274 44.6865 23.5061 42.4078 23.5061H37.2238L36.2553 23.3352C35.7834 23.1217 35.3913 22.764 35.1355 22.3137C34.8796 21.8633 34.773 21.3434 34.8311 20.8287L35.173 19.7463ZM64.853 26.1267C67.0178 27.209 66.3911 30.855 63.7706 30.855C63.4391 30.8553 63.111 30.7884 62.8061 30.6582C62.5013 30.528 62.226 30.3374 61.9969 30.0977C61.7679 29.858 61.5899 29.5743 61.4738 29.2639C61.3576 28.9534 61.3056 28.6226 61.321 28.2914C61.3534 27.8889 61.4804 27.4998 61.6916 27.1556C61.9029 26.8115 62.1924 26.5222 62.5367 26.3112C62.881 26.1002 63.2703 25.9735 63.6728 25.9414C64.0753 25.9093 64.4797 25.9728 64.853 26.1267ZM57.2194 10.4606C56.9881 10.221 56.8121 9.93359 56.7038 9.61864C56.5955 9.30368 56.5576 8.96882 56.5927 8.63763C56.5926 8.01281 56.8368 7.41271 57.2733 6.96561C57.7097 6.5185 58.3038 6.25987 58.9284 6.245C59.2501 6.25239 59.5672 6.3231 59.8616 6.45309C60.156 6.58307 60.4218 6.76979 60.644 7.00256C60.8662 7.23533 61.0404 7.50961 61.1566 7.80971C61.2727 8.10981 61.3286 8.42986 61.321 8.75156C61.328 9.22981 61.1915 9.69916 60.929 10.099C60.6666 10.4989 60.2904 10.811 59.8489 10.9949C59.4074 11.1789 58.9209 11.2263 58.4522 11.1311C57.9835 11.0358 57.5541 10.8023 57.2194 10.4606Z"
              fill="#37474F"/>
    </g>
    <defs>
        <linearGradient id="paint0_linear_1132_16287" x1="15.1772" y1="1.40399" x2="15.1772" y2="910.036"
                        gradientUnits="userSpaceOnUse">
            <stop stop-color="#98C221"/>
            <stop offset="0.6" stop-color="#5DB130"/>
            <stop offset="1" stop-color="#009F64"/>
        </linearGradient>
        <clipPath id="clip0_1132_16287">
            <rect width="75.9201" height="31.3321" fill="white" transform="translate(0.258606 0.833984)"/>
        </clipPath>
    </defs>
</svg>
