<svg width="56" height="56" viewBox="0 0 56 56" fill="none" xmlns="http://www.w3.org/2000/svg">
    <rect x="0.953125" y="0.09375" width="55.0471" height="55.0471" rx="27.5236" fill="#04D800"/>
    <path d="M17.4088 24.2871C16.0379 21.536 17.4211 18.4997 20.0568 16.9183C21.3258 16.1569 22.9659 16.4873 23.8411 17.6807L25.7827 20.3283C26.6091 21.4553 26.7357 22.9497 26.1108 24.1996L25.6017 25.2178C25.4543 25.5126 25.431 25.8535 25.5818 26.1465C25.8564 26.6804 26.4413 27.6265 27.568 28.7532C28.6947 29.8799 29.6407 30.4647 30.1746 30.7394C30.4676 30.8901 30.8086 30.8668 31.1033 30.7195L32.1215 30.2104C33.3714 29.5854 34.8659 29.7121 35.9928 30.5385L38.6404 32.4801C39.8338 33.3552 40.1643 34.9953 39.4029 36.2643C37.8214 38.9001 34.7852 40.2833 32.034 38.9124C29.7154 37.757 26.7524 35.8449 23.6144 32.7068C20.4763 29.5687 18.5641 26.6058 17.4088 24.2871Z"
          fill="white"/>
</svg>
