<svg width="50" height="50" viewBox="0 0 50 50" fill="none" xmlns="http://www.w3.org/2000/svg">
<g filter="url(#filter0_dd_1_7698)">
<path fill-rule="evenodd" clip-rule="evenodd" d="M12.5663 6.33301H18.1997C20.5497 6.33301 22.433 8.24967 22.433 10.6013V16.283C22.433 18.6497 20.5497 20.5497 18.1997 20.5497H12.5663C10.233 20.5497 8.33301 18.6497 8.33301 16.283V10.6013C8.33301 8.24967 10.233 6.33301 12.5663 6.33301ZM12.5663 25.4492H18.1997C20.5497 25.4492 22.433 27.3508 22.433 29.7175V35.3992C22.433 37.7492 20.5497 39.6658 18.1997 39.6658H12.5663C10.233 39.6658 8.33301 37.7492 8.33301 35.3992V29.7175C8.33301 27.3508 10.233 25.4492 12.5663 25.4492ZM37.4332 6.33301H31.7998C29.4498 6.33301 27.5665 8.24967 27.5665 10.6013V16.283C27.5665 18.6497 29.4498 20.5497 31.7998 20.5497H37.4332C39.7665 20.5497 41.6665 18.6497 41.6665 16.283V10.6013C41.6665 8.24967 39.7665 6.33301 37.4332 6.33301ZM31.7998 25.4492H37.4332C39.7665 25.4492 41.6665 27.3508 41.6665 29.7175V35.3992C41.6665 37.7492 39.7665 39.6658 37.4332 39.6658H31.7998C29.4498 39.6658 27.5665 37.7492 27.5665 35.3992V29.7175C27.5665 27.3508 29.4498 25.4492 31.7998 25.4492Z" fill="white"/>
</g>
<defs>
<filter id="filter0_dd_1_7698" x="0.333008" y="0.333008" width="49.3335" height="49.3328" filterUnits="userSpaceOnUse" color-interpolation-filters="sRGB">
<feFlood flood-opacity="0" result="BackgroundImageFix"/>
<feColorMatrix in="SourceAlpha" type="matrix" values="0 0 0 0 0 0 0 0 0 0 0 0 0 0 0 0 0 0 127 0" result="hardAlpha"/>
<feOffset dy="2"/>
<feGaussianBlur stdDeviation="1.5"/>
<feComposite in2="hardAlpha" operator="out"/>
<feColorMatrix type="matrix" values="0 0 0 0 0 0 0 0 0 0 0 0 0 0 0 0 0 0 0.25 0"/>
<feBlend mode="normal" in2="BackgroundImageFix" result="effect1_dropShadow_1_7698"/>
<feColorMatrix in="SourceAlpha" type="matrix" values="0 0 0 0 0 0 0 0 0 0 0 0 0 0 0 0 0 0 127 0" result="hardAlpha"/>
<feOffset dy="2"/>
<feGaussianBlur stdDeviation="4"/>
<feComposite in2="hardAlpha" operator="out"/>
<feColorMatrix type="matrix" values="0 0 0 0 0 0 0 0 0 0 0 0 0 0 0 0 0 0 0.25 0"/>
<feBlend mode="normal" in2="effect1_dropShadow_1_7698" result="effect2_dropShadow_1_7698"/>
<feBlend mode="normal" in="SourceGraphic" in2="effect2_dropShadow_1_7698" result="shape"/>
</filter>
</defs>
</svg>
