<svg width="56" height="56" viewBox="0 0 56 56" fill="none" xmlns="http://www.w3.org/2000/svg">
    <rect x="0.953125" width="55.0471" height="55.0471" rx="27.5236" fill="#FFC700"/>
    <path opacity="0.3" fill-rule="evenodd" clip-rule="evenodd"
          d="M37.198 23.5423C37.198 25.7909 37.1806 26.4345 37.1086 26.8473C36.7938 28.6524 35.4836 30.1739 33.7208 30.7814C32.9101 31.0608 32.7329 31.0688 27.3395 31.0688H22.2734L22.2975 32.2193C22.3181 33.2066 22.3397 33.4254 22.45 33.7606C22.6191 34.2753 23.0881 34.967 23.4893 35.2939C23.8717 35.6053 24.5221 35.926 24.9521 36.015C25.1636 36.0588 27.0124 36.0789 30.8188 36.0789C36.6612 36.0789 36.7404 36.0822 37.2614 36.3446C37.4085 36.4186 38.6013 37.2452 39.9122 38.1814C41.223 39.1177 42.3742 39.9319 42.4703 39.991C42.871 40.237 43.4625 40.0611 43.6798 39.6315C43.7764 39.4405 43.7814 38.9675 43.7672 31.4474L43.752 23.4661L43.595 23.0361C43.2305 22.0381 42.4284 21.2443 41.455 20.9185C41.0971 20.7987 40.9459 20.789 39.1351 20.7702L37.198 20.75V23.5423Z"
          fill="white"/>
    <path fill-rule="evenodd" clip-rule="evenodd"
          d="M16.4291 14.1089C15.8791 14.2672 15.3566 14.5773 14.9435 14.9904C14.4995 15.4344 14.228 15.915 14.0682 16.5398C13.9564 16.977 13.9531 17.213 13.9531 24.8317C13.9531 32.3559 13.9575 32.6817 14.0611 32.8765C14.218 33.1712 14.555 33.3522 14.8948 33.324C15.1445 33.3032 15.3732 33.1538 17.7203 31.4777C19.1249 30.4747 20.4183 29.5858 20.5945 29.5025L20.9149 29.351L26.799 29.3206C33.3242 29.287 32.8448 29.3163 33.6734 28.9001C34.1648 28.6533 34.8388 27.9564 35.0911 27.4342C35.4565 26.6778 35.4482 26.8393 35.4492 20.4666C35.4502 13.9998 35.4767 14.4183 35.0484 14.1322L34.8505 14L25.8145 14.0041C17.4357 14.008 16.7532 14.0156 16.4291 14.1089ZM30.7708 18.8699C31.3323 19.2859 31.3346 20.0096 30.7756 20.3504C30.5898 20.4637 30.4716 20.4662 25.2783 20.4664L19.9709 20.4666L19.773 20.3344C19.4168 20.0965 19.271 19.6046 19.453 19.2549C19.5659 19.0378 19.7897 18.8391 19.9897 18.7785C20.0821 18.7506 22.5086 18.7322 25.382 18.7378C30.5838 18.748 30.6071 18.7485 30.7708 18.8699ZM30.7708 22.9479C31.3323 23.364 31.3346 24.0876 30.7756 24.4285C30.5898 24.5418 30.4716 24.5443 25.2783 24.5444L19.9709 24.5447L19.773 24.4124C19.4168 24.1745 19.271 23.6827 19.453 23.3329C19.5659 23.1158 19.7897 22.9172 19.9897 22.8566C20.0821 22.8286 22.5086 22.8103 25.382 22.8159C30.5838 22.826 30.6071 22.8266 30.7708 22.9479Z"
          fill="white"/>
</svg>
