<svg width="26" height="26" viewBox="0 0 26 26" fill="none" xmlns="http://www.w3.org/2000/svg">
    <g id="Icon- Filled">
    <path id="Subtract" fill-rule="evenodd" clip-rule="evenodd"
    d="M13.0007 23.4173C18.7536 23.4173 23.4173 18.7536 23.4173 13.0007C23.4173 7.24768 18.7536 2.58398 13.0007 2.58398C7.24768 2.58398 2.58398 7.24768 2.58398 13.0007C2.58398 18.7536 7.24768 23.4173 13.0007 23.4173ZM14.0423 7.79232C14.0423 7.21702 13.5759 6.75065 13.0007 6.75065C12.4254 6.75065 11.959 7.21702 11.959 7.79232V12.5692C11.959 13.1217 12.1785 13.6516 12.5692 14.0423L14.8682 16.3414C15.275 16.7482 15.9346 16.7482 16.3414 16.3414C16.7482 15.9346 16.7482 15.275 16.3414 14.8682L14.0423 12.5692V7.79232Z" fill="#246BFD"/>
</g>
</svg>
