<svg width="48" height="48" viewBox="0 0 48 48" fill="none" xmlns="http://www.w3.org/2000/svg">
    <rect width="48" height="48" rx="12" fill="#335EF7" fill-opacity="0.08"/>
    <path fill-rule="evenodd" clip-rule="evenodd"
          d="M24.5 34.4163C30.253 34.4163 34.9167 29.7526 34.9167 23.9997C34.9167 18.2467 30.253 13.583 24.5 13.583C18.747 13.583 14.0833 18.2467 14.0833 23.9997C14.0833 29.7526 18.747 34.4163 24.5 34.4163ZM25.5417 18.7913C25.5417 18.216 25.0753 17.7497 24.5 17.7497C23.9247 17.7497 23.4583 18.216 23.4583 18.7913V23.5682C23.4583 24.1207 23.6778 24.6506 24.0685 25.0413L26.3676 27.3404C26.7744 27.7472 27.4339 27.7472 27.8407 27.3404C28.2475 26.9336 28.2475 26.2741 27.8407 25.8673L25.5417 23.5682V18.7913Z"
          fill="#246BFD"/>
</svg>
