<svg width="21" height="21" viewBox="0 0 21 21" fill="none" xmlns="http://www.w3.org/2000/svg">
    <path d="M18.5 15.5C19.6 15.5 20.5 14.6 20.5 13.5V2.5C20.5 1.4 19.6 0.5 18.5 0.5H8C8.3 1.1 8.5 1.8 8.5 2.5H18.5V13.5H9.5V15.5M13.5 5.5V7.5H7.5V20.5H5.5V14.5H3.5V20.5H1.5V12.5H0V7.5C0 6.4 0.9 5.5 2 5.5H13.5ZM6.5 2.5C6.5 3.6 5.6 4.5 4.5 4.5C3.4 4.5 2.5 3.6 2.5 2.5C2.5 1.4 3.4 0.5 4.5 0.5C5.6 0.5 6.5 1.4 6.5 2.5ZM15.5 4.5H17.5V12.5H15.5V4.5ZM12.5 8.5H14.5V12.5H12.5V8.5ZM9.5 8.5H11.5V12.5H9.5V8.5Z"
          fill="black"/>
</svg>
