<svg width="25" height="19" viewBox="0 0 25 19" fill="none" xmlns="http://www.w3.org/2000/svg">
    <path d="M3.07143 13.7857C4.01772 13.7857 4.78572 12.6337 4.78572 11.2143C4.78572 9.79487 4.01772 8.64287 3.07143 8.64287C2.12515 8.64287 1.35715 9.79487 1.35715 11.2143C1.35715 12.6337 2.12515 13.7857 3.07143 13.7857ZM8.21429 6.07145C9.16058 6.07145 9.92858 4.91945 9.92858 3.50002C9.92858 2.08059 9.16058 0.928589 8.21429 0.928589C7.268 0.928589 6.5 2.08059 6.5 3.50002C6.5 4.91945 7.268 6.07145 8.21429 6.07145ZM16.7857 6.07145C17.732 6.07145 18.5 4.91945 18.5 3.50002C18.5 2.08059 17.732 0.928589 16.7857 0.928589C15.8394 0.928589 15.0714 2.08059 15.0714 3.50002C15.0714 4.91945 15.8394 6.07145 16.7857 6.07145ZM21.9286 13.7857C22.8749 13.7857 23.6429 12.6337 23.6429 11.2143C23.6429 9.79487 22.8749 8.64287 21.9286 8.64287C20.9823 8.64287 20.2143 9.79487 20.2143 11.2143C20.2143 12.6337 20.9823 13.7857 21.9286 13.7857ZM17.6429 14.6429C17.6429 17.0086 14.8657 18.0714 12.5 18.0714C10.1343 18.0714 7.35715 17.0086 7.35715 14.6429C7.35715 12.2772 9.07143 8.64287 12.5 8.64287C15.9286 8.64287 17.6429 12.2772 17.6429 14.6429Z"
          stroke="black" stroke-width="1.5" stroke-linecap="round" stroke-linejoin="round"/>
</svg>
