<svg width="21" height="19" viewBox="0 0 21 19" fill="none" xmlns="http://www.w3.org/2000/svg">
    <path fill-rule="evenodd" clip-rule="evenodd"
          d="M8.33999 17.775C7.92099 18.747 6.75499 19.308 5.67199 18.754C3.62599 17.705 2.21799 16.506 1.35699 15.174C0.485988 13.825 0.216988 12.408 0.337988 11.024C0.573988 8.341 2.28399 5.79 3.69999 3.9C5.58399 1.388 7.97999 0 10.5 0C13.02 0 15.416 1.388 17.3 3.9C18.701 5.768 20.54 8.334 20.84 11.025C20.995 12.422 20.74 13.857 19.832 15.219C18.938 16.561 17.459 17.759 15.294 18.804C14.211 19.327 13.056 18.757 12.651 17.781C11.929 18.235 11.173 18.5 10.501 18.5C9.82499 18.5 9.06399 18.232 8.33899 17.775M5.29999 5.1C6.91599 2.946 8.76999 2 10.5 2C12.23 2 14.084 2.946 15.7 5.1C17.154 7.038 18.622 9.182 18.852 11.247C18.961 12.227 18.787 13.18 18.168 14.11C17.542 15.048 16.417 16.03 14.5 16.967V16.066C15.366 14.916 16 13.374 16 11.5C16 11.117 15.98 10.745 15.939 10.387C15.9114 10.1446 15.7962 9.92056 15.6149 9.75719C15.4337 9.59381 15.199 9.50234 14.955 9.5C13.8598 9.48895 12.8063 9.07897 11.9917 8.34686C11.1771 7.61476 10.6574 6.61078 10.53 5.523C10.5118 5.3796 10.463 5.24177 10.3869 5.11885C10.3108 4.99592 10.2093 4.89076 10.0891 4.81047C9.96885 4.73017 9.83281 4.67661 9.69012 4.65342C9.54744 4.63022 9.40144 4.63792 9.26199 4.676C6.86799 5.36 4.99999 7.905 4.99999 11.5C4.99999 13.374 5.63399 14.916 6.49999 16.066V16.93C4.71299 16.002 3.64399 15.026 3.03699 14.087C2.42999 13.149 2.24399 12.185 2.33099 11.2C2.51099 9.145 3.86999 7.004 5.29999 5.1ZM6.99999 11.5C6.99999 9.278 7.84999 7.826 8.84299 7.088C9.22511 8.2125 9.90767 9.21099 10.8167 9.9753C11.7257 10.7396 12.8266 11.2406 14 11.424C14.012 12.832 13.532 14.213 12.576 15.256C11.744 16.163 10.866 16.5 10.5 16.5C10.134 16.5 9.25699 16.163 8.42499 15.256C7.63799 14.397 6.99999 13.133 6.99999 11.5Z"
          fill="white"/>
</svg>
