<svg width="23" height="21" viewBox="0 0 23 21" fill="none" xmlns="http://www.w3.org/2000/svg">
    <path d="M15.0828 16.1741C16.0095 16.1741 16.7974 15.8499 17.4463 15.2014C18.0953 14.5529 18.4195 13.7651 18.419 12.8379C18.419 11.9111 18.0948 11.1235 17.4463 10.4751C16.7979 9.8266 16.01 9.50212 15.0828 9.50163C14.1561 9.50163 13.3685 9.82611 12.72 10.4751C12.0716 11.124 11.7471 11.9116 11.7466 12.8379C11.7466 13.7646 12.0711 14.5524 12.72 15.2014C13.369 15.8503 14.1566 16.1746 15.0828 16.1741ZM15.0828 14.6913C14.5638 14.6913 14.1252 14.5121 13.7669 14.1538C13.4085 13.7955 13.2293 13.3568 13.2293 12.8379C13.2293 12.3189 13.4085 11.8802 13.7669 11.5219C14.1252 11.1636 14.5638 10.9844 15.0828 10.9844C15.6018 10.9844 16.0404 11.1636 16.3988 11.5219C16.7571 11.8802 16.9363 12.3189 16.9363 12.8379C16.9363 13.3568 16.7571 13.7955 16.3988 14.1538C16.0404 14.5121 15.6018 14.6913 15.0828 14.6913ZM9.15174 18.7689C8.74397 18.7689 8.39503 18.6239 8.1049 18.3337C7.81477 18.0436 7.66946 17.6944 7.66897 17.2862V8.38955C7.66897 7.98179 7.81428 7.63285 8.1049 7.34272C8.39552 7.05259 8.74447 6.90728 9.15174 6.90678H11.4871L12.8587 5.42402H17.307L18.6785 6.90678H21.0139C21.4216 6.90678 21.7708 7.0521 22.0615 7.34272C22.3521 7.63334 22.4971 7.98229 22.4966 8.38955V17.2862C22.4966 17.6939 22.3516 18.0431 22.0615 18.3337C21.7713 18.6244 21.4221 18.7694 21.0139 18.7689H9.15174ZM9.15174 17.2862H21.0139V8.38955H18.0113L16.6582 6.90678H13.5074L12.1543 8.38955H9.15174V17.2862Z"
          fill="black"/>
    <path d="M2.96282 1.05438C3.07529 1.12488 3.16129 1.23059 3.20744 1.35505C3.2536 1.47951 3.25731 1.61574 3.21801 1.74253C3.21351 1.77891 3.21407 1.81575 3.21967 1.85198C3.23165 1.92686 3.2735 2.06645 3.48151 2.21602C3.58216 2.2889 3.65861 2.34006 3.74196 2.39621C3.81014 2.44137 3.88227 2.48834 3.97446 2.55405C4.15256 2.67671 4.34317 2.82419 4.52418 3.01831C4.90012 3.42504 5.15882 3.96757 5.29139 4.79602C5.45364 5.80991 5.21632 6.73413 4.71517 7.35802L4.80531 7.4338C5.20355 7.78943 5.48213 8.28854 5.68705 8.79213C6.09025 9.78817 6.28921 11.0315 6.42787 11.898L6.43262 11.9277C6.96272 15.2403 6.81295 17.1916 6.48925 18.3454C6.32619 18.9262 6.11629 19.3133 5.9215 19.5663C5.84256 19.6707 5.75234 19.7661 5.6525 19.8507C5.60676 19.8893 5.55817 19.9244 5.50716 19.9557C5.50716 19.9557 5.3797 20.0199 5.29174 20.034C5.20378 20.0481 5.06262 20.0268 5.06262 20.0268C5.00401 20.0144 4.94679 19.9962 4.89179 19.9725C4.77053 19.9232 4.65505 19.8607 4.54747 19.7862C4.28326 19.6054 3.96323 19.3043 3.62708 18.8034C2.95949 17.8082 2.20829 16.0011 1.67819 12.6885L1.67344 12.6588C1.53459 11.7911 1.33583 10.549 1.40807 9.47686C1.44562 8.93448 1.55453 8.37335 1.82191 7.91122C1.84092 7.8777 1.86232 7.8438 1.8839 7.81109C1.21309 7.37474 0.69921 6.57073 0.536966 5.55684C0.474959 5.16936 0.504378 4.69044 0.578727 4.24091C0.652887 3.79018 0.781816 3.31607 0.955344 2.92259C1.15573 2.41509 1.47983 1.9646 1.73752 1.65518C1.87862 1.48448 2.02822 1.32098 2.18576 1.16531L2.21761 1.13584L2.22698 1.1258L2.23016 1.12286L2.23235 1.12129C2.32971 1.03119 2.45411 0.975792 2.58621 0.963692C2.71831 0.951591 2.85071 0.983471 2.96282 1.05438ZM3.19949 6.95934C3.65929 6.88455 4.30631 6.25804 4.10279 4.98623C3.9976 4.32893 3.8165 4.02755 3.63963 3.83642C3.53291 3.72534 3.41445 3.62617 3.28632 3.54066L3.11687 3.42637C3.00614 3.35144 2.87648 3.26491 2.77464 3.19222C2.62405 3.08437 2.48909 2.95624 2.37359 2.81144C2.24775 2.99474 2.14267 3.19145 2.06029 3.39796C1.93478 3.68014 1.82924 4.05664 1.76701 4.43719C1.70236 4.82544 1.69267 5.16101 1.72557 5.36664C1.92947 6.64083 2.74187 7.03257 3.19949 6.95934ZM2.86329 8.51501C2.72741 8.74765 2.63965 9.09814 2.60857 9.55904C2.5464 10.4808 2.72282 11.5985 2.8668 12.4983C3.38283 15.723 4.0937 17.339 4.62664 18.1327C4.80247 18.3935 4.95495 18.5617 5.07357 18.6707C5.18465 18.4648 5.27083 18.2464 5.3303 18.0201C5.58897 17.0998 5.76004 15.3426 5.24401 12.1179C5.10003 11.2181 4.91886 10.1012 4.57096 9.24501C4.3976 8.81683 4.20485 8.51122 4.00435 8.33241C3.92457 8.25407 3.82692 8.19633 3.71982 8.16419C3.61273 8.13205 3.49942 8.12648 3.38969 8.14795L3.38731 8.14833C3.27679 8.1624 3.17134 8.20313 3.08005 8.26701C2.98877 8.33088 2.91437 8.41599 2.86329 8.51501Z"
          fill="black"/>
</svg>
