<svg width="21" height="21" viewBox="0 0 21 21" fill="none" xmlns="http://www.w3.org/2000/svg">
    <path d="M4.91696 8.89731L4.91697 8.89729L5.52744 7.38618C4.95838 6.49765 4.71684 5.44196 4.84586 4.3885C4.99318 3.18502 5.60068 2.11054 6.55583 1.36378L6.61683 1.44181L6.55583 1.36378C7.51102 0.617018 8.70032 0.286759 9.90375 0.43416L4.91696 8.89731ZM4.91696 8.89731C4.85412 9.05294 4.89179 9.23116 5.01237 9.34798L4.91696 8.89731ZM14.1089 8.98713L15.6724 9.53545M14.1089 8.98713C13.5779 9.39217 12.9549 9.67475 12.2965 9.80795C12.0052 9.86686 11.7105 9.896 11.4168 9.896C10.6965 9.896 9.98258 9.72033 9.34004 9.38006M14.1089 8.98713L14.0758 9.0815L14.1263 9.09921C14.1408 9.08844 14.1552 9.07758 14.1695 9.06664L14.1089 8.98713ZM15.6724 9.53545L9.34004 9.38006M15.6724 9.53545C15.7924 9.57748 15.9259 9.54272 16.0101 9.44736L15.6724 9.53545ZM9.34004 9.38006L9.29324 9.46843C9.3005 9.47228 9.30778 9.47611 9.31506 9.47991C9.32328 9.47998 9.33149 9.48003 9.3397 9.48006L9.34004 9.38006ZM5.20707 11.7617C4.20945 11.7617 3.3977 12.5735 3.3977 13.5711C3.3977 14.5685 4.20917 15.3802 5.2066 15.3805L5.20707 11.7617ZM5.20707 11.7617C6.20469 11.7617 7.01645 12.5735 7.01645 13.5711M5.20707 11.7617L7.01645 13.5711M7.01645 13.5711C7.01645 14.5685 6.20492 15.3802 5.20758 15.3805L7.01645 13.5711ZM5.20754 15.3805H5.20755H5.20756H5.20757H5.20754ZM5.20754 15.3805H5.20753M5.20754 15.3805H5.20753M5.20753 15.3805H5.20752M5.20753 15.3805H5.20752M5.20752 15.3805H5.20752M5.20752 15.3805H5.20752M5.20752 15.3805H5.20751M5.20752 15.3805H5.20751M5.20751 15.3805H5.2075M5.20751 15.3805H5.2075M5.2075 15.3805H5.20749M5.2075 15.3805H5.20749M5.20749 15.3805H5.20749M5.20749 15.3805H5.20749M5.20749 15.3805H5.20748M5.20749 15.3805H5.20748M5.20748 15.3805H5.20747M5.20748 15.3805H5.20747M5.20747 15.3805H5.20746M5.20747 15.3805H5.20746M5.20746 15.3805H5.20746M5.20746 15.3805H5.20746M5.20746 15.3805H5.20745M5.20746 15.3805H5.20745M5.20745 15.3805H5.20744M5.20745 15.3805H5.20744M5.20744 15.3805H5.20743M5.20744 15.3805H5.20743M5.20743 15.3805H5.20743M5.20743 15.3805H5.20743M5.20743 15.3805H5.20742M5.20743 15.3805H5.20742M5.20742 15.3805H5.20741M5.20742 15.3805H5.20741M5.20741 15.3805H5.20741M5.20741 15.3805H5.20741M5.20741 15.3805H5.2074M5.20741 15.3805H5.2074M5.2074 15.3805H5.20739M5.2074 15.3805H5.20739M5.20739 15.3805H5.20738M5.20739 15.3805H5.20738M5.20738 15.3805H5.20738M5.20738 15.3805H5.20738M5.20738 15.3805H5.20737M5.20738 15.3805H5.20737M5.20737 15.3805H5.20736M5.20737 15.3805H5.20736M5.20736 15.3805H5.20735M5.20736 15.3805H5.20735M5.20735 15.3805H5.20735M5.20735 15.3805H5.20735M5.20735 15.3805H5.20734M5.20735 15.3805H5.20734M5.20734 15.3805H5.20733M5.20734 15.3805H5.20733M5.20733 15.3805H5.20732M5.20733 15.3805H5.20732M5.20732 15.3805H5.20732M5.20732 15.3805H5.20732M5.20732 15.3805H5.20731M5.20732 15.3805H5.20731M5.20731 15.3805H5.2073M5.20731 15.3805H5.2073M5.2073 15.3805H5.20729M5.2073 15.3805H5.20729M5.20729 15.3805H5.20729M5.20729 15.3805H5.20729M5.20729 15.3805H5.20728M5.20729 15.3805H5.20728M5.20728 15.3805H5.20727M5.20728 15.3805H5.20727M5.20727 15.3805H5.20726M5.20727 15.3805H5.20726M5.20726 15.3805H5.20725M5.20726 15.3805H5.20725M5.20725 15.3805H5.20725M5.20725 15.3805H5.20725M5.20725 15.3805H5.20724M5.20725 15.3805H5.20724M5.20724 15.3805H5.20723M5.20724 15.3805H5.20723M5.20723 15.3805H5.20722M5.20723 15.3805H5.20722M5.20722 15.3805H5.20722M5.20722 15.3805H5.20722M5.20722 15.3805H5.20721M5.20722 15.3805H5.20721M5.20721 15.3805H5.2072M5.20721 15.3805H5.2072M5.2072 15.3805H5.20719M5.2072 15.3805H5.20719M5.20719 15.3805H5.20719M5.20719 15.3805H5.20719M5.20719 15.3805H5.20718M5.20719 15.3805H5.20718M5.20718 15.3805H5.20717M5.20718 15.3805H5.20717M5.20717 15.3805H5.20717M5.20717 15.3805H5.20717M5.20717 15.3805H5.20716M5.20717 15.3805H5.20716M5.20716 15.3805H5.20715M5.20716 15.3805H5.20715M5.20715 15.3805H5.20714M5.20715 15.3805H5.20714M5.20714 15.3805H5.20714M5.20714 15.3805H5.20714M5.20714 15.3805H5.20713M5.20714 15.3805H5.20713M5.20713 15.3805H5.20712M5.20713 15.3805H5.20712M5.20712 15.3805H5.20711M5.20712 15.3805H5.20711M5.20711 15.3805H5.20711M5.20711 15.3805H5.20711M5.20711 15.3805H5.2071M5.20711 15.3805H5.2071M5.2071 15.3805H5.20709M5.2071 15.3805H5.20709M5.20709 15.3805H5.20708M5.20709 15.3805H5.20708M5.20708 15.3805H5.20708M5.20708 15.3805H5.20708M5.20708 15.3805H5.20706M5.20708 15.3805H5.20706M5.20706 15.3805H5.20706M5.20706 15.3805H5.20706M5.20706 15.3805H5.20705M5.20706 15.3805H5.20705M5.20705 15.3805H5.20704M5.20705 15.3805H5.20704M5.20704 15.3805H5.20703M5.20704 15.3805H5.20703M5.20703 15.3805H5.20703M5.20703 15.3805H5.20703M5.20703 15.3805H5.20702M5.20703 15.3805H5.20702M5.20702 15.3805H5.20701M5.20702 15.3805H5.20701M5.20701 15.3805H5.207M5.20701 15.3805H5.207M5.207 15.3805H5.207M5.207 15.3805H5.207M5.207 15.3805H5.20699M5.207 15.3805H5.20699M5.20699 15.3805H5.20698M5.20699 15.3805H5.20698M5.20698 15.3805H5.20697M5.20698 15.3805H5.20697M5.20697 15.3805H5.20697M5.20697 15.3805H5.20697M5.20697 15.3805H5.20696M5.20697 15.3805H5.20696M5.20696 15.3805H5.20695M5.20696 15.3805H5.20695M5.20695 15.3805H5.20695M5.20695 15.3805H5.20695M5.20695 15.3805H5.20694M5.20695 15.3805H5.20694M5.20694 15.3805H5.20693M5.20694 15.3805H5.20693M5.20693 15.3805H5.20692M5.20693 15.3805H5.20692M5.20692 15.3805H5.20692M5.20692 15.3805H5.20692M5.20692 15.3805H5.20691M5.20692 15.3805H5.20691M5.20691 15.3805H5.2069M5.20691 15.3805H5.2069M5.2069 15.3805H5.20689M5.2069 15.3805H5.20689M5.20689 15.3805H5.20689M5.20689 15.3805H5.20689M5.20689 15.3805H5.20688M5.20689 15.3805H5.20688M5.20688 15.3805H5.20687M5.20688 15.3805H5.20687M5.20687 15.3805H5.20687M5.20687 15.3805H5.20687M5.20687 15.3805H5.20686M5.20687 15.3805H5.20686M5.20686 15.3805H5.20685M5.20686 15.3805H5.20685M5.20685 15.3805H5.20684M5.20685 15.3805H5.20684M5.20684 15.3805H5.20684M5.20684 15.3805H5.20684M5.20684 15.3805H5.20683M5.20684 15.3805H5.20683M5.20683 15.3805H5.20682M5.20683 15.3805H5.20682M5.20682 15.3805H5.20681M5.20682 15.3805H5.20681M5.20681 15.3805H5.20681M5.20681 15.3805H5.20681M5.20681 15.3805H5.2068M5.20681 15.3805H5.2068M5.2068 15.3805H5.20679M5.2068 15.3805H5.20679M5.20679 15.3805H5.20678M5.20679 15.3805H5.20678M5.20678 15.3805H5.20678M5.20678 15.3805H5.20678M5.20678 15.3805H5.20677M5.20678 15.3805H5.20677M5.20677 15.3805H5.20676M5.20677 15.3805H5.20676M5.20676 15.3805H5.20676M5.20676 15.3805H5.20676M5.20676 15.3805H5.20675M5.20676 15.3805H5.20675M5.20675 15.3805H5.20674M5.20675 15.3805H5.20674M5.20674 15.3805H5.20673M5.20674 15.3805H5.20673M5.20673 15.3805H5.20673M5.20673 15.3805H5.20673M5.20673 15.3805H5.20672M5.20673 15.3805H5.20672M5.20672 15.3805H5.20671M5.20672 15.3805H5.20671M5.20671 15.3805H5.2067M5.20671 15.3805H5.2067M5.2067 15.3805H5.2067M5.2067 15.3805H5.2067M5.2067 15.3805H5.20669M5.2067 15.3805H5.20669M5.20669 15.3805H5.20668M5.20669 15.3805H5.20668M5.20668 15.3805H5.20667M5.20668 15.3805H5.20667M5.20667 15.3805H5.20667M5.20667 15.3805H5.20667M5.20667 15.3805H5.20666M5.20667 15.3805H5.20666M5.20666 15.3805H5.20665M5.20666 15.3805H5.20665M5.20665 15.3805H5.20665M5.20665 15.3805H5.20665M5.20665 15.3805H5.20664M5.20665 15.3805H5.20664M5.20664 15.3805H5.20663H5.20664ZM15.793 11.7617C14.7954 11.7617 13.9836 12.5735 13.9836 13.5711C13.9836 14.5685 14.7951 15.3802 15.7924 15.3805L15.793 11.7617ZM15.793 11.7617C16.7906 11.7617 17.6023 12.5735 17.6023 13.5711M15.793 11.7617L17.6023 13.5711M17.6023 13.5711C17.6023 14.5685 16.7908 15.3802 15.7934 15.3805L17.6023 13.5711ZM15.7934 15.3805H15.7934H15.7934H15.7934H15.7934ZM15.7934 15.3805H15.7934M15.7934 15.3805H15.7934M15.7934 15.3805H15.7934M15.7934 15.3805H15.7934M15.7934 15.3805H15.7934M15.7934 15.3805H15.7934M15.7934 15.3805H15.7934M15.7934 15.3805H15.7934M15.7934 15.3805H15.7934M15.7934 15.3805H15.7934M15.7934 15.3805H15.7934M15.7934 15.3805H15.7934M15.7934 15.3805H15.7933M15.7934 15.3805H15.7933M15.7933 15.3805H15.7933M15.7933 15.3805H15.7933M15.7933 15.3805H15.7933M15.7933 15.3805H15.7933M15.7933 15.3805H15.7933M15.7933 15.3805H15.7933M15.7933 15.3805H15.7933M15.7933 15.3805H15.7933M15.7933 15.3805H15.7933M15.7933 15.3805H15.7933M15.7933 15.3805H15.7933M15.7933 15.3805H15.7933M15.7933 15.3805H15.7933M15.7933 15.3805H15.7933M15.7933 15.3805H15.7933M15.7933 15.3805H15.7933M15.7933 15.3805H15.7933M15.7933 15.3805H15.7933M15.7933 15.3805H15.7933M15.7933 15.3805H15.7933M15.7933 15.3805H15.7933M15.7933 15.3805H15.7933M15.7933 15.3805H15.7933M15.7933 15.3805H15.7933M15.7933 15.3805H15.7932M15.7933 15.3805H15.7932M15.7932 15.3805H15.7932M15.7932 15.3805H15.7932M15.7932 15.3805H15.7932M15.7932 15.3805H15.7932M15.7932 15.3805H15.7932M15.7932 15.3805H15.7932M15.7932 15.3805H15.7932M15.7932 15.3805H15.7932M15.7932 15.3805H15.7932M15.7932 15.3805H15.7932M15.7932 15.3805H15.7932M15.7932 15.3805H15.7932M15.7932 15.3805H15.7932M15.7932 15.3805H15.7932M15.7932 15.3805H15.7932M15.7932 15.3805H15.7932M15.7932 15.3805H15.7932M15.7932 15.3805H15.7932M15.7932 15.3805H15.7932M15.7932 15.3805H15.7932M15.7932 15.3805H15.7932M15.7932 15.3805H15.7932M15.7932 15.3805H15.7932M15.7932 15.3805H15.7932M15.7932 15.3805H15.7931M15.7932 15.3805H15.7931M15.7931 15.3805H15.7931M15.7931 15.3805H15.7931M15.7931 15.3805H15.7931M15.7931 15.3805H15.7931M15.7931 15.3805H15.7931M15.7931 15.3805H15.7931M15.7931 15.3805H15.7931M15.7931 15.3805H15.7931M15.7931 15.3805H15.7931M15.7931 15.3805H15.7931M15.7931 15.3805H15.7931M15.7931 15.3805H15.7931M15.7931 15.3805H15.7931M15.7931 15.3805H15.7931M15.7931 15.3805H15.7931M15.7931 15.3805H15.7931M15.7931 15.3805H15.7931M15.7931 15.3805H15.7931M15.7931 15.3805H15.7931M15.7931 15.3805H15.7931M15.7931 15.3805H15.7931M15.7931 15.3805H15.7931M15.7931 15.3805H15.7931M15.7931 15.3805H15.7931M15.7931 15.3805H15.793M15.7931 15.3805H15.793M15.793 15.3805H15.793M15.793 15.3805H15.793M15.793 15.3805H15.793M15.793 15.3805H15.793M15.793 15.3805H15.793M15.793 15.3805H15.793M15.793 15.3805H15.793M15.793 15.3805H15.793M15.793 15.3805H15.793M15.793 15.3805H15.793M15.793 15.3805H15.793M15.793 15.3805H15.793M15.793 15.3805H15.793M15.793 15.3805H15.793M15.793 15.3805H15.793M15.793 15.3805H15.793M15.793 15.3805H15.793M15.793 15.3805H15.793M15.793 15.3805H15.793M15.793 15.3805H15.793M15.793 15.3805H15.793M15.793 15.3805H15.793M15.793 15.3805H15.793M15.793 15.3805H15.793M15.793 15.3805H15.7929M15.793 15.3805H15.7929M15.7929 15.3805H15.7929M15.7929 15.3805H15.7929M15.7929 15.3805H15.7929M15.7929 15.3805H15.7929M15.7929 15.3805H15.7929M15.7929 15.3805H15.7929M15.7929 15.3805H15.7929M15.7929 15.3805H15.7929M15.7929 15.3805H15.7929M15.7929 15.3805H15.7929M15.7929 15.3805H15.7929M15.7929 15.3805H15.7929M15.7929 15.3805H15.7929M15.7929 15.3805H15.7929M15.7929 15.3805H15.7929M15.7929 15.3805H15.7929M15.7929 15.3805H15.7929M15.7929 15.3805H15.7929M15.7929 15.3805H15.7929M15.7929 15.3805H15.7929M15.7929 15.3805H15.7929M15.7929 15.3805H15.7929M15.7929 15.3805H15.7929M15.7929 15.3805H15.7929M15.7929 15.3805H15.7928M15.7929 15.3805H15.7928M15.7928 15.3805H15.7928M15.7928 15.3805H15.7928M15.7928 15.3805H15.7928M15.7928 15.3805H15.7928M15.7928 15.3805H15.7928M15.7928 15.3805H15.7928M15.7928 15.3805H15.7928M15.7928 15.3805H15.7928M15.7928 15.3805H15.7928M15.7928 15.3805H15.7928M15.7928 15.3805H15.7928M15.7928 15.3805H15.7928M15.7928 15.3805H15.7928M15.7928 15.3805H15.7928M15.7928 15.3805H15.7928M15.7928 15.3805H15.7928M15.7928 15.3805H15.7928M15.7928 15.3805H15.7928M15.7928 15.3805H15.7928M15.7928 15.3805H15.7928M15.7928 15.3805H15.7928M15.7928 15.3805H15.7928M15.7928 15.3805H15.7928M15.7928 15.3805H15.7928M15.7928 15.3805H15.7927M15.7928 15.3805H15.7927M15.7927 15.3805H15.7927M15.7927 15.3805H15.7927M15.7927 15.3805H15.7927M15.7927 15.3805H15.7927M15.7927 15.3805H15.7927M15.7927 15.3805H15.7927M15.7927 15.3805H15.7927M15.7927 15.3805H15.7927M15.7927 15.3805H15.7927M15.7927 15.3805H15.7927M15.7927 15.3805H15.7927M15.7927 15.3805H15.7927M15.7927 15.3805H15.7927M15.7927 15.3805H15.7927M15.7927 15.3805H15.7927M15.7927 15.3805H15.7927M15.7927 15.3805H15.7927M15.7927 15.3805H15.7927M15.7927 15.3805H15.7927M15.7927 15.3805H15.7927M15.7927 15.3805H15.7927M15.7927 15.3805H15.7927M15.7927 15.3805H15.7927M15.7927 15.3805H15.7927M15.7927 15.3805H15.7926M15.7927 15.3805H15.7926M15.7926 15.3805H15.7926M15.7926 15.3805H15.7926M15.7926 15.3805H15.7926M15.7926 15.3805H15.7926M15.7926 15.3805H15.7926M15.7926 15.3805H15.7926M15.7926 15.3805H15.7926M15.7926 15.3805H15.7926M15.7926 15.3805H15.7926M15.7926 15.3805H15.7926M15.7926 15.3805H15.7926M15.7926 15.3805H15.7926M15.7926 15.3805H15.7926M15.7926 15.3805H15.7926M15.7926 15.3805H15.7926M15.7926 15.3805H15.7926M15.7926 15.3805H15.7926M15.7926 15.3805H15.7926M15.7926 15.3805H15.7926M15.7926 15.3805H15.7926M15.7926 15.3805H15.7926M15.7926 15.3805H15.7926M15.7926 15.3805H15.7926M15.7926 15.3805H15.7926M15.7926 15.3805H15.7925M15.7926 15.3805H15.7925M15.7925 15.3805H15.7925M15.7925 15.3805H15.7925M15.7925 15.3805H15.7925M15.7925 15.3805H15.7925M15.7925 15.3805H15.7925M15.7925 15.3805H15.7925M15.7925 15.3805H15.7925M15.7925 15.3805H15.7925M15.7925 15.3805H15.7925M15.7925 15.3805H15.7925M15.7925 15.3805H15.7925M15.7925 15.3805H15.7925M15.7925 15.3805H15.7925M15.7925 15.3805H15.7925M15.7925 15.3805H15.7925M15.7925 15.3805H15.7925M15.7925 15.3805H15.7925M15.7925 15.3805H15.7925M15.7925 15.3805H15.7925M15.7925 15.3805H15.7925M15.7925 15.3805H15.7925M15.7925 15.3805H15.7925M15.7925 15.3805H15.7925M15.7925 15.3805H15.7925M15.7925 15.3805L15.7924 15.4805H15.7929H15.7934C16.8461 15.4802 17.7023 14.6237 17.7023 13.5711C17.7023 12.5183 16.8458 11.6617 15.793 11.6617C14.7402 11.6617 13.8836 12.5183 13.8836 13.5711L15.7925 15.3805ZM6.93299 8.78268L6.98197 8.7611L6.94164 8.66959L6.88736 8.75358C6.90251 8.76337 6.91772 8.77307 6.93299 8.78268ZM9.8916 0.533419L9.90376 0.434161L9.8916 0.533419ZM11.4806 0.927877C11.4733 0.924025 11.466 0.920194 11.4588 0.916382C11.4505 0.91631 11.4423 0.91626 11.4341 0.916232L11.4338 1.01623L11.4806 0.927877ZM15.394 7.64385C15.4025 7.62848 15.4108 7.61307 15.4191 7.59763L15.3959 7.55106L15.3064 7.59561L15.394 7.64385ZM14.5827 7.76854L14.5827 7.76855L14.9542 8.51526L14.186 8.24585C14.186 8.24585 14.1859 8.24585 14.1859 8.24585C14.0492 8.1979 13.8974 8.22518 13.786 8.31772C13.3179 8.7062 12.753 8.97589 12.1527 9.09736C11.7855 9.17166 11.4117 9.18904 11.0441 9.15185C12.5265 8.55336 13.6503 7.18862 13.858 5.49198C14.0054 4.28855 13.6752 3.09925 12.9284 2.14409L12.9284 2.14409C12.8951 2.10144 12.8611 2.05948 12.8264 2.01822C13.9444 2.47759 14.8045 3.47162 15.057 4.71958C15.2418 5.63266 15.079 6.57451 14.5986 7.37194C14.5259 7.4927 14.5199 7.64228 14.5827 7.76854ZM7.06389 2.01365L7.0639 2.01364C7.84573 1.40237 8.81831 1.13235 9.80343 1.25295C10.7885 1.37356 11.6672 1.87032 12.2784 2.6522L12.3572 2.59061L12.2784 2.6522C12.8897 3.43404 13.1598 4.40662 13.0392 5.39174C12.8089 7.27217 11.2033 8.65541 9.35474 8.65526C8.59213 8.65522 7.83435 8.417 7.21152 7.97713L7.21151 7.97712C7.0992 7.89781 6.93741 7.87923 6.80719 7.93659L6.80717 7.9366L6.06217 8.26492L6.37456 7.49158L6.37456 7.49156C6.42735 7.36083 6.40978 7.21222 6.32784 7.09743L6.32783 7.09743C5.78691 6.33972 5.55144 5.41338 5.66465 4.48866C5.78525 3.50358 6.28202 2.62489 7.06389 2.01365ZM9.3475 4.44955C9.07653 4.44955 8.85687 4.66921 8.85687 4.94018C8.85687 5.21115 9.07653 5.4308 9.3475 5.4308C9.61847 5.4308 9.83813 5.21115 9.83813 4.94018C9.83813 4.66921 9.61847 4.44955 9.3475 4.44955ZM11.1353 4.44955C10.8643 4.44955 10.6446 4.66921 10.6446 4.94018C10.6446 5.21115 10.8643 5.4308 11.1353 5.4308C11.4062 5.4308 11.6259 5.21115 11.6259 4.94018C11.6259 4.66921 11.4062 4.44955 11.1353 4.44955ZM7.56852 4.44955C7.29754 4.44955 7.07789 4.66921 7.07789 4.94018C7.07789 5.21115 7.29754 5.4308 7.56852 5.4308C7.83949 5.4308 8.05914 5.21115 8.05914 4.94018C8.05914 4.66921 7.83949 4.44955 7.56852 4.44955ZM2.5727 13.5711C2.5727 14.4195 2.97609 15.1748 3.60027 15.6567C1.73755 16.3193 0.4 18.0998 0.4 20.1875C0.4 20.4153 0.584694 20.6 0.8125 20.6H9.60156C9.82937 20.6 10.0141 20.4153 10.0141 20.1875C10.0141 18.0998 8.67655 16.3193 6.81386 15.6567C7.43805 15.1749 7.84144 14.4195 7.84144 13.5711C7.84144 12.1184 6.65976 10.9367 5.20707 10.9367C3.75438 10.9367 2.5727 12.1184 2.5727 13.5711ZM9.16783 19.775H1.24619C1.45314 17.7726 3.15042 16.2057 5.20652 16.2055H5.20654H5.20655H5.20655H5.20656H5.20657H5.20658H5.20658H5.20659H5.2066H5.20661H5.20661H5.20662H5.20663H5.20663H5.20664H5.20665H5.20666H5.20667H5.20667H5.20668H5.20669H5.2067H5.2067H5.20671H5.20672H5.20673H5.20673H5.20674H5.20675H5.20675H5.20676H5.20677H5.20678H5.20678H5.20679H5.2068H5.20681H5.20681H5.20682H5.20683H5.20683H5.20684H5.20685H5.20686H5.20686H5.20687H5.20688H5.20688H5.20689H5.2069H5.20691H5.20691H5.20692H5.20693H5.20694H5.20694H5.20695H5.20696H5.20697H5.20697H5.20698H5.20699H5.207H5.207H5.20701H5.20702H5.20703H5.20704H5.20705H5.20705H5.20706H5.20707H5.20708H5.20708H5.20709H5.2071H5.2071H5.20711H5.20712H5.20713H5.20713H5.20714H5.20715H5.20716H5.20716H5.20717H5.20718H5.20719H5.20719H5.2072H5.20721H5.20722H5.20722H5.20723H5.20724H5.20725H5.20725H5.20726H5.20727H5.20728H5.20728H5.20729H5.2073H5.20731H5.20731H5.20732H5.20733H5.20734H5.20735H5.20735H5.20736H5.20737H5.20737H5.20738H5.20739H5.2074H5.2074H5.20741H5.20742H5.20743H5.20743H5.20744H5.20745H5.20746H5.20746H5.20747H5.20748H5.20749H5.20749H5.2075H5.20751H5.20752H5.20753C7.26364 16.2057 8.96088 17.7726 9.16783 19.775ZM13.1587 13.5711C13.1587 14.4195 13.5621 15.1748 14.1862 15.6567C12.3235 16.3192 10.9859 18.0998 10.9859 20.1875C10.9859 20.4153 11.1706 20.6 11.3984 20.6H20.1875C20.4153 20.6 20.6 20.4153 20.6 20.1875C20.6 18.0998 19.2625 16.3193 17.3998 15.6567C18.024 15.1749 18.4274 14.4195 18.4274 13.5711C18.4274 12.1184 17.2457 10.9367 15.793 10.9367C14.3404 10.9367 13.1587 12.1184 13.1587 13.5711ZM19.7538 19.775H11.8321C12.0391 17.7726 13.7364 16.2057 15.7925 16.2055H15.7925H15.7925H15.7925H15.7925H15.7925H15.7925H15.7925H15.7925H15.7925H15.7925H15.7926H15.7926H15.7926H15.7926H15.7926H15.7926H15.7926H15.7926H15.7926H15.7926H15.7926H15.7926H15.7926H15.7927H15.7927H15.7927H15.7927H15.7927H15.7927H15.7927H15.7927H15.7927H15.7927H15.7927H15.7927H15.7927H15.7928H15.7928H15.7928H15.7928H15.7928H15.7928H15.7928H15.7928H15.7928H15.7928H15.7928H15.7928H15.7928H15.7929H15.7929H15.7929H15.7929H15.7929H15.7929H15.7929H15.7929H15.7929H15.7929H15.7929H15.7929H15.7929H15.793H15.793H15.793H15.793H15.793H15.793H15.793H15.793H15.793H15.793H15.793H15.793H15.793H15.7931H15.7931H15.7931H15.7931H15.7931H15.7931H15.7931H15.7931H15.7931H15.7931H15.7931H15.7931H15.7931H15.7932H15.7932H15.7932H15.7932H15.7932H15.7932H15.7932H15.7932H15.7932H15.7932H15.7932H15.7932H15.7932H15.7933H15.7933H15.7933H15.7933H15.7933H15.7933H15.7933H15.7933H15.7933H15.7933H15.7933H15.7933H15.7933H15.7934H15.7934H15.7934H15.7934H15.7934H15.7934H15.7934H15.7934H15.7934H15.7934H15.7934H15.7934H15.7934H15.7935H15.7935C17.8496 16.2057 19.5469 17.7726 19.7538 19.775Z"
          fill="black" stroke="black" stroke-width="0.2"/>
</svg>
