<svg width="23" height="23" viewBox="0 0 23 23" fill="none" xmlns="http://www.w3.org/2000/svg">
    <mask id="path-1-outside-1_1135_16751" maskUnits="userSpaceOnUse" x="-0.75" y="-0.75" width="24" height="24"
          fill="black">
        <rect fill="white" x="-0.75" y="-0.75" width="24" height="24"/>
        <path d="M0.625 17.875H1.19612L0.67225 18.8177C0.647075 18.8631 0.63159 18.9133 0.626772 18.965C0.621955 19.0166 0.627911 19.0688 0.644263 19.118C0.660615 19.1673 0.687009 19.2126 0.721775 19.2512C0.756542 19.2897 0.798926 19.3207 0.84625 19.342L8.34625 22.717C8.39117 22.7374 8.43971 22.7487 8.48904 22.7501C8.53837 22.7515 8.58748 22.7431 8.6335 22.7253C8.72688 22.6896 8.80188 22.6184 8.84275 22.5272L10.9105 17.875H21.625C21.7245 17.875 21.8198 17.8355 21.8902 17.7652C21.9605 17.6948 22 17.5995 22 17.5V16.375C22 15.7548 21.4953 15.25 20.875 15.25H19.3176L18.25 8.84387V7H19V7.75C19 8.16363 19.3364 8.5 19.75 8.5H20.5V8.875C20.5 9.49525 21.0047 10 21.625 10C22.2453 10 22.75 9.49525 22.75 8.875V2.125C22.75 1.50475 22.2453 1 21.625 1C21.0047 1 20.5 1.50475 20.5 2.125V3.25H19.75C19.3364 3.25 19 3.58637 19 4V4.75H18.2192C18.1569 4.31504 17.9869 3.90255 17.7246 3.55C17.3062 2.99642 16.6864 2.63007 15.9996 2.53038V0.25H15.2496V2.5H14.5326C14.218 2.49987 13.9059 2.5564 13.6112 2.66687L11.4535 3.47575C11.1913 3.57463 10.9133 3.62519 10.633 3.625H5.302C5.09295 3.62573 4.88788 3.56787 4.71005 3.45797C4.53221 3.34808 4.38873 3.19055 4.29587 3.00325L4.06412 2.54013C4.00239 2.41505 3.90678 2.30983 3.78817 2.23643C3.66956 2.16304 3.53273 2.12443 3.39325 2.125H3.25V1H2.5V2.125C2.08637 2.125 1.75 2.46137 1.75 2.875V3.625H1V4.375H1.75V10.375C1.75 10.7886 2.08637 11.125 2.5 11.125H2.875V12.625H2.125V13.375H2.875V14.5H3.625V12.625H4.375V11.875H3.625V11.125H3.68237C4.04988 11.125 4.36112 10.8618 4.42225 10.4984L4.59288 9.47425C4.67793 8.9574 4.92339 8.4804 5.2945 8.11075C5.52723 7.87675 5.80407 7.69123 6.10899 7.56494C6.4139 7.43864 6.74084 7.37409 7.07087 7.375H11.2367C12.0044 7.375 12.7195 7.71888 13.1991 8.3185C13.5552 8.76413 13.7494 9.31746 13.75 9.88787C13.75 11.3699 13.3694 12.8376 12.6498 14.1329L12.0295 15.25H1.375C0.75475 15.25 0.25 15.7548 0.25 16.375V17.5C0.25 17.5995 0.289509 17.6948 0.359835 17.7652C0.430161 17.8355 0.525544 17.875 0.625 17.875ZM8.31025 21.8785L1.52575 18.8256L2.161 17.6823L2.1985 17.6151L3.09587 16H10.9229L10.3236 17.3478L10.3232 17.3489L8.31025 21.8785ZM21.25 16.375V17.125H11.2439L11.7438 16H20.875C21.082 16 21.25 16.1684 21.25 16.375ZM21.25 2.125C21.2543 2.02845 21.2957 1.93728 21.3656 1.87048C21.4354 1.80368 21.5283 1.7664 21.625 1.7664C21.7217 1.7664 21.8146 1.80368 21.8844 1.87048C21.9543 1.93728 21.9957 2.02845 22 2.125V8.875C21.9957 8.97155 21.9543 9.06272 21.8844 9.12952C21.8146 9.19632 21.7217 9.2336 21.625 9.2336C21.5283 9.2336 21.4354 9.19632 21.3656 9.12952C21.2957 9.06272 21.2543 8.97155 21.25 8.875V2.125ZM19.75 4H20.5V7.75H19.75V4ZM19 6.25H18.25V5.5H19V6.25ZM13.3053 14.497C14.0868 13.0907 14.5 11.497 14.5 9.88787C14.4989 9.14707 14.2468 8.4285 13.7849 7.84937C13.48 7.46646 13.0924 7.15743 12.6512 6.94541C12.21 6.73339 11.7266 6.62385 11.2371 6.625H7.07087C6.19937 6.625 5.37962 6.96438 4.76425 7.5805C4.28241 8.0605 3.96364 8.67981 3.853 9.35087L3.68237 10.375H2.5V2.875H3.39325L3.625 3.3385C3.77978 3.65069 4.01893 3.91327 4.31534 4.09647C4.61174 4.27967 4.95355 4.37616 5.302 4.375H10.633C11.0046 4.375 11.3695 4.309 11.7179 4.1785L13.8749 3.36963C14.0852 3.29031 14.3082 3.24978 14.533 3.25H15.625C16.2119 3.25 16.7729 3.5305 17.125 4C17.3669 4.32212 17.5 4.72188 17.5 5.125V8.875C17.5 8.89563 17.5019 8.91625 17.5052 8.93688L18.5571 15.25H12.8871L13.3053 14.497ZM1 16.375C1 16.1684 1.168 16 1.375 16H2.23787L1.717 16.9375L1.61275 17.125H1V16.375Z"/>
    </mask>
    <path d="M0.625 17.875H1.19612L0.67225 18.8177C0.647075 18.8631 0.63159 18.9133 0.626772 18.965C0.621955 19.0166 0.627911 19.0688 0.644263 19.118C0.660615 19.1673 0.687009 19.2126 0.721775 19.2512C0.756542 19.2897 0.798926 19.3207 0.84625 19.342L8.34625 22.717C8.39117 22.7374 8.43971 22.7487 8.48904 22.7501C8.53837 22.7515 8.58748 22.7431 8.6335 22.7253C8.72688 22.6896 8.80188 22.6184 8.84275 22.5272L10.9105 17.875H21.625C21.7245 17.875 21.8198 17.8355 21.8902 17.7652C21.9605 17.6948 22 17.5995 22 17.5V16.375C22 15.7548 21.4953 15.25 20.875 15.25H19.3176L18.25 8.84387V7H19V7.75C19 8.16363 19.3364 8.5 19.75 8.5H20.5V8.875C20.5 9.49525 21.0047 10 21.625 10C22.2453 10 22.75 9.49525 22.75 8.875V2.125C22.75 1.50475 22.2453 1 21.625 1C21.0047 1 20.5 1.50475 20.5 2.125V3.25H19.75C19.3364 3.25 19 3.58637 19 4V4.75H18.2192C18.1569 4.31504 17.9869 3.90255 17.7246 3.55C17.3062 2.99642 16.6864 2.63007 15.9996 2.53038V0.25H15.2496V2.5H14.5326C14.218 2.49987 13.9059 2.5564 13.6112 2.66687L11.4535 3.47575C11.1913 3.57463 10.9133 3.62519 10.633 3.625H5.302C5.09295 3.62573 4.88788 3.56787 4.71005 3.45797C4.53221 3.34808 4.38873 3.19055 4.29587 3.00325L4.06412 2.54013C4.00239 2.41505 3.90678 2.30983 3.78817 2.23643C3.66956 2.16304 3.53273 2.12443 3.39325 2.125H3.25V1H2.5V2.125C2.08637 2.125 1.75 2.46137 1.75 2.875V3.625H1V4.375H1.75V10.375C1.75 10.7886 2.08637 11.125 2.5 11.125H2.875V12.625H2.125V13.375H2.875V14.5H3.625V12.625H4.375V11.875H3.625V11.125H3.68237C4.04988 11.125 4.36112 10.8618 4.42225 10.4984L4.59288 9.47425C4.67793 8.9574 4.92339 8.4804 5.2945 8.11075C5.52723 7.87675 5.80407 7.69123 6.10899 7.56494C6.4139 7.43864 6.74084 7.37409 7.07087 7.375H11.2367C12.0044 7.375 12.7195 7.71888 13.1991 8.3185C13.5552 8.76413 13.7494 9.31746 13.75 9.88787C13.75 11.3699 13.3694 12.8376 12.6498 14.1329L12.0295 15.25H1.375C0.75475 15.25 0.25 15.7548 0.25 16.375V17.5C0.25 17.5995 0.289509 17.6948 0.359835 17.7652C0.430161 17.8355 0.525544 17.875 0.625 17.875ZM8.31025 21.8785L1.52575 18.8256L2.161 17.6823L2.1985 17.6151L3.09587 16H10.9229L10.3236 17.3478L10.3232 17.3489L8.31025 21.8785ZM21.25 16.375V17.125H11.2439L11.7438 16H20.875C21.082 16 21.25 16.1684 21.25 16.375ZM21.25 2.125C21.2543 2.02845 21.2957 1.93728 21.3656 1.87048C21.4354 1.80368 21.5283 1.7664 21.625 1.7664C21.7217 1.7664 21.8146 1.80368 21.8844 1.87048C21.9543 1.93728 21.9957 2.02845 22 2.125V8.875C21.9957 8.97155 21.9543 9.06272 21.8844 9.12952C21.8146 9.19632 21.7217 9.2336 21.625 9.2336C21.5283 9.2336 21.4354 9.19632 21.3656 9.12952C21.2957 9.06272 21.2543 8.97155 21.25 8.875V2.125ZM19.75 4H20.5V7.75H19.75V4ZM19 6.25H18.25V5.5H19V6.25ZM13.3053 14.497C14.0868 13.0907 14.5 11.497 14.5 9.88787C14.4989 9.14707 14.2468 8.4285 13.7849 7.84937C13.48 7.46646 13.0924 7.15743 12.6512 6.94541C12.21 6.73339 11.7266 6.62385 11.2371 6.625H7.07087C6.19937 6.625 5.37962 6.96438 4.76425 7.5805C4.28241 8.0605 3.96364 8.67981 3.853 9.35087L3.68237 10.375H2.5V2.875H3.39325L3.625 3.3385C3.77978 3.65069 4.01893 3.91327 4.31534 4.09647C4.61174 4.27967 4.95355 4.37616 5.302 4.375H10.633C11.0046 4.375 11.3695 4.309 11.7179 4.1785L13.8749 3.36963C14.0852 3.29031 14.3082 3.24978 14.533 3.25H15.625C16.2119 3.25 16.7729 3.5305 17.125 4C17.3669 4.32212 17.5 4.72188 17.5 5.125V8.875C17.5 8.89563 17.5019 8.91625 17.5052 8.93688L18.5571 15.25H12.8871L13.3053 14.497ZM1 16.375C1 16.1684 1.168 16 1.375 16H2.23787L1.717 16.9375L1.61275 17.125H1V16.375Z"
          fill="black"/>
    <path d="M0.625 17.875H1.19612L0.67225 18.8177C0.647075 18.8631 0.63159 18.9133 0.626772 18.965C0.621955 19.0166 0.627911 19.0688 0.644263 19.118C0.660615 19.1673 0.687009 19.2126 0.721775 19.2512C0.756542 19.2897 0.798926 19.3207 0.84625 19.342L8.34625 22.717C8.39117 22.7374 8.43971 22.7487 8.48904 22.7501C8.53837 22.7515 8.58748 22.7431 8.6335 22.7253C8.72688 22.6896 8.80188 22.6184 8.84275 22.5272L10.9105 17.875H21.625C21.7245 17.875 21.8198 17.8355 21.8902 17.7652C21.9605 17.6948 22 17.5995 22 17.5V16.375C22 15.7548 21.4953 15.25 20.875 15.25H19.3176L18.25 8.84387V7H19V7.75C19 8.16363 19.3364 8.5 19.75 8.5H20.5V8.875C20.5 9.49525 21.0047 10 21.625 10C22.2453 10 22.75 9.49525 22.75 8.875V2.125C22.75 1.50475 22.2453 1 21.625 1C21.0047 1 20.5 1.50475 20.5 2.125V3.25H19.75C19.3364 3.25 19 3.58637 19 4V4.75H18.2192C18.1569 4.31504 17.9869 3.90255 17.7246 3.55C17.3062 2.99642 16.6864 2.63007 15.9996 2.53038V0.25H15.2496V2.5H14.5326C14.218 2.49987 13.9059 2.5564 13.6112 2.66687L11.4535 3.47575C11.1913 3.57463 10.9133 3.62519 10.633 3.625H5.302C5.09295 3.62573 4.88788 3.56787 4.71005 3.45797C4.53221 3.34808 4.38873 3.19055 4.29587 3.00325L4.06412 2.54013C4.00239 2.41505 3.90678 2.30983 3.78817 2.23643C3.66956 2.16304 3.53273 2.12443 3.39325 2.125H3.25V1H2.5V2.125C2.08637 2.125 1.75 2.46137 1.75 2.875V3.625H1V4.375H1.75V10.375C1.75 10.7886 2.08637 11.125 2.5 11.125H2.875V12.625H2.125V13.375H2.875V14.5H3.625V12.625H4.375V11.875H3.625V11.125H3.68237C4.04988 11.125 4.36112 10.8618 4.42225 10.4984L4.59288 9.47425C4.67793 8.9574 4.92339 8.4804 5.2945 8.11075C5.52723 7.87675 5.80407 7.69123 6.10899 7.56494C6.4139 7.43864 6.74084 7.37409 7.07087 7.375H11.2367C12.0044 7.375 12.7195 7.71888 13.1991 8.3185C13.5552 8.76413 13.7494 9.31746 13.75 9.88787C13.75 11.3699 13.3694 12.8376 12.6498 14.1329L12.0295 15.25H1.375C0.75475 15.25 0.25 15.7548 0.25 16.375V17.5C0.25 17.5995 0.289509 17.6948 0.359835 17.7652C0.430161 17.8355 0.525544 17.875 0.625 17.875ZM8.31025 21.8785L1.52575 18.8256L2.161 17.6823L2.1985 17.6151L3.09587 16H10.9229L10.3236 17.3478L10.3232 17.3489L8.31025 21.8785ZM21.25 16.375V17.125H11.2439L11.7438 16H20.875C21.082 16 21.25 16.1684 21.25 16.375ZM21.25 2.125C21.2543 2.02845 21.2957 1.93728 21.3656 1.87048C21.4354 1.80368 21.5283 1.7664 21.625 1.7664C21.7217 1.7664 21.8146 1.80368 21.8844 1.87048C21.9543 1.93728 21.9957 2.02845 22 2.125V8.875C21.9957 8.97155 21.9543 9.06272 21.8844 9.12952C21.8146 9.19632 21.7217 9.2336 21.625 9.2336C21.5283 9.2336 21.4354 9.19632 21.3656 9.12952C21.2957 9.06272 21.2543 8.97155 21.25 8.875V2.125ZM19.75 4H20.5V7.75H19.75V4ZM19 6.25H18.25V5.5H19V6.25ZM13.3053 14.497C14.0868 13.0907 14.5 11.497 14.5 9.88787C14.4989 9.14707 14.2468 8.4285 13.7849 7.84937C13.48 7.46646 13.0924 7.15743 12.6512 6.94541C12.21 6.73339 11.7266 6.62385 11.2371 6.625H7.07087C6.19937 6.625 5.37962 6.96438 4.76425 7.5805C4.28241 8.0605 3.96364 8.67981 3.853 9.35087L3.68237 10.375H2.5V2.875H3.39325L3.625 3.3385C3.77978 3.65069 4.01893 3.91327 4.31534 4.09647C4.61174 4.27967 4.95355 4.37616 5.302 4.375H10.633C11.0046 4.375 11.3695 4.309 11.7179 4.1785L13.8749 3.36963C14.0852 3.29031 14.3082 3.24978 14.533 3.25H15.625C16.2119 3.25 16.7729 3.5305 17.125 4C17.3669 4.32212 17.5 4.72188 17.5 5.125V8.875C17.5 8.89563 17.5019 8.91625 17.5052 8.93688L18.5571 15.25H12.8871L13.3053 14.497ZM1 16.375C1 16.1684 1.168 16 1.375 16H2.23787L1.717 16.9375L1.61275 17.125H1V16.375Z"
          stroke="black" stroke-width="0.4" mask="url(#path-1-outside-1_1135_16751)"/>
</svg>
