<svg width="32" height="32" viewBox="0 0 32 32" fill="none" xmlns="http://www.w3.org/2000/svg">
<rect width="32" height="32" rx="16" fill="#EFEFEF"/>
<path d="M11.5892 10.4106C11.2638 10.0851 10.7361 10.0851 10.4107 10.4106C10.0853 10.736 10.0853 11.2637 10.4107 11.5891L14.8215 15.9999L10.4107 20.4106C10.0853 20.736 10.0853 21.2637 10.4107 21.5891C10.7362 21.9145 11.2638 21.9145 11.5892 21.5891L16 17.1784L20.4107 21.5891C20.7361 21.9145 21.2638 21.9145 21.5892 21.5891C21.9147 21.2637 21.9147 20.736 21.5892 20.4106L17.1785 15.9999L21.5892 11.5891C21.9147 11.2637 21.9147 10.736 21.5892 10.4106C21.2638 10.0851 20.7362 10.0851 20.4107 10.4106L16 14.8213L11.5892 10.4106Z" fill="#33383F"/>
</svg>
