<svg width="40" height="41" viewBox="0 0 40 41" fill="none" xmlns="http://www.w3.org/2000/svg">
<rect y="0.5" width="40" height="40" rx="8" fill="#F9F9F9"/>
<rect x="4" y="4.5" width="32" height="32" rx="8" fill="#F9F9F9"/>
<path fill-rule="evenodd" clip-rule="evenodd" d="M23.3327 18.5C23.3327 16.6583 21.8404 15.166 20 15.166C18.1583 15.166 16.666 16.6583 16.666 18.5C16.666 20.3404 18.1583 21.8327 20 21.8327C21.8404 21.8327 23.3327 20.3404 23.3327 18.5Z" stroke="#0361FF" stroke-width="1.5" stroke-linecap="round" stroke-linejoin="round"/>
<path fill-rule="evenodd" clip-rule="evenodd" d="M19.9993 32.5C18.4014 32.5 10 25.6978 10 18.5844C10 13.0155 14.4761 8.5 19.9993 8.5C25.5226 8.5 30 13.0155 30 18.5844C30 25.6978 21.5973 32.5 19.9993 32.5Z" stroke="#0361FF" stroke-width="1.5" stroke-linecap="round" stroke-linejoin="round"/>
</svg>
