<svg width="21" height="19" viewBox="0 0 21 19" fill="none" xmlns="http://www.w3.org/2000/svg">
    <path fill-rule="evenodd" clip-rule="evenodd"
          d="M10.501 13.541C10.087 13.541 9.75099 13.205 9.75099 12.791V0.75C9.75099 0.336 10.087 0 10.501 0C10.915 0 11.251 0.336 11.251 0.75V12.791C11.251 13.205 10.915 13.541 10.501 13.541Z"
          fill="#29303C"/>
    <path fill-rule="evenodd" clip-rule="evenodd"
          d="M10.501 13.541C10.302 13.541 10.11 13.462 9.96999 13.32L7.05399 10.393C6.76199 10.099 6.76299 9.62403 7.05599 9.33203C7.34999 9.04003 7.82399 9.04003 8.11599 9.33403L10.501 11.729L12.886 9.33403C13.178 9.04003 13.652 9.04003 13.946 9.33203C14.239 9.62403 14.24 10.099 13.948 10.393L11.032 13.32C10.892 13.462 10.7 13.541 10.501 13.541Z"
          fill="#29303C"/>
    <mask id="mask0_1370_7543" style="mask-type:luminance" maskUnits="userSpaceOnUse" x="0" y="4" width="21"
          height="15">
        <path fill-rule="evenodd" clip-rule="evenodd" d="M0.500198 4.73438H20.5V18.4784H0.500198V4.73438Z"
              fill="white"/>
    </mask>
    <g mask="url(#mask0_1370_7543)">
        <path fill-rule="evenodd" clip-rule="evenodd"
              d="M16.0752 18.4784H4.9352C2.4902 18.4784 0.500198 16.4894 0.500198 14.0434V9.15837C0.500198 6.71837 2.4852 4.73438 4.9262 4.73438H5.8672C6.2812 4.73438 6.6172 5.07037 6.6172 5.48438C6.6172 5.89838 6.2812 6.23438 5.8672 6.23438H4.9262C3.3122 6.23438 2.0002 7.54537 2.0002 9.15837V14.0434C2.0002 15.6624 3.3162 16.9784 4.9352 16.9784H16.0752C17.6872 16.9784 19.0002 15.6654 19.0002 14.0534V9.16937C19.0002 7.55037 17.6832 6.23438 16.0662 6.23438H15.1342C14.7202 6.23438 14.3842 5.89838 14.3842 5.48438C14.3842 5.07037 14.7202 4.73438 15.1342 4.73438H16.0662C18.5112 4.73438 20.5002 6.72438 20.5002 9.16937V14.0534C20.5002 16.4934 18.5142 18.4784 16.0752 18.4784Z"
              fill="#29303C"/>
    </g>
</svg>
