<svg xmlns="http://www.w3.org/2000/svg" width="21" height="21" viewBox="0 0 21 21" fill="none">
  <path d="M9.992 0.789062H6.253C3.178 0.789062 1.25 2.96606 1.25 6.04806V14.3621C1.25 17.4441 3.169 19.6211 6.253 19.6211H15.077C18.162 19.6211 20.081 17.4441 20.081 14.3621V10.3341" stroke="white" stroke-width="1.5" stroke-linecap="round" stroke-linejoin="round"/>
  <path fill-rule="evenodd" clip-rule="evenodd" d="M7.32666 8.9205L14.7997 1.4475C15.7307 0.5175 17.2397 0.5175 18.1707 1.4475L19.3877 2.6645C20.3187 3.5955 20.3187 5.1055 19.3877 6.0355L11.8787 13.5445C11.4717 13.9515 10.9197 14.1805 10.3437 14.1805H6.59766L6.69166 10.4005C6.70566 9.8445 6.93266 9.3145 7.32666 8.9205Z" stroke="white" stroke-width="1.5" stroke-linecap="round" stroke-linejoin="round"/>
  <path d="M13.6641 2.60156L18.2301 7.16756" stroke="white" stroke-width="1.5" stroke-linecap="round" stroke-linejoin="round"/>
</svg>