<svg width="33" height="32" viewBox="0 0 33 32" fill="none" xmlns="http://www.w3.org/2000/svg">
<rect x="0.5" width="32" height="32" rx="8" fill="#F9F9F9"/>
<path fill-rule="evenodd" clip-rule="evenodd" d="M16.1805 25.6613C12.4887 25.6613 9.33594 25.0868 9.33594 22.7861C9.33594 20.4853 12.4687 18.3613 16.1805 18.3613C19.8723 18.3613 23.025 20.4647 23.025 22.7655C23.025 25.0653 19.8923 25.6613 16.1805 25.6613Z" stroke="#999BA7" stroke-width="1.5" stroke-linecap="round" stroke-linejoin="round"/>
<path fill-rule="evenodd" clip-rule="evenodd" d="M16.1734 15.174C18.5962 15.174 20.5598 13.2104 20.5598 10.7877C20.5598 8.36494 18.5962 6.40039 16.1734 6.40039C13.7507 6.40039 11.7862 8.36494 11.7862 10.7877C11.778 13.2022 13.728 15.1658 16.1425 15.174C16.1534 15.174 16.1634 15.174 16.1734 15.174Z" stroke="#999BA7" stroke-width="1.5" stroke-linecap="round" stroke-linejoin="round"/>
</svg>
