<svg width="33" height="32" viewBox="0 0 33 32" fill="none" xmlns="http://www.w3.org/2000/svg">
<rect x="0.5" width="32" height="32" rx="8" fill="#F9F9F9"/>
<g clip-path="url(#clip0_3953_40313)">
<circle cx="16.1833" cy="12.9899" r="7.98989" stroke="#999BA7" stroke-width="1.5"/>
<path d="M16.2048 8.39085C16.3528 8.19488 16.6472 8.19488 16.7952 8.39085L18.2836 10.3617C18.3279 10.4203 18.3886 10.4644 18.458 10.4884L20.7924 11.295C21.0245 11.3752 21.1154 11.6551 20.9748 11.8564L19.5603 13.8811C19.5183 13.9413 19.4951 14.0126 19.4937 14.086L19.448 16.5554C19.4434 16.8009 19.2053 16.9739 18.9704 16.9024L16.6078 16.1828C16.5375 16.1614 16.4625 16.1614 16.3922 16.1828L14.0296 16.9024C13.7947 16.9739 13.5566 16.8009 13.552 16.5554L13.5063 14.086C13.5049 14.0126 13.4817 13.9413 13.4397 13.8811L12.0252 11.8564C11.8846 11.6551 11.9755 11.3752 12.2076 11.295L14.542 10.4884C14.6114 10.4644 14.6721 10.4203 14.7164 10.3617L16.2048 8.39085Z" stroke="#999BA7" stroke-width="1.5"/>
<path d="M10.3855 18.5315L7.81903 24.2487C7.64768 24.6304 8.05124 25.0155 8.42451 24.8265L11.2148 23.4136C11.4592 23.2898 11.7562 23.4148 11.8386 23.6761L12.8428 26.8599C12.9656 27.249 13.504 27.2804 13.6711 26.9082L16.2739 21.1102" stroke="#999BA7" stroke-width="1.5"/>
<path d="M22.3137 18.0101L25.0798 24.1826C25.2541 24.5715 24.8334 24.9587 24.4602 24.7527L21.6241 23.1873C21.3729 23.0487 21.0582 23.1812 20.9818 23.4578L20.063 26.7841C19.9522 27.1851 19.4002 27.2271 19.23 26.8474L16.4253 20.5887" stroke="#999BA7" stroke-width="1.5"/>
</g>
<defs>
<clipPath id="clip0_3953_40313">
<rect width="24" height="24" fill="white" transform="translate(4.5 4)"/>
</clipPath>
</defs>
</svg>
