<svg width="132" height="121" viewBox="0 0 132 121" fill="none" xmlns="http://www.w3.org/2000/svg">
<rect x="0.5" y="0.75" width="131" height="119" rx="3.5" stroke="#999BA7" stroke-dasharray="7 5"/>
<g clip-path="url(#clip0_2220_12951)">
<path d="M78 64.25H50V36.25H68V32.25H50C47.8 32.25 46 34.05 46 36.25V64.25C46 66.45 47.8 68.25 50 68.25H78C80.2 68.25 82 66.45 82 64.25V46.25H78V64.25ZM62.42 57.91L58.5 53.19L53 60.25H75L67.92 50.83L62.42 57.91ZM82 32.25V26.25H78V32.25H72C72.02 32.27 72 36.25 72 36.25H78V42.23C78.02 42.25 82 42.23 82 42.23V36.25H88V32.25H82Z" fill="#999CA0"/>
<path d="M82 32.25V26.25H78V32.25H72C72.02 32.27 72 36.25 72 36.25H78V42.23C78.02 42.25 82 42.23 82 42.23V36.25H88V32.25H82Z" fill="#0361FF"/>
</g>
<path d="M28.8241 85.938V87.926C28.8241 88.3087 28.9174 88.584 29.1041 88.752C29.2908 88.9107 29.5848 88.99 29.9861 88.99H30.1261L30.2101 89.634L30.1261 90.25H29.9861C29.5101 90.25 29.1228 90.1193 28.8241 89.858V89.886C28.8241 91.146 28.5068 92.1073 27.8721 92.77C27.2374 93.442 26.3228 93.778 25.1281 93.778H24.2461V92.518H25.1281C26.0614 92.518 26.7288 92.3173 27.1301 91.916C27.5314 91.5147 27.7321 90.838 27.7321 89.886V85.938H28.8241ZM30.0286 88.99H32.1566C33.118 88.99 33.5986 88.668 33.5986 88.024C33.5986 87.772 33.552 87.394 33.4586 86.89C33.3746 86.3767 33.2766 85.8773 33.1646 85.392L34.2286 85.112C34.3406 85.588 34.4433 86.1107 34.5366 86.68C34.6393 87.2493 34.6906 87.6927 34.6906 88.01C34.6906 88.402 34.5973 88.7707 34.4106 89.116C34.224 89.452 33.9393 89.7273 33.5566 89.942C33.174 90.1473 32.7073 90.25 32.1566 90.25H30.0286V88.99ZM30.3786 92.406H31.7786V93.806H30.3786V92.406ZM32.8846 92.406H34.2846V93.806H32.8846V92.406ZM37.7687 92.532C38.422 92.532 38.926 92.4527 39.2807 92.294C39.6447 92.1447 39.8967 91.9113 40.0367 91.594C40.1767 91.2767 40.2467 90.8567 40.2467 90.334V90.25H38.7067C37.9227 90.25 37.288 90.0167 36.8027 89.55C36.3267 89.0833 36.0887 88.43 36.0887 87.59C36.0887 87.0207 36.196 86.5027 36.4107 86.036C36.6347 85.5693 36.9427 85.2007 37.3347 84.93C37.736 84.6593 38.1887 84.524 38.6927 84.524C39.2247 84.524 39.6913 84.6547 40.0927 84.916C40.494 85.1773 40.802 85.5413 41.0167 86.008C41.2313 86.4653 41.3387 86.9927 41.3387 87.59V88.99H42.1227L42.2067 89.634L42.1227 90.25H41.3387V90.334C41.3387 91.398 41.054 92.238 40.4847 92.854C39.9247 93.4793 39.0193 93.792 37.7687 93.792H36.2707V92.532H37.7687ZM37.1807 87.59C37.1807 88.1033 37.302 88.4673 37.5447 88.682C37.7873 88.8873 38.1747 88.99 38.7067 88.99H40.2467V87.59C40.2467 87.0207 40.116 86.5773 39.8547 86.26C39.5933 85.9333 39.206 85.77 38.6927 85.77C38.2167 85.77 37.8433 85.938 37.5727 86.274C37.3113 86.6007 37.1807 87.0393 37.1807 87.59ZM45.5049 87.996C45.5049 88.4347 45.6915 88.7287 46.0649 88.878L46.6809 87.926L47.6049 86.512C48.0622 85.7933 48.5149 85.28 48.9629 84.972C49.4202 84.664 49.9615 84.51 50.5869 84.51C51.1095 84.51 51.5575 84.6453 51.9309 84.916C52.3135 85.1867 52.6029 85.5507 52.7989 86.008C53.0042 86.456 53.1069 86.946 53.1069 87.478C53.1069 87.8607 53.0369 88.2387 52.8969 88.612C53.1209 88.864 53.4849 88.99 53.9889 88.99H54.4369L54.5349 89.62L54.4369 90.25H53.9889C53.6529 90.25 53.3262 90.1847 53.0089 90.054C52.7009 89.914 52.4442 89.7367 52.2389 89.522C51.9775 89.7553 51.6742 89.9373 51.3289 90.068C50.9835 90.1893 50.6195 90.25 50.2369 90.25H46.6669C46.4149 90.25 46.1209 90.194 45.7849 90.082C45.4489 89.9607 45.1595 89.7647 44.9169 89.494C44.6742 89.746 44.3802 89.9373 44.0349 90.068C43.6895 90.1893 43.3442 90.25 42.9989 90.25H41.9769V88.99H42.9989C43.4189 88.99 43.7595 88.9107 44.0209 88.752C44.2822 88.584 44.4129 88.332 44.4129 87.996V85.938H45.5049V87.996ZM50.2369 88.99C50.7969 88.99 51.2309 88.864 51.5389 88.612C51.8562 88.3507 52.0149 87.9727 52.0149 87.478C52.0149 86.3393 51.5389 85.77 50.5869 85.77C50.2975 85.77 50.0502 85.8167 49.8449 85.91C49.6489 85.994 49.4529 86.134 49.2569 86.33C49.0609 86.526 48.8089 86.8293 48.5009 87.24C48.1929 87.632 47.7729 88.2153 47.2409 88.99H50.2369ZM54.3226 88.99H56.2126C57.1739 88.99 57.6546 88.668 57.6546 88.024C57.6546 87.772 57.6079 87.394 57.5146 86.89C57.4306 86.3767 57.3326 85.8773 57.2206 85.392L58.2846 85.112C58.3966 85.588 58.4992 86.1107 58.5926 86.68C58.6952 87.2493 58.7466 87.6927 58.7466 88.01C58.7466 88.402 58.6532 88.7707 58.4666 89.116C58.2799 89.452 57.9952 89.7273 57.6126 89.942C57.2299 90.1473 56.7632 90.25 56.2126 90.25H54.3226V88.99ZM54.9526 82.06H56.3526V83.46H54.9526V82.06ZM57.4586 82.06H58.8586V83.46H57.4586V82.06ZM65.5832 86.624C65.0232 87.828 64.7432 88.8313 64.7432 89.634C64.7432 90.4833 64.9532 91.174 65.3732 91.706C65.8025 92.2473 66.4278 92.518 67.2492 92.518H68.7612C69.6385 92.518 70.2638 92.3687 70.6372 92.07C71.0198 91.7807 71.2112 91.3047 71.2112 90.642C71.2112 90.5487 71.1925 90.488 71.1552 90.46C71.1272 90.432 71.0432 90.3993 70.9032 90.362L67.9352 89.564C67.7858 89.116 67.7112 88.6727 67.7112 88.234C67.7112 87.7767 67.7858 87.3473 67.9352 86.946C68.0938 86.5353 68.3085 86.176 68.5792 85.868C68.9245 85.476 69.3305 85.1773 69.7972 84.972C70.2638 84.7573 70.7445 84.65 71.2392 84.65C71.7245 84.65 72.1818 84.7013 72.6112 84.804L72.3592 86.036C72.0418 85.952 71.6825 85.91 71.2812 85.91C70.4972 85.91 69.8672 86.176 69.3912 86.708C68.9898 87.156 68.7892 87.6367 68.7892 88.15C68.7892 88.2153 68.7985 88.332 68.8172 88.5L71.2112 89.158C71.5938 89.27 71.8692 89.4473 72.0372 89.69C72.2145 89.9327 72.3032 90.2547 72.3032 90.656C72.3032 91.6453 71.9905 92.4107 71.3652 92.952C70.7492 93.5027 69.8812 93.778 68.7612 93.778H67.2492C66.5118 93.778 65.8678 93.5867 65.3172 93.204C64.7758 92.8213 64.3605 92.3127 64.0712 91.678C63.7912 91.0527 63.6512 90.3807 63.6512 89.662C63.6512 88.6633 63.9592 87.4733 64.5752 86.092L65.5832 86.624ZM77.1952 85.938V89.886C77.1952 91.146 76.8779 92.1073 76.2432 92.77C75.6085 93.442 74.6939 93.778 73.4992 93.778H72.6172V92.518H73.4992C74.4325 92.518 75.0999 92.3173 75.5012 91.916C75.9025 91.5147 76.1032 90.838 76.1032 89.886V85.938H77.1952ZM79.0862 81.164H80.1782L80.1922 90.25H79.1002L79.0862 81.164ZM85.6838 83.348C85.7864 83.5907 86.1084 84.2953 86.6498 85.462L87.1538 86.568C87.1538 86.568 87.1538 86.5727 87.1538 86.582C87.1631 86.582 87.1678 86.582 87.1678 86.582C87.4384 87.1887 87.6718 87.66 87.8678 87.996C88.0731 88.332 88.2878 88.584 88.5118 88.752C88.7358 88.9107 88.9971 88.99 89.2958 88.99H89.5198L89.5898 89.662L89.5198 90.25H89.2958C88.8851 90.25 88.5164 90.1567 88.1898 89.97C87.8724 89.774 87.5691 89.494 87.2798 89.13L87.2378 89.2C86.7524 89.9 85.9871 90.25 84.9418 90.25H84.2278C83.7238 90.25 83.2758 90.1753 82.8838 90.026C82.4918 89.8673 82.1558 89.69 81.8758 89.494L82.4498 88.43C82.7298 88.598 82.9958 88.7333 83.2478 88.836C83.4998 88.9387 83.8264 88.99 84.2278 88.99H84.9418C85.2778 88.99 85.5624 88.9527 85.7958 88.878C86.0291 88.794 86.2111 88.6587 86.3418 88.472C86.4351 88.3507 86.4818 88.2107 86.4818 88.052C86.4818 87.912 86.4304 87.716 86.3278 87.464L86.1598 87.086L85.7258 86.148C85.3151 85.2707 84.9651 84.5147 84.6758 83.88L85.6838 83.348ZM84.6618 80.604H86.0618V82.004H84.6618V80.604ZM95.9573 82.284L91.8273 84.118L94.0813 86.4C94.3146 86.6427 94.4919 86.9133 94.6133 87.212C94.7346 87.5013 94.7953 87.7953 94.7953 88.094C94.7953 88.4767 94.7019 88.8313 94.5153 89.158C94.3379 89.4847 94.0766 89.7507 93.7313 89.956C93.3859 90.152 92.9753 90.25 92.4993 90.25H89.3773V88.99H92.4993C92.9099 88.99 93.2226 88.9153 93.4373 88.766C93.6613 88.6167 93.7733 88.4207 93.7733 88.178C93.7733 87.8887 93.6146 87.5853 93.2973 87.268L90.6373 84.608L90.9733 83.138L95.5093 81.136L95.9573 82.284ZM91.0993 81.57L94.7813 79.96L94.9913 80.492L91.0293 82.228L91.0993 81.57ZM99.0565 85.938V89.886C99.0565 91.146 98.7392 92.1073 98.1045 92.77C97.4698 93.442 96.5552 93.778 95.3605 93.778H94.4785V92.518H95.3605C96.2938 92.518 96.9612 92.3173 97.3625 91.916C97.7638 91.5147 97.9645 90.838 97.9645 89.886V85.938H99.0565ZM103.412 90.25C102.488 90.25 101.848 90.0027 101.494 89.508C101.139 89.004 100.962 88.2667 100.962 87.296L100.948 81.164H102.04L102.054 87.296C102.054 87.8 102.082 88.164 102.138 88.388C102.203 88.612 102.324 88.7707 102.502 88.864C102.688 88.948 102.992 88.99 103.412 88.99H103.622L103.692 89.634L103.622 90.25H103.412ZM103.487 88.99H105.027C105.428 88.99 105.727 88.906 105.923 88.738C106.119 88.5607 106.217 88.3227 106.217 88.024C106.217 87.7813 106.17 87.4033 106.077 86.89C105.993 86.3673 105.895 85.868 105.783 85.392L106.847 85.112C106.959 85.588 107.061 86.1107 107.155 86.68C107.257 87.2493 107.309 87.6927 107.309 88.01C107.309 88.3927 107.22 88.7567 107.043 89.102C106.865 89.4473 106.604 89.7273 106.259 89.942C105.913 90.1473 105.503 90.25 105.027 90.25H103.487V88.99ZM103.837 92.378H105.237V93.778H103.837V92.378Z" fill="#999CA0"/>
<defs>
<clipPath id="clip0_2220_12951">
<rect width="48" height="48" fill="white" transform="translate(42 24.25)"/>
</clipPath>
</defs>
</svg>
