<svg width="33" height="32" viewBox="0 0 33 32" fill="none" xmlns="http://www.w3.org/2000/svg">
<rect x="0.5" width="32" height="32" rx="8" fill="#F9F9F9"/>
<path d="M25.4726 12.4201V10.0001C25.4726 9.12668 25.092 8.31856 24.4576 7.71604C23.8284 7.12837 22.942 6.7585 21.9617 6.75006L25.4726 12.4201ZM25.4726 12.4201C25.4726 13.0343 25.2697 13.4695 24.9646 13.7549M25.4726 12.4201L24.9646 13.7549M24.9646 13.7549C24.6541 14.0453 24.1625 14.2501 23.4646 14.2501M24.9646 13.7549L23.4646 14.2501M23.4646 14.2501H20.5586M23.4646 14.2501H20.5586M20.5586 14.2501V8.01008C20.5586 7.35991 21.1472 6.74325 21.9615 6.75005L20.5586 14.2501Z" stroke="#999BA7" stroke-width="1.5"/>
<path d="M7.57462 25.1899L7.57116 25.1924C7.46709 25.2677 7.34392 25.2728 7.23756 25.222C7.13293 25.172 7.08594 25.0912 7.08594 25V11V10C7.08594 9.00022 7.3238 8.21012 7.80828 7.6742C8.27981 7.15259 9.09596 6.75 10.5233 6.75H11.5701H20.2906C20.2668 6.90128 20.2552 7.05021 20.2488 7.1888C20.2393 7.39347 20.2402 7.61751 20.2411 7.82743C20.2413 7.88631 20.2416 7.94408 20.2416 8V25C20.2416 25.0819 20.1988 25.1625 20.0899 25.2145C19.9797 25.2671 19.8541 25.2613 19.7514 25.1889C19.7511 25.1887 19.7508 25.1884 19.7505 25.1882L17.9662 23.9124C17.2626 23.3987 16.2737 23.4696 15.6476 24.0677L13.8889 25.7477C13.7707 25.8606 13.5577 25.8608 13.4392 25.7483C13.439 25.7481 13.4388 25.7479 13.4386 25.7477L11.7024 24.0792L11.7008 24.0777C11.0638 23.4692 10.0767 23.3999 9.36423 23.9103C9.3642 23.9103 9.36417 23.9103 9.36414 23.9103L7.57462 25.1899Z" stroke="#999BA7" stroke-width="1.5"/>
<path d="M16.8045 16.2598H13.664C13.2348 16.2598 12.8789 16.5998 12.8789 17.0098C12.8789 17.4198 13.2348 17.7598 13.664 17.7598H16.8045C17.2337 17.7598 17.5896 17.4198 17.5896 17.0098C17.5896 16.5998 17.2337 16.2598 16.8045 16.2598Z" fill="#999BA7"/>
<path d="M13.664 13.7598H16.8045C17.2337 13.7598 17.5896 13.4198 17.5896 13.0098C17.5896 12.5998 17.2337 12.2598 16.8045 12.2598H13.664C13.2348 12.2598 12.8789 12.5998 12.8789 13.0098C12.8789 13.4198 13.2348 13.7598 13.664 13.7598Z" fill="#999BA7"/>
<path d="M10.4921 12.0098C9.90592 12.0098 9.44531 12.4598 9.44531 13.0098C9.44531 13.5598 9.91639 14.0098 10.4921 14.0098C11.0679 14.0098 11.539 13.5598 11.539 13.0098C11.539 12.4598 11.0679 12.0098 10.4921 12.0098Z" fill="#999BA7"/>
<path d="M10.4921 16.0098C9.90592 16.0098 9.44531 16.4598 9.44531 17.0098C9.44531 17.5598 9.91639 18.0098 10.4921 18.0098C11.0679 18.0098 11.539 17.5598 11.539 17.0098C11.539 16.4598 11.0679 16.0098 10.4921 16.0098Z" fill="#999BA7"/>
</svg>
