<svg width="33" height="32" viewBox="0 0 33 32" fill="none" xmlns="http://www.w3.org/2000/svg">
<rect x="0.5" width="32" height="32" rx="8" fill="#F9F9F9"/>
<path fill-rule="evenodd" clip-rule="evenodd" d="M12.165 7.5C9.635 7.5 8 9.233 8 11.916V20.084C8 22.767 9.635 24.5 12.165 24.5H20.833C23.364 24.5 25 22.767 25 20.084V11.916C25 9.233 23.364 7.5 20.834 7.5H12.165ZM20.833 26H12.165C8.776 26 6.5 23.622 6.5 20.084V11.916C6.5 8.378 8.776 6 12.165 6H20.834C24.223 6 26.5 8.378 26.5 11.916V20.084C26.5 23.622 24.223 26 20.833 26Z" fill="#999BA7"/>
<path fill-rule="evenodd" clip-rule="evenodd" d="M15.3132 19.1227C15.1222 19.1227 14.9292 19.0497 14.7832 18.9027L12.4092 16.5297C12.1162 16.2367 12.1162 15.7627 12.4092 15.4697C12.7022 15.1767 13.1762 15.1767 13.4692 15.4697L15.3132 17.3117L19.5292 13.0967C19.8222 12.8037 20.2962 12.8037 20.5892 13.0967C20.8822 13.3897 20.8822 13.8637 20.5892 14.1567L15.8432 18.9027C15.6972 19.0497 15.5052 19.1227 15.3132 19.1227Z" fill="#999BA7"/>
</svg>
