<svg width="25" height="25" viewBox="0 0 25 25" fill="none" xmlns="http://www.w3.org/2000/svg">
<path d="M4.75 4.5C4.15326 4.5 3.58097 4.73705 3.15901 5.15901C2.73705 5.58097 2.5 6.15326 2.5 6.75V17.75C2.5 18.1111 2.57113 18.4687 2.70933 18.8024C2.84753 19.136 3.0501 19.4392 3.30546 19.6945C3.56082 19.9499 3.86398 20.1525 4.19762 20.2907C4.53127 20.4289 4.88886 20.5 5.25 20.5H9.75C10.1111 20.5 10.4687 20.4289 10.8024 20.2907C11.136 20.1525 11.4392 19.9499 11.6945 19.6945C11.9499 19.4392 12.1525 19.136 12.2907 18.8024C12.4289 18.4687 12.5 18.1111 12.5 17.75V10H21V19.75C21 19.9489 21.079 20.1397 21.2197 20.2803C21.3603 20.421 21.5511 20.5 21.75 20.5C21.9489 20.5 22.1397 20.421 22.2803 20.2803C22.421 20.1397 22.5 19.9489 22.5 19.75V6.75C22.5 6.15326 22.2629 5.58097 21.841 5.15901C21.419 4.73705 20.8467 4.5 20.25 4.5H4.75ZM4 10H11V17.75C11 18.44 10.44 19 9.75 19H5.25C4.56 19 4 18.44 4 17.75V10ZM4 8.5V6.75C4 6.55109 4.07902 6.36032 4.21967 6.21967C4.36032 6.07902 4.55109 6 4.75 6H20.25C20.4489 6 20.6397 6.07902 20.7803 6.21967C20.921 6.36032 21 6.55109 21 6.75V8.5H4ZM6.25 12C6.05109 12 5.86032 12.079 5.71967 12.2197C5.57902 12.3603 5.5 12.5511 5.5 12.75C5.5 12.9489 5.57902 13.1397 5.71967 13.2803C5.86032 13.421 6.05109 13.5 6.25 13.5H8.75C8.94891 13.5 9.13968 13.421 9.28033 13.2803C9.42098 13.1397 9.5 12.9489 9.5 12.75C9.5 12.5511 9.42098 12.3603 9.28033 12.2197C9.13968 12.079 8.94891 12 8.75 12H6.25Z" fill="black"/>
</svg>
