<svg width="25" height="25" viewBox="0 0 25 25" fill="none" xmlns="http://www.w3.org/2000/svg">
<g filter="url(#filter0_i_3461_18511)">
<path d="M4.57492 3.92859C3.94976 3.92859 3.35021 4.17693 2.90816 4.61898C2.46611 5.06103 2.21777 5.66058 2.21777 6.28573V8.2143H21.5001V20.4286C21.5001 20.5991 21.5678 20.7626 21.6883 20.8832C21.8089 21.0037 21.9724 21.0714 22.1429 21.0714C22.3134 21.0714 22.4769 21.0037 22.5975 20.8832C22.718 20.7626 22.7858 20.5991 22.7858 20.4286V6.28573C22.7858 5.66058 22.5374 5.06103 22.0954 4.61898C21.6533 4.17693 21.0538 3.92859 20.4286 3.92859H4.57492ZM12.5001 9.50002H2.21777V17.8572C2.21777 18.7096 2.55642 19.5272 3.15922 20.13C3.76201 20.7328 4.57958 21.0714 5.43206 21.0714H9.28577C10.1383 21.0714 10.9558 20.7328 11.5586 20.13C12.1614 19.5272 12.5001 18.7096 12.5001 17.8572V9.50002ZM5.21434 13.1429C5.21434 12.9724 5.28207 12.8089 5.40263 12.6883C5.52319 12.5677 5.68671 12.5 5.8572 12.5H8.8572C9.0277 12.5 9.19121 12.5677 9.31177 12.6883C9.43233 12.8089 9.50006 12.9724 9.50006 13.1429C9.50006 13.3134 9.43233 13.4769 9.31177 13.5974C9.19121 13.718 9.0277 13.7857 8.8572 13.7857H5.8572C5.68671 13.7857 5.52319 13.718 5.40263 13.5974C5.28207 13.4769 5.21434 13.3134 5.21434 13.1429Z" fill="#0361FF"/>
</g>
<defs>
<filter id="filter0_i_3461_18511" x="2.21777" y="3.92859" width="21.5679" height="18.1428" filterUnits="userSpaceOnUse" color-interpolation-filters="sRGB">
<feFlood flood-opacity="0" result="BackgroundImageFix"/>
<feBlend mode="normal" in="SourceGraphic" in2="BackgroundImageFix" result="shape"/>
<feColorMatrix in="SourceAlpha" type="matrix" values="0 0 0 0 0 0 0 0 0 0 0 0 0 0 0 0 0 0 127 0" result="hardAlpha"/>
<feOffset dx="1" dy="2"/>
<feGaussianBlur stdDeviation="0.5"/>
<feComposite in2="hardAlpha" operator="arithmetic" k2="-1" k3="1"/>
<feColorMatrix type="matrix" values="0 0 0 0 0 0 0 0 0 0 0 0 0 0 0 0 0 0 0.25 0"/>
<feBlend mode="normal" in2="shape" result="effect1_innerShadow_3461_18511"/>
</filter>
</defs>
</svg>
