<svg width="57" height="57" viewBox="0 0 57 57" fill="none" xmlns="http://www.w3.org/2000/svg">
    <path d="M28.3981 20.7235C28.0693 20.7235 27.8025 20.4568 27.8025 20.1279V10.8003C27.8025 10.4715 28.0693 11.6253 28.3981 11.6253C28.7269 11.6253 28.9937 11.8921 28.9937 12.2209V20.128C28.9937 20.4568 28.7269 20.7235 28.3981 20.7235Z"
          fill="#F78F1E"/>
    <path d="M29.5892 20.7239C29.2604 20.7239 28.9937 20.4571 28.9937 20.1283V12.2212C28.9937 11.8924 29.2604 11.0865 29.5892 11.0865C29.9181 11.0865 30.1848 9.6156 30.1848 9.94441V20.1283C30.1848 20.4571 29.9181 20.7239 29.5892 20.7239Z"
          fill="#FCB316"/>
    <path d="M51.4508 25.023V19.8996C51.4508 19.0296 50.7456 18.3243 49.8755 18.3243H8.12394C7.25392 18.3243 6.54865 19.0296 6.54865 19.8996V25.023C6.54865 25.893 7.25392 26.5983 8.12394 26.5983H49.8755C50.7456 26.5983 51.4508 25.893 51.4508 25.023Z"
          fill="#0361FF"/>
    <path d="M51.4514 19.8995V25.0215C51.4514 25.8906 50.7402 26.6018 49.8711 26.6018H8.12437C7.25594 26.6018 6.55194 25.8978 6.55194 25.0293V24.3941H45.3947C47.5731 24.3941 49.339 22.6282 49.339 20.4498V18.327H49.8789C50.7474 18.327 51.4514 19.031 51.4514 19.8995Z"
          fill="#3581FF"/>
    <path d="M49.5941 26.5986V51.7416C49.5941 52.6116 48.8888 53.3169 48.0188 53.3169H9.98081C9.1108 53.3169 8.40552 52.6116 8.40552 51.7416V26.5986H49.5941Z"
          fill="#0361FF"/>
    <path d="M49.5931 26.6018V51.7436C49.5931 52.6084 48.8856 53.3159 48.0208 53.3159H9.98245C9.10968 53.3159 8.40216 52.6084 8.40216 51.7356V51.1083H42.8215C45.3947 51.1083 47.4808 49.0222 47.4808 46.449V26.6018H49.5931Z"
          fill="#3581FF"/>
    <path opacity="0.4"
          d="M40.9722 50.3875H40.6954C40.3666 50.3875 40.0998 50.1207 40.0998 49.7919C40.0998 49.463 40.3666 49.1963 40.6954 49.1963H40.9722C41.301 49.1963 41.5678 49.463 41.5678 49.7919C41.5678 50.1207 41.301 50.3875 40.9722 50.3875ZM46.0704 50.3875H43.0956C42.7668 50.3875 42.5 50.1207 42.5 49.7919C42.5 49.463 42.7668 49.1963 43.0956 49.1963H45.4748V46.9775C45.4748 46.6487 45.7416 46.382 46.0704 46.382C46.3992 46.382 46.666 46.6487 46.666 46.9775V49.7919C46.666 50.1207 46.3992 50.3875 46.0704 50.3875Z"
          fill="white"/>
    <path d="M33.3899 26.5977H24.6094V53.3157H33.3899V26.5977Z" fill="#FCB316"/>
    <path d="M33.393 26.6018V53.3159H24.6101V51.1003H25.8237C28.7542 51.1003 31.1299 48.7247 31.1299 45.7941V26.6018H33.393Z"
          fill="#F78F1E"/>
    <path d="M33.3899 18.3242H24.6093V26.5981H33.3899V18.3242Z" fill="#FCB316"/>
    <path d="M33.393 18.327V26.6018H24.6101V24.3862H27.9446C29.7038 24.3862 31.1299 22.9601 31.1299 21.2009V18.327L33.393 18.327Z"
          fill="#F78F1E"/>
    <path d="M28.9937 12.3712V14.285C28.8904 12.2601 27.2149 10.6401 25.1581 10.6401C24.1019 10.6401 23.141 11.0689 22.4422 11.7676C21.7513 12.4666 21.3145 13.4195 21.3145 14.4836C21.3145 16.6039 23.0378 18.3271 25.1581 18.3271H23.0378C19.7501 18.3271 17.0819 15.6588 17.0819 12.3712C17.0819 10.7194 17.7489 9.23445 18.8211 8.15446C19.901 7.06652 21.394 6.40735 23.0378 6.40735C26.3254 6.40736 28.9937 9.07568 28.9937 12.3712Z"
          fill="#FCB316"/>
    <path d="M25.1581 18.3271H23.0378C22.6804 18.3271 22.331 18.2953 21.9975 18.2318C20.2743 17.8506 18.9878 16.3179 18.9878 14.4836C18.9878 13.4195 19.4246 12.4666 20.1154 11.7676C20.8143 11.0689 21.7752 10.6401 22.8313 10.6401C23.2363 10.6401 23.6254 10.7036 23.9908 10.8227C23.3952 11.0133 22.8709 11.3388 22.4422 11.7676C21.7513 12.4666 21.3145 13.4195 21.3145 14.4836C21.3145 16.6039 23.0378 18.3271 25.1581 18.3271ZM28.9936 12.3712V14.285C28.9143 12.7127 27.8898 11.3865 26.4683 10.8783C25.9125 8.6786 24.1257 6.97113 21.8783 6.51853C22.2516 6.44709 22.6407 6.40735 23.0378 6.40735C26.3254 6.40735 28.9936 9.07567 28.9936 12.3712Z"
          fill="#F78F1E"/>
    <path d="M43.6373 11.0053C43.6373 15.0475 40.3575 18.3271 36.3155 18.3271H33.7108C36.3234 18.3271 38.4358 16.2148 38.4358 13.6101C38.4358 12.2998 37.9038 11.1245 37.054 10.2669C36.1963 9.4171 35.0131 8.8851 33.7108 8.8851C31.114 8.8851 29.0017 10.9974 29.0017 13.6101V18.3271H28.9937V11.0053C28.9937 6.9633 32.2734 3.68359 36.3155 3.68359C38.3325 3.68359 40.1669 4.50156 41.4931 5.82767C42.8114 7.15388 43.6373 8.9803 43.6373 11.0053Z"
          fill="#FCB316"/>
    <path d="M43.6372 11.0053C43.6372 15.0475 40.3574 18.3271 36.3155 18.3271H33.9886C38.0307 18.3271 41.3104 15.0475 41.3104 11.0053C41.3104 8.9803 40.4846 7.15389 39.1662 5.82768C38.1023 4.76359 36.7046 4.02502 35.1481 3.77889C35.5292 3.71539 35.9184 3.68359 36.3155 3.68359C38.3325 3.68359 40.1668 4.50156 41.4931 5.82767C42.8113 7.15389 43.6372 8.9803 43.6372 11.0053Z"
          fill="#F78F1E"/>
</svg>
