<svg width="25" height="25" viewBox="0 0 25 25" fill="none" xmlns="http://www.w3.org/2000/svg">
    <g clip-path="url(#clip0_1587_10781)">
        <path fill-rule="evenodd" clip-rule="evenodd"
              d="M24.5 4.39871C23.6014 4.79675 22.6484 5.05814 21.6725 5.17421C22.7005 4.55883 23.4698 3.59071 23.837 2.45021C22.8705 3.02374 21.813 3.42781 20.7103 3.64496C20.2496 3.15349 19.6929 2.76188 19.0747 2.49444C18.4564 2.22699 17.7899 2.08941 17.1163 2.09021C16.3741 2.08991 15.6415 2.25737 14.9732 2.58009C14.3048 2.90281 13.7181 3.37243 13.2569 3.95384C12.7956 4.53526 12.4718 5.21342 12.3095 5.93762C12.1473 6.66183 12.1509 7.41334 12.32 8.13596C10.3621 8.03796 8.44678 7.52924 6.6983 6.64286C4.94983 5.75648 3.40734 4.51225 2.171 2.99096C1.73271 3.74234 1.50233 4.59685 1.5035 5.46671C1.50299 6.27744 1.70277 7.07575 2.0851 7.79067C2.46742 8.50559 3.02044 9.11499 3.695 9.56471C2.91309 9.54054 2.14831 9.32967 1.4645 8.94971V9.01121C1.46476 10.148 1.85814 11.2498 2.57797 12.1297C3.2978 13.0096 4.29977 13.6135 5.414 13.839C4.68889 14.0363 3.92827 14.0653 3.19025 13.9237C3.50471 14.9022 4.11715 15.7578 4.94189 16.3711C5.76664 16.9843 6.76245 17.3244 7.79 17.3437C6.04574 18.7125 3.89173 19.4548 1.6745 19.4512C1.277 19.4512 0.8855 19.4272 0.5 19.3822C2.75139 20.8291 5.37176 21.5972 8.048 21.5947C17.105 21.5947 22.0573 14.0917 22.0573 7.58471C22.0573 7.37096 22.0528 7.15871 22.043 6.94721C23.0069 6.2507 23.8389 5.3872 24.5 4.39871Z"
              fill="#6C7680"/>
    </g>
    <defs>
        <clipPath id="clip0_1587_10781">
            <rect width="24" height="24" fill="white" transform="translate(0.5 0.0899658)"/>
        </clipPath>
    </defs>
</svg>
