<svg width="25" height="25" viewBox="0 0 25 25" fill="none" xmlns="http://www.w3.org/2000/svg">
    <g clip-path="url(#clip0_1587_10785)">
        <path fill-rule="evenodd" clip-rule="evenodd"
              d="M13.7285 0.0906982C15.8885 0.0944482 16.346 0.111698 17.4418 0.161948C18.719 0.220448 19.5913 0.422948 20.354 0.719198C21.1545 1.02046 21.8796 1.49268 22.4788 2.10295C23.089 2.70217 23.5612 3.42726 23.8625 4.2277C24.1588 4.9912 24.362 5.8627 24.4198 7.13995C24.4738 8.30995 24.4895 8.7517 24.4918 11.3084V12.8632C24.4895 15.4207 24.4738 15.8624 24.4198 17.0317C24.362 18.3089 24.1588 19.1812 23.8625 19.9439C23.5612 20.7444 23.089 21.4695 22.4788 22.0687C21.8796 22.6789 21.1545 23.1512 20.354 23.4524C19.5913 23.7487 18.719 23.9519 17.4418 24.0097C16.2718 24.0637 15.8308 24.0794 13.2733 24.0817H11.7185C9.16103 24.0794 8.72003 24.0637 7.55003 24.0097C6.27353 23.9519 5.40128 23.7487 4.63778 23.4524C3.83733 23.1512 3.11223 22.679 2.51303 22.0687C1.90301 21.4694 1.43104 20.7443 1.13003 19.9439C0.833776 19.1812 0.631276 18.3089 0.572776 17.0317C0.522526 15.9352 0.505276 15.4784 0.501526 13.3192V10.8524C0.505276 8.69245 0.522526 8.2357 0.572776 7.1392C0.631276 5.8627 0.833776 4.99045 1.13003 4.22695C1.43126 3.42649 1.90349 2.70138 2.51378 2.1022C3.11289 1.49254 3.83772 1.02084 4.63778 0.719948C5.40128 0.422948 6.27278 0.220448 7.55003 0.161948C8.64653 0.111698 9.10328 0.0944482 11.2633 0.0906982H13.7285ZM13.0183 2.2507H11.9743L11.732 2.25145H11.285C9.16628 2.25595 8.73278 2.2717 7.64753 2.3212C6.47828 2.37445 5.84378 2.5702 5.42078 2.7337C4.89939 2.9259 4.42779 3.23269 4.04078 3.63145C3.64266 4.0187 3.3364 4.49026 3.14453 5.01145C2.97953 5.4337 2.78453 6.06895 2.73128 7.23895C2.68178 8.3227 2.66603 8.7562 2.66228 10.8749V11.3219L2.66153 11.5642V13.2967C2.66603 15.4154 2.68178 15.8489 2.73128 16.9334C2.78378 18.1034 2.98028 18.7379 3.14378 19.1609C3.36128 19.7212 3.62228 20.1209 4.04153 20.5409C4.46153 20.9602 4.86128 21.2204 5.42153 21.438C5.84378 21.6022 6.47903 21.7979 7.64903 21.8504C7.93778 21.8639 8.18078 21.8744 8.42153 21.8834L8.60228 21.8902C9.17903 21.9082 9.80603 21.9164 11.0788 21.9194L11.5025 21.9202H13.4893L13.913 21.9194C15.32 21.9164 15.938 21.9067 16.571 21.8834L16.7525 21.8759C16.9363 21.8692 17.1268 21.8609 17.3435 21.8504C18.5135 21.7979 19.148 21.6022 19.571 21.438C20.0923 21.2456 20.5639 20.9388 20.951 20.5402C21.3492 20.1532 21.6557 19.6819 21.848 19.1609C22.0123 18.7379 22.208 18.1034 22.2605 16.9334C22.271 16.7159 22.2793 16.5254 22.2868 16.3424L22.2943 16.1602C22.3168 15.5279 22.3265 14.9092 22.3295 13.5029L22.3303 13.0792V11.0932L22.3295 10.6687C22.3318 9.8437 22.322 9.0172 22.2995 8.1922L22.2935 8.01145C22.2838 7.7539 22.2728 7.49639 22.2605 7.23895C22.208 6.06895 22.0123 5.4337 21.848 5.01145C21.6557 4.49014 21.3489 4.01858 20.9503 3.63145C20.5633 3.23317 20.092 2.92667 19.571 2.73445C19.148 2.56945 18.5135 2.37445 17.3435 2.3212C16.259 2.2717 15.8255 2.25595 13.7068 2.2522H13.2598L13.0183 2.2507ZM12.4963 5.9257C13.3108 5.90772 14.1208 6.05149 14.8794 6.34869C15.638 6.64589 16.3301 7.0906 16.9157 7.6571C17.5012 8.2236 17.9686 8.90062 18.2907 9.64897C18.6129 10.3973 18.7834 11.2021 18.7923 12.0168C18.8013 12.8315 18.6486 13.6399 18.343 14.3951C18.0375 15.1504 17.5851 15.8376 17.0122 16.4168C16.4393 16.9961 15.7571 17.456 15.0053 17.7698C14.2534 18.0836 13.4468 18.2452 12.632 18.2452C11.0099 18.2451 9.45335 17.6054 8.30008 16.4647C7.14682 15.324 6.48996 13.7746 6.47209 12.1526C6.45422 10.5306 7.07677 8.96702 8.20462 7.80122C9.33247 6.63543 10.8746 5.96149 12.4963 5.9257ZM12.4963 8.0872C11.9712 8.08001 11.4499 8.17631 10.962 8.37059C10.4742 8.56488 10.0294 8.85336 9.65305 9.21954C9.2767 9.58573 8.97615 10.0225 8.76858 10.5048C8.561 10.9871 8.45047 11.5056 8.44328 12.0307C8.43609 12.5558 8.53238 13.0771 8.72667 13.5649C8.92096 14.0528 9.20943 14.4976 9.57562 14.8739C9.94181 15.2503 10.3785 15.5508 10.8609 15.7584C11.3432 15.966 11.8617 16.0765 12.3868 16.0837C13.4472 16.0982 14.4699 15.6909 15.23 14.9514C15.9901 14.2118 16.4253 13.2006 16.4398 12.1402C16.4543 11.0798 16.047 10.0571 15.3074 9.29697C14.5679 8.53689 13.5567 8.10172 12.4963 8.0872ZM18.8998 4.2427C19.0889 4.23836 19.277 4.27132 19.4534 4.33968C19.6297 4.40805 19.7909 4.51048 19.9277 4.64113C20.0645 4.77178 20.1742 4.9281 20.2505 5.10115C20.3269 5.2742 20.3684 5.46059 20.3728 5.6497C20.3771 5.8388 20.3442 6.02691 20.2758 6.20327C20.2074 6.37964 20.105 6.54082 19.9743 6.6776C19.8437 6.81438 19.6874 6.92409 19.5143 7.00046C19.3413 7.07683 19.1549 7.11836 18.9658 7.1227C18.5839 7.13145 18.2141 6.98813 17.9379 6.72427C17.6616 6.4604 17.5015 6.09761 17.4928 5.7157C17.484 5.33379 17.6273 4.96404 17.8912 4.6878C18.1551 4.41156 18.5179 4.25145 18.8998 4.2427Z"
              fill="#6C7680"/>
    </g>
    <defs>
        <clipPath id="clip0_1587_10785">
            <rect width="24" height="24" fill="white" transform="translate(0.5 0.0899658)"/>
        </clipPath>
    </defs>
</svg>
