<svg width="25" height="25" viewBox="0 0 25 25" fill="none" xmlns="http://www.w3.org/2000/svg">
    <g clip-path="url(#clip0_1587_10783)">
        <path fill-rule="evenodd" clip-rule="evenodd"
              d="M21.5427 18.9299L20.903 21.3314C20.6497 22.2836 20.0286 23.0962 19.1763 23.5905C18.324 24.0849 17.3103 24.2205 16.358 23.9677L14.093 23.3572C17.0627 22.9206 19.7401 21.3292 21.5427 18.9292V18.9299ZM12.5052 1.68517C18.2502 1.68817 22.9085 6.34567 22.9085 12.0899C22.9084 13.6288 22.5669 15.1484 21.9087 16.5394C21.2505 17.9303 20.292 19.158 19.1022 20.1339C17.9124 21.1098 16.5209 21.8096 15.0281 22.183C13.5352 22.5563 11.9781 22.5939 10.469 22.2929C8.45061 21.8909 6.59665 20.8997 5.14134 19.4446C3.68604 17.9894 2.69467 16.1355 2.29249 14.1172C1.8911 12.0985 2.09766 10.0062 2.88603 8.10505C3.6744 6.20389 5.00913 4.57937 6.72124 3.43717C8.43317 2.29448 10.4455 1.68505 12.5037 1.68592L12.5052 1.68517ZM1.16899 13.9012C1.62211 16.7269 3.12334 19.2781 5.37349 21.0464L3.26599 20.4847C2.79433 20.3597 2.35192 20.1431 1.96402 19.8471C1.57613 19.5511 1.25036 19.1816 1.00533 18.7596C0.760301 18.3377 0.600814 17.8716 0.535982 17.388C0.471151 16.9044 0.502246 16.4128 0.627491 15.9412L1.16899 13.9012ZM16.0377 13.8172C15.6547 13.7435 15.2608 13.7459 14.8787 13.8244C14.4965 13.9029 14.1336 14.0559 13.8106 14.2746C13.4876 14.4934 13.2108 14.7736 12.9961 15.0993C12.7814 15.425 12.633 15.7898 12.5592 16.1729C12.4855 16.556 12.488 16.9499 12.5665 17.332C12.645 17.7141 12.7979 18.0771 13.0167 18.4001C13.2354 18.7231 13.5157 18.9998 13.8414 19.2145C14.1671 19.4293 14.5319 19.5777 14.915 19.6514C15.6887 19.8003 16.4898 19.6358 17.1421 19.194C17.7945 18.7522 18.2446 18.0693 18.3935 17.2957C18.5424 16.522 18.3778 15.7209 17.936 15.0685C17.4942 14.4162 16.8114 13.9661 16.0377 13.8172ZM8.58049 12.3809C8.19571 12.3019 7.79909 12.3001 7.41358 12.3754C7.02807 12.4508 6.66135 12.6019 6.33463 12.8199C6.00791 13.038 5.72769 13.3187 5.51019 13.6458C5.2927 13.9729 5.14225 14.3399 5.06755 14.7255C4.99285 15.1111 4.99539 15.5077 5.07503 15.8924C5.15466 16.277 5.30981 16.6421 5.53148 16.9663C5.75315 17.2906 6.03694 17.5677 6.36643 17.7816C6.69592 17.9954 7.06455 18.1418 7.45099 18.2122C8.2203 18.3523 9.01386 18.1834 9.65942 17.7422C10.305 17.3009 10.7505 16.6228 10.8992 15.8551C11.0479 15.0873 10.8878 14.292 10.4537 13.6415C10.0196 12.9911 9.3465 12.5381 8.58049 12.3809ZM12.6905 10.8659C12.5201 10.8336 12.345 10.8352 12.1752 10.8705C12.0055 10.9059 11.8443 10.9744 11.701 11.072C11.4115 11.2692 11.2122 11.5733 11.147 11.9174C11.0817 12.2615 11.1559 12.6175 11.3531 12.9069C11.5503 13.1964 11.8544 13.3957 12.1985 13.4609C12.5426 13.5263 12.8986 13.4522 13.1881 13.2551C13.4777 13.058 13.677 12.7539 13.7424 12.4098C13.8077 12.0657 13.7337 11.7097 13.5366 11.4202C13.3394 11.1306 13.0346 10.9313 12.6905 10.8659ZM17.552 5.95792C16.7831 5.82008 15.9909 5.99062 15.3468 6.43261C14.7027 6.87461 14.2587 7.5525 14.1108 8.3195C13.9628 9.08651 14.123 9.88092 14.5565 10.5307C14.99 11.1805 15.662 11.6335 16.427 11.7914C16.8104 11.8668 17.205 11.8654 17.5878 11.7872C17.9707 11.7091 18.3343 11.5558 18.6575 11.3362C19.1444 11.0065 19.5225 10.5397 19.7439 9.99498C19.9652 9.45023 20.0199 8.85203 19.901 8.27617C19.7826 7.70077 19.4963 7.17339 19.0781 6.76074C18.66 6.34809 18.1289 6.0687 17.552 5.95792ZM19.3745 3.06292L21.7385 3.69067C22.6892 3.94266 23.5011 4.56137 23.9963 5.41113C24.4915 6.26088 24.6295 7.27233 24.38 8.22367L23.7305 10.6814C23.5451 9.18624 23.0646 7.74277 22.3168 6.43481C21.5691 5.12685 20.5689 3.9812 19.3745 3.06292ZM10.0895 4.52167C9.31552 4.37289 8.51415 4.53765 7.86166 4.97972C7.20918 5.42179 6.75903 6.10495 6.61024 6.87892C6.46145 7.65289 6.62622 8.45426 7.06829 9.10675C7.51036 9.75924 8.19352 10.2094 8.96749 10.3582C9.35072 10.4318 9.74471 10.4293 10.127 10.3507C10.5092 10.2721 10.8722 10.119 11.1953 9.90012C11.5184 9.68123 11.7952 9.40085 12.0099 9.07499C12.2246 8.74912 12.3731 8.38415 12.4467 8.00092C12.5204 7.61769 12.5179 7.2237 12.4393 6.84145C12.3607 6.4592 12.2076 6.09617 11.9887 5.7731C11.7698 5.45002 11.4894 5.17322 11.1636 4.9585C10.8377 4.74378 10.4727 4.59534 10.0895 4.52167ZM5.83024 0.594672C6.2526 0.349629 6.7191 0.19019 7.20309 0.125461C7.68708 0.0607318 8.17908 0.0919804 8.65099 0.217422L10.8605 0.793422C7.98479 1.19169 5.36996 2.67376 3.55099 4.93642L4.10224 2.85442C4.22768 2.3827 4.44486 1.94033 4.74136 1.55258C5.03786 1.16484 5.40787 0.839336 5.83024 0.594672Z"
              fill="#6C7680"/>
    </g>
    <defs>
        <clipPath id="clip0_1587_10783">
            <rect width="24" height="24" fill="white" transform="translate(0.5 0.0899658)"/>
        </clipPath>
    </defs>
</svg>
