<svg width="57" height="57" viewBox="0 0 57 57" fill="none" xmlns="http://www.w3.org/2000/svg">
    <path d="M53.875 28.5C53.875 31.0825 50.6637 33.1258 49.907 35.4561C49.1228 37.8711 50.4926 41.4066 49.0296 43.4168C47.5521 45.447 43.7565 45.2296 41.7262 46.7071C39.7161 48.17 38.7582 51.8551 36.3433 52.6392C34.013 53.3959 31.0825 51.0024 28.5 51.0024C25.9176 51.0024 22.987 53.3959 20.6568 52.6392C18.2417 51.855 17.2838 48.17 15.2736 46.707C13.2433 45.2294 9.44778 45.4468 7.97021 43.4165C6.50731 41.4064 7.87716 37.871 7.09301 35.4561C6.33637 33.1258 3.12502 31.0825 3.12502 28.5C3.12502 25.9175 6.33637 23.8741 7.093 21.5439C7.87718 19.1289 6.50739 15.5934 7.97037 13.5832C9.44797 11.5529 13.2435 11.7704 15.2738 10.2928C17.284 8.82994 18.2418 5.1449 20.6568 4.36075C22.987 3.60411 25.9175 5.99762 28.5 5.99762C31.0825 5.99762 34.013 3.60412 36.3432 4.36075C38.7583 5.14493 39.7162 8.83001 41.7264 10.293C43.7567 11.7706 47.5522 11.5531 49.0298 13.5834C50.4927 15.5936 49.1229 19.1289 49.907 21.5439C50.6637 23.8741 53.875 25.9175 53.875 28.5Z"
          fill="#FCB316"/>
    <path d="M32 5.99766C33.5666 5.99766 35.2607 5.11913 36.8717 4.59506C36.7025 4.5031 36.5284 4.4209 36.3432 4.36077C34.5271 3.77107 32.3465 5.09158 30.25 5.70435C30.8433 5.87776 31.4303 5.99766 32 5.99766ZM18.7736 46.707C16.7433 45.2294 12.9478 45.4468 11.4702 43.4166C10.0073 41.4064 11.3771 37.8711 10.593 35.4561C9.83633 33.1259 6.62499 31.0825 6.62499 28.5C6.62499 25.9175 9.83633 23.8742 10.593 21.544C11.3771 19.1289 10.0074 15.5934 11.4703 13.5832C12.948 11.553 16.7435 11.7704 18.7738 10.2929C20.6298 8.94218 21.5913 5.7021 23.6283 4.59505C22.5836 4.25523 21.5734 4.06313 20.6568 4.36076C18.2418 5.14492 17.2839 8.82998 15.2738 10.2929C13.2435 11.7704 9.44796 11.553 7.97033 13.5832C6.50739 15.5934 7.87714 19.1289 7.09298 21.544C6.33632 23.8742 3.12498 25.9175 3.12498 28.5C3.12498 31.0825 6.33632 33.1259 7.09298 35.4561C7.87714 37.8711 6.50728 41.4064 7.97017 43.4166C9.44774 45.4468 13.2433 45.2294 15.2736 46.707C17.2838 48.17 18.2417 51.855 20.6568 52.6393C21.5734 52.9369 22.5835 52.7448 23.6283 52.405C21.5911 51.2979 20.6296 48.0578 18.7736 46.707ZM32 51.0024C31.4303 51.0024 30.8433 51.1223 30.25 51.2957C32.3465 51.9085 34.5271 53.229 36.3432 52.6393C36.5284 52.5791 36.7025 52.4969 36.8717 52.405C35.2606 51.8809 33.5666 51.0024 32 51.0024Z"
          fill="#F78F1E"/>
    <path d="M28.5 46C38.165 46 46 38.165 46 28.5C46 18.835 38.165 11 28.5 11C18.835 11 11 18.835 11 28.5C11 38.165 18.835 46 28.5 46Z"
          fill="#0361FF"/>
    <path d="M12.75 30.25C12.75 20.585 20.585 12.75 30.25 12.75C34.6369 12.75 38.6363 14.3756 41.7076 17.0424C38.4991 13.3471 33.7781 11 28.5 11C18.835 11 11 18.835 11 28.5C11 33.7781 13.3471 38.4991 17.0424 41.7076C14.3756 38.6363 12.75 34.6369 12.75 30.25Z"
          fill="#3374BA"/>
    <path d="M24.5537 36.5194L17.7716 29.7372L20.247 27.2627L24.5537 31.5695L36.753 19.3702L39.2284 21.8447L24.5537 36.5194Z"
          fill="#EDEFF0"/>
    <path d="M38.582 45.8595C38.6781 46.0109 38.6389 46.2125 38.4904 46.3165C38.2929 46.4546 38.0951 46.5898 37.8963 46.7222C37.741 46.8254 37.5315 46.7834 37.4283 46.6284C37.4268 46.6262 37.4254 46.624 37.4241 46.622C37.3261 46.4676 37.3691 46.2624 37.5219 46.1603C37.7163 46.0308 37.9103 45.8988 38.1033 45.7634C38.2558 45.6566 38.4663 45.6936 38.5733 45.8463C38.5762 45.8507 38.5792 45.855 38.582 45.8595ZM46.716 37.5183C46.7845 37.6263 46.7885 37.7689 46.7144 37.8831C45.0243 40.487 42.8924 42.8455 40.3775 44.8923C40.2329 45.0098 40.0203 44.9882 39.9025 44.8435C39.7886 44.7007 39.8067 44.4863 39.9513 44.3688C42.4117 42.3663 44.4966 40.0606 46.148 37.5156C46.2495 37.3591 46.4585 37.3147 46.6149 37.4161C46.6568 37.4434 46.6909 37.4788 46.716 37.5183Z"
          fill="white"/>
</svg>
