<svg width="57" height="57" viewBox="0 0 57 57" fill="none" xmlns="http://www.w3.org/2000/svg">
    <path d="M51.5152 7.22456V33.4916C51.5152 34.7697 50.4791 35.8058 49.2009 35.8058H7.79843C6.52029 35.8058 5.48415 34.7697 5.48415 33.4916V7.22456C5.48415 5.94642 6.52029 4.91028 7.79843 4.91028H49.2009C50.4791 4.91028 51.5152 5.94641 51.5152 7.22456Z"
          fill="#088BEA"/>
    <path d="M51.5158 7.22456V33.4916C51.5158 34.7722 50.4821 35.8058 49.2016 35.8058H7.79904C6.51835 35.8058 5.48476 34.7722 5.48476 33.4916V33.206H36.9512C43.4081 33.206 48.6461 27.968 48.6461 21.5111V4.91028H49.2016C50.4821 4.91028 51.5158 5.94387 51.5158 7.22456Z"
          fill="#0361FF"/>
    <path d="M51.5156 10.9423H5.48444V16.6277H51.5156V10.9423Z" fill="#595857"/>
    <path d="M51.5156 10.9423H48.6459V16.6277H51.5156V10.9423Z" fill="#4C4947"/>
    <path d="M20.0975 27.1425H10.6297C10.3103 27.1425 10.0512 26.8835 10.0512 26.5639C10.0512 26.2443 10.3103 25.9854 10.6297 25.9854H20.0975C20.4169 25.9854 20.676 26.2443 20.676 26.5639C20.676 26.8835 20.4169 27.1425 20.0975 27.1425ZM22.6419 31.0059H10.6297C10.3103 31.0059 10.0512 30.7469 10.0512 30.4273C10.0512 30.1077 10.3103 29.8487 10.6297 29.8487H22.6419C22.9613 29.8487 23.2205 30.1077 23.2205 30.4273C23.2205 30.7469 22.9613 31.0059 22.6419 31.0059Z"
          fill="#C9EAF5"/>
    <path d="M17.0831 12.7333H16.1919C15.9787 12.7333 15.8062 12.5606 15.8062 12.3476C15.8062 12.1346 15.9787 11.9619 16.1919 11.9619H17.0831C17.2963 11.9619 17.4688 12.1346 17.4688 12.3476C17.4688 12.5606 17.2963 12.7333 17.0831 12.7333ZM25.8449 12.7333H19.073C18.8598 12.7333 18.6873 12.5606 18.6873 12.3476C18.6873 12.1346 18.8598 11.9619 19.073 11.9619H25.8449C26.0581 11.9619 26.2306 12.1346 26.2306 12.3476C26.2306 12.5606 26.0581 12.7333 25.8449 12.7333Z"
          fill="white"/>
    <path d="M34.9623 51.8816C24.5987 47.1852 21.7293 37.0318 22.8168 29.1117C22.9578 28.0846 23.7558 27.2552 24.7783 27.0844C28.4103 26.4777 31.6731 25.1392 34.5788 23.1008C35.3916 22.5306 36.4821 22.5301 37.2953 23.0997C40.2065 25.1388 43.4705 26.4776 47.1032 27.0844C48.1257 27.2552 48.9237 28.0846 49.0647 29.1117C50.1522 37.032 47.2821 47.1856 36.9106 51.8819C36.2974 52.1596 35.5755 52.1595 34.9623 51.8816Z"
          fill="#77E244"/>
    <path d="M32.8372 26.3438C32.7129 26.3438 32.5909 26.2837 32.5163 26.1726C32.3976 25.9956 32.4451 25.756 32.6221 25.6375L32.8805 25.4609C33.0549 25.3379 33.2956 25.3808 33.4177 25.555C33.5401 25.7292 33.4979 25.9699 33.3235 26.0922L33.0515 26.2786C32.9856 26.3227 32.911 26.3438 32.8372 26.3438ZM27.3781 28.4886C27.1927 28.4886 27.0296 28.355 26.998 28.1663C26.963 27.9563 27.1046 27.7574 27.3148 27.7224C28.7687 27.4796 30.1432 27.0224 31.4006 26.3636C31.5885 26.2643 31.8224 26.3376 31.9211 26.5261C32.0202 26.7148 31.9471 26.948 31.7584 27.0469C30.4287 27.7437 28.9763 28.227 27.4421 28.4833C27.4206 28.4869 27.3992 28.4886 27.3781 28.4886Z"
          fill="white"/>
    <path d="M36.9123 51.8775C36.2926 52.1568 35.5763 52.1568 34.957 51.8775C32.2368 50.6513 30.0387 49.0479 28.3022 47.2026C29.5774 48.1982 31.0346 49.0847 32.6738 49.8253C33.2935 50.1045 34.0098 50.1045 34.6291 49.8253C44.9999 45.1261 47.866 34.9735 46.785 27.0557C46.785 27.0438 46.785 27.0314 46.7729 27.0195C46.8823 27.0438 46.9914 27.0557 47.1008 27.08C48.121 27.2502 48.9223 28.088 49.0679 29.1079C50.1489 37.0257 47.2831 47.1902 36.9123 51.8775Z"
          fill="#62D333"/>
    <path d="M35.9368 48.3703C28.3414 44.3418 25.9155 36.9557 26.2032 30.5995C29.6777 29.7864 32.9388 28.447 35.9388 26.5996C38.9422 28.447 42.204 29.7868 45.6785 30.5995C45.9663 36.9557 43.5383 44.3418 35.9368 48.3703Z"
          fill="white"/>
    <path d="M28.2496 32.4647C28.0412 37.2018 29.3165 42.4854 33.1164 46.5458C27.7289 42.3418 25.9589 36.0828 26.2064 30.6041C29.6809 29.7838 32.9343 28.4437 35.9405 26.5958C38.9464 28.4437 42.1998 29.7838 45.6747 30.6041C45.7007 31.0337 45.7007 31.4759 45.6877 31.9182C42.9677 31.1112 40.3911 29.9534 37.9837 28.4697C34.9775 30.3175 31.7241 31.6577 28.2496 32.4647Z"
          fill="#E5E8F9"/>
    <path d="M34.9388 39.329C34.7908 39.329 34.6427 39.2725 34.5297 39.1595L32.7006 37.3305C32.4746 37.1047 32.4746 36.7384 32.7006 36.5124C32.9266 36.2864 33.2927 36.2864 33.5187 36.5124L34.9388 37.9323L38.3631 34.5081C38.5891 34.2821 38.9553 34.2821 39.1813 34.5081C39.4073 34.7341 39.4073 35.1004 39.1813 35.3263L35.3479 39.1595C35.2349 39.2725 35.0868 39.329 34.9388 39.329Z"
          fill="#77E244"/>
</svg>
