<svg width="57" height="57" viewBox="0 0 57 57" fill="none" xmlns="http://www.w3.org/2000/svg">
    <path d="M10.3306 6.2168C9.46298 6.65495 8.64814 7.19468 7.84534 7.77306C5.79728 9.24396 5.11858 12.3194 5.15785 14.7086C5.45947 29.0712 21.5954 49.1707 35.5591 52.559C37.8142 53.0953 41.0245 53.1159 42.9071 51.4259C43.6444 50.766 44.3466 50.086 44.961 49.3326L31.8296 36.8811C31.652 37.0429 31.4762 37.2084 31.3003 37.3773C30.3557 38.284 28.8413 38.2013 27.9781 37.2167C25.2903 34.1507 20.9133 28.7011 18.4999 25.4158C17.7252 24.3613 17.97 22.8658 19.0578 22.1385C19.2611 22.0026 19.4611 21.8661 19.6579 21.7269L10.3306 6.2168Z"
          fill="#0361FF"/>
    <path d="M44.9616 49.3308C44.3444 50.0864 43.6423 50.7656 42.9096 51.4289C41.0272 53.1183 37.8104 53.0953 35.5577 52.563C21.595 49.1688 5.45655 29.0729 5.15577 14.7088C5.13261 13.2277 5.37952 11.4845 6.06601 10.0264C5.97353 10.6897 5.93492 11.353 5.94265 11.9704C6.24342 26.3345 22.3741 46.43 36.3446 49.8242C38.5973 50.3565 41.8064 50.3798 43.6886 48.6905C43.789 48.5978 43.8892 48.5051 43.9896 48.4125L44.9616 49.3308Z"
          fill="#4087FF"/>
    <path d="M46.5661 46.7381C46.1574 47.7023 45.6018 48.5589 44.9616 49.3303L31.8319 36.8794C32.0557 36.6711 32.2792 36.4703 32.5107 36.2699C34.6553 34.4803 36.8153 34.2023 38.6514 35.8917C41.035 38.0983 43.4188 40.3045 45.7717 42.5415C46.9981 43.7141 47.2219 45.1722 46.5661 46.7381Z"
          fill="#C9EAF5"/>
    <path d="M46.5661 46.7381C46.1574 47.7024 45.6018 48.559 44.9617 49.3304L43.7736 48.2041C44.3908 47.4557 44.9308 46.6146 45.3242 45.6812C45.98 44.1153 45.7563 42.6572 44.5296 41.4847C42.3696 39.425 40.1788 37.3962 37.9879 35.375C38.2117 35.5215 38.4352 35.6914 38.6514 35.8918C41.035 38.0984 43.4188 40.3045 45.7717 42.5416C46.9981 43.7142 47.2219 45.1723 46.5661 46.7381Z"
          fill="#A9DCEA"/>
    <path d="M31.0123 4.11707H50.5298C51.8079 4.11707 52.8441 5.15321 52.8441 6.43135V20.599C52.8441 21.8772 51.8079 22.9133 50.5298 22.9133H39.4746L33.8022 27.4933C33.2977 27.9007 32.5462 27.5416 32.5462 26.8931V22.9137C32.5462 22.9135 32.5464 22.9137 32.5462 22.9137L31.0123 22.9133C29.7341 22.9133 28.698 21.8772 28.698 20.599V6.43135C28.698 5.1532 29.7342 4.11707 31.0123 4.11707Z"
          fill="#FCB316"/>
    <path d="M52.8456 6.43049V20.6017C52.8456 21.8745 51.8041 22.916 50.5314 22.916H39.4767L33.7991 27.4907C33.2976 27.8994 32.5493 27.5446 32.5493 26.8888V25.6853L37.3321 21.8282H45.6559C48.4408 21.8282 50.7011 19.5681 50.7011 16.783V5.34266C50.7011 4.88764 50.57 4.47104 50.3462 4.11621H50.5314C51.8041 4.1162 52.8456 5.1498 52.8456 6.43049Z"
          fill="#F78F1E"/>
    <path d="M45.463 9.55586V12.9576C45.463 13.8142 45.2316 14.6549 44.7765 15.38C44.059 16.5217 42.9713 17.6016 41.6213 18.3964C41.0968 18.6974 40.441 18.6974 39.9165 18.3964C38.5665 17.6016 37.4864 16.5217 36.769 15.38C36.3138 14.6549 36.0825 13.8142 36.0825 12.9576V9.55586C36.0825 8.92305 36.5916 8.40625 37.2319 8.40625H44.3136C44.9462 8.40624 45.463 8.92304 45.463 9.55586Z"
          fill="#FFEB33"/>
    <path d="M40.2792 14.3377C40.1312 14.3377 39.9832 14.2812 39.8702 14.1682L38.9307 13.2289C38.7047 13.0031 38.7047 12.6368 38.9307 12.4108C39.1567 12.1848 39.5229 12.1848 39.7489 12.4108L40.2792 12.941L41.7927 11.4273C42.0187 11.2013 42.3848 11.2013 42.6108 11.4273C42.8368 11.6531 42.8368 12.0194 42.6108 12.2455L40.6883 14.1682C40.5753 14.2812 40.4273 14.3377 40.2792 14.3377Z"
          fill="white"/>
    <path d="M20.3992 21.1886C20.1525 21.3739 19.9133 21.5513 19.6587 21.7288L10.332 6.21544C11.227 5.7525 12.1759 5.39768 13.2096 5.21236C14.8758 4.90386 16.249 5.4361 17.1284 6.8863C18.8177 9.66352 20.4533 12.4716 22.0886 15.2718C23.3461 17.4396 22.6133 19.4838 20.3992 21.1886Z"
          fill="#C9EAF5"/>
    <path d="M30.9236 8.07872C30.7104 8.07872 30.5378 7.90601 30.5378 7.69301V6.97092C30.5378 6.75791 30.7104 6.58521 30.9236 6.58521C31.1368 6.58521 31.3093 6.75791 31.3093 6.97092V7.69301C31.3093 7.90601 31.1368 8.07872 30.9236 8.07872ZM30.9236 13.186C30.7104 13.186 30.5378 13.0133 30.5378 12.8003V9.62158C30.5378 9.40857 30.7104 9.23586 30.9236 9.23586C31.1368 9.23586 31.3093 9.40857 31.3093 9.62158V12.8003C31.3093 13.0133 31.1368 13.186 30.9236 13.186ZM9.76992 24.2215C9.61661 24.2215 9.47159 24.1292 9.41133 23.9779C8.49262 21.6642 7.88919 19.4223 7.61798 17.314C7.59086 17.1027 7.74002 16.9095 7.95134 16.8823C8.16943 16.8533 8.35626 17.0048 8.38338 17.2157C8.6463 19.2599 9.23316 21.4394 10.1285 23.6932C10.2069 23.8911 10.1104 24.1154 9.91231 24.194C9.8656 24.2126 9.81739 24.2215 9.76992 24.2215ZM7.85077 15.8695C7.64435 15.8695 7.47334 15.7058 7.46581 15.4977C7.45715 15.2651 7.453 15.034 7.453 14.8042C7.453 14.5912 7.62552 14.4185 7.83872 14.4185C8.05192 14.4185 8.22443 14.5912 8.22443 14.8042C8.22443 15.0246 8.22857 15.2466 8.23649 15.4698C8.2444 15.6826 8.07791 15.8616 7.86508 15.8693C7.86056 15.8695 7.85567 15.8695 7.85077 15.8695Z"
          fill="white"/>
</svg>
