<svg width="25" height="17" viewBox="0 0 25 17" fill="none" xmlns="http://www.w3.org/2000/svg">
    <path fill-rule="evenodd" clip-rule="evenodd"
          d="M23.192 1.37697C23.564 1.74897 23.8325 2.21397 23.9705 2.72247C24.7625 5.91297 24.5795 10.953 23.9855 14.2665C23.8477 14.7751 23.5792 15.2388 23.2065 15.6115C22.8339 15.9841 22.3702 16.2527 21.8615 16.3905C20 16.8975 12.503 16.8975 12.503 16.8975C12.503 16.8975 5.00751 16.8975 3.14451 16.3905C2.63585 16.2527 2.17213 15.9841 1.79949 15.6115C1.42686 15.2388 1.15829 14.7751 1.02051 14.2665C0.22401 11.0895 0.44151 6.04647 1.00551 2.73747C1.14315 2.22874 1.41167 1.76495 1.78433 1.39229C2.15699 1.01963 2.62078 0.751106 3.12951 0.613466C4.99251 0.104966 12.488 0.0899658 12.488 0.0899658C12.488 0.0899658 19.9835 0.0899662 21.8465 0.598466C22.355 0.734966 22.8185 1.00347 23.192 1.37697ZM16.3205 8.49446L10.1015 12.0945V4.89447L16.3205 8.49446Z"
          fill="#6C7680"/>
</svg>
