<svg width="25" height="24" viewBox="0 0 25 24" fill="none" xmlns="http://www.w3.org/2000/svg">
    <path d="M5.01925 3.42969C4.3941 3.42969 3.79455 3.67803 3.3525 4.12008C2.91045 4.56213 2.66211 5.16168 2.66211 5.78683V7.7154H21.9444V19.9297C21.9444 20.1002 22.0121 20.2637 22.1327 20.3843C22.2532 20.5048 22.4168 20.5725 22.5873 20.5725C22.7577 20.5725 22.9213 20.5048 23.0418 20.3843C23.1624 20.2637 23.2301 20.1002 23.2301 19.9297V5.78683C23.2301 5.16168 22.9818 4.56213 22.5397 4.12008C22.0977 3.67803 21.4981 3.42969 20.873 3.42969H5.01925ZM12.9444 9.00112H2.66211V17.3583C2.66211 18.2107 3.00076 19.0283 3.60355 19.6311C4.20635 20.2339 5.02391 20.5725 5.8764 20.5725H9.73011C10.5826 20.5725 11.4002 20.2339 12.003 19.6311C12.6057 19.0283 12.9444 18.2107 12.9444 17.3583V9.00112ZM5.65868 12.644C5.65868 12.4735 5.72641 12.31 5.84697 12.1894C5.96753 12.0688 6.13104 12.0011 6.30154 12.0011H9.30154C9.47203 12.0011 9.63555 12.0688 9.75611 12.1894C9.87667 12.31 9.9444 12.4735 9.9444 12.644C9.9444 12.8145 9.87667 12.978 9.75611 13.0985C9.63555 13.2191 9.47203 13.2868 9.30154 13.2868H6.30154C6.13104 13.2868 5.96753 13.2191 5.84697 13.0985C5.72641 12.978 5.65868 12.8145 5.65868 12.644Z"
          fill="#999BA7"/>
</svg>
