<svg width="55" height="55" viewBox="0 0 55 55" fill="none" xmlns="http://www.w3.org/2000/svg">
    <g clip-path="url(#clip0_1587_10718)">
        <path d="M19.6663 32.0417H21.6984H22.77C23.1254 34.3352 25.1082 36.0907 27.5015 36.0907C29.8947 36.0907 31.8775 34.3352 32.2329 32.0417H33.3045H35.3366C38.4246 32.0417 41.2315 33.3045 43.2659 35.3391C45.3005 37.3735 46.5632 40.1804 46.5632 43.2684V53.8623C46.5632 54.2116 46.2799 54.495 45.9305 54.495H9.07229C8.72294 54.495 8.4396 54.2117 8.4396 53.8623V43.2684C8.4396 40.1804 9.70249 37.3734 11.7368 35.3391C13.7712 33.3046 16.5784 32.0417 19.6663 32.0417Z"
              fill="#088BEA"/>
        <path d="M19.6592 32.0418H21.6913H22.0913V44.8105C22.0913 45.1598 21.808 45.4432 21.4586 45.4432H17.9386C17.5892 45.4432 17.3059 45.1598 17.3059 44.8105V32.2916C18.0654 32.1281 18.8526 32.0418 19.6592 32.0418ZM32.8974 32.0418H33.2975H35.3296C36.1361 32.0418 36.9235 32.1281 37.6828 32.2916V44.8105C37.6828 45.1598 37.3995 45.4432 37.0501 45.4432H33.5301C33.1808 45.4432 32.8974 45.1598 32.8974 44.8105L32.8974 32.0418Z"
              fill="#D4EFFF"/>
        <path d="M8.4396 50.8544V49.589H15.9249C16.3719 49.589 16.7344 49.8723 16.7344 50.2217C16.7344 50.571 16.3719 50.8544 15.9249 50.8544H8.4396ZM46.563 49.589V50.8544H39.0777C38.6307 50.8544 38.2681 50.571 38.2681 50.2217C38.2681 49.8723 38.6307 49.589 39.0777 49.589H46.563Z"
              fill="#72C6FF"/>
        <path d="M14.4483 54.4999V46.6159C14.4483 46.2665 14.7316 45.9832 15.081 45.9832C15.7411 45.9832 16.3669 45.5078 16.3669 44.8154C16.3669 44.4661 16.6502 44.1827 16.9996 44.1827H37.9958C38.3451 44.1827 38.6285 44.4661 38.6285 44.8154C38.6285 46.3828 40.5471 45.5622 40.5471 46.6159V54.4999H14.4483Z"
              fill="#0361FF"/>
        <path d="M18.9349 15.3286H36.5877C36.7201 15.3286 36.8428 15.3693 36.9444 15.4388C37.5127 15.7688 38.0227 16.2845 38.3826 16.9041C38.7295 17.5008 38.9429 18.1984 38.9429 18.9251C38.9429 19.6977 38.6715 20.467 38.213 21.1003C37.8262 21.6347 37.3016 22.0767 36.6902 22.3466C35.9482 24.6279 34.7006 26.76 33.1308 28.2969C31.5983 29.7976 29.7559 30.7434 27.7613 30.7434C25.7667 30.7434 23.9243 29.7975 22.3918 28.2969C20.8222 26.76 19.5744 24.628 18.8324 22.3466C18.221 22.0767 17.6966 21.6347 17.3096 21.1003C16.8513 20.467 16.5799 19.6977 16.5799 18.9251C16.5799 18.1983 16.7934 17.5007 17.14 16.9041C17.5106 16.2666 18.0397 15.739 18.6276 15.4107C18.7253 15.356 18.8303 15.3285 18.9349 15.3286Z"
              fill="#FFD9C0"/>
        <path d="M18.3254 15.3474L18.8962 10.5622C19.1734 8.23871 20.9376 6.653 23.265 5.79476C24.628 5.29234 26.1939 5.04101 27.7583 5.04126C29.3228 5.04151 30.8888 5.29309 32.2521 5.7955C34.5816 6.65424 36.3474 8.24032 36.6244 10.5622L37.1958 15.3474L18.3254 15.3474Z"
              fill="#FCB316"/>
        <path d="M33.2303 10.9568C33.2712 11.3034 33.5855 11.5512 33.9321 11.5104C34.2787 11.4695 34.5266 11.1552 34.4857 10.8086C34.3069 9.30842 33.0222 8.28466 31.2976 7.72284C30.2361 7.3771 28.9939 7.20386 27.7543 7.20374C26.5147 7.20361 25.2727 7.37648 24.2117 7.72234C22.4895 8.28379 21.2071 9.30718 21.0281 10.8086L20.6776 13.7472C20.6368 14.0938 20.8846 14.4082 21.2312 14.449C21.5779 14.4899 21.8922 14.242 21.9331 13.8954L22.2835 10.9568C22.3951 10.0206 23.3324 9.33744 24.6023 8.92345C25.5421 8.61707 26.6473 8.46413 27.7543 8.46413C28.8612 8.46413 29.9668 8.61769 30.907 8.92395C32.1795 9.33844 33.1188 10.0218 33.2303 10.9568Z"
              fill="#FFDB7F"/>
        <path d="M37.1958 15.3286L34.4815 20.036C34.3587 20.2128 34.1624 20.308 33.9624 20.308H21.5143C21.2889 20.308 21.0909 20.19 20.9788 20.0124L18.3254 15.3286L37.1958 15.3286Z"
              fill="#F78F1E"/>
        <path d="M20.2401 48.724C19.8908 48.724 19.6074 49.0073 19.6074 49.3567C19.6074 49.706 19.8908 49.9894 20.2401 49.9894H34.7393C35.0886 49.9894 35.372 49.706 35.372 49.3567C35.372 49.0073 35.0886 48.724 34.7393 48.724H20.2401Z"
              fill="#D4EFFF"/>
        <path fill-rule="evenodd" clip-rule="evenodd"
              d="M32.2215 32.0362L31.56 29.5676C30.3945 30.3186 29.1092 30.7555 27.7537 30.7555C26.2231 30.7555 24.7821 30.1986 23.502 29.2614L22.7585 32.0362C23.114 34.3297 25.0967 36.0852 27.49 36.0852C29.8832 36.0852 31.866 34.3297 32.2215 32.0362Z"
              fill="#FFD9C0"/>
        <path fill-rule="evenodd" clip-rule="evenodd"
              d="M31.7869 30.419L31.5587 29.5676C30.3932 30.3186 29.1079 30.7555 27.7524 30.7555C26.2218 30.7555 24.7809 30.1986 23.5008 29.2614L23.2682 30.1293C24.5893 31.0323 26.1044 31.5991 27.7524 31.5991C29.2164 31.5991 30.5756 31.1518 31.7869 30.419Z"
              fill="#FFC3AD"/>
        <path fill-rule="evenodd" clip-rule="evenodd"
              d="M14.452 50.8556H8.4396V53.8487C8.4396 54.198 8.72294 54.4814 9.07229 54.4814H14.452V50.8556ZM40.5508 50.8556V54.4813H45.9304C46.2798 54.4813 46.5631 54.198 46.5631 53.8487V50.8556L40.5508 50.8556Z"
              fill="#FFD9C0"/>
        <path d="M51.4173 38.9079C51.0529 44.9494 48.318 50.057 43.3647 54.2905C42.8961 54.691 42.1949 54.691 41.7263 54.2905C36.773 50.057 34.0381 44.9494 33.6737 38.9079C33.6439 38.4142 33.9131 37.9392 34.3515 37.7104C39.8141 34.86 45.2767 34.86 50.7395 37.7104C51.1779 37.9392 51.4471 38.4142 51.4173 38.9079Z"
              fill="#77E244"/>
        <path d="M51.4149 38.9065C51.055 44.9497 48.3162 50.0609 43.3657 54.2913C42.8964 54.6897 42.1957 54.6897 41.7264 54.2913C40.8263 53.5263 39.9971 52.7289 39.2447 51.8996C39.6306 52.2725 40.0355 52.6326 40.4535 52.9926C40.9228 53.3913 41.6235 53.3913 42.0928 52.9926C47.0433 48.7623 49.7819 43.651 50.1484 37.6078C50.1548 37.5434 50.1484 37.4728 50.1357 37.4084C50.3349 37.5048 50.5406 37.6078 50.74 37.7107C51.1771 37.9421 51.4471 38.418 51.4149 38.9065Z"
              fill="#62D333"/>
        <path d="M42.095 51.1465C38.7928 47.9201 36.9075 44.2801 36.3666 40.0895C36.3301 39.8067 36.49 39.5257 36.7518 39.4123C38.697 38.5701 40.6406 38.144 42.5456 38.144C44.4503 38.144 46.3941 38.5701 48.3391 39.4122C48.6008 39.5255 48.7608 39.8065 48.7243 40.0893C48.1837 44.2802 46.2982 47.9205 42.9968 51.1465C42.7491 51.3885 42.3427 51.3885 42.095 51.1465Z"
              fill="white"/>
        <path d="M37.4642 42.2676C38.1393 45.5914 39.7079 48.5617 42.2218 51.2491C42.1767 51.2168 42.1317 51.1848 42.0931 51.1462C38.795 47.9188 36.9049 44.2798 36.3648 40.0881C36.3327 39.8052 36.487 39.5224 36.7506 39.4131C38.6987 38.5709 40.6403 38.1465 42.5432 38.1465C44.4526 38.1465 46.3942 38.5709 48.3423 39.4131C48.5994 39.5224 48.7601 39.8052 48.7215 40.0881C46.9406 39.3811 45.1726 39.0273 43.4304 39.0273C41.9261 39.0273 40.4023 39.291 38.8723 39.8181C37.85 40.1653 37.2521 41.2069 37.4642 42.2676Z"
              fill="#E5E8F9"/>
        <path d="M41.8208 45.7404C41.6974 45.7404 41.574 45.6933 41.4798 45.5992L40.1413 44.2606C39.9529 44.0724 39.9529 43.767 40.1413 43.5788C40.3296 43.3904 40.6348 43.3904 40.8231 43.5788L41.8208 44.5764L44.4275 41.9696C44.6159 41.7813 44.921 41.7813 45.1094 41.9696C45.2977 42.1578 45.2977 42.4633 45.1094 42.6515L42.1617 45.5992C42.0675 45.6933 41.9441 45.7404 41.8208 45.7404Z"
              fill="#77E244"/>
    </g>
    <defs>
        <clipPath id="clip0_1587_10718">
            <rect width="54" height="54" fill="white" transform="translate(0.5 0.5)"/>
        </clipPath>
    </defs>
</svg>
