<svg width="25" height="25" viewBox="0 0 25 25" fill="none" xmlns="http://www.w3.org/2000/svg">
    <g clip-path="url(#clip0_1587_10787)">
        <path fill-rule="evenodd" clip-rule="evenodd"
              d="M19.4998 0.0899658C20.8259 0.0899658 22.0977 0.616776 23.0355 1.55451C23.9732 2.49223 24.5 3.76407 24.5 5.09022V19.0897C24.5 20.4159 23.9732 21.6877 23.0355 22.6254C22.0977 23.5632 20.8259 24.09 19.4998 24.09H5.50025C4.1741 24.09 2.90227 23.5632 1.96454 22.6254C1.02681 21.6877 0.5 20.4159 0.5 19.0897L0.5 5.09022C0.5 3.76407 1.02681 2.49223 1.96454 1.55451C2.90227 0.616776 4.1741 0.0899658 5.50025 0.0899658L19.4998 0.0899658ZM13.022 8.43747H9.8915V19.9162H13.022V14.0685C13.022 10.8202 17.1957 10.554 17.1957 14.0685V19.9162H20.3263V12.8625C20.3263 7.38072 14.4785 7.58022 13.0212 10.2787L13.022 8.43747ZM7.80425 8.43747H4.67375V19.9162H7.805L7.80425 8.43747ZM6.239 3.43347C5.75279 3.43545 5.28727 3.63045 4.9448 3.97559C4.60233 4.32073 4.41096 4.78775 4.41275 5.27397C4.41096 5.76018 4.60233 6.2272 4.9448 6.57234C5.28727 6.91748 5.75279 7.11248 6.239 7.11447C6.47978 7.11358 6.71802 7.06527 6.94012 6.97229C7.16222 6.8793 7.36383 6.74347 7.53342 6.57256C7.70301 6.40164 7.83727 6.19899 7.92852 5.97617C8.01978 5.75335 8.06624 5.51474 8.06525 5.27397C8.06624 5.03319 8.01978 4.79458 7.92852 4.57176C7.83727 4.34894 7.70301 4.14629 7.53342 3.97537C7.36383 3.80446 7.16222 3.66863 6.94012 3.57565C6.71802 3.48266 6.47978 3.43435 6.239 3.43347Z"
              fill="#6C7680"/>
    </g>
    <defs>
        <clipPath id="clip0_1587_10787">
            <rect width="24" height="24" fill="white" transform="translate(0.5 0.0899658)"/>
        </clipPath>
    </defs>
</svg>
