<svg width="35" height="35" viewBox="0 0 35 35" fill="none" xmlns="http://www.w3.org/2000/svg">
<path d="M33.3594 17.4997C33.3594 19.1138 31.3523 20.3909 30.8794 21.8473C30.3893 23.3567 31.2454 25.5664 30.331 26.8227C29.4075 28.0917 27.0353 27.9557 25.7664 28.8792C24.51 29.7935 23.9114 32.0967 22.402 32.5868C20.9456 33.0597 19.114 31.5637 17.5 31.5637C15.886 31.5637 14.0544 33.0597 12.598 32.5868C11.0886 32.0967 10.4899 29.7935 9.2335 28.8791C7.96458 27.9556 5.59235 28.0915 4.66887 26.8226C3.75456 25.5663 4.61071 23.3566 4.12062 21.8473C3.64772 20.3909 1.64062 19.1138 1.64062 17.4997C1.64062 15.8857 3.64772 14.6086 4.12062 13.1522C4.61073 11.6428 3.75461 9.43313 4.66897 8.17676C5.59247 6.90783 7.96469 7.04377 9.23362 6.12028C10.49 5.20597 11.0886 2.90282 12.598 2.41272C14.0544 1.93983 15.886 3.43577 17.5 3.43577C19.114 3.43577 20.9456 1.93983 22.402 2.41272C23.9114 2.90283 24.5101 5.20601 25.7665 6.12037C27.0354 7.04387 29.4076 6.90797 30.3311 8.1769C31.2454 9.43324 30.3893 11.6428 30.8794 13.1522C31.3523 14.6086 33.3594 15.8857 33.3594 17.4997Z" fill="#FCB316"/>
<path d="M19.6875 3.43595C20.6666 3.43595 21.7254 2.88687 22.7323 2.55932C22.6266 2.50185 22.5178 2.45047 22.402 2.41289C21.2669 2.04432 19.9041 2.86965 18.5938 3.25263C18.9646 3.36101 19.3315 3.43595 19.6875 3.43595ZM11.421 28.8793C10.1521 27.9558 7.77985 28.0917 6.85637 26.8228C5.94206 25.5664 6.79823 23.3568 6.30813 21.8475C5.83522 20.3911 3.82813 19.114 3.82813 17.4999C3.82813 15.8859 5.83522 14.6088 6.30813 13.1524C6.79823 11.643 5.94213 9.4333 6.85647 8.17694C7.77999 6.90802 10.1522 7.04393 11.4211 6.12045C12.5811 5.27627 13.1821 3.25122 14.4552 2.55932C13.8023 2.34693 13.1709 2.22687 12.598 2.41289C11.0886 2.90298 10.49 5.20614 9.23362 6.12045C7.9647 7.04393 5.59249 6.90801 4.66897 8.17694C3.75463 9.4333 4.61072 11.643 4.12062 13.1524C3.64771 14.6088 1.64062 15.8859 1.64062 17.4999C1.64062 19.114 3.64771 20.3911 4.12062 21.8475C4.61072 23.3568 3.75456 25.5664 4.66886 26.8228C5.59235 28.0917 7.96457 27.9558 9.23349 28.8793C10.4899 29.7937 11.0886 32.0968 12.598 32.5869C13.1709 32.773 13.8022 32.6529 14.4552 32.4405C13.182 31.7486 12.581 29.7235 11.421 28.8793ZM19.6875 31.5639C19.3315 31.5639 18.9646 31.6388 18.5938 31.7472C19.9041 32.1302 21.2669 32.9555 22.402 32.5869C22.5178 32.5494 22.6266 32.498 22.7323 32.4405C21.7254 32.113 20.6666 31.5639 19.6875 31.5639Z" fill="#F78F1E"/>
<path d="M17.5 28.4375C23.5406 28.4375 28.4375 23.5406 28.4375 17.5C28.4375 11.4594 23.5406 6.5625 17.5 6.5625C11.4594 6.5625 6.5625 11.4594 6.5625 17.5C6.5625 23.5406 11.4594 28.4375 17.5 28.4375Z" fill="#0361FF"/>
<path d="M7.65625 18.5938C7.65625 12.5531 12.5531 7.65625 18.5938 7.65625C21.3355 7.65625 23.8352 8.67223 25.7548 10.339C23.7494 8.02942 20.7988 6.5625 17.5 6.5625C11.4594 6.5625 6.5625 11.4594 6.5625 17.5C6.5625 20.7988 8.02942 23.7494 10.339 25.7548C8.67223 23.8352 7.65625 21.3355 7.65625 18.5938Z" fill="#3374BA"/>
<path d="M15.0337 22.5112L10.7949 18.2723L12.342 16.7258L15.0337 19.4175L22.6583 11.793L24.2054 13.3395L15.0337 22.5112Z" fill="#EDEFF0"/>
<path d="M23.8021 28.3491C23.8621 28.4438 23.8376 28.5698 23.7448 28.6348C23.6214 28.7211 23.4978 28.8056 23.3735 28.8883C23.2765 28.9528 23.1455 28.9266 23.081 28.8297C23.08 28.8283 23.0792 28.827 23.0784 28.8257C23.0172 28.7292 23.044 28.6009 23.1395 28.5372C23.261 28.4562 23.3822 28.3737 23.5029 28.2891C23.5982 28.2223 23.7298 28.2455 23.7966 28.3409C23.7985 28.3436 23.8003 28.3464 23.8021 28.3491ZM28.8858 23.1359C28.9286 23.2034 28.9311 23.2925 28.8848 23.3639C27.8285 24.9914 26.4961 26.4654 24.9243 27.7447C24.8339 27.8181 24.701 27.8046 24.6274 27.7141C24.5562 27.6249 24.5675 27.4909 24.6579 27.4174C26.1956 26.1659 27.4987 24.7249 28.5308 23.1342C28.5943 23.0364 28.7249 23.0087 28.8226 23.072C28.8488 23.0891 28.8701 23.1112 28.8858 23.1359Z" fill="white"/>
</svg>
