<svg width="30" height="30" viewBox="0 0 30 30" fill="none" xmlns="http://www.w3.org/2000/svg">
<g clip-path="url(#clip0_3450_49351)">
<path d="M12.3968 8.92578C11.9742 8.92578 11.5123 9.07865 11.1934 9.44091C10.7759 9.9153 10.6449 11.333 10.6604 12.0484C11.3655 12.0656 12.7135 12.0468 13.2596 11.4999C13.8306 10.9281 13.9868 9.92882 13.3796 9.32071C13.1153 9.05603 12.7625 8.92578 12.3968 8.92578ZM7.01518 8.92578C7.43777 8.92578 7.89968 9.07865 8.21852 9.44091C8.63608 9.9153 8.76699 11.333 8.7515 12.0484C8.04646 12.0656 6.69841 12.0468 6.15238 11.4999C5.58139 10.9281 5.42514 9.92882 6.03233 9.32071C6.29659 9.05603 6.64943 8.92578 7.01518 8.92578Z" fill="#0361FF"/>
<path d="M14.7141 7.9787C15.7863 9.0523 15.9291 10.7444 15.1945 12.0489H29.6761V7.2853C29.6761 5.79019 28.4703 4.57812 26.9829 4.57812H10.6512V7.50109C11.9711 6.7511 13.6389 6.902 14.7141 7.9787C15.3249 8.59035 13.6389 6.902 14.7141 7.9787ZM6.70074 17.3771L5.36461 16.0403L7.4404 13.9439H0.320312V22.7162C0.320312 24.2114 1.52609 25.4235 3.01345 25.4235H8.76599V15.2914L6.70074 17.3771ZM11.9685 13.9439L14.0167 16.023L12.6771 17.3563L10.6512 15.2999V25.4235H26.9829C28.4703 25.4235 29.6761 24.2114 29.6761 22.7163V13.9439H11.9685ZM4.22269 12.0489C3.48798 10.7442 3.63105 9.05223 4.7031 7.9787C5.77829 6.902 7.44605 6.75116 8.76599 7.50109V4.57812H3.01345C1.52609 4.57812 0.320312 5.79019 0.320312 7.2853V12.0489H4.22269Z" fill="#0361FF"/>
</g>
<defs>
<clipPath id="clip0_3450_49351">
<rect width="29.3558" height="29.5625" fill="white" transform="translate(0.320312 0.21875)"/>
</clipPath>
</defs>
</svg>
