<svg xmlns="http://www.w3.org/2000/svg" width="25" height="24" viewBox="0 0 25 24" fill="none">
  <g clip-path="url(#clip0_3357_35109)">
    <circle cx="12.5" cy="12" r="12" fill="#CDDFFF"/>
    <path d="M8.97937 3.1673C8.89792 3.0862 8.79401 3.03142 8.68108 3.01003C8.56815 2.98864 8.4514 3.00164 8.34593 3.04733C8.24047 3.09303 8.15114 3.16932 8.08952 3.26634C8.02789 3.36336 7.9968 3.47665 8.00026 3.59153L8.49627 21.0772C8.49956 21.1936 8.53817 21.3062 8.60699 21.4002C8.67581 21.4942 8.77158 21.565 8.88158 21.6033C8.99159 21.6415 9.11063 21.6455 9.22291 21.6145C9.33519 21.5835 9.4354 21.5192 9.51024 21.4299L13.9955 16.0863L20.9611 16.4693C21.0777 16.4761 21.1935 16.4472 21.2932 16.3864C21.3929 16.3257 21.4717 16.236 21.5191 16.1293C21.5665 16.0226 21.5803 15.904 21.5586 15.7893C21.5369 15.6746 21.4807 15.5692 21.3976 15.4872L8.97937 3.1673Z" fill="#0361FF"/>
    <path d="M8.08952 3.26634C8.15114 3.16932 8.24047 3.09303 8.34593 3.04733L13.9955 16.0863L9.51024 21.4299C9.4354 21.5192 9.33519 21.5835 9.22291 21.6145C9.11063 21.6455 8.99159 21.6415 8.88158 21.6033C8.77158 21.565 8.67581 21.4942 8.60699 21.4002C8.53817 21.3062 8.49956 21.1936 8.49627 21.0772L8.00026 3.59153C7.9968 3.47665 8.02789 3.36336 8.08952 3.26634Z" fill="#68A0FF"/>
  </g>
  <defs>
    <clipPath id="clip0_3357_35109">
      <rect width="24" height="24" fill="white" transform="translate(0.5)"/>
    </clipPath>
  </defs>
</svg>