<svg width="34" height="35" viewBox="0 0 34 35" fill="none" xmlns="http://www.w3.org/2000/svg">
<g id="Graph">
<path id="Path" d="M13.9209 6.75923C14.0058 6.93201 14.0619 7.11703 14.087 7.30725L14.551 14.2071L14.7814 17.6751C14.7838 18.0318 14.8397 18.3861 14.9475 18.7267C15.2257 19.3876 15.8949 19.8076 16.6231 19.7783L27.7186 19.0526C28.199 19.0447 28.663 19.2244 29.0084 19.5522C29.2962 19.8253 29.4821 20.1826 29.5406 20.567L29.5603 20.8003C29.1011 27.1582 24.4316 32.4611 18.0869 33.83C11.7423 35.1989 5.23611 32.3072 2.10086 26.7248C1.19699 25.1031 0.632425 23.3204 0.440311 21.4816C0.360055 20.9373 0.324717 20.3875 0.33464 19.8376C0.324731 13.0212 5.17879 7.12828 11.9736 5.70763C12.7914 5.58029 13.5931 6.01322 13.9209 6.75923Z" fill="#FE0135"/>
<path id="Path_2" opacity="0.4" d="M18.4493 0.83535C26.0491 1.0287 32.4365 6.49363 33.666 13.8545L33.6542 13.9088L33.6207 13.9878L33.6253 14.2046C33.6079 14.4918 33.497 14.7682 33.3059 14.9915C33.1068 15.224 32.8348 15.3824 32.5353 15.4438L32.3526 15.4689L19.5513 16.2983C19.1255 16.3403 18.7015 16.203 18.3849 15.9206C18.121 15.6852 17.9523 15.3675 17.9046 15.0251L17.0454 2.24242C17.0304 2.1992 17.0304 2.15234 17.0454 2.10912C17.0571 1.75677 17.2122 1.42372 17.476 1.18437C17.7398 0.945017 18.0904 0.819317 18.4493 0.83535Z" fill="#FE0135"/>
</g>
</svg>
