<svg width="48" height="48" viewBox="0 0 48 48" fill="none" xmlns="http://www.w3.org/2000/svg">
<rect x="0.5" y="0.5" width="47" height="47" rx="11.5" fill="white" fill-opacity="0.23"/>
<rect x="0.5" y="0.5" width="47" height="47" rx="11.5" stroke="url(#paint0_linear_4218_17022)"/>
<rect x="0.5" y="0.5" width="47" height="47" rx="11.5" stroke="url(#paint1_linear_4218_17022)"/>
<path d="M33.3747 11.5C33.3747 12.9917 32.7821 14.4223 31.7273 15.4771C30.6725 16.5319 29.2418 17.1245 27.7501 17.1245C26.2584 17.1245 24.8278 16.5319 23.773 15.4771C22.7182 14.4223 22.1256 12.9917 22.1256 11.5C22.1256 10.0083 22.7182 8.57767 23.773 7.52287C24.8278 6.46807 26.2584 5.87549 27.7501 5.87549C29.2418 5.87549 30.6725 6.46807 31.7273 7.52287C32.7821 8.57767 33.3747 10.0083 33.3747 11.5Z" fill="#E2E7FA"/>
<path d="M27.7501 5.87557C27.9532 5.87557 28.1564 5.88974 28.3595 5.91573C26.9882 6.07282 25.7226 6.72865 24.8035 7.75838C23.8844 8.78811 23.3761 10.1198 23.3752 11.5001C23.3769 12.8851 23.8896 14.2207 24.815 15.2512C25.7404 16.2816 27.0134 16.9344 28.3902 17.0845C27.6275 17.176 26.8542 17.1103 26.1178 16.8915C25.3815 16.6727 24.6978 16.3054 24.1088 15.8122C23.5199 15.319 23.0382 14.7104 22.6935 14.0239C22.3488 13.3374 22.1484 12.5876 22.1046 11.8207C22.0608 11.0538 22.1746 10.286 22.4389 9.56478C22.7032 8.84352 23.1124 8.18404 23.6414 7.627C24.1703 7.06997 24.8078 6.62719 25.5144 6.32597C26.221 6.02474 26.9819 5.87146 27.7501 5.87557Z" fill="#F8F8F8"/>
<path d="M37.7495 6.49902L42.1268 8.37465L37.7495 10.2503V6.49902Z" fill="#E2E7FA"/>
<path d="M37.7495 6.49902V10.2503L39.0015 9.71405V7.03525L37.7495 6.49902Z" fill="#E6EFFF"/>
<path d="M36.5093 14.6255H39.0085C39.3558 14.6255 39.6345 14.9042 39.6345 15.2515V16.5011C39.6345 16.5832 39.6183 16.6645 39.5868 16.7403C39.5553 16.8161 39.5092 16.885 39.451 16.9429C39.3929 17.0009 39.3238 17.0468 39.2479 17.078C39.172 17.1092 39.0906 17.1251 39.0085 17.1248H36.5093C36.3439 17.1248 36.1852 17.059 36.0683 16.9421C35.9513 16.8251 35.8856 16.6665 35.8856 16.5011V15.2491C35.8856 14.9042 36.1644 14.6255 36.5093 14.6255ZM25.8744 23.0634H32.1249C32.8171 23.0634 33.3769 23.6209 33.3769 24.3131V24.9391C33.3769 25.6312 32.8171 26.1887 32.1249 26.1887H25.8744C25.71 26.189 25.5472 26.1568 25.3953 26.094C25.2434 26.0312 25.1054 25.9389 24.9892 25.8226C24.8731 25.7062 24.7811 25.568 24.7186 25.416C24.656 25.264 24.6241 25.1011 24.6248 24.9367V24.3154C24.6248 23.6233 25.1799 23.0634 25.8744 23.0634Z" fill="#E2E7FA"/>
<path d="M25.8744 26.1884H32.1249C32.8171 26.1884 33.3769 26.7459 33.3769 27.438V28.0617C33.3769 28.7562 32.8171 29.3137 32.1249 29.3137H25.8744C25.71 29.314 25.5472 29.2818 25.3953 29.2189C25.2434 29.1561 25.1054 29.0639 24.9892 28.9475C24.8731 28.8312 24.7811 28.693 24.7186 28.541C24.656 28.3889 24.6241 28.2261 24.6248 28.0617V27.438C24.6248 26.7459 25.1823 26.186 25.8768 26.186L25.8744 26.1884Z" fill="#E2E7FA"/>
<path d="M27.1264 23.375C26.9618 23.3744 26.7987 23.4063 26.6465 23.469C26.4944 23.5317 26.3561 23.6239 26.2397 23.7403C26.1233 23.8567 26.0311 23.995 25.9684 24.1471C25.9057 24.2993 25.8738 24.4624 25.8744 24.627V25.2506C25.8744 25.9428 26.4319 26.5003 27.1264 26.5003H25.8744C25.71 26.5006 25.5472 26.4684 25.3953 26.4056C25.2434 26.3427 25.1054 26.2505 24.9892 26.1341C24.8731 26.0178 24.7811 25.8796 24.7186 25.7276C24.656 25.5756 24.6241 25.4127 24.6248 25.2483V24.6246C24.6248 23.9325 25.1823 23.375 25.8768 23.375H27.1264Z" fill="#F8F8F8"/>
<path d="M30.8754 23.375C31.5675 23.375 32.1274 23.9325 32.1274 24.627V25.2506C32.1274 25.9428 31.5675 26.5003 30.8754 26.5003H32.1274C32.8171 26.5003 33.3746 25.9428 33.3746 25.2483V24.6246C33.3749 24.4604 33.3428 24.2978 33.2801 24.1461C33.2174 23.9943 33.1254 23.8564 33.0093 23.7403C32.8932 23.6242 32.7553 23.5322 32.6036 23.4695C32.4518 23.4068 32.2892 23.3747 32.125 23.375H30.8754Z" fill="#E6EFFF"/>
<path d="M30.8754 26.5005C31.5675 26.5005 32.1274 27.058 32.1274 27.7525V28.3761C32.1274 29.0683 31.5675 29.6257 30.8754 29.6257H32.1274C32.8171 29.6257 33.3746 29.0683 33.3746 28.3738V27.7501C33.3749 27.5859 33.3428 27.4233 33.2801 27.2715C33.2174 27.1198 33.1254 26.9819 33.0093 26.8658C32.8932 26.7497 32.7553 26.6577 32.6036 26.595C32.4518 26.5323 32.2892 26.5002 32.125 26.5005H30.8754Z" fill="#E6EFFF"/>
<path d="M27.1264 26.5005C26.9618 26.4999 26.7987 26.5318 26.6465 26.5945C26.4944 26.6572 26.3561 26.7494 26.2397 26.8658C26.1233 26.9822 26.0311 27.1205 25.9684 27.2726C25.9057 27.4248 25.8738 27.5879 25.8744 27.7525V28.3761C25.8744 29.0683 26.4319 29.6258 27.1264 29.6258H25.8744C25.71 29.6261 25.5472 29.5939 25.3953 29.531C25.2434 29.4682 25.1054 29.376 24.9892 29.2596C24.8731 29.1433 24.7811 29.0051 24.7186 28.8531C24.656 28.701 24.6241 28.5382 24.6248 28.3738V27.7501C24.6248 27.058 25.1823 26.5005 25.8768 26.5005H27.1264Z" fill="#F8F8F8"/>
<path d="M34.6266 17.1245H40.8748C41.5693 17.1245 42.1268 17.682 42.1268 18.3765V19.0001C42.1268 19.6923 41.5693 20.2521 40.8748 20.2521H34.6266C34.462 20.2528 34.299 20.2208 34.1468 20.1581C33.9946 20.0954 33.8563 20.0032 33.7399 19.8868C33.6236 19.7704 33.5314 19.6322 33.4687 19.48C33.406 19.3278 33.374 19.1647 33.3746 19.0001V18.3741C33.3746 17.682 33.9321 17.1245 34.6266 17.1245Z" fill="#CDDFFF"/>
<path d="M34.6266 20.2524H40.8748C41.5693 20.2524 42.1268 20.8075 42.1268 21.4996V22.1256C42.1268 22.8178 41.5693 23.3776 40.8748 23.3776H34.6266C34.462 23.3782 34.299 23.3463 34.1468 23.2836C33.9946 23.2209 33.8563 23.1287 33.7399 23.0123C33.6236 22.8959 33.5314 22.7577 33.4687 22.6055C33.406 22.4533 33.374 22.2902 33.3746 22.1256V21.4996C33.3746 20.8075 33.9321 20.2524 34.6266 20.2524Z" fill="#CDDFFF"/>
<path d="M35.8763 17.1245C35.7117 17.1239 35.5486 17.1559 35.3964 17.2185C35.2442 17.2812 35.106 17.3734 34.9896 17.4898C34.8732 17.6062 34.781 17.7445 34.7183 17.8967C34.6556 18.0488 34.6236 18.2119 34.6243 18.3765V19.0001C34.6243 19.6923 35.1841 20.2521 35.8763 20.2521H34.6243C34.4599 20.2525 34.2971 20.2203 34.1451 20.1574C33.9932 20.0946 33.8552 20.0023 33.7391 19.886C33.623 19.7696 33.531 19.6315 33.4684 19.4795C33.4059 19.3274 33.374 19.1645 33.3746 19.0001V18.3742C33.3746 17.682 33.9321 17.1245 34.6266 17.1245H35.8763Z" fill="#F8F8F8"/>
<path d="M39.6251 17.1245C40.3173 17.1245 40.8771 17.682 40.8771 18.3765V19.0001C40.8771 19.6923 40.3173 20.2521 39.6251 20.2521H40.8771C41.5693 20.2521 42.1267 19.6923 42.1267 19.0001V18.3742C42.1271 18.2098 42.0949 18.0469 42.032 17.895C41.9692 17.7431 41.8769 17.6051 41.7606 17.489C41.6442 17.3729 41.5061 17.2809 41.3541 17.2183C41.202 17.1558 41.0391 17.1239 40.8748 17.1245H39.6251ZM39.6251 20.2521C40.3173 20.2521 40.8771 20.8073 40.8771 21.5018V22.1254C40.8771 22.8175 40.3173 23.3774 39.6251 23.3774H40.8771C41.5693 23.3774 42.1267 22.8175 42.1267 22.1254V21.4994C42.1271 21.335 42.0949 21.1722 42.032 21.0203C41.9692 20.8684 41.8769 20.7304 41.7606 20.6143C41.6442 20.4981 41.5061 20.4061 41.3541 20.3436C41.202 20.281 41.0391 20.2492 40.8748 20.2498L39.6251 20.2521Z" fill="#B3D0FF"/>
<path d="M35.8763 20.2524C35.7121 20.2517 35.5494 20.2835 35.3975 20.3459C35.2456 20.4083 35.1076 20.5001 34.9913 20.616C34.8749 20.7319 34.7826 20.8696 34.7197 21.0212C34.6567 21.1729 34.6243 21.3354 34.6243 21.4996V22.1256C34.6243 22.8178 35.1841 23.3776 35.8763 23.3776H34.6243C34.4599 23.3779 34.2971 23.3457 34.1451 23.2829C33.9932 23.2201 33.8552 23.1278 33.7391 23.0115C33.623 22.8951 33.531 22.757 33.4684 22.6049C33.4059 22.4529 33.374 22.29 33.3746 22.1256V21.4996C33.3746 20.8075 33.9321 20.25 34.6266 20.25L35.8763 20.2524Z" fill="#F8F8F8"/>
<path d="M34.6266 23.375H40.8748C41.5693 23.375 42.1268 23.9325 42.1268 24.627V25.2506C42.1268 25.9428 41.5693 26.5003 40.8748 26.5003H34.6266C34.462 26.5009 34.299 26.4689 34.1468 26.4062C33.9946 26.3435 33.8563 26.2513 33.7399 26.135C33.6236 26.0186 33.5314 25.8803 33.4687 25.7281C33.406 25.5759 33.374 25.4129 33.3746 25.2483V24.6246C33.3746 23.9325 33.9321 23.375 34.6266 23.375Z" fill="#CDDFFF"/>
<path d="M34.6266 26.5005H40.8748C41.5693 26.5005 42.1268 27.058 42.1268 27.7525V28.3761C42.1268 29.0683 41.5693 29.6257 40.8748 29.6257H34.6266C34.462 29.6264 34.299 29.5944 34.1468 29.5317C33.9946 29.469 33.8563 29.3768 33.7399 29.2604C33.6236 29.1441 33.5314 29.0058 33.4687 28.8536C33.406 28.7014 33.374 28.5383 33.3746 28.3738V27.7501C33.3746 27.058 33.9321 26.5005 34.6266 26.5005Z" fill="#CDDFFF"/>
<path d="M35.8763 23.375C35.7117 23.3744 35.5486 23.4063 35.3964 23.469C35.2442 23.5317 35.106 23.6239 34.9896 23.7403C34.8732 23.8567 34.781 23.995 34.7183 24.1471C34.6556 24.2993 34.6236 24.4624 34.6243 24.627V25.2506C34.6243 25.9428 35.1841 26.5003 35.8763 26.5003H34.6243C34.4599 26.5006 34.2971 26.4684 34.1451 26.4056C33.9932 26.3427 33.8552 26.2505 33.7391 26.1341C33.623 26.0178 33.531 25.8796 33.4684 25.7276C33.4059 25.5756 33.374 25.4127 33.3746 25.2483V24.6246C33.3746 23.9325 33.9321 23.375 34.6266 23.375H35.8763Z" fill="#F8F8F8"/>
<path d="M39.6251 23.375C40.3173 23.375 40.8771 23.9325 40.8771 24.627V25.2506C40.8771 25.9428 40.3173 26.5003 39.6251 26.5003H40.8771C41.5693 26.5003 42.1267 25.9428 42.1267 25.2483V24.6246C42.1271 24.4603 42.0949 24.2974 42.032 24.1455C41.9692 23.9936 41.8769 23.8556 41.7606 23.7395C41.6442 23.6234 41.5061 23.5314 41.3541 23.4688C41.202 23.4063 41.0391 23.3744 40.8748 23.375H39.6251ZM39.6251 26.5003C40.3173 26.5003 40.8771 27.0578 40.8771 27.7523V28.3759C40.8771 29.068 40.3173 29.6255 39.6251 29.6255H40.8771C41.5693 29.6255 42.1267 29.068 42.1267 28.3735V27.7499C42.1271 27.5855 42.0949 27.4227 42.032 27.2708C41.9692 27.1189 41.8769 26.9809 41.7606 26.8647C41.6442 26.7486 41.5061 26.6566 41.3541 26.5941C41.202 26.5315 41.0391 26.4996 40.8748 26.5003H39.6251Z" fill="#B3D0FF"/>
<path d="M35.8763 26.5005C35.7117 26.4999 35.5486 26.5318 35.3964 26.5945C35.2442 26.6572 35.106 26.7494 34.9896 26.8658C34.8732 26.9822 34.781 27.1205 34.7183 27.2726C34.6556 27.4248 34.6236 27.5879 34.6243 27.7525V28.3761C34.6243 29.0683 35.1841 29.6258 35.8763 29.6258H34.6243C34.4599 29.6261 34.2971 29.5939 34.1451 29.531C33.9932 29.4682 33.8552 29.376 33.7391 29.2596C33.623 29.1433 33.531 29.0051 33.4684 28.8531C33.4059 28.701 33.374 28.5382 33.3746 28.3738V27.7501C33.3746 27.058 33.9321 26.5005 34.6266 26.5005H35.8763Z" fill="#F8F8F8"/>
<path d="M34.6266 29.6259H40.8748C41.5693 29.6259 42.1268 30.1834 42.1268 30.8779V31.5015C42.1268 32.1937 41.5693 32.7512 40.8748 32.7512H34.6266C34.462 32.7518 34.299 32.7198 34.1468 32.6571C33.9946 32.5944 33.8563 32.5022 33.7399 32.3858C33.6236 32.2695 33.5314 32.1312 33.4687 31.979C33.406 31.8268 33.374 31.6638 33.3746 31.4992V30.8755C33.3746 30.1834 33.9321 29.6259 34.6266 29.6259ZM34.6266 32.7512H40.8748C41.5693 32.7512 42.1268 33.3086 42.1268 34.0008V34.6268C42.1268 35.3189 41.5693 35.8764 40.8748 35.8764H34.6266C34.462 35.877 34.299 35.8451 34.1468 35.7824C33.9946 35.7197 33.8563 35.6275 33.7399 35.5111C33.6236 35.3947 33.5314 35.2565 33.4687 35.1043C33.406 34.9521 33.374 34.789 33.3746 34.6244V34.0008C33.3746 33.3086 33.9321 32.7512 34.6266 32.7512Z" fill="#CDDFFF"/>
<path d="M35.8763 29.6259C35.7117 29.6253 35.5486 29.6572 35.3964 29.7199C35.2442 29.7826 35.106 29.8748 34.9896 29.9912C34.8732 30.1076 34.781 30.2459 34.7183 30.398C34.6556 30.5502 34.6236 30.7133 34.6243 30.8779V31.5015C34.6243 32.1937 35.1841 32.7512 35.8763 32.7512H34.6243C34.4599 32.7515 34.2971 32.7193 34.1451 32.6564C33.9932 32.5936 33.8552 32.5014 33.7391 32.385C33.623 32.2687 33.531 32.1305 33.4684 31.9785C33.4059 31.8264 33.374 31.6636 33.3746 31.4992V30.8755C33.3746 30.1834 33.9321 29.6235 34.6266 29.6235L35.8763 29.6259Z" fill="#F8F8F8"/>
<path d="M39.6251 29.6259C40.3173 29.6259 40.8771 30.1834 40.8771 30.8779V31.5015C40.8771 32.1937 40.3173 32.7512 39.6251 32.7512H40.8771C41.5693 32.7512 42.1267 32.1937 42.1267 31.4992V30.8755C42.1274 30.7109 42.0954 30.5479 42.0327 30.3957C41.97 30.2435 41.8778 30.1052 41.7614 29.9889C41.6451 29.8725 41.5068 29.7803 41.3546 29.7176C41.2024 29.6549 41.0393 29.6229 40.8748 29.6235L39.6251 29.6259ZM39.6251 32.7512C40.3173 32.7512 40.8771 33.3087 40.8771 34.0008V34.6268C40.8771 35.3189 40.3173 35.8764 39.6251 35.8764H40.8771C41.5693 35.8764 42.1267 35.3189 42.1267 34.6244V34.0008C42.1274 33.8362 42.0954 33.6731 42.0327 33.5209C41.97 33.3688 41.8778 33.2305 41.7614 33.1141C41.6451 32.9977 41.5068 32.9055 41.3546 32.8428C41.2024 32.7801 41.0393 32.7482 40.8748 32.7488L39.6251 32.7512Z" fill="#B3D0FF"/>
<path d="M35.8763 32.7485C35.7117 32.7479 35.5486 32.7799 35.3964 32.8426C35.2442 32.9053 35.106 32.9975 34.9896 33.1139C34.8732 33.2302 34.781 33.3685 34.7183 33.5207C34.6556 33.6729 34.6236 33.8359 34.6243 34.0005V34.6265C34.6243 35.3187 35.1841 35.8762 35.8763 35.8762H34.6243C34.4599 35.8765 34.2971 35.8443 34.1451 35.7815C33.9932 35.7186 33.8552 35.6264 33.7391 35.51C33.623 35.3937 33.531 35.2555 33.4684 35.1035C33.4059 34.9515 33.374 34.7886 33.3746 34.6242V34.0005C33.3746 33.3084 33.9321 32.7485 34.6266 32.7485H35.8763Z" fill="#F8F8F8"/>
<path d="M34.6266 35.8764H40.8748C41.5693 35.8764 42.1268 36.4339 42.1268 37.126V37.752C42.1268 38.4442 41.5693 39.0016 40.8748 39.0016H34.6266C34.462 39.0023 34.299 38.9703 34.1468 38.9076C33.9946 38.8449 33.8563 38.7527 33.7399 38.6363C33.6236 38.52 33.5314 38.3817 33.4687 38.2295C33.406 38.0773 33.374 37.9142 33.3746 37.7497V37.126C33.3746 36.4339 33.9321 35.874 34.6266 35.874V35.8764ZM34.6266 39.0016H40.8748C41.5693 39.0016 42.1268 39.5591 42.1268 40.2513V40.8749C42.1268 41.5694 41.5693 42.1269 40.8748 42.1269H34.6266C34.462 42.1275 34.299 42.0956 34.1468 42.0329C33.9946 41.9702 33.8563 41.878 33.7399 41.7616C33.6236 41.6452 33.5314 41.5069 33.4687 41.3548C33.406 41.2026 33.374 41.0395 33.3746 40.8749V40.2513C33.3746 39.5591 33.9321 38.9993 34.6266 38.9993V39.0016Z" fill="#CDDFFF"/>
<path d="M35.8763 35.8764C35.7119 35.8758 35.549 35.9076 35.397 35.9702C35.2449 36.0327 35.1068 36.1247 34.9904 36.2409C34.8741 36.357 34.7818 36.495 34.719 36.6469C34.6561 36.7988 34.624 36.9616 34.6243 37.126V37.7497C34.6243 38.4442 35.1841 39.0016 35.8763 39.0016H34.6243C34.4599 39.002 34.2971 38.9698 34.1451 38.9069C33.9932 38.8441 33.8552 38.7518 33.7391 38.6355C33.623 38.5191 33.531 38.381 33.4684 38.229C33.4059 38.0769 33.374 37.914 33.3746 37.7497V37.126C33.3746 36.4339 33.9321 35.874 34.6266 35.874L35.8763 35.8764Z" fill="#F8F8F8"/>
<path d="M39.6251 35.8764C40.3173 35.8764 40.8771 36.4339 40.8771 37.126V37.7497C40.8771 38.4442 40.3173 39.0017 39.6251 39.0017H40.8771C41.5693 39.0017 42.1267 38.4442 42.1267 37.7497V37.126C42.1274 36.9614 42.0954 36.7984 42.0327 36.6462C41.97 36.494 41.8778 36.3557 41.7614 36.2393C41.6451 36.123 41.5068 36.0308 41.3546 35.9681C41.2024 35.9054 41.0393 35.8734 40.8748 35.874L39.6251 35.8764ZM39.6251 39.0017C40.3173 39.0017 40.8771 39.5591 40.8771 40.2513V40.8749C40.8771 41.5694 40.3173 42.1269 39.6251 42.1269H40.8771C41.5693 42.1269 42.1267 41.5694 42.1267 40.8749V40.2513C42.1274 40.0867 42.0954 39.9236 42.0327 39.7714C41.97 39.6192 41.8778 39.481 41.7614 39.3646C41.6451 39.2482 41.5068 39.156 41.3546 39.0933C41.2024 39.0306 41.0393 38.9987 40.8748 38.9993L39.6251 39.0017Z" fill="#B3D0FF"/>
<path d="M35.8763 39.0014C35.7119 39.0008 35.549 39.0326 35.397 39.0952C35.2449 39.1577 35.1068 39.2497 34.9904 39.3659C34.8741 39.482 34.7818 39.62 34.719 39.7719C34.6561 39.9238 34.624 40.0866 34.6243 40.251V40.8747C34.6243 41.5692 35.1841 42.1266 35.8763 42.1266H34.6243C34.4599 42.127 34.2971 42.0948 34.1451 42.0319C33.9932 41.9691 33.8552 41.8768 33.7391 41.7605C33.623 41.6441 33.531 41.506 33.4684 41.354C33.4059 41.2019 33.374 41.039 33.3746 40.8747V40.251C33.3746 39.5589 33.9321 38.999 34.6266 38.999L35.8763 39.0014Z" fill="#F8F8F8"/>
<path d="M25.8744 29.6259H32.1249C32.8171 29.6259 33.3769 30.1834 33.3769 30.8779V31.5015C33.3769 32.1937 32.8171 32.7512 32.1249 32.7512H25.8744C25.71 32.7515 25.5472 32.7193 25.3953 32.6564C25.2434 32.5936 25.1054 32.5014 24.9892 32.385C24.8731 32.2687 24.7811 32.1305 24.7186 31.9785C24.656 31.8264 24.6241 31.6636 24.6248 31.4992V30.8755C24.6248 30.1834 25.1823 29.6235 25.8768 29.6235L25.8744 29.6259ZM25.8744 32.7512H32.1249C32.8171 32.7512 33.3769 33.3086 33.3769 34.0008V34.6268C33.3769 35.3189 32.8171 35.8764 32.1249 35.8764H25.8744C25.71 35.8767 25.5472 35.8445 25.3953 35.7817C25.2434 35.7189 25.1054 35.6266 24.9892 35.5103C24.8731 35.3939 24.7811 35.2558 24.7186 35.1037C24.656 34.9517 24.6241 34.7888 24.6248 34.6244V34.0008C24.6248 33.3086 25.1823 32.7488 25.8768 32.7488L25.8744 32.7512Z" fill="#E2E7FA"/>
<path d="M27.1264 29.6259C26.9618 29.6253 26.7987 29.6572 26.6465 29.7199C26.4944 29.7826 26.3561 29.8748 26.2397 29.9912C26.1233 30.1076 26.0311 30.2459 25.9684 30.398C25.9057 30.5502 25.8738 30.7133 25.8744 30.8779V31.5015C25.8744 32.1937 26.4319 32.7512 27.1264 32.7512H25.8744C25.71 32.7515 25.5472 32.7193 25.3953 32.6564C25.2434 32.5936 25.1054 32.5014 24.9892 32.385C24.8731 32.2687 24.7811 32.1305 24.7186 31.9785C24.656 31.8264 24.6241 31.6636 24.6248 31.4992V30.8755C24.6248 30.1834 25.1823 29.6235 25.8768 29.6235L27.1264 29.6259Z" fill="#F8F8F8"/>
<path d="M30.8754 29.6259C31.5675 29.6259 32.1274 30.1834 32.1274 30.8779V31.5015C32.1274 32.1937 31.5675 32.7512 30.8754 32.7512H32.1274C32.8171 32.7512 33.3746 32.1937 33.3746 31.4992V30.8755C33.3753 30.7111 33.3434 30.5482 33.2808 30.3962C33.2183 30.2442 33.1263 30.106 33.0102 29.9897C32.894 29.8733 32.756 29.7811 32.6041 29.7183C32.4522 29.6554 32.2894 29.6232 32.125 29.6235L30.8754 29.6259ZM30.8754 32.7512C31.5675 32.7512 32.1274 33.3086 32.1274 34.0008V34.6268C32.1274 35.3189 31.5675 35.8764 30.8754 35.8764H32.1274C32.8171 35.8764 33.3746 35.3189 33.3746 34.6244V34.0008C33.3753 33.8364 33.3434 33.6735 33.2808 33.5215C33.2183 33.3695 33.1263 33.2313 33.0102 33.1149C32.894 32.9986 32.756 32.9063 32.6041 32.8435C32.4522 32.7807 32.2894 32.7485 32.125 32.7488L30.8754 32.7512Z" fill="#E6EFFF"/>
<path d="M27.1264 32.7485C26.9618 32.7479 26.7987 32.7799 26.6465 32.8426C26.4944 32.9053 26.3561 32.9975 26.2397 33.1139C26.1233 33.2302 26.0311 33.3685 25.9684 33.5207C25.9057 33.6729 25.8738 33.8359 25.8744 34.0005V34.6265C25.8744 35.3187 26.4319 35.8762 27.1264 35.8762H25.8744C25.71 35.8765 25.5472 35.8443 25.3953 35.7815C25.2434 35.7186 25.1054 35.6264 24.9892 35.51C24.8731 35.3937 24.7811 35.2555 24.7186 35.1035C24.656 34.9515 24.6241 34.7886 24.6248 34.6242V34.0005C24.6248 33.3084 25.1823 32.7485 25.8768 32.7485H27.1264Z" fill="#F8F8F8"/>
<path d="M25.8744 35.8764H32.1249C32.8171 35.8764 33.3769 36.4339 33.3769 37.126V37.752C33.3769 38.4442 32.8171 39.0016 32.1249 39.0016H25.8744C25.71 39.002 25.5472 38.9698 25.3953 38.9069C25.2434 38.8441 25.1054 38.7518 24.9892 38.6355C24.8731 38.5191 24.7811 38.381 24.7186 38.229C24.656 38.0769 24.6241 37.914 24.6248 37.7497V37.126C24.6248 36.4339 25.1823 35.874 25.8768 35.874L25.8744 35.8764ZM25.8744 39.0016H32.1249C32.8171 39.0016 33.3769 39.5591 33.3769 40.2513V40.8749C33.3769 41.5694 32.8171 42.1269 32.1249 42.1269H25.8744C25.71 42.1272 25.5472 42.095 25.3953 42.0322C25.2434 41.9694 25.1054 41.8771 24.9892 41.7608C24.8731 41.6444 24.7811 41.5062 24.7186 41.3542C24.656 41.2022 24.6241 41.0393 24.6248 40.8749V40.2513C24.6248 39.5591 25.1823 38.9993 25.8768 38.9993L25.8744 39.0016Z" fill="#E2E7FA"/>
<path d="M27.1264 35.8764C26.962 35.8758 26.7991 35.9076 26.6471 35.9702C26.4951 36.0327 26.3569 36.1247 26.2405 36.2409C26.1242 36.357 26.0319 36.495 25.9691 36.6469C25.9063 36.7988 25.8741 36.9616 25.8744 37.126V37.7497C25.8744 38.4442 26.4319 39.0016 27.1264 39.0016H25.8744C25.71 39.002 25.5472 38.9698 25.3953 38.9069C25.2434 38.8441 25.1054 38.7518 24.9892 38.6355C24.8731 38.5191 24.7811 38.381 24.7186 38.229C24.656 38.0769 24.6241 37.914 24.6248 37.7497V37.126C24.6248 36.4339 25.1823 35.874 25.8768 35.874L27.1264 35.8764Z" fill="#F8F8F8"/>
<path d="M30.8754 35.8764C31.5675 35.8764 32.1274 36.4339 32.1274 37.126V37.7497C32.1274 38.4442 31.5675 39.0016 30.8754 39.0016H32.1274C32.8171 39.0016 33.3746 38.4442 33.3746 37.7497V37.126C33.3753 36.9616 33.3434 36.7987 33.2808 36.6467C33.2183 36.4947 33.1263 36.3565 33.0102 36.2402C32.894 36.1238 32.756 36.0316 32.6041 35.9687C32.4522 35.9059 32.2894 35.8737 32.125 35.874L30.8754 35.8764ZM30.8754 39.0016C31.5675 39.0016 32.1274 39.5591 32.1274 40.2513V40.8749C32.1274 41.5694 31.5675 42.1269 30.8754 42.1269H32.1274C32.8171 42.1269 33.3746 41.5694 33.3746 40.8749V40.2513C33.3753 40.0869 33.3434 39.924 33.2808 39.772C33.2183 39.6199 33.1263 39.4818 33.0102 39.3654C32.894 39.2491 32.756 39.1568 32.6041 39.094C32.4522 39.0312 32.2894 38.999 32.125 38.9993L30.8754 39.0016Z" fill="#E6EFFF"/>
<path d="M27.1264 39.0014C26.962 39.0008 26.7991 39.0326 26.6471 39.0952C26.4951 39.1577 26.3569 39.2497 26.2405 39.3659C26.1242 39.482 26.0319 39.62 25.9691 39.7719C25.9063 39.9238 25.8741 40.0866 25.8744 40.251V40.8747C25.8744 41.5692 26.4319 42.1266 27.1264 42.1266H25.8744C25.71 42.127 25.5472 42.0948 25.3953 42.0319C25.2434 41.9691 25.1054 41.8768 24.9892 41.7605C24.8731 41.6441 24.7811 41.506 24.7186 41.354C24.656 41.2019 24.6241 41.039 24.6248 40.8747V40.251C24.6248 39.5589 25.1823 38.999 25.8768 38.999L27.1264 39.0014Z" fill="#F8F8F8"/>
<path d="M17.1246 29.6259H23.3752C24.0673 29.6259 24.6272 30.1834 24.6272 30.8779V31.5015C24.6272 32.1937 24.0673 32.7512 23.3752 32.7512H17.1246C16.9603 32.7515 16.7974 32.7193 16.6455 32.6564C16.4936 32.5936 16.3556 32.5014 16.2395 32.385C16.1234 32.2687 16.0314 32.1305 15.9688 31.9785C15.9063 31.8264 15.8744 31.6636 15.875 31.4992V30.8755C15.875 30.1834 16.4325 29.6235 17.127 29.6235L17.1246 29.6259ZM17.1246 32.7512H23.3752C24.0673 32.7512 24.6272 33.3086 24.6272 34.0008V34.6268C24.6272 35.3189 24.0673 35.8764 23.3752 35.8764H17.1246C16.9603 35.8767 16.7974 35.8445 16.6455 35.7817C16.4936 35.7189 16.3556 35.6266 16.2395 35.5103C16.1234 35.3939 16.0314 35.2558 15.9688 35.1037C15.9063 34.9517 15.8744 34.7888 15.875 34.6244V34.0008C15.875 33.3086 16.4325 32.7488 17.127 32.7488L17.1246 32.7512Z" fill="#CDDFFF"/>
<path d="M18.3743 29.6259C18.2099 29.6256 18.047 29.6578 17.8951 29.7206C17.7432 29.7834 17.6052 29.8757 17.4891 29.992C17.373 30.1084 17.281 30.2466 17.2184 30.3986C17.1559 30.5506 17.124 30.7135 17.1246 30.8779V31.5015C17.1246 32.1937 17.6821 32.7512 18.3766 32.7512H17.1246C16.9602 32.7515 16.7974 32.7193 16.6455 32.6564C16.4936 32.5936 16.3556 32.5014 16.2395 32.385C16.1234 32.2687 16.0314 32.1305 15.9688 31.9785C15.9063 31.8264 15.8744 31.6636 15.875 31.4992V30.8755C15.875 30.1834 16.4325 29.6235 17.127 29.6235L18.3743 29.6259Z" fill="#F8F8F8"/>
<path d="M22.1256 29.6259C22.8177 29.6259 23.3776 30.1834 23.3776 30.8779V31.5015C23.3776 32.1937 22.8177 32.7512 22.1256 32.7512H23.3776C24.0674 32.7512 24.6249 32.1937 24.6249 31.4992V30.8755C24.6255 30.7111 24.5936 30.5482 24.5311 30.3962C24.4685 30.2442 24.3765 30.106 24.2604 29.9897C24.1443 29.8733 24.0063 29.7811 23.8544 29.7183C23.7025 29.6554 23.5396 29.6232 23.3752 29.6235L22.1256 29.6259ZM22.1256 32.7512C22.8177 32.7512 23.3776 33.3086 23.3776 34.0008V34.6268C23.3776 35.3189 22.8177 35.8764 22.1256 35.8764H23.3776C24.0674 35.8764 24.6249 35.3189 24.6249 34.6244V34.0008C24.6255 33.8364 24.5936 33.6735 24.5311 33.5215C24.4685 33.3695 24.3765 33.2313 24.2604 33.1149C24.1443 32.9986 24.0063 32.9063 23.8544 32.8435C23.7025 32.7807 23.5396 32.7485 23.3752 32.7488L22.1256 32.7512Z" fill="#B3D0FF"/>
<path d="M18.3743 32.7485C18.2099 32.7482 18.047 32.7804 17.8951 32.8433C17.7432 32.9061 17.6052 32.9983 17.4891 33.1147C17.373 33.231 17.281 33.3692 17.2184 33.5212C17.1559 33.6732 17.124 33.8361 17.1246 34.0005V34.6265C17.1246 35.3187 17.6821 35.8762 18.3766 35.8762H17.1246C16.9602 35.8765 16.7974 35.8443 16.6455 35.7814C16.4936 35.7186 16.3556 35.6264 16.2395 35.51C16.1234 35.3937 16.0314 35.2555 15.9688 35.1035C15.9063 34.9514 15.8744 34.7886 15.875 34.6242V34.0005C15.875 33.3084 16.4325 32.7485 17.127 32.7485H18.3743Z" fill="#F8F8F8"/>
<path d="M17.1246 35.8764H23.3752C24.0673 35.8764 24.6272 36.4339 24.6272 37.126V37.752C24.6272 38.4442 24.0673 39.0016 23.3752 39.0016H17.1246C16.9603 39.002 16.7974 38.9698 16.6455 38.9069C16.4936 38.8441 16.3556 38.7518 16.2395 38.6355C16.1234 38.5191 16.0314 38.381 15.9688 38.229C15.9063 38.0769 15.8744 37.914 15.875 37.7497V37.126C15.875 36.4339 16.4325 35.874 17.127 35.874L17.1246 35.8764ZM17.1246 39.0016H23.3752C24.0673 39.0016 24.6272 39.5591 24.6272 40.2513V40.8749C24.6272 41.5694 24.0673 42.1269 23.3752 42.1269H17.1246C16.9603 42.1272 16.7974 42.095 16.6455 42.0322C16.4936 41.9694 16.3556 41.8771 16.2395 41.7608C16.1234 41.6444 16.0314 41.5062 15.9688 41.3542C15.9063 41.2022 15.8744 41.0393 15.875 40.8749V40.2513C15.875 39.5591 16.4325 38.9993 17.127 38.9993L17.1246 39.0016Z" fill="#CDDFFF"/>
<path d="M18.3743 35.8764C18.2101 35.8761 18.0474 35.9082 17.8957 35.9709C17.7439 36.0336 17.6061 36.1256 17.49 36.2417C17.3739 36.3578 17.2818 36.4957 17.2191 36.6474C17.1564 36.7992 17.1243 36.9618 17.1246 37.126V37.7497C17.1246 38.4442 17.6821 39.0016 18.3766 39.0016H17.1246C16.9602 39.002 16.7974 38.9698 16.6455 38.9069C16.4936 38.8441 16.3556 38.7518 16.2395 38.6355C16.1234 38.5191 16.0314 38.381 15.9688 38.229C15.9063 38.0769 15.8744 37.914 15.875 37.7497V37.126C15.875 36.4339 16.4325 35.874 17.127 35.874L18.3743 35.8764Z" fill="#F8F8F8"/>
<path d="M22.1256 35.8764C22.8177 35.8764 23.3776 36.4339 23.3776 37.126V37.7497C23.3776 38.4442 22.8177 39.0016 22.1256 39.0016H23.3776C24.0674 39.0016 24.6249 38.4442 24.6249 37.7497V37.126C24.6255 36.9616 24.5936 36.7987 24.5311 36.6467C24.4685 36.4947 24.3765 36.3565 24.2604 36.2402C24.1443 36.1238 24.0063 36.0316 23.8544 35.9687C23.7025 35.9059 23.5396 35.8737 23.3752 35.874L22.1256 35.8764ZM22.1256 39.0016C22.8177 39.0016 23.3776 39.5591 23.3776 40.2513V40.8749C23.3776 41.5694 22.8177 42.1269 22.1256 42.1269H23.3776C24.0674 42.1269 24.6249 41.5694 24.6249 40.8749V40.2513C24.6255 40.0869 24.5936 39.924 24.5311 39.772C24.4685 39.6199 24.3765 39.4818 24.2604 39.3654C24.1443 39.2491 24.0063 39.1568 23.8544 39.094C23.7025 39.0312 23.5396 38.999 23.3752 38.9993L22.1256 39.0016Z" fill="#B3D0FF"/>
<path d="M18.3743 39.0014C18.2101 39.0011 18.0474 39.0332 17.8957 39.0959C17.7439 39.1586 17.6061 39.2506 17.49 39.3667C17.3739 39.4828 17.2818 39.6207 17.2191 39.7724C17.1564 39.9242 17.1243 40.0868 17.1246 40.251V40.8747C17.1246 41.5692 17.6821 42.1266 18.3766 42.1266H17.1246C16.9602 42.127 16.7974 42.0948 16.6455 42.0319C16.4936 41.9691 16.3556 41.8768 16.2395 41.7605C16.1234 41.6441 16.0314 41.506 15.9688 41.354C15.9063 41.2019 15.8744 41.039 15.875 40.8747V40.251C15.875 39.5589 16.4325 38.999 17.127 38.999L18.3743 39.0014Z" fill="#F8F8F8"/>
<path d="M8.37493 35.8764H14.6254C15.3176 35.8764 15.8774 36.4339 15.8774 37.126V37.752C15.8774 38.4442 15.3176 39.0016 14.6254 39.0016H8.37493C8.21034 39.0023 8.04725 38.9703 7.89507 38.9076C7.74289 38.8449 7.60462 38.7527 7.48824 38.6363C7.37186 38.52 7.27966 38.3817 7.21696 38.2295C7.15427 38.0773 7.12231 37.9142 7.12293 37.7497V37.126C7.12293 36.4339 7.68279 35.874 8.37493 35.874V35.8764ZM8.37493 39.0016H14.6254C15.3176 39.0016 15.8774 39.5591 15.8774 40.2513V40.8749C15.8774 41.5694 15.3176 42.1269 14.6254 42.1269H8.37493C8.21034 42.1275 8.04725 42.0956 7.89507 42.0329C7.74289 41.9702 7.60462 41.878 7.48824 41.7616C7.37186 41.6452 7.27966 41.5069 7.21696 41.3548C7.15427 41.2026 7.12231 41.0395 7.12293 40.8749V40.2513C7.12293 39.5591 7.68279 38.9993 8.37493 38.9993V39.0016Z" fill="#E2E7FA"/>
<path d="M37.7589 14.6255C38.1062 14.6255 38.3849 14.9042 38.3849 15.2491V16.5011C38.3849 16.5832 38.3687 16.6645 38.3372 16.7403C38.3057 16.8161 38.2596 16.885 38.2014 16.9429C38.1433 17.0009 38.0742 17.0468 37.9983 17.078C37.9224 17.1092 37.841 17.1251 37.7589 17.1248H39.0109C39.1763 17.1248 39.3349 17.0591 39.4519 16.9421C39.5688 16.8251 39.6345 16.6665 39.6345 16.5011V15.2491C39.6345 15.167 39.6183 15.0857 39.5868 15.0099C39.5554 14.9341 39.5092 14.8653 39.451 14.8073C39.3929 14.7494 39.3239 14.7035 39.2479 14.6723C39.172 14.6411 39.0906 14.6252 39.0085 14.6255H37.7589Z" fill="#E6EFFF"/>
<path d="M37.7495 14.6255C37.5841 14.6255 37.4255 14.6912 37.3085 14.8081C37.1916 14.9251 37.1259 15.0837 37.1259 15.2491V16.5011C37.1259 16.846 37.4046 17.1248 37.7495 17.1248H36.4999C36.3345 17.1248 36.1759 17.059 36.0589 16.9421C35.942 16.8251 35.8763 16.6665 35.8763 16.5011V15.2491C35.8763 14.9042 36.155 14.6255 36.4999 14.6255H37.7495ZM9.62456 35.8763C9.46037 35.876 9.29773 35.9081 9.14598 35.9708C8.99422 36.0335 8.85634 36.1255 8.74024 36.2416C8.62414 36.3577 8.5321 36.4956 8.46942 36.6474C8.40673 36.7991 8.37462 36.9617 8.37493 37.1259V37.7496C8.37493 38.4441 8.93242 39.0016 9.62692 39.0016H8.37493C8.21034 39.0022 8.04725 38.9702 7.89507 38.9075C7.74289 38.8448 7.60462 38.7526 7.48824 38.6363C7.37186 38.5199 7.27966 38.3816 7.21696 38.2294C7.15427 38.0772 7.12231 37.9142 7.12293 37.7496V37.1259C7.12293 36.4338 7.68279 35.8739 8.37493 35.8739L9.62456 35.8763Z" fill="#F8F8F8"/>
<path d="M13.3758 35.8764C14.0679 35.8764 14.6254 36.4339 14.6254 37.126V37.7497C14.6254 38.4442 14.0679 39.0017 13.3734 39.0017H14.6254C15.3175 39.0017 15.8774 38.4442 15.8774 37.7497V37.126C15.878 36.9614 15.8461 36.7984 15.7834 36.6462C15.7207 36.494 15.6285 36.3557 15.5121 36.2393C15.3957 36.123 15.2574 36.0308 15.1053 35.9681C14.9531 35.9054 14.79 35.8734 14.6254 35.874L13.3758 35.8764ZM13.3758 39.0017C14.0679 39.0017 14.6254 39.5591 14.6254 40.2513V40.8749C14.6254 41.5694 14.0679 42.1269 13.3734 42.1269H14.6254C15.3175 42.1269 15.8774 41.5694 15.8774 40.8749V40.2513C15.878 40.0867 15.8461 39.9236 15.7834 39.7714C15.7207 39.6192 15.6285 39.481 15.5121 39.3646C15.3957 39.2482 15.2574 39.156 15.1053 39.0933C14.9531 39.0306 14.79 38.9987 14.6254 38.9993L13.3758 39.0017Z" fill="#E6EFFF"/>
<path d="M9.62456 39.0014C9.46037 39.0011 9.29773 39.0332 9.14598 39.0959C8.99422 39.1586 8.85634 39.2506 8.74024 39.3667C8.62414 39.4828 8.53211 39.6207 8.46942 39.7724C8.40673 39.9242 8.37462 40.0868 8.37493 40.251V40.8747C8.37493 41.5692 8.93242 42.1266 9.62692 42.1266H8.37493C8.21034 42.1273 8.04725 42.0953 7.89507 42.0326C7.74289 41.9699 7.60462 41.8777 7.48824 41.7613C7.37186 41.645 7.27966 41.5067 7.21696 41.3545C7.15427 41.2023 7.12231 41.0392 7.12293 40.8747V40.251C7.12293 39.5589 7.68279 38.999 8.37493 38.999L9.62456 39.0014Z" fill="#F8F8F8"/>
<path d="M27.75 5.87557C27.5463 5.87791 27.3428 5.89131 27.1406 5.91573C28.5118 6.07282 29.7775 6.72865 30.6966 7.75838C31.6157 8.78811 32.124 10.1198 32.1249 11.5001C32.1232 12.8851 31.6105 14.2207 30.6851 15.2512C29.7597 16.2816 28.4867 16.9344 27.1099 17.0845C27.8726 17.176 28.6459 17.1103 29.3823 16.8915C30.1186 16.6727 30.8023 16.3054 31.3912 15.8122C31.9802 15.319 32.4618 14.7104 32.8065 14.0239C33.1512 13.3374 33.3517 12.5876 33.3955 11.8207C33.4393 11.0538 33.3255 10.286 33.0612 9.56478C32.7969 8.84352 32.3877 8.18404 31.8587 7.627C31.3298 7.06997 30.6923 6.62719 29.9857 6.32597C29.279 6.02474 28.5182 5.87146 27.75 5.87557Z" fill="#E6EFFF"/>
<path d="M27.7477 5.25187C26.0903 5.25187 24.5008 5.91028 23.3288 7.08226C22.1568 8.25424 21.4984 9.84378 21.4984 11.5012C21.4984 13.1586 22.1568 14.7482 23.3288 15.9202C24.5008 17.0921 26.0903 17.7505 27.7477 17.7505C28.5686 17.7505 29.3814 17.5889 30.1397 17.2748C30.898 16.9606 31.5871 16.5002 32.1675 15.9198C32.7479 15.3394 33.2083 14.6503 33.5225 13.892C33.8366 13.1337 33.9982 12.3209 33.9982 11.5C33.9982 10.6792 33.8366 9.86641 33.5225 9.10806C33.2083 8.34971 32.7479 7.66066 32.1675 7.08025C31.5871 6.49983 30.898 6.03942 30.1397 5.7253C29.3814 5.41119 28.5686 5.25187 27.7477 5.25187ZM37.1259 5.8826V13.9969H36.5093C35.8266 13.9969 35.2573 14.5639 35.2573 15.2489V16.5009H34.629C34.1323 16.504 33.6567 16.7025 33.3053 17.0535C32.9538 17.4046 32.7547 17.8798 32.751 18.3765V18.9978C32.751 19.4797 32.9423 19.9167 33.247 20.2498C32.9306 20.5902 32.7536 21.0371 32.751 21.5018V22.1278C32.751 22.4231 32.8289 22.7018 32.9541 22.9522C32.6982 22.8208 32.415 22.7512 32.1273 22.7491H25.8792C25.3821 22.7503 24.9056 22.9478 24.5534 23.2987C24.2013 23.6495 24.0019 24.1252 23.9988 24.6223V25.2507C23.9988 25.7326 24.1902 26.1672 24.4925 26.5003C24.1778 26.8416 24.0017 27.2881 23.9988 27.7523V28.3736C24.0014 28.664 24.0727 28.9498 24.2067 29.2075C23.9502 29.075 23.6662 29.0046 23.3776 29.0019H17.1341C16.6375 29.0038 16.1616 29.2016 15.8099 29.5524C15.4583 29.9032 15.2593 30.3785 15.2561 30.8752V31.5036C15.2561 31.9831 15.4451 32.4178 15.7475 32.7508C15.4326 33.0903 15.2557 33.5351 15.2514 33.9981V34.6265C15.2514 34.9241 15.327 35.2029 15.4546 35.4533C15.1987 35.3218 14.9155 35.2522 14.6278 35.2501H8.37491C7.87864 35.2532 7.40361 35.4519 7.05291 35.803C6.7022 36.1542 6.50412 36.6295 6.50164 37.1257V37.7494C6.50164 38.2289 6.69062 38.6659 6.99299 39.0014C6.67905 39.342 6.5038 39.7877 6.50164 40.251V40.877C6.50164 41.9069 7.34733 42.7502 8.37491 42.7502H14.6231C15.105 42.7502 15.542 42.5613 15.8751 42.2589C16.2168 42.5726 16.6632 42.7478 17.127 42.7502H23.3752C23.8547 42.7502 24.2918 42.5613 24.6248 42.2589C24.9666 42.5726 25.4129 42.7478 25.8768 42.7502H32.125C32.6069 42.7502 33.0439 42.5613 33.377 42.2589C33.7187 42.5726 34.1651 42.7478 34.629 42.7502H40.87C41.3667 42.7484 41.8426 42.5506 42.1943 42.1998C42.5459 41.849 42.7449 41.3737 42.748 40.877V40.251C42.746 39.7866 42.5699 39.3398 42.2543 38.999C42.5696 38.6588 42.7465 38.2132 42.7504 37.7494V37.1257C42.7471 36.6611 42.5701 36.2145 42.2543 35.8737C42.5696 35.5345 42.7466 35.0896 42.7504 34.6265V34.0005C42.7472 33.5377 42.5711 33.0928 42.2567 32.7532C42.5703 32.4133 42.7455 31.9684 42.748 31.5059V30.8776C42.746 30.4131 42.5699 29.9664 42.2543 29.6256C42.5696 29.2854 42.7465 28.8398 42.7504 28.376V27.7547C42.7471 27.2901 42.5701 26.8435 42.2543 26.5027C42.5702 26.1629 42.7472 25.717 42.7504 25.2531V24.6223C42.7472 24.1595 42.5711 23.7146 42.2567 23.3751C42.5703 23.0351 42.7455 22.5903 42.748 22.1278V21.4994C42.7455 21.0358 42.5693 20.59 42.2543 20.2498C42.5701 19.909 42.7471 19.4624 42.7504 18.9978V18.3765C42.7473 17.879 42.5481 17.4028 42.1961 17.0512C41.844 16.6996 41.3676 16.501 40.87 16.4986H40.2558V15.2466C40.2558 14.5662 39.6889 13.9969 39.0062 13.9969H38.3731V10.6638L42.3701 8.9488C42.4819 8.90016 42.577 8.81992 42.6439 8.71795C42.7107 8.61597 42.7463 8.4967 42.7463 8.37477C42.7463 8.25284 42.7107 8.13357 42.6439 8.03159C42.577 7.92962 42.4819 7.84938 42.3701 7.80074L38.3755 6.08575V5.8826C38.359 5.05817 37.1542 5.04163 37.1259 5.8826ZM27.7477 6.50151C28.4041 6.50151 29.0541 6.6308 29.6606 6.88199C30.267 7.13319 30.8181 7.50138 31.2822 7.96554C31.7464 8.42969 32.1146 8.98073 32.3658 9.58718C32.617 10.1936 32.7463 10.8436 32.7463 11.5C32.7463 12.1564 32.617 12.8064 32.3658 13.4129C32.1146 14.0193 31.7464 14.5704 31.2822 15.0345C30.8181 15.4987 30.267 15.8669 29.6606 16.1181C29.0541 16.3693 28.4041 16.4986 27.7477 16.4986C27.0913 16.4986 26.4413 16.3693 25.8349 16.1181C25.2284 15.8669 24.6774 15.4987 24.2132 15.0345C23.7491 14.5704 23.3809 14.0193 23.1297 13.4129C22.8785 12.8064 22.7492 12.1564 22.7492 11.5C22.7492 10.8436 22.8785 10.1936 23.1297 9.58718C23.3809 8.98073 23.7491 8.42969 24.2132 7.96554C24.6774 7.50138 25.2284 7.13319 25.8349 6.88199C26.4413 6.6308 27.0913 6.50151 27.7477 6.50151ZM38.3779 7.44404L40.5393 8.37477L38.3755 9.30313L38.3779 7.44404ZM27.7477 7.75586C27.5823 7.75586 27.4237 7.82156 27.3068 7.93852C27.1898 8.05547 27.1241 8.2141 27.1241 8.37949C26.628 8.38441 26.1535 8.58352 25.8024 8.93414C25.4514 9.28477 25.2516 9.75899 25.2461 10.2551C25.2461 11.2827 26.0965 12.1331 27.1241 12.1307V13.3757H25.8721C25.7868 13.3704 25.7014 13.3827 25.621 13.4117C25.5406 13.4407 25.4671 13.4859 25.4048 13.5444C25.3426 13.603 25.293 13.6736 25.2591 13.7521C25.2252 13.8305 25.2077 13.915 25.2077 14.0005C25.2077 14.0859 25.2252 14.1705 25.2591 14.2489C25.293 14.3273 25.3426 14.398 25.4048 14.4565C25.4671 14.515 25.5406 14.5602 25.621 14.5892C25.7014 14.6183 25.7868 14.6305 25.8721 14.6253H27.1241C27.1339 14.7844 27.204 14.9337 27.3201 15.0429C27.4362 15.1521 27.5895 15.2128 27.7489 15.2128C27.9083 15.2128 28.0617 15.1521 28.1778 15.0429C28.2939 14.9337 28.3639 14.7844 28.3737 14.6253C29.5147 14.6158 30.2635 13.6568 30.247 12.752C30.2433 12.2563 30.0447 11.782 29.6942 11.4315C29.3437 11.081 28.8694 10.8825 28.3737 10.8788V9.63385H29.6257C29.7917 9.63385 29.951 9.5679 30.0684 9.4505C30.1858 9.3331 30.2517 9.17388 30.2517 9.00785C30.2517 8.84183 30.1858 8.6826 30.0684 8.56521C29.951 8.44781 29.7917 8.38186 29.6257 8.38186H28.3737C28.374 8.29956 28.3581 8.21802 28.3267 8.14193C28.2954 8.06584 28.2493 7.99671 28.1911 7.93851C28.1329 7.88032 28.0637 7.83422 27.9877 7.80288C27.9116 7.77153 27.83 7.75555 27.7477 7.75586ZM27.1241 9.63385V10.8788C27.0415 10.8807 26.9593 10.8659 26.8825 10.8353C26.8057 10.8047 26.7359 10.7589 26.6772 10.7007C26.6185 10.6424 26.5722 10.573 26.541 10.4964C26.5098 10.4198 26.4944 10.3378 26.4957 10.2551C26.4954 10.1728 26.5115 10.0913 26.543 10.0153C26.5746 9.93936 26.621 9.87043 26.6795 9.81258C26.738 9.75473 26.8075 9.70913 26.8838 9.67844C26.9601 9.64775 27.0418 9.63259 27.1241 9.63385ZM28.3761 12.1307C28.4581 12.1291 28.5396 12.1441 28.6157 12.1748C28.6918 12.2054 28.761 12.2511 28.819 12.3091C28.877 12.3672 28.9227 12.4363 28.9533 12.5124C28.984 12.5885 28.999 12.67 28.9974 12.752C28.9974 13.1064 28.7328 13.3757 28.3737 13.3757L28.3761 12.1307ZM19.7893 13.2741L18.9082 14.1481C18.7904 14.2653 18.724 14.4244 18.7235 14.5905C18.7231 14.7567 18.7887 14.9162 18.9058 15.034C19.023 15.1517 19.1821 15.2182 19.3483 15.2186C19.5144 15.219 19.6739 15.1535 19.7917 15.0363L20.6681 14.1552C20.7842 14.038 20.8493 13.8796 20.8493 13.7146C20.8493 13.5496 20.7842 13.3913 20.6681 13.2741C20.6109 13.2155 20.5425 13.169 20.4671 13.1372C20.3916 13.1054 20.3106 13.089 20.2287 13.089C20.1468 13.089 20.0658 13.1054 19.9903 13.1372C19.9149 13.169 19.8465 13.2155 19.7893 13.2741ZM36.5093 15.2466H39.0086V16.4986H36.5093V15.2466ZM21.1169 17.245L20.231 18.1285C20.1136 18.246 20.0476 18.4053 20.0476 18.5714C20.0476 18.7376 20.1136 18.8969 20.231 19.0143C20.3485 19.1318 20.5078 19.1978 20.674 19.1978C20.8401 19.1978 20.9994 19.1318 21.1169 19.0143L22.0027 18.1285C22.1127 18.0096 22.1723 17.8527 22.169 17.6908C22.1658 17.5289 22.0999 17.3746 21.9852 17.2602C21.8705 17.1459 21.716 17.0804 21.5541 17.0776C21.3922 17.0747 21.2355 17.1348 21.1169 17.245ZM34.629 17.7482H40.8724C40.9554 17.7462 41.038 17.7612 41.1151 17.7921C41.1922 17.823 41.2623 17.8692 41.321 17.9279C41.3798 17.9866 41.426 18.0567 41.4569 18.1338C41.4878 18.2109 41.5027 18.2935 41.5008 18.3765V18.9978C41.5027 19.0809 41.4878 19.1634 41.4569 19.2406C41.426 19.3177 41.3798 19.3877 41.321 19.4465C41.2623 19.5052 41.1922 19.5514 41.1151 19.5823C41.038 19.6132 40.9554 19.6281 40.8724 19.6262H34.629C34.5459 19.6281 34.4633 19.6132 34.3862 19.5823C34.3091 19.5514 34.2391 19.5052 34.1803 19.4465C34.1216 19.3877 34.0754 19.3177 34.0445 19.2406C34.0136 19.1634 33.9987 19.0809 34.0006 18.9978V18.3765C33.9987 18.2935 34.0136 18.2109 34.0445 18.1338C34.0754 18.0567 34.1216 17.9866 34.1803 17.9279C34.2391 17.8692 34.3091 17.823 34.3862 17.7921C34.4633 17.7612 34.5459 17.7462 34.629 17.7482ZM25.0949 18.575L24.2138 19.4561C24.0977 19.5733 24.0325 19.7316 24.0325 19.8967C24.0325 20.0617 24.0977 20.22 24.2138 20.3372C24.4571 20.5782 24.8516 20.5782 25.0949 20.3372L25.976 19.4608C26.0345 19.4028 26.081 19.3338 26.1127 19.2578C26.1443 19.1818 26.1607 19.1003 26.1607 19.0179C26.1607 18.9355 26.1443 18.854 26.1127 18.778C26.081 18.7019 26.0345 18.633 25.976 18.575C25.9186 18.5163 25.8501 18.4697 25.7744 18.4379C25.6988 18.4061 25.6175 18.3897 25.5355 18.3897C25.4534 18.3897 25.3722 18.4061 25.2965 18.4379C25.2209 18.4697 25.1523 18.5163 25.0949 18.575ZM15.8751 20.2498C15.709 20.2498 15.5498 20.3158 15.4324 20.4332C15.315 20.5506 15.2491 20.7098 15.2491 20.8758C15.2491 21.0418 15.315 21.2011 15.4324 21.3185C15.5498 21.4358 15.709 21.5018 15.8751 21.5018H16.8058L5.44335 32.2926C5.37825 32.3478 5.32514 32.4158 5.28729 32.4923C5.24944 32.5689 5.22764 32.6523 5.22324 32.7376C5.21884 32.8229 5.23194 32.9081 5.26172 32.9882C5.29149 33.0682 5.33733 33.1413 5.3964 33.2029C5.45547 33.2646 5.52653 33.3135 5.6052 33.3467C5.68388 33.3798 5.76851 33.3966 5.85389 33.3958C5.93927 33.3951 6.0236 33.3769 6.10168 33.3423C6.17977 33.3078 6.24996 33.2576 6.30794 33.1949L17.7483 22.3286V23.3774C17.7486 23.4596 17.7651 23.541 17.7969 23.6168C17.8286 23.6926 17.875 23.7615 17.9333 23.8194C17.9917 23.8773 18.0609 23.9231 18.1369 23.9543C18.213 23.9855 18.2945 24.0014 18.3767 24.0011C18.4589 24.0008 18.5402 23.9843 18.6161 23.9525C18.6919 23.9208 18.7607 23.8744 18.8186 23.816C18.8765 23.7577 18.9224 23.6885 18.9536 23.6124C18.9847 23.5364 19.0006 23.4549 19.0003 23.3727L18.9932 20.916C19.0007 20.8288 18.9895 20.7411 18.9604 20.6586C18.9312 20.5761 18.8848 20.5008 18.8241 20.4378C18.7635 20.3747 18.6902 20.3253 18.6089 20.2929C18.5277 20.2605 18.4404 20.2458 18.3531 20.2498H15.8751ZM34.6313 20.8782H40.8724C41.2315 20.8782 41.5008 21.1427 41.5008 21.4994V22.1278C41.5027 22.2106 41.4878 22.293 41.4568 22.3699C41.4259 22.4467 41.3796 22.5165 41.3208 22.5748C41.262 22.6332 41.1919 22.679 41.1148 22.7093C41.0377 22.7397 40.9552 22.754 40.8724 22.7514H34.629C34.5462 22.7537 34.4639 22.7391 34.387 22.7086C34.31 22.6782 34.2401 22.6324 34.1813 22.5741C34.1226 22.5158 34.0763 22.4462 34.0452 22.3695C34.0142 22.2928 33.999 22.2105 34.0006 22.1278V21.4994C34.0006 21.1451 34.2723 20.8782 34.629 20.8782H34.6313ZM25.8768 24.0011H32.125C32.484 24.0011 32.7486 24.2656 32.7486 24.6223V25.2507C32.7509 25.3332 32.7363 25.4153 32.7058 25.492C32.6753 25.5687 32.6294 25.6384 32.571 25.6967C32.5127 25.7551 32.443 25.801 32.3663 25.8315C32.2896 25.862 32.2075 25.8766 32.125 25.8743H25.8792C25.7964 25.8769 25.7139 25.8626 25.6368 25.8322C25.5597 25.8019 25.4896 25.7561 25.4308 25.6977C25.372 25.6394 25.3257 25.5696 25.2947 25.4928C25.2638 25.4159 25.2489 25.3335 25.2508 25.2507V24.6223C25.2508 24.268 25.5201 24.0011 25.8792 24.0011H25.8768ZM34.6266 24.0011H40.87C41.2291 24.0011 41.4984 24.2656 41.4984 24.6223V25.2507C41.5004 25.3335 41.4854 25.4159 41.4545 25.4928C41.4235 25.5696 41.3772 25.6394 41.3184 25.6977C41.2596 25.7561 41.1895 25.8019 41.1124 25.8322C41.0353 25.8626 40.9529 25.8769 40.87 25.8743H34.6266C34.5439 25.8766 34.4615 25.862 34.3846 25.8315C34.3077 25.8011 34.2377 25.7553 34.179 25.697C34.1202 25.6387 34.0739 25.5691 34.0429 25.4924C34.0118 25.4157 33.9966 25.3334 33.9982 25.2507V24.6223C33.9982 24.268 34.2699 24.0011 34.6266 24.0011ZM25.8792 27.124H32.1273C32.4864 27.124 32.751 27.3956 32.751 27.7523V28.3736C32.7536 28.4564 32.7392 28.5389 32.7089 28.616C32.6785 28.6931 32.6328 28.7632 32.5744 28.822C32.516 28.8808 32.4463 28.9271 32.3694 28.958C32.2925 28.989 32.2102 29.0039 32.1273 29.0019H25.8792C25.7961 29.0039 25.7136 28.989 25.6364 28.9581C25.5593 28.9272 25.4893 28.881 25.4306 28.8222C25.3718 28.7635 25.3256 28.6934 25.2947 28.6163C25.2638 28.5392 25.2489 28.4566 25.2508 28.3736V27.7523C25.2489 27.6693 25.2638 27.5867 25.2947 27.5096C25.3256 27.4325 25.3718 27.3624 25.4306 27.3037C25.4893 27.2449 25.5593 27.1987 25.6364 27.1678C25.7136 27.1369 25.7961 27.122 25.8792 27.124ZM34.629 27.124H40.8724C40.9554 27.122 41.038 27.1369 41.1151 27.1678C41.1922 27.1987 41.2623 27.2449 41.321 27.3037C41.3798 27.3624 41.426 27.4325 41.4569 27.5096C41.4878 27.5867 41.5027 27.6693 41.5008 27.7523V28.3736C41.5027 28.4566 41.4878 28.5392 41.4569 28.6163C41.426 28.6934 41.3798 28.7635 41.321 28.8222C41.2623 28.881 41.1922 28.9272 41.1151 28.9581C41.038 28.989 40.9554 29.0039 40.8724 29.0019H34.629C34.5459 29.0039 34.4633 28.989 34.3862 28.9581C34.3091 28.9272 34.2391 28.881 34.1803 28.8222C34.1216 28.7635 34.0754 28.6934 34.0445 28.6163C34.0136 28.5392 33.9987 28.4566 34.0006 28.3736V27.7523C33.9987 27.6693 34.0136 27.5867 34.0445 27.5096C34.0754 27.4325 34.1216 27.3624 34.1803 27.3037C34.2391 27.2449 34.3091 27.1987 34.3862 27.1678C34.4633 27.1369 34.5459 27.122 34.629 27.124ZM17.1341 30.2539H23.3776C23.7319 30.2539 23.9988 30.5185 23.9988 30.8752V31.5036C24.0008 31.5857 23.986 31.6673 23.9555 31.7436C23.925 31.8199 23.8793 31.8891 23.8212 31.9472C23.7631 32.0053 23.6938 32.051 23.6176 32.0815C23.5413 32.112 23.4597 32.1268 23.3776 32.1248H17.1341C17.0515 32.1274 16.9692 32.1132 16.8923 32.083C16.8154 32.0527 16.7454 32.0072 16.6866 31.9491C16.6278 31.891 16.5815 31.8215 16.5504 31.7449C16.5193 31.6683 16.5041 31.5862 16.5058 31.5036V30.8752C16.5058 30.5185 16.7774 30.2539 17.1341 30.2539ZM25.8792 30.2539H32.1273C32.4864 30.2539 32.751 30.5185 32.751 30.8752V31.5036C32.7529 31.5859 32.7381 31.6677 32.7074 31.7442C32.6768 31.8206 32.6309 31.89 32.5725 31.9481C32.5142 32.0062 32.4446 32.0518 32.3681 32.0822C32.2916 32.1126 32.2097 32.1271 32.1273 32.1248H25.8792C25.7966 32.1274 25.7143 32.1132 25.6374 32.083C25.5604 32.0527 25.4904 32.0072 25.4317 31.9491C25.3729 31.891 25.3265 31.8215 25.2955 31.7449C25.2644 31.6683 25.2492 31.5862 25.2508 31.5036V30.8752C25.2508 30.5185 25.5201 30.2539 25.8792 30.2539ZM34.629 30.2539H40.8724C41.2315 30.2539 41.5008 30.5185 41.5008 30.8752V31.5036C41.5024 31.5862 41.4872 31.6683 41.4561 31.7449C41.425 31.8215 41.3787 31.891 41.3199 31.9491C41.2611 32.0072 41.1912 32.0527 41.1142 32.083C41.0373 32.1132 40.955 32.1274 40.8724 32.1248H34.629C34.5464 32.1271 34.4643 32.1126 34.3875 32.0823C34.3107 32.0519 34.2409 32.0064 34.1822 31.9483C34.1235 31.8903 34.0771 31.8209 34.0459 31.7445C34.0147 31.6681 33.9993 31.5861 34.0006 31.5036V30.8752C34.0006 30.5185 34.2723 30.2539 34.629 30.2539ZM17.127 33.3745H23.3776C23.7319 33.3745 23.9988 33.6414 23.9988 33.9981V34.6265C24.0011 34.7088 23.9866 34.7907 23.9562 34.8672C23.9258 34.9438 23.8802 35.0133 23.8221 35.0716C23.764 35.13 23.6946 35.1759 23.6182 35.2066C23.5417 35.2372 23.4599 35.2521 23.3776 35.2501H17.127C17.0444 35.2524 16.9622 35.2378 16.8854 35.2073C16.8086 35.1768 16.7388 35.131 16.6802 35.0726C16.6216 35.0143 16.5756 34.9447 16.5448 34.868C16.514 34.7913 16.4991 34.7091 16.5011 34.6265V34.0005C16.5011 33.6438 16.7703 33.3745 17.127 33.3745ZM25.8792 33.3745H32.1273C32.4864 33.3745 32.751 33.6414 32.751 33.9981V34.6265C32.7533 34.709 32.7387 34.7911 32.7082 34.8678C32.6776 34.9445 32.6318 35.0141 32.5734 35.0725C32.515 35.1309 32.4454 35.1767 32.3687 35.2073C32.292 35.2378 32.2099 35.2524 32.1273 35.2501H25.8792C25.7964 35.2527 25.7139 35.2384 25.6368 35.208C25.5597 35.1776 25.4896 35.1319 25.4308 35.0735C25.372 35.0151 25.3257 34.9454 25.2947 34.8685C25.2638 34.7917 25.2489 34.7093 25.2508 34.6265V34.0005C25.2508 33.6438 25.5201 33.3745 25.8792 33.3745ZM34.629 33.3745H40.8724C41.2315 33.3745 41.5008 33.6414 41.5008 33.9981V34.6265C41.5027 34.7093 41.4878 34.7917 41.4568 34.8685C41.4259 34.9454 41.3796 35.0151 41.3208 35.0735C41.262 35.1319 41.1919 35.1776 41.1148 35.208C41.0377 35.2384 40.9552 35.2527 40.8724 35.2501H34.629C34.5462 35.2524 34.4639 35.2378 34.387 35.2073C34.31 35.1768 34.2401 35.1311 34.1813 35.0728C34.1226 35.0145 34.0763 34.9449 34.0452 34.8681C34.0142 34.7914 33.999 34.7092 34.0006 34.6265V34.0005C34.0006 33.6438 34.2723 33.3745 34.629 33.3745ZM8.37727 36.4997H14.6254C14.9845 36.4997 15.2514 36.769 15.2514 37.1257V37.7494C15.2537 37.8323 15.2391 37.9148 15.2084 37.9919C15.1778 38.069 15.1318 38.1391 15.0733 38.1979C15.0147 38.2567 14.9448 38.3029 14.8678 38.3338C14.7908 38.3647 14.7084 38.3797 14.6254 38.3777H8.37727C8.29442 38.3793 8.2121 38.3642 8.13526 38.3331C8.05843 38.3021 7.98867 38.2558 7.93018 38.1971C7.8717 38.1384 7.8257 38.0685 7.79495 37.9915C7.7642 37.9146 7.74935 37.8322 7.75127 37.7494V37.1257C7.74967 37.0431 7.76476 36.961 7.79565 36.8843C7.82655 36.8076 7.8726 36.738 7.93105 36.6795C7.9895 36.6211 8.05915 36.575 8.13583 36.5441C8.2125 36.5132 8.29462 36.4981 8.37727 36.4997ZM17.127 36.4997H23.3776C23.7319 36.4997 23.9988 36.769 23.9988 37.1257V37.7494C24.0014 37.832 23.9872 37.9143 23.9569 37.9912C23.9267 38.0681 23.8812 38.1381 23.8231 38.1969C23.7649 38.2557 23.6955 38.302 23.6189 38.3331C23.5423 38.3642 23.4602 38.3794 23.3776 38.3777H17.127C17.0442 38.3793 16.9619 38.3642 16.885 38.3331C16.8082 38.3021 16.7384 38.2558 16.68 38.1971C16.6215 38.1384 16.5755 38.0685 16.5447 37.9915C16.514 37.9146 16.4991 37.8322 16.5011 37.7494V37.1257C16.4994 37.0431 16.5145 36.961 16.5454 36.8843C16.5763 36.8076 16.6224 36.738 16.6808 36.6795C16.7393 36.6211 16.8089 36.575 16.8856 36.5441C16.9623 36.5132 17.0444 36.4981 17.127 36.4997ZM25.8792 36.4997H32.1273C32.4864 36.4997 32.751 36.769 32.751 37.1257V37.7494C32.7536 37.8322 32.7392 37.9147 32.7089 37.9918C32.6785 38.0689 32.6328 38.1389 32.5744 38.1978C32.516 38.2566 32.4463 38.3029 32.3694 38.3338C32.2925 38.3647 32.2102 38.3797 32.1273 38.3777H25.8792C25.7961 38.3797 25.7136 38.3647 25.6364 38.3338C25.5593 38.303 25.4893 38.2567 25.4306 38.198C25.3718 38.1393 25.3256 38.0692 25.2947 37.9921C25.2638 37.915 25.2489 37.8324 25.2508 37.7494V37.1257C25.2492 37.0429 25.2644 36.9606 25.2954 36.8837C25.3265 36.8069 25.3727 36.7371 25.4314 36.6786C25.4901 36.6202 25.5601 36.5742 25.637 36.5434C25.714 36.5127 25.7963 36.4978 25.8792 36.4997ZM34.629 36.4997H40.8724C40.9552 36.4978 41.0376 36.5127 41.1146 36.5434C41.1915 36.5742 41.2615 36.6202 41.3202 36.6786C41.3789 36.7371 41.4251 36.8069 41.4562 36.8837C41.4872 36.9606 41.5024 37.0429 41.5008 37.1257V37.7494C41.5027 37.8324 41.4878 37.915 41.4569 37.9921C41.426 38.0692 41.3798 38.1393 41.321 38.198C41.2623 38.2567 41.1922 38.303 41.1151 38.3338C41.038 38.3647 40.9554 38.3797 40.8724 38.3777H34.629C34.5459 38.3797 34.4633 38.3647 34.3862 38.3338C34.3091 38.303 34.2391 38.2567 34.1803 38.198C34.1216 38.1393 34.0754 38.0692 34.0445 37.9921C34.0136 37.915 33.9987 37.8324 34.0006 37.7494V37.1257C33.999 37.0429 34.0142 36.9606 34.0452 36.8837C34.0762 36.8069 34.1225 36.7371 34.1812 36.6786C34.2399 36.6202 34.3098 36.5742 34.3868 36.5434C34.4637 36.5127 34.5461 36.4978 34.629 36.4997ZM8.37727 39.6274H14.6254C14.9845 39.6274 15.2514 39.8943 15.2514 40.251V40.877C15.2537 40.9597 15.2391 41.042 15.2084 41.1189C15.1777 41.1957 15.1317 41.2655 15.073 41.3239C15.0144 41.3823 14.9445 41.4281 14.8675 41.4585C14.7905 41.4889 14.7081 41.5032 14.6254 41.5006H8.37727C8.29465 41.5029 8.21243 41.4883 8.13561 41.4578C8.05879 41.4273 7.98898 41.3815 7.93043 41.3232C7.87187 41.2648 7.82579 41.1952 7.79499 41.1185C7.7642 41.0418 7.74932 40.9596 7.75127 40.877V40.251C7.75127 39.8943 8.02057 39.6274 8.37727 39.6274ZM17.127 39.6274H23.3776C23.7319 39.6274 23.9988 39.8943 23.9988 40.251V40.877C24.0011 40.9593 23.9866 41.0412 23.9562 41.1177C23.9258 41.1943 23.8802 41.2638 23.8221 41.3222C23.764 41.3805 23.6946 41.4264 23.6182 41.4571C23.5417 41.4878 23.4599 41.5026 23.3776 41.5006H17.127C17.0444 41.5029 16.9622 41.4883 16.8854 41.4578C16.8086 41.4273 16.7388 41.3815 16.6802 41.3232C16.6216 41.2648 16.5756 41.1952 16.5448 41.1185C16.514 41.0418 16.4991 40.9596 16.5011 40.877V40.251C16.5011 39.8943 16.7703 39.6274 17.127 39.6274ZM25.8792 39.6274H32.1273C32.4864 39.6274 32.751 39.8943 32.751 40.251V40.877C32.7533 40.9595 32.7387 41.0416 32.7082 41.1183C32.6776 41.195 32.6318 41.2647 32.5734 41.323C32.515 41.3814 32.4454 41.4273 32.3687 41.4578C32.292 41.4883 32.2099 41.5029 32.1273 41.5006H25.8792C25.7964 41.5032 25.7139 41.4889 25.6368 41.4585C25.5597 41.4282 25.4896 41.3824 25.4308 41.324C25.372 41.2657 25.3257 41.1959 25.2947 41.1191C25.2638 41.0422 25.2489 40.9598 25.2508 40.877V40.251C25.2508 39.8943 25.5201 39.6274 25.8792 39.6274ZM34.629 39.6274H40.8724C41.2315 39.6274 41.5008 39.8943 41.5008 40.251V40.877C41.5027 40.9598 41.4878 41.0422 41.4568 41.1191C41.4259 41.1959 41.3796 41.2657 41.3208 41.324C41.262 41.3824 41.1919 41.4282 41.1148 41.4585C41.0377 41.4889 40.9552 41.5032 40.8724 41.5006H34.629C34.5462 41.5029 34.4639 41.4883 34.387 41.4578C34.31 41.4274 34.2401 41.3816 34.1813 41.3233C34.1226 41.265 34.0763 41.1954 34.0452 41.1187C34.0142 41.0419 33.999 40.9597 34.0006 40.877V40.251C34.0006 39.8943 34.2723 39.6274 34.629 39.6274Z" fill="#0361FF"/>
<defs>
<linearGradient id="paint0_linear_4218_17022" x1="4.5" y1="-8.25152e-07" x2="15.5" y2="20.5" gradientUnits="userSpaceOnUse">
<stop stop-color="white"/>
<stop offset="1" stop-color="white" stop-opacity="0"/>
</linearGradient>
<linearGradient id="paint1_linear_4218_17022" x1="44.5" y1="47" x2="28.5" y2="28.5" gradientUnits="userSpaceOnUse">
<stop stop-color="white"/>
<stop offset="1" stop-color="white" stop-opacity="0"/>
</linearGradient>
</defs>
</svg>
