<svg width="21" height="20" viewBox="0 0 21 20" fill="none" xmlns="http://www.w3.org/2000/svg">
    <g clip-path="url(#clip0_1370_4704)">
        <path d="M11.3355 18.9745C10.8818 18.8128 10.4098 18.708 9.93037 18.6624L9.89378 18.6589L9.85707 18.6608C9.40429 18.6844 8.95537 18.7566 8.51801 18.876C7.64375 19.0886 6.85326 19.2617 6.13375 18.9384C5.41614 18.6159 5.02278 17.9144 4.61148 17.1216C4.41647 16.7073 4.17141 16.3185 3.88178 15.9639L3.86281 15.9407L3.84119 15.9199C3.49895 15.5906 3.1165 15.3058 2.70295 15.0723C1.94793 14.6061 1.29081 14.1729 1.02467 13.4737C0.757213 12.7711 0.943957 11.9939 1.20926 11.1686C1.36452 10.7111 1.46267 10.2362 1.50147 9.75462L1.50384 9.7252L1.50274 9.69571C1.48559 9.23866 1.41295 8.78541 1.2864 8.34592C1.07672 7.48333 0.905476 6.7063 1.2148 5.98809C1.62502 5.29609 2.25423 4.76019 3.00331 4.46545L3.01886 4.45933L3.03397 4.45219C3.45203 4.25451 3.84401 4.00583 4.20097 3.71183L4.22374 3.69307L4.24415 3.67177C4.57188 3.32966 4.85665 2.94885 5.09216 2.53779C5.55545 1.75803 5.99084 1.09959 6.69425 0.833555C7.39633 0.568024 8.15175 0.77546 8.99716 1.04531C9.4489 1.20635 9.91897 1.31043 10.3965 1.35514L10.4321 1.35847L10.4678 1.3567C10.922 1.33422 11.3721 1.26001 11.8094 1.13553C12.6757 0.930761 13.4569 0.759523 14.17 1.06918C14.862 1.47472 15.4 2.0988 15.6991 2.84361L15.7043 2.85669L15.7103 2.86944C15.906 3.28718 16.1526 3.67915 16.4444 4.03644L16.4647 4.06133L16.4881 4.08341C16.8373 4.41376 17.2273 4.69811 17.6486 4.92957C18.4026 5.39517 19.0585 5.8282 19.3244 6.52661C19.5898 7.22391 19.3819 7.98697 19.1277 8.83912C18.9682 9.28931 18.8648 9.75741 18.8196 10.2329L18.8165 10.2658L18.8177 10.2989C18.8349 10.7559 18.9075 11.2092 19.034 11.6487C19.2461 12.5209 19.4188 13.3056 19.0952 14.0305C18.7723 14.7479 18.0716 15.1403 17.277 15.5584C16.8634 15.7541 16.4744 15.998 16.1181 16.285L16.0898 16.3078L16.0652 16.3343C15.7402 16.6844 15.4592 17.0728 15.2283 17.4909C14.7629 18.2445 14.3302 18.9002 13.6326 19.1665C13.4104 19.2493 13.175 19.2907 12.938 19.2889C12.3915 19.2615 11.8518 19.1556 11.3355 18.9745ZM11.3355 18.9745C11.3359 18.9746 11.3364 18.9748 11.3368 18.9749L11.1688 19.4459L11.3344 18.9741C11.3348 18.9742 11.3351 18.9744 11.3355 18.9745ZM13.3844 18.7797L13.4328 18.772L13.4788 18.7551C13.826 18.6272 14.0906 18.3599 14.2945 18.1035C14.4932 17.8535 14.6791 17.5542 14.8507 17.2779C14.8583 17.2656 14.8659 17.2534 14.8735 17.2412L14.8789 17.2325L14.884 17.2235C15.1376 16.7753 15.4461 16.3604 15.8023 15.9886C16.1787 15.6732 16.5925 15.4055 17.0345 15.1916C17.6926 14.9409 18.2604 14.4984 18.6642 13.9211L18.7185 13.8434L18.7407 13.7513C18.9056 13.0648 18.8594 12.3448 18.6085 11.6853C18.4717 11.2188 18.3942 10.737 18.378 10.2512C18.4172 9.74524 18.5206 9.24636 18.6858 8.76655C18.9604 8.14253 19.0496 7.45249 18.9426 6.77885L18.9345 6.72757L18.9159 6.67906C18.7852 6.33639 18.5211 6.07363 18.2649 5.86927C18.0109 5.66673 17.7069 5.47788 17.4256 5.30313L17.4041 5.28976L17.3954 5.28433L17.3864 5.27927C16.9386 5.02595 16.5242 4.71783 16.1527 4.36204C15.8409 3.98497 15.5767 3.57095 15.3661 3.12932C15.1138 2.47263 14.6721 1.90549 14.0968 1.50005L14.0186 1.44487L13.9254 1.42253C13.2386 1.2578 12.5184 1.3023 11.8573 1.5501C11.3911 1.69506 10.9071 1.77427 10.4191 1.78545C9.90699 1.7411 9.40261 1.6319 8.91803 1.46046C8.29468 1.1916 7.60678 1.10851 6.93711 1.22141L6.88826 1.22965L6.84198 1.24731C6.49931 1.37807 6.23654 1.64218 6.03219 1.89841C5.82965 2.15236 5.6408 2.45634 5.46605 2.73763L5.45268 2.75914L5.44788 2.76687L5.44336 2.77477C5.18893 3.21956 4.88028 3.63103 4.52451 3.99973C4.14779 4.31553 3.73345 4.58354 3.29094 4.79764C2.6348 5.05001 2.06815 5.49151 1.66297 6.06641L1.60779 6.1447L1.58545 6.23784C1.42084 6.92412 1.46515 7.6438 1.71248 8.30451C1.85484 8.77228 1.93413 9.25694 1.94825 9.74565C1.90381 10.2572 1.79466 10.7611 1.62339 11.2452C1.35452 11.8686 1.27143 12.5565 1.38433 13.2262L1.39257 13.275L1.41023 13.3213C1.54099 13.664 1.8051 13.9267 2.06133 14.1311C2.31528 14.3336 2.61925 14.5225 2.90054 14.6972L2.92206 14.7106L2.9308 14.716L2.93975 14.7211C3.38753 14.9744 3.80196 15.2825 4.17347 15.6383C4.48525 16.0154 4.74943 16.4294 4.96006 16.871C5.21235 17.5277 5.65405 18.0948 6.22933 18.5003L6.30853 18.5561L6.40283 18.5783C7.08814 18.7396 7.80576 18.6935 8.46458 18.4462C8.914 18.3161 9.37694 18.2384 9.8442 18.2145H9.90444C10.413 18.2532 10.9145 18.3569 11.3967 18.5229C12.0207 18.7975 12.7108 18.8867 13.3844 18.7797Z"
              fill="#0361FF" stroke="#0361FF"/>
        <path d="M8.93028 12.1679L8.93077 12.1684C8.94932 12.1866 8.97129 12.201 8.99542 12.2107C9.01802 12.2198 9.0421 12.2246 9.06644 12.2249C9.09144 12.2235 9.11598 12.2175 9.13881 12.2071C9.16315 12.1961 9.18507 12.1804 9.2033 12.1608L9.2139 12.1495L9.22519 12.1388L13.4538 8.13879L13.4624 8.13062L13.4714 8.12287C13.4934 8.10394 13.5114 8.08073 13.5241 8.05466C13.5369 8.02858 13.5443 8.00018 13.5457 7.97117C13.5472 7.94217 13.5427 7.91318 13.5327 7.88595C13.5226 7.85871 13.5071 7.83382 13.487 7.81277C13.467 7.79172 13.443 7.77495 13.4163 7.76349C13.3896 7.75203 13.3609 7.74611 13.3318 7.74609C13.3028 7.74608 13.2741 7.75196 13.2474 7.76339C13.2207 7.77482 13.1966 7.79156 13.1765 7.81259L13.1682 7.82139L13.1594 7.82978L9.42793 11.3841L9.07847 11.7169L8.73345 11.3795L7.16784 9.84815L8.93028 12.1679ZM8.93028 12.1679L6.87314 10.1507L6.87258 10.1502M8.93028 12.1679L6.87258 10.1502M6.87258 10.1502C6.85275 10.1308 6.83693 10.1077 6.82603 10.0822M6.87258 10.1502L6.82603 10.0822M6.82603 10.0822C6.81512 10.0567 6.80935 10.0293 6.80903 10.0016M6.82603 10.0822L6.80903 10.0016M6.80903 10.0016C6.80872 9.97384 6.81387 9.94631 6.82419 9.92057M6.80903 10.0016L6.82419 9.92057M6.82419 9.92057C6.83451 9.89483 6.8498 9.87137 6.86919 9.85154M6.82419 9.92057L6.86919 9.85154M6.86919 9.85154C6.88858 9.83171 6.91168 9.81589 6.93718 9.80498M6.86919 9.85154L6.93718 9.80498M6.93718 9.80498C6.96268 9.79408 6.99008 9.7883 7.01781 9.78799M6.93718 9.80498L7.01781 9.78799M7.01781 9.78799C7.04555 9.78767 7.07307 9.79282 7.09881 9.80315M7.01781 9.78799L7.09881 9.80315M7.09881 9.80315C7.12451 9.81345 7.14793 9.8287 7.16774 9.84804L7.09881 9.80315Z"
              fill="#0361FF" stroke="#0361FF"/>
    </g>
    <defs>
        <clipPath id="clip0_1370_4704">
            <rect width="20" height="20" fill="white" transform="translate(0.163086)"/>
        </clipPath>
    </defs>
</svg>
