<svg width="24" height="24" viewBox="0 0 24 24" fill="none" xmlns="http://www.w3.org/2000/svg">
    <g clip-path="url(#clip0_32_13489)">
        <path d="M13.173 20.9745C12.7193 20.8128 12.2474 20.708 11.7679 20.6624L11.7313 20.6589L11.6946 20.6608C11.2418 20.6844 10.7929 20.7566 10.3555 20.876C9.48127 21.0886 8.69078 21.2617 7.97127 20.9384C7.25367 20.6159 6.86031 19.9144 6.449 19.1216C6.25399 18.7073 6.00893 18.3185 5.7193 17.9639L5.70033 17.9407L5.67872 17.9199C5.33647 17.5906 4.95403 17.3058 4.54047 17.0723C3.78546 16.6061 3.12833 16.1729 2.86219 15.4737C2.59474 14.7711 2.78148 13.9939 3.04678 13.1686C3.20204 12.7111 3.30019 12.2362 3.339 11.7546L3.34137 11.7252L3.34026 11.6957C3.32312 11.2387 3.25047 10.7854 3.12393 10.3459C2.91424 9.48333 2.743 8.7063 3.05233 7.98809C3.46254 7.29609 4.09176 6.76019 4.84083 6.46545L4.85638 6.45933L4.87149 6.45219C5.28955 6.25451 5.68154 6.00583 6.03849 5.71183L6.06127 5.69307L6.08168 5.67177C6.4094 5.32966 6.69418 4.94885 6.92968 4.53779C7.39298 3.75803 7.82837 3.09959 8.53177 2.83355C9.23386 2.56802 9.98928 2.77546 10.8347 3.04531C11.2864 3.20635 11.7565 3.31043 12.234 3.35514L12.2696 3.35847L12.3053 3.3567C12.7595 3.33422 13.2096 3.26001 13.6469 3.13553C14.5132 2.93076 15.2944 2.75952 16.0075 3.06918C16.6996 3.47472 17.2376 4.0988 17.5366 4.84361L17.5419 4.85669L17.5478 4.86944C17.7436 5.28718 17.9901 5.67915 18.2819 6.03644L18.3022 6.06133L18.3256 6.08341C18.6748 6.41376 19.0648 6.69811 19.4861 6.92957C20.2401 7.39517 20.896 7.8282 21.1619 8.52661C21.4273 9.22391 21.2195 9.98697 20.9652 10.8391C20.8058 11.2893 20.7023 11.7574 20.6571 12.2329L20.654 12.2658L20.6553 12.2989C20.6724 12.7559 20.745 13.2092 20.8716 13.6487C21.0836 14.5209 21.2563 15.3056 20.9327 16.0305C20.6098 16.7479 19.9091 17.1403 19.1145 17.5584C18.701 17.7541 18.312 17.998 17.9556 18.285L17.9274 18.3078L17.9027 18.3343C17.5778 18.6844 17.2967 19.0728 17.0658 19.4909C16.6005 20.2445 16.1677 20.9002 15.4701 21.1665C15.2479 21.2493 15.0125 21.2907 14.7755 21.2889C14.229 21.2615 13.6894 21.1556 13.173 20.9745ZM13.173 20.9745C13.1735 20.9746 13.1739 20.9748 13.1743 20.9749L13.0063 21.4459L13.1719 20.9741C13.1723 20.9742 13.1727 20.9744 13.173 20.9745ZM15.2219 20.7797L15.2703 20.772L15.3163 20.7551C15.6635 20.6272 15.9281 20.3599 16.132 20.1035C16.3308 19.8535 16.5166 19.5542 16.6882 19.2779C16.6959 19.2656 16.7035 19.2534 16.711 19.2412L16.7165 19.2325L16.7215 19.2235C16.9751 18.7753 17.2836 18.3604 17.6398 17.9886C18.0162 17.6732 18.4301 17.4055 18.8721 17.1916C19.5301 16.9409 20.0979 16.4984 20.5017 15.9211L20.5561 15.8434L20.5782 15.7513C20.7431 15.0648 20.697 14.3448 20.446 13.6853C20.3092 13.2188 20.2318 12.737 20.2155 12.2512C20.2547 11.7452 20.3581 11.2464 20.5233 10.7665C20.7979 10.1425 20.8872 9.45249 20.7801 8.77885L20.772 8.72757L20.7535 8.67906C20.6227 8.33639 20.3586 8.07363 20.1024 7.86927C19.8484 7.66673 19.5444 7.47788 19.2632 7.30313L19.2416 7.28976L19.2329 7.28433L19.224 7.27927C18.7762 7.02595 18.3617 6.71783 17.9902 6.36204C17.6785 5.98497 17.4143 5.57095 17.2036 5.12932C16.9514 4.47263 16.5096 3.90549 15.9344 3.50005L15.8561 3.44487L15.7629 3.42253C15.0762 3.2578 14.3559 3.3023 13.6948 3.5501C13.2287 3.69506 12.7446 3.77427 12.2566 3.78545C11.7445 3.7411 11.2401 3.6319 10.7556 3.46046C10.1322 3.1916 9.4443 3.10851 8.77463 3.22141L8.72579 3.22965L8.6795 3.24731C8.33683 3.37807 8.07407 3.64218 7.86971 3.89841C7.66717 4.15236 7.47833 4.45634 7.30357 4.73763L7.29021 4.75914L7.28541 4.76687L7.28089 4.77477C7.02646 5.21956 6.71781 5.63103 6.36204 5.99973C5.98531 6.31553 5.57098 6.58354 5.12846 6.79764C4.47233 7.05001 3.90567 7.49151 3.50049 8.06641L3.44532 8.1447L3.42298 8.23784C3.25837 8.92412 3.30268 9.6438 3.55 10.3045C3.69237 10.7723 3.77165 11.2569 3.78577 11.7457C3.74134 12.2572 3.63218 12.7611 3.46091 13.2452C3.19204 13.8686 3.10895 14.5565 3.22186 15.2262L3.23009 15.275L3.24775 15.3213C3.37851 15.664 3.64262 15.9267 3.89885 16.1311C4.1528 16.3336 4.45677 16.5225 4.73806 16.6972L4.75958 16.7106L4.76832 16.716L4.77728 16.7211C5.22506 16.9744 5.63948 17.2825 6.011 17.6383C6.32277 18.0154 6.58695 18.4294 6.79759 18.871C7.04987 19.5277 7.49158 20.0948 8.06686 20.5003L8.14605 20.5561L8.24036 20.5783C8.92567 20.7396 9.64329 20.6935 10.3021 20.4462C10.7515 20.3161 11.2145 20.2384 11.6817 20.2145H11.742C12.2505 20.2532 12.752 20.3569 13.2342 20.5229C13.8583 20.7975 14.5483 20.8867 15.2219 20.7797Z"
              fill="#999BA7" stroke="#999BA7"/>
        <path d="M10.7677 14.1679L10.7682 14.1684C10.7868 14.1866 10.8088 14.201 10.8329 14.2107C10.8555 14.2198 10.8796 14.2246 10.9039 14.2249C10.9289 14.2235 10.9534 14.2175 10.9763 14.2071C11.0006 14.1961 11.0225 14.1804 11.0408 14.1608L11.0514 14.1495L11.0626 14.1388L15.2912 10.1388L15.2999 10.1306L15.3089 10.1229C15.3309 10.1039 15.3488 10.0807 15.3616 10.0547C15.3744 10.0286 15.3817 10.0002 15.3832 9.97117C15.3847 9.94217 15.3802 9.91318 15.3701 9.88595C15.36 9.85871 15.3445 9.83382 15.3245 9.81277C15.3045 9.79172 15.2804 9.77495 15.2538 9.76349C15.2271 9.75203 15.1983 9.74611 15.1693 9.74609C15.1403 9.74608 15.1115 9.75196 15.0848 9.76339C15.0581 9.77482 15.034 9.79156 15.014 9.81259L15.0056 9.82139L14.9968 9.82978L11.2654 13.3841L10.9159 13.7169L10.5709 13.3795L9.00531 11.8481L10.7677 14.1679ZM10.7677 14.1679L8.7106 12.1507L8.71005 12.1502M10.7677 14.1679L8.71005 12.1502M8.71005 12.1502C8.69021 12.1308 8.67439 12.1077 8.66349 12.0822M8.71005 12.1502L8.66349 12.0822M8.66349 12.0822C8.65259 12.0567 8.64681 12.0293 8.6465 12.0016M8.66349 12.0822L8.6465 12.0016M8.6465 12.0016C8.64618 11.9738 8.65133 11.9463 8.66165 11.9206M8.6465 12.0016L8.66165 11.9206M8.66165 11.9206C8.67198 11.8948 8.68727 11.8714 8.70665 11.8515M8.66165 11.9206L8.70665 11.8515M8.70665 11.8515C8.72604 11.8317 8.74914 11.8159 8.77465 11.805M8.70665 11.8515L8.77465 11.805M8.77465 11.805C8.80015 11.7941 8.82755 11.7883 8.85528 11.788M8.77465 11.805L8.85528 11.788M8.85528 11.788C8.88301 11.7877 8.91053 11.7928 8.93628 11.8031M8.85528 11.788L8.93628 11.8031M8.93628 11.8031C8.96197 11.8134 8.98539 11.8287 9.0052 11.848L8.93628 11.8031Z"
              fill="#999BA7" stroke="#999BA7"/>
    </g>
    <defs>
        <clipPath id="clip0_32_13489">
            <rect width="20" height="20" fill="white" transform="translate(2 2)"/>
        </clipPath>
    </defs>
</svg>
