<svg width="32" height="32" viewBox="0 0 32 32" fill="none" xmlns="http://www.w3.org/2000/svg">
    <path fill-rule="evenodd" clip-rule="evenodd"
          d="M5.33337 7.99996C5.33337 7.26358 5.93033 6.66663 6.66671 6.66663H26.6667C27.4031 6.66663 28 7.26358 28 7.99996C28 8.73634 27.4031 9.33329 26.6667 9.33329H6.66671C5.93033 9.33329 5.33337 8.73634 5.33337 7.99996Z"
          fill="#25283C"/>
    <path fill-rule="evenodd" clip-rule="evenodd"
          d="M5.33337 16.3333C5.33337 15.597 5.93033 15 6.66671 15H26.6667C27.4031 15 28 15.597 28 16.3333C28 17.0697 27.4031 17.6667 26.6667 17.6667H6.66671C5.93033 17.6667 5.33337 17.0697 5.33337 16.3333Z"
          fill="#25283C"/>
    <path fill-rule="evenodd" clip-rule="evenodd"
          d="M5.33337 24.3333C5.33337 23.597 5.93033 23 6.66671 23H26.6667C27.4031 23 28 23.597 28 24.3333C28 25.0697 27.4031 25.6667 26.6667 25.6667H6.66671C5.93033 25.6667 5.33337 25.0697 5.33337 24.3333Z"
          fill="#25283C"/>
</svg>
