<svg width="36" height="37" viewBox="0 0 36 37" fill="none" xmlns="http://www.w3.org/2000/svg">
<g id="Info Circle">
<g id="Group 34542">
<path id="image 2360 (Traced)" opacity="0.3" fill-rule="evenodd" clip-rule="evenodd" d="M26.2449 15.0423C26.2449 17.2909 26.2275 17.9345 26.1554 18.3473C25.8407 20.1524 24.5305 21.6739 22.7676 22.2814C21.957 22.5608 21.7798 22.5688 16.3864 22.5688H11.3203L11.3444 23.7193C11.3649 24.7066 11.3866 24.9254 11.4968 25.2606C11.666 25.7753 12.1349 26.467 12.5362 26.7939C12.9186 27.1053 13.5689 27.426 13.999 27.515C14.2104 27.5588 16.0593 27.5789 19.8656 27.5789C25.708 27.5789 25.7873 27.5822 26.3083 27.8446C26.4554 27.9186 27.6482 28.7452 28.959 29.6814C30.2699 30.6177 31.4211 31.4319 31.5172 31.491C31.9178 31.737 32.5093 31.5611 32.7266 31.1315C32.8232 30.9405 32.8283 30.4675 32.814 22.9474L32.7989 14.9661L32.6419 14.5361C32.2774 13.5381 31.4753 12.7443 30.5019 12.4185C30.144 12.2987 29.9928 12.289 28.1819 12.2702L26.2449 12.25V15.0423Z" fill="#FF981F"/>
<path id="image 2360 (Traced)_2" fill-rule="evenodd" clip-rule="evenodd" d="M5.47596 5.60894C4.92601 5.76723 4.40349 6.07728 3.99038 6.49038C3.5464 6.93437 3.27492 7.41499 3.11506 8.03981C3.00326 8.47698 3 8.71298 3 16.3317C3 23.8559 3.00437 24.1817 3.10801 24.3765C3.26484 24.6712 3.60192 24.8522 3.94168 24.824C4.19137 24.8032 4.42009 24.6538 6.76719 22.9777C8.17178 21.9747 9.46517 21.0858 9.6414 21.0025L9.96182 20.851L15.8459 20.8206C22.3711 20.787 21.8916 20.8163 22.7203 20.4001C23.2117 20.1533 23.8857 19.4564 24.1379 18.9342C24.5033 18.1778 24.4951 18.3393 24.496 11.9666C24.4971 5.49983 24.5235 5.91835 24.0953 5.63225L23.8973 5.5L14.8614 5.50414C6.4826 5.50798 5.80011 5.51561 5.47596 5.60894ZM19.8177 10.3699C20.3791 10.7859 20.3815 11.5096 19.8225 11.8504C19.6367 11.9637 19.5184 11.9662 14.3252 11.9664L9.01781 11.9666L8.81985 11.8344C8.46366 11.5965 8.31784 11.1046 8.49984 10.7549C8.6128 10.5378 8.83662 10.3391 9.03662 10.2785C9.12896 10.2506 11.5555 10.2322 14.4289 10.2378C19.6306 10.248 19.6539 10.2485 19.8177 10.3699ZM19.8177 14.4479C20.3791 14.864 20.3815 15.5876 19.8225 15.9285C19.6367 16.0418 19.5184 16.0443 14.3252 16.0444L9.01781 16.0447L8.81985 15.9124C8.46366 15.6745 8.31784 15.1827 8.49984 14.8329C8.6128 14.6158 8.83662 14.4172 9.03662 14.3566C9.12896 14.3286 11.5555 14.3103 14.4289 14.3159C19.6306 14.326 19.6539 14.3266 19.8177 14.4479Z" fill="#FF981F"/>
</g>
</g>
</svg>
