<svg width="48" height="48" viewBox="0 0 48 48" fill="none" xmlns="http://www.w3.org/2000/svg">
<rect x="0.5" y="0.5" width="47" height="47" rx="11.5" fill="white" fill-opacity="0.23"/>
<rect x="0.5" y="0.5" width="47" height="47" rx="11.5" stroke="url(#paint0_linear_4218_17077)"/>
<rect x="0.5" y="0.5" width="47" height="47" rx="11.5" stroke="url(#paint1_linear_4218_17077)"/>
<path d="M36.4994 18.3782C36.5 16.4971 36.0761 14.64 35.2592 12.9455C34.4423 11.251 33.2535 9.76262 31.7814 8.59143C30.3093 7.42023 28.5918 6.59637 26.757 6.18124C24.9223 5.76611 23.0174 5.77041 21.1845 6.19384C19.3516 6.61726 17.6379 7.44888 16.1712 8.62673C14.7044 9.80457 13.5223 11.2983 12.7131 12.9965C11.9039 14.6947 11.4883 16.5536 11.4975 18.4348C11.5066 20.3159 11.9402 22.1708 12.7658 23.861C14.4207 22.7358 16.375 22.1327 18.3762 22.1295C20.6849 22.1318 22.9217 22.933 24.7069 24.3969C26.4921 25.8609 27.7158 27.8976 28.1701 30.1612C30.606 29.2988 32.7148 27.7028 34.2064 25.5928C35.698 23.4827 36.4991 20.9623 36.4994 18.3782Z" fill="#CDDFFF"/>
<path d="M33.9974 18.5645C34.0262 17.0538 33.7124 15.5562 33.0794 14.1843C32.4464 12.8123 31.5107 11.6016 30.3426 10.6431C29.1745 9.68471 27.8043 9.00345 26.3352 8.65056C24.866 8.29767 23.3359 8.28232 21.8599 8.60567C20.384 8.92901 19.0004 9.58264 17.8134 10.5175C16.6263 11.4523 15.6665 12.6439 15.0061 14.0029C14.3456 15.362 14.0018 16.853 14.0004 18.3639C13.9989 19.8749 14.3399 21.3666 14.9978 22.7268C16.0809 22.3345 17.2238 22.1323 18.3758 22.1292C22.2074 22.1315 25.6988 24.3261 27.3807 27.7821C29.2893 27.0993 30.9449 25.8518 32.1273 24.2053C33.3096 22.5587 33.9604 20.5913 33.9974 18.5645Z" fill="#E2E7FA"/>
<path d="M26.4993 18.379C26.4993 18.8765 26.3017 19.3536 25.9499 19.7053C25.5982 20.0571 25.1211 20.2547 24.6237 20.2547C24.1262 20.2547 23.6492 20.0571 23.2974 19.7053C22.9457 19.3536 22.748 18.8765 22.748 18.379C22.748 17.8816 22.9457 17.4045 23.2974 17.0528C23.6492 16.701 24.1262 16.5034 24.6237 16.5034C25.1211 16.5034 25.5982 16.701 25.9499 17.0528C26.3017 17.4045 26.4993 17.8816 26.4993 18.379Z" fill="#E6EFFF"/>
<path d="M25.251 18.374C25.2509 18.6005 25.1893 18.8227 25.0728 19.017C24.9564 19.2112 24.7893 19.3703 24.5896 19.4771L26.8692 21.7567C26.9275 21.8163 26.9971 21.8637 27.074 21.8961C27.1509 21.9284 27.2334 21.9451 27.3168 21.9451C27.4002 21.9451 27.4828 21.9284 27.5597 21.8961C27.6365 21.8637 27.7062 21.8163 27.7645 21.7567C27.8787 21.6376 27.9414 21.4782 27.9387 21.3132C27.936 21.1482 27.8683 20.9909 27.7503 20.8756L25.251 18.374ZM24.6132 11.4927C24.448 11.4958 24.2908 11.5641 24.1757 11.6827C24.0607 11.8013 23.9972 11.9606 23.9991 12.1258V17.748C23.9235 18.6527 25.3219 18.6527 25.2463 17.748V12.1258C25.2473 12.0424 25.2315 11.9596 25.2001 11.8824C25.1686 11.8052 25.122 11.735 25.063 11.676C25.004 11.617 24.9339 11.5705 24.8566 11.539C24.7794 11.5075 24.6966 11.4918 24.6132 11.4927Z" fill="#E6EFFF"/>
<path d="M32.4965 27.7368C34.75 27.6045 40.8754 26.4966 40.8754 26.4966V29.6218H30.2523L32.4965 27.7368Z" fill="#CDDFFF"/>
<path d="M39.0006 24.0054C39.0006 24.0054 36.2321 24.9574 34.3754 25.5054C33.395 26.4739 32.4974 27.5984 31.5501 28.3283L31.8241 28.3047L32.495 27.7425C34.1179 27.648 37.0943 27.1519 39.0006 26.8235V24.0054ZM42.1259 42.1309V29.6299H28.0469C28.2595 30.4449 28.3705 31.2858 28.3729 32.1292C28.3729 34.7758 27.3236 37.3146 25.455 39.189C23.5864 41.0633 21.0509 42.1204 18.4042 42.1286L42.1259 42.1309Z" fill="#CDDFFF"/>
<path d="M28.0492 29.625C28.2618 30.44 28.3728 31.2809 28.3752 32.1243C28.3752 34.771 27.3259 37.3097 25.4573 39.1841C23.5887 41.0585 21.0532 42.1155 18.4065 42.1237H23.4475C25.8971 41.2352 27.9195 39.4525 29.1084 37.1339C30.2973 34.8153 30.5645 32.1326 29.8563 29.625H28.0492ZM40.8762 29.625V42.126H42.1259V29.625H40.8762Z" fill="#B3D0FF"/>
<path d="M7.12516 27.124C6.96077 27.1234 6.79788 27.1553 6.64586 27.2178C6.49383 27.2804 6.35567 27.3724 6.23932 27.4885C6.12297 27.6046 6.03072 27.7426 5.96788 27.8945C5.90505 28.0464 5.87286 28.2093 5.87317 28.3737V29.6233C5.87317 30.3154 6.43302 30.8753 7.12516 30.8753C6.96097 30.8747 6.79828 30.9065 6.6464 30.9689C6.49453 31.0313 6.35648 31.123 6.24016 31.2389C6.12384 31.3548 6.03154 31.4925 5.96856 31.6442C5.90559 31.7958 5.87317 31.9584 5.87317 32.1226V33.3745C5.87317 34.0667 6.43302 34.6242 7.12516 34.6242C6.96077 34.6236 6.79788 34.6554 6.64586 34.718C6.49383 34.7805 6.35567 34.8725 6.23932 34.9887C6.12297 35.1048 6.03072 35.2428 5.96788 35.3947C5.90505 35.5466 5.87286 35.7094 5.87317 35.8738V37.1234C5.87317 37.8156 6.43302 38.3754 7.12516 38.3754C6.96097 38.3748 6.79828 38.4066 6.6464 38.469C6.49453 38.5314 6.35648 38.6232 6.24016 38.7391C6.12384 38.855 6.03154 38.9927 5.96856 39.1443C5.90559 39.2959 5.87317 39.4585 5.87317 39.6227V40.8747C5.87317 41.5668 6.43302 42.1243 7.12516 42.1243H18.3742C17.0611 42.124 15.7608 41.8651 14.5478 41.3623C13.3347 40.8595 12.2326 40.1226 11.3042 39.1939C10.3759 38.2651 9.63964 37.1626 9.13741 35.9493C8.63518 34.736 8.37685 33.4357 8.37716 32.1226C8.38098 30.3667 8.847 28.6427 9.72836 27.124H7.12516Z" fill="#CDDFFF"/>
<path d="M28.3749 32.1225C28.3749 34.7745 27.3214 37.3179 25.4462 39.1931C23.5709 41.0684 21.0275 42.1219 18.3755 42.1219C15.7235 42.1219 13.1801 41.0684 11.3049 39.1931C9.4296 37.3179 8.3761 34.7745 8.3761 32.1225C8.3761 29.4704 9.4296 26.9271 11.3049 25.0518C13.1801 23.1766 15.7235 22.123 18.3755 22.123C21.0275 22.123 23.5709 23.1766 25.4462 25.0518C27.3214 26.9271 28.3749 29.4704 28.3749 32.1225Z" fill="#CDDFFF"/>
<path d="M25.8736 32.1237C25.8913 33.1197 25.7104 34.1092 25.3415 35.0345C24.9726 35.9598 24.423 36.8023 23.7249 37.5129C23.0268 38.2235 22.1942 38.7879 21.2756 39.1732C20.3569 39.5585 19.3708 39.7569 18.3747 39.7569C17.3785 39.7569 16.3924 39.5585 15.4738 39.1732C14.5552 38.7879 13.7225 38.2235 13.0244 37.5129C12.3263 36.8023 11.7768 35.9598 11.4078 35.0345C11.0389 34.1092 10.858 33.1197 10.8757 32.1237C10.8757 30.1345 11.6659 28.2268 13.0724 26.8203C14.479 25.4137 16.3867 24.6235 18.3758 24.6235C20.365 24.6235 22.2727 25.4137 23.6792 26.8203C25.0858 28.2268 25.8736 30.1345 25.8736 32.1237Z" fill="#E2E7FA"/>
<path d="M18.3744 22.123C18.613 22.123 18.8515 22.1325 19.0901 22.149C16.5362 22.2856 14.1317 23.3955 12.3711 25.2506C10.6105 27.1057 9.62759 29.5649 9.62459 32.1225C9.62468 34.6505 10.5823 37.0847 12.3048 38.9351C14.0272 40.7856 16.3867 41.9149 18.9082 42.0959C18.7311 42.1101 18.5539 42.1195 18.3744 42.1242C15.722 42.1242 13.1784 41.0706 11.3029 39.1951C9.42741 37.3196 8.37378 34.776 8.37378 32.1236C8.37378 29.4713 9.42741 26.9276 11.3029 25.0522C13.1784 23.1767 15.722 22.123 18.3744 22.123Z" fill="#F8F8F8"/>
<path d="M17.6614 22.1559C20.2153 22.2925 22.6198 23.4024 24.3804 25.2575C26.141 27.1126 27.1239 29.5718 27.1269 32.1293C27.1268 34.6574 26.1692 37.0916 24.4467 38.942C22.7243 40.7925 20.3648 41.9218 17.8433 42.1028C18.0204 42.1169 18.1976 42.1264 18.3771 42.1311C19.7179 42.1271 21.0442 41.8536 22.2772 41.3267C23.5101 40.7998 24.6245 40.0303 25.554 39.064C26.4836 38.0977 27.2093 36.9544 27.688 35.7019C28.1667 34.4495 28.3887 33.1136 28.3407 31.7737C28.2927 30.4337 27.9757 29.1171 27.4085 27.9022C26.8414 26.6872 26.0357 25.5987 25.0394 24.7014C24.0431 23.8042 22.8765 23.1164 21.609 22.6791C20.3415 22.2418 18.999 22.0639 17.6614 22.1559Z" fill="#B3D0FF"/>
<path d="M25.2509 18.3744C25.2582 18.5432 25.2313 18.7118 25.1717 18.8699C25.1122 19.0281 25.0212 19.1725 24.9044 19.2946C24.7875 19.4167 24.6471 19.5138 24.4917 19.5802C24.3363 19.6465 24.169 19.6807 24 19.6807C23.831 19.6807 23.6638 19.6465 23.5084 19.5802C23.353 19.5138 23.2126 19.4167 23.0957 19.2946C22.9789 19.1725 22.8879 19.0281 22.8284 18.8699C22.7688 18.7118 22.7419 18.5432 22.7492 18.3744C22.7632 18.052 22.9011 17.7476 23.1342 17.5244C23.3672 17.3013 23.6774 17.1768 24 17.1768C24.3227 17.1768 24.6329 17.3013 24.8659 17.5244C25.0989 17.7476 25.2368 18.052 25.2509 18.3744Z" fill="#CDDFFF"/>
<path d="M34.3603 27.536C33.6374 27.6305 32.9713 27.7084 32.4965 27.7344L30.2523 29.6218H31.3012C32.4185 29.0832 33.4508 28.3793 34.3603 27.536ZM40.8754 26.4966L39.6257 26.7092V29.6218H40.8777L40.8754 26.4966Z" fill="#B3D0FF"/>
<path d="M28.3759 32.1255C28.3737 33.5457 28.069 34.9491 27.482 36.2423C26.8951 37.5355 26.0394 38.6889 24.9719 39.6256H37.1257C37.1352 37.4146 39.0013 37.1264 39.625 37.1264V34.6271C39.0013 34.6271 37.1328 34.3366 37.1257 32.1255H28.3759Z" fill="#E2E7FA"/>
<path d="M28.376 32.1255C28.3733 33.5458 28.0681 34.9493 27.4808 36.2425C26.8934 37.5357 26.0374 38.689 24.9696 39.6256H27.3082C29.1872 37.7049 30.2424 35.1266 30.2492 32.4397C30.2461 32.3349 30.2413 32.2301 30.2351 32.1255H28.376ZM35.8761 32.1255C35.8832 34.3366 37.7517 34.6271 38.3754 34.6271V37.1264C37.7517 37.1264 35.8832 37.4146 35.8761 39.6256H37.1281C37.1352 37.4146 39.0014 37.1264 39.625 37.1264V34.6271C39.0014 34.6271 37.1328 34.3366 37.1257 32.1255H35.8761Z" fill="#E6EFFF"/>
<path d="M32.7685 35.8756C32.7685 36.5654 32.2016 37.1252 31.5024 37.1252C31.337 37.1262 31.1731 37.0945 31.02 37.0321C30.8669 36.9697 30.7276 36.8777 30.61 36.7615C30.4924 36.6452 30.3989 36.5069 30.3348 36.3545C30.2706 36.2021 30.2371 36.0386 30.2362 35.8732C30.2362 35.1858 30.8031 34.626 31.5024 34.626C32.2016 34.626 32.7685 35.1858 32.7685 35.8756Z" fill="#CDDFFF"/>
<path d="M34.3542 27.5395C35.2235 26.7363 35.9723 25.8127 36.5794 24.7993C35.8353 25.0402 35.0558 25.2953 34.3754 25.4985C33.3951 26.467 32.4975 27.5914 32.0226 28.0261C33.003 27.7072 33.6573 27.6316 34.3542 27.5395ZM39.0007 23.9961L37.7487 24.2111V27.1237H39.0007V23.9961ZM27.1611 27.3883C27.6336 28.2552 27.9714 29.1907 28.1698 30.1592C28.5572 30.0222 28.9375 29.8663 29.3084 29.6915C29.1005 28.8779 28.791 28.0938 28.3871 27.3576L27.1611 27.3883Z" fill="#B3D0FF"/>
<path d="M16.673 11.5754C15.3043 13.0501 14.4123 14.9033 14.1135 16.8929C13.8147 18.8825 14.123 20.916 14.9982 22.7276C15.2273 22.6497 15.4588 22.5788 15.6927 22.515C15.1869 20.8457 15.1267 19.0731 15.5179 17.3732C15.909 15.6734 16.7381 14.1054 17.9226 12.8251C19.6635 10.9521 22.0558 9.81725 24.6076 9.65381C27.1595 9.49036 29.677 10.3107 31.6426 11.9463C30.5938 10.6957 29.2548 9.72086 27.7425 9.10687C25.8641 8.3513 23.8008 8.18275 21.8247 8.62344C19.8486 9.06412 18.0524 10.0934 16.673 11.5754Z" fill="#E6EFFF"/>
<path d="M26.4901 9.09928C28.281 9.82306 29.8239 11.05 30.9323 12.6319C32.0408 14.2138 32.6673 16.0828 32.7363 18.0132C32.8052 19.9435 32.3136 21.8525 31.3209 23.5094C30.3281 25.1664 28.8767 26.5003 27.1421 27.35L27.3925 27.78C29.298 27.0932 30.9501 25.8439 32.1299 24.1975C33.3098 22.5511 33.9618 20.5852 33.9997 18.56C34.0376 16.5348 33.4596 14.5459 32.3422 12.8565C31.2247 11.1671 29.6206 9.85688 27.7421 9.09928C26.4325 8.57845 25.0284 8.33706 23.62 8.3906C24.4633 8.46856 25.5051 8.70478 26.4901 9.09928Z" fill="#F8F8F8"/>
<path d="M20.1573 22.1504C21.7413 22.4248 23.2366 23.0746 24.518 24.0453C25.7994 25.016 26.8298 26.2795 27.5228 27.73C27.8158 27.6214 28.104 27.4985 28.3851 27.3615C27.5715 25.8636 26.3885 24.5986 24.9485 23.6866C23.5085 22.7745 21.8592 22.2457 20.1573 22.1504Z" fill="#C4DCF0"/>
<path d="M24.0011 5.87305C21.8805 5.87279 19.7947 6.41198 17.9399 7.43992C16.0851 8.46785 14.5222 9.95073 13.3984 11.749C12.2746 13.5474 11.6267 15.602 11.5157 17.7197C11.4047 19.8374 11.8342 21.9485 12.7639 23.8545C13.0804 23.6419 13.4088 23.4482 13.7489 23.2734C13.0882 21.7237 12.7475 20.0564 12.7473 18.3717C12.7518 15.15 13.9999 12.0545 16.2313 9.73063C18.4627 7.40681 21.5051 6.03418 24.7239 5.89903C24.4825 5.88335 24.2407 5.87469 23.9987 5.87305H24.0011ZM7.12517 38.3729C6.96058 38.3723 6.7975 38.4042 6.64532 38.4669C6.49314 38.5296 6.35487 38.6218 6.23849 38.7382C6.1221 38.8546 6.02991 38.9929 5.96721 39.145C5.90451 39.2972 5.87255 39.4603 5.87318 39.6249V40.8722C5.87318 41.5667 6.43303 42.1242 7.12517 42.1242H8.37716C8.21258 42.1248 8.04949 42.0928 7.89731 42.0301C7.74513 41.9674 7.60686 41.8752 7.49048 41.7589C7.3741 41.6425 7.2819 41.5042 7.2192 41.352C7.1565 41.1998 7.12455 41.0368 7.12517 40.8722V39.6225C7.12517 38.9304 7.68266 38.3729 8.37716 38.3729H7.12517ZM7.12517 34.624C6.96078 34.6234 6.79789 34.6553 6.64586 34.7178C6.49384 34.7804 6.35568 34.8724 6.23933 34.9885C6.12297 35.1046 6.03073 35.2426 5.96789 35.3945C5.90505 35.5464 5.87287 35.7092 5.87318 35.8736V37.1233C5.87318 37.8154 6.43303 38.3753 7.12517 38.3753H8.37716C8.21258 38.3759 8.04949 38.3439 7.89731 38.2812C7.74513 38.2185 7.60686 38.1263 7.49048 38.01C7.3741 37.8936 7.2819 37.7553 7.2192 37.6031C7.1565 37.4509 7.12455 37.2879 7.12517 37.1233V35.8713C7.12517 35.1815 7.68266 34.624 8.37716 34.624H7.12517ZM7.12517 30.8728C6.96058 30.8721 6.7975 30.9041 6.64532 30.9668C6.49314 31.0295 6.35487 31.1217 6.23849 31.2381C6.1221 31.3544 6.02991 31.4927 5.96721 31.6449C5.90451 31.7971 5.87255 31.9602 5.87318 32.1247V33.372C5.87318 34.0665 6.43303 34.624 7.12517 34.624H8.37716C8.21258 34.6246 8.04949 34.5927 7.89731 34.53C7.74513 34.4673 7.60686 34.3751 7.49048 34.2587C7.3741 34.1423 7.2819 34.0041 7.2192 33.8519C7.1565 33.6997 7.12455 33.5366 7.12517 33.372V32.1224C7.12517 31.4302 7.68266 30.8728 8.37716 30.8728H7.12517ZM7.12517 27.1239C6.96078 27.1232 6.79789 27.1551 6.64586 27.2177C6.49384 27.2802 6.35568 27.3722 6.23933 27.4883C6.12297 27.6045 6.03073 27.7425 5.96789 27.8944C5.90505 28.0463 5.87287 28.2091 5.87318 28.3735V29.6231C5.87318 30.3153 6.43303 30.8751 7.12517 30.8751H8.37716C8.21258 30.8757 8.04949 30.8438 7.89731 30.7811C7.74513 30.7184 7.60686 30.6262 7.49048 30.5098C7.3741 30.3934 7.2819 30.2552 7.2192 30.103C7.1565 29.9508 7.12455 29.7877 7.12517 29.6231V28.3711C7.12517 27.6814 7.68266 27.1239 8.37716 27.1239H7.12517Z" fill="#F8F8F8"/>
<path d="M18.377 24.6235C16.3878 24.6235 14.4801 25.4137 13.0736 26.8203C11.667 28.2268 10.8768 30.1345 10.8768 32.1237C10.8782 33.2537 11.135 34.3689 11.6279 35.3858C12.1208 36.4027 12.8371 37.2951 13.7233 37.9962C12.8567 36.8891 12.3188 35.5607 12.1708 34.1625C12.0229 32.7643 12.2709 31.3527 12.8867 30.0887C13.5024 28.8247 14.461 27.7592 15.6532 27.0139C16.8453 26.2685 18.223 25.8732 19.629 25.8732C21.318 25.8779 22.9574 26.4519 24.2802 27.5031C23.5791 26.6063 22.6829 25.8809 21.6596 25.382C20.6364 24.8831 19.5154 24.6237 18.377 24.6235Z" fill="#E6EFFF"/>
<path d="M24.4357 27.7241C25.0251 28.9148 25.3011 30.2362 25.2375 31.5632C25.174 32.8903 24.773 34.1792 24.0726 35.3081C23.3721 36.437 22.3953 37.3687 21.2346 38.015C20.0738 38.6612 18.7673 39.0008 17.4388 39.0015C16.2242 38.9984 15.0271 38.7121 13.9426 38.1653C15.2277 39.1102 16.7797 39.6228 18.3766 39.6251C20.3653 39.6245 22.2724 38.834 23.6784 37.4276C25.0845 36.0211 25.8744 34.1137 25.8744 32.125C25.8709 30.543 25.3674 29.0026 24.4357 27.7241Z" fill="#F8F8F8"/>
<path d="M23.4771 5.89903C26.2494 6.06447 28.8878 7.14844 30.9758 8.97985C33.0637 10.8113 34.4823 13.2858 35.0077 16.013C35.5331 18.7402 35.1354 21.5647 33.8772 24.0407C32.6191 26.5167 30.5723 28.5033 28.0598 29.6869C28.1 29.8428 28.1378 29.9987 28.1708 30.157C30.9491 29.1724 33.29 27.2377 34.7803 24.6946C36.2706 22.1516 36.8144 19.1637 36.3156 16.2587C35.8168 13.3536 34.3076 10.7183 32.0544 8.81796C29.8012 6.91764 26.949 5.87461 24.0015 5.87305C23.8265 5.87725 23.6517 5.88749 23.4771 5.89903Z" fill="#B3D0FF"/>
<path d="M24.0018 5.25488C20.5219 5.25738 17.1851 6.64056 14.724 9.10079C12.2629 11.561 10.8785 14.8973 10.8748 18.3772C10.8748 20.1961 11.2574 21.9914 11.9874 23.6545C10.9516 24.4369 10.0671 25.4015 9.3771 26.501H7.12351C6.62745 26.5035 6.15242 26.7016 5.80165 27.0524C5.45089 27.4031 5.25273 27.8782 5.25024 28.3742V29.6262C5.25024 30.1058 5.43922 30.5428 5.74159 30.8759C5.4273 31.2172 5.25204 31.6638 5.25024 32.1279V33.3751C5.25024 33.857 5.43922 34.2917 5.74159 34.6271C5.42789 34.9689 5.25272 35.4152 5.25024 35.8791V37.1264C5.25024 37.6083 5.43922 38.0429 5.74159 38.3784C5.42789 38.7201 5.25272 39.1665 5.25024 39.6304V40.8776C5.25024 41.9052 6.09593 42.7509 7.12351 42.7509H42.1226C42.2052 42.7512 42.2871 42.7352 42.3635 42.7037C42.4398 42.6722 42.5092 42.626 42.5676 42.5676C42.626 42.5091 42.6723 42.4397 42.7038 42.3634C42.7353 42.287 42.7513 42.2051 42.751 42.1225V29.6262C42.7507 29.544 42.7342 29.4627 42.7024 29.3868C42.6707 29.311 42.6243 29.2422 42.566 29.1843C42.5076 29.1264 42.4384 29.0805 42.3624 29.0493C42.2863 29.0182 42.2048 29.0023 42.1226 29.0026H41.5014V26.5033C41.502 26.4114 41.4822 26.3204 41.4434 26.237C41.4046 26.1537 41.3478 26.0799 41.2771 26.0212C41.2063 25.9624 41.1234 25.9201 41.0344 25.8973C40.9453 25.8744 40.8522 25.8717 40.762 25.8891L39.6281 26.0829V24.0041C39.6278 23.9202 39.6107 23.8373 39.5778 23.7602C39.5449 23.6831 39.4968 23.6134 39.4364 23.5553C39.3761 23.4971 39.3046 23.4517 39.2264 23.4216C39.1481 23.3916 39.0646 23.3776 38.9808 23.3804C38.8722 23.3663 38.6832 23.4537 35.6288 24.4482C36.6116 22.5754 37.1255 20.4922 37.1265 18.3772C37.1227 14.8977 35.7387 11.5618 33.278 9.10163C30.8174 6.64146 27.4813 5.25801 24.0018 5.25488ZM24.0018 6.50451C26.745 6.49881 29.4055 7.4438 31.5305 9.1787C33.6555 10.9136 35.1137 13.3312 35.657 16.0201C36.2003 18.709 35.7951 21.5031 34.5104 23.927C33.2257 26.3508 31.1408 28.2546 28.6105 29.3144C28.5019 28.9108 28.3694 28.514 28.2137 28.1262C29.5223 27.555 30.7049 26.7305 31.6933 25.7002C36.9658 20.0945 34.75 11.2739 27.9775 8.5266C25.9832 7.7171 23.7893 7.53579 21.6892 8.00691C15.2378 9.46205 11.7275 16.3126 14.1607 22.3788C13.7772 22.5479 13.4041 22.7396 13.0433 22.9529C12.2883 21.1487 11.991 19.1858 12.1779 17.2389C12.3647 15.2921 13.0299 13.4216 14.1142 11.7939C15.1986 10.1662 16.6685 8.83179 18.3931 7.90938C20.1177 6.98698 22.0436 6.50519 23.9994 6.50688L24.0018 6.50451ZM23.3711 9.02504V9.61796C23.3522 10.4684 24.6396 10.4684 24.6231 9.61796V9.0274C26.6745 9.16397 28.6239 9.97259 30.1696 11.3282L29.7515 11.744C29.0665 12.3298 30.0468 13.3102 30.6326 12.6251L31.0508 12.2094C32.3831 13.733 33.2099 15.6724 33.3469 17.7559H32.6949C31.9271 17.8528 31.9862 18.9843 32.761 19.0008H33.3445C33.2093 21.0517 32.4023 23.001 31.0484 24.5474L30.6326 24.1316C29.931 23.534 29.2035 24.4765 29.7515 25.0128L30.1696 25.4309C29.4373 26.071 28.5964 26.6025 27.6727 26.997C26.7551 25.3341 25.4088 23.9473 23.7736 22.981C22.1384 22.0147 20.2742 21.5041 18.3749 21.5024C17.319 21.5024 16.3009 21.6631 15.3371 21.9513C14.9483 21.0118 14.7153 20.0153 14.6473 19.0008H15.2378C16.1449 19.0835 16.1449 17.6756 15.2378 17.7559H14.6473C14.7796 15.7433 15.5638 13.7897 16.9481 12.2094L17.3639 12.6251C17.9497 13.3102 18.93 12.3298 18.245 11.744L17.8292 11.3282C19.3781 9.98015 21.323 9.17184 23.3711 9.02504ZM23.99 11.4959C23.9078 11.4969 23.8266 11.514 23.751 11.5463C23.6754 11.5786 23.6069 11.6255 23.5494 11.6843C23.4919 11.7431 23.4466 11.8126 23.416 11.8889C23.3854 11.9652 23.3701 12.0468 23.3711 12.129V16.6079C23.0063 16.7388 22.6909 16.9794 22.468 17.2965C22.2452 17.6137 22.1258 17.9919 22.1262 18.3795C22.1255 18.6961 22.2052 19.0076 22.3577 19.2849C22.5102 19.5623 22.7306 19.7964 22.9982 19.9654C23.2659 20.1344 23.572 20.2327 23.888 20.2512C24.204 20.2696 24.5195 20.2076 24.805 20.0709L26.6782 21.9465C27.2924 22.5135 28.131 21.6867 27.5664 21.0607L25.6932 19.1804C25.8042 18.9425 25.8644 18.6841 25.8699 18.4217C25.8755 18.1592 25.8262 17.8985 25.7253 17.6562C25.6243 17.4139 25.474 17.1953 25.2838 17.0144C25.0936 16.8335 24.8678 16.6942 24.6207 16.6055V12.129C24.6216 12.0458 24.606 11.9633 24.5747 11.8862C24.5433 11.8091 24.4969 11.7391 24.4382 11.6801C24.3795 11.6212 24.3096 11.5745 24.2326 11.5429C24.1557 11.5113 24.0732 11.4953 23.99 11.4959ZM24.0018 17.7536C24.1664 17.756 24.3235 17.823 24.4392 17.9401C24.5549 18.0571 24.6201 18.2149 24.6207 18.3795C24.6207 18.5443 24.5552 18.7023 24.4387 18.8189C24.3222 18.9354 24.1642 19.0008 23.9994 19.0008C23.834 19.0008 23.6752 18.9356 23.5576 18.8193C23.44 18.703 23.3729 18.545 23.3711 18.3795C23.3711 18.0488 23.6545 17.7583 24.0018 17.7536ZM18.3773 22.7521C19.6091 22.7508 20.829 22.9926 21.9672 23.4635C23.1055 23.9343 24.1397 24.6251 25.0106 25.4962C25.8815 26.3674 26.572 27.4017 27.0426 28.5401C27.5132 29.6784 27.7546 30.8984 27.753 32.1302C27.754 33.3618 27.512 34.5815 27.041 35.7195C26.57 36.8574 25.8791 37.8913 25.008 38.762C24.137 39.6326 23.1027 40.3229 21.9645 40.7934C20.8263 41.2638 19.6065 41.5052 18.3749 41.5036C17.1435 41.5046 15.924 41.2627 14.7862 40.7918C13.6484 40.3209 12.6146 39.6303 11.744 38.7595C10.8734 37.8886 10.183 36.8547 9.71243 35.7167C9.24184 34.5788 9.00026 33.3592 9.0015 32.1279C9.00026 30.8963 9.24192 29.6765 9.71266 28.5384C10.1834 27.4003 10.874 26.3663 11.7448 25.4954C12.6157 24.6245 13.6498 23.934 14.7879 23.4632C15.9259 22.9925 17.1457 22.7508 18.3773 22.7521ZM18.3773 24.0041C16.2229 24.0066 14.1574 24.8635 12.634 26.3869C11.1106 27.9103 10.2536 29.9758 10.2511 32.1302C10.2543 34.2842 11.1115 36.3491 12.6348 37.872C14.1582 39.3949 16.2233 40.2515 18.3773 40.254C20.5317 40.2515 22.5972 39.3945 24.1206 37.8711C25.644 36.3477 26.5009 34.2823 26.5034 32.1279C26.5009 29.9734 25.644 27.908 24.1206 26.3846C22.5972 24.8612 20.5317 24.0042 18.3773 24.0017V24.0041ZM38.3761 24.8616V26.2955C36.9186 26.5388 35.4256 26.7797 33.9114 26.9687C34.1595 26.6829 34.3981 26.3876 34.6201 26.0829C36.1485 25.6293 37.6745 25.1002 38.3761 24.8616ZM18.3773 25.2537C22.1805 25.2537 25.2514 28.3246 25.2514 32.1279C25.2514 35.9311 22.1805 39.002 18.3773 39.002C14.574 39.002 11.5031 35.9311 11.5031 32.1279C11.5031 28.3246 14.574 25.2537 18.3773 25.2537ZM18.3773 26.5033C18.2147 26.5082 18.0604 26.5759 17.9468 26.6922C17.8331 26.8085 17.769 26.9644 17.7678 27.127V27.7553H17.1442C16.6485 27.7578 16.1739 27.9556 15.8232 28.3059C15.4725 28.6562 15.274 29.1306 15.2709 29.6262V30.8782C15.2709 31.9058 16.1166 32.7515 17.1442 32.7515H17.7678V35.2507H17.1442C17.0621 35.2527 16.9804 35.2379 16.9042 35.2074C16.8279 35.1769 16.7586 35.1312 16.7006 35.0731C16.6425 35.015 16.5968 34.9458 16.5662 34.8695C16.5357 34.7932 16.521 34.7116 16.5229 34.6295C16.5229 33.7956 15.2709 33.7956 15.2709 34.6295C15.2709 35.6571 16.1166 36.5027 17.1442 36.5027H17.7678V37.1287C17.8245 37.9626 18.9726 37.9579 19.0198 37.1287V36.5027H19.6458C20.1419 36.5003 20.6169 36.3021 20.9677 35.9513C21.3184 35.6006 21.5166 35.1255 21.5191 34.6295V33.3775C21.516 32.8818 21.3175 32.4074 20.9668 32.0571C20.6161 31.7069 20.1415 31.5091 19.6458 31.5066H19.0174V29.0026H19.6458C20.0001 29.0026 20.2694 29.2695 20.2694 29.6262C20.2883 30.4412 21.5002 30.4412 21.5191 29.6262C21.516 29.1306 21.3175 28.6562 20.9668 28.3059C20.6161 27.9556 20.1415 27.7578 19.6458 27.7553H19.0174V27.127C19.0181 27.0433 19.0019 26.9603 18.9696 26.8831C18.9373 26.8058 18.8897 26.736 18.8296 26.6777C18.7695 26.6194 18.6983 26.5739 18.6201 26.5439C18.542 26.5139 18.4609 26.5001 18.3773 26.5033ZM40.2517 27.2285V29.005H31.6862C31.9662 28.8016 32.2381 28.5873 32.5012 28.3624H32.5295C34.7146 28.2372 39.3517 27.3915 40.2517 27.2285ZM7.12351 27.7553H8.70622C8.34336 28.5527 8.08148 29.3923 7.92667 30.2546H7.12351C7.04096 30.2559 6.959 30.2405 6.88257 30.2093C6.80614 30.1781 6.73681 30.1317 6.67876 30.073C6.62072 30.0143 6.57516 29.9444 6.54482 29.8677C6.51448 29.7909 6.5 29.7088 6.50224 29.6262V28.3766C6.50224 28.0199 6.76681 27.7553 7.12351 27.7553ZM17.1442 29.005H17.7678V31.5066H17.1442C17.0615 31.5082 16.9794 31.493 16.9028 31.4619C16.8263 31.4309 16.7568 31.3845 16.6987 31.3257C16.6406 31.267 16.595 31.197 16.5648 31.12C16.5346 31.0431 16.5203 30.9608 16.5229 30.8782V29.6262C16.5229 29.2719 16.7875 29.005 17.1442 29.005ZM29.5625 30.2522L41.5014 30.2546V41.5036H23.3664C24.0278 41.1493 24.642 40.7312 25.2113 40.2516H37.1265C37.2913 40.251 37.4492 40.1854 37.5659 40.0691C37.6827 39.9528 37.7489 39.7952 37.7501 39.6304C37.7572 38.4232 38.4352 37.8256 39.6281 37.7524C39.7933 37.7517 39.9516 37.6858 40.0684 37.569C40.1852 37.4522 40.2511 37.2939 40.2517 37.1287V34.6295C40.252 34.5473 40.2361 34.4658 40.205 34.3897C40.1738 34.3137 40.128 34.2445 40.07 34.1861C40.0121 34.1278 39.9433 34.0814 39.8675 34.0497C39.7916 34.0179 39.7103 34.0014 39.6281 34.0011C38.1446 33.9137 37.7548 33.068 37.7501 32.1279C37.7489 31.9631 37.6827 31.8054 37.5659 31.6891C37.4492 31.5728 37.2913 31.5072 37.1265 31.5066H28.9696C28.9517 31.1872 28.9194 30.8687 28.8728 30.5522C29.1066 30.4577 29.3358 30.3585 29.5625 30.2522ZM7.12351 31.5042H7.78494C7.6999 32.3357 7.79675 33.2523 7.92667 34.0011H7.12351C7.04119 34.0031 6.95933 33.9883 6.88292 33.9576C6.8065 33.9269 6.73712 33.881 6.67901 33.8227C6.62089 33.7643 6.57525 33.6948 6.54486 33.6182C6.51447 33.5417 6.49997 33.4598 6.50224 33.3775V32.1279C6.50224 31.7712 6.76681 31.5042 7.12351 31.5042ZM19.0174 32.7515H19.6458C20.0001 32.7515 20.2694 33.0208 20.2694 33.3775V34.6295C20.2714 34.7118 20.2566 34.7937 20.2259 34.8701C20.1952 34.9465 20.1493 35.0159 20.091 35.074C20.0326 35.1321 19.9631 35.1777 19.8866 35.2081C19.81 35.2385 19.7281 35.253 19.6458 35.2507H19.0174V32.7515ZM28.9696 32.7515H36.5524C36.7816 34.1641 37.769 34.9626 38.9997 35.1964V36.5642C37.6225 36.8051 36.7178 37.7807 36.5548 39.002H26.4656C27.9596 37.2473 28.8389 35.0523 28.9696 32.7515ZM31.5043 34.0011C31.0053 34.0023 30.5269 34.2001 30.1727 34.5517C29.8185 34.9032 29.6171 35.3801 29.6121 35.8791C29.6121 36.3803 29.8112 36.861 30.1657 37.2154C30.5201 37.5698 31.0007 37.7689 31.5019 37.7689C32.0031 37.7689 32.4838 37.5698 32.8382 37.2154C33.1926 36.861 33.3917 36.3803 33.3917 35.8791C33.388 35.3801 33.1873 34.9029 32.8334 34.5511C32.4795 34.1994 32.0033 34.0017 31.5043 34.0011ZM7.12587 35.2531H8.22196C8.49598 36.1413 8.89284 36.9776 9.37946 37.7524H7.12351C7.04119 37.7543 6.95933 37.7395 6.88292 37.7088C6.8065 37.6782 6.73712 37.6322 6.67901 37.5739C6.62089 37.5156 6.57525 37.446 6.54486 37.3695C6.51447 37.293 6.49997 37.2111 6.50224 37.1287V35.8791C6.50224 35.5224 6.76681 35.2507 7.12351 35.2507L7.12587 35.2531ZM31.5043 35.2531C31.5896 35.2479 31.675 35.2601 31.7554 35.2892C31.8358 35.3182 31.9093 35.3634 31.9716 35.4219C32.0338 35.4804 32.0834 35.5511 32.1173 35.6295C32.1512 35.7079 32.1687 35.7925 32.1687 35.8779C32.1687 35.9634 32.1512 36.0479 32.1173 36.1263C32.0834 36.2048 32.0338 36.2754 31.9716 36.334C31.9093 36.3925 31.8358 36.4377 31.7554 36.4667C31.675 36.4957 31.5896 36.508 31.5043 36.5027C31.4208 36.5053 31.3377 36.491 31.2598 36.4608C31.182 36.4306 31.111 36.3851 31.0511 36.3269C30.9911 36.2687 30.9435 36.1991 30.911 36.1222C30.8785 36.0453 30.8617 35.9626 30.8618 35.8791C30.8618 35.5319 31.1382 35.2507 31.5043 35.2507V35.2531ZM7.12587 39.002H10.2889C11.1535 40.0178 12.2023 40.8682 13.3858 41.5036H7.12587C7.04335 41.5059 6.96124 41.4913 6.88455 41.4608C6.80785 41.4303 6.73819 41.3844 6.67982 41.326C6.62145 41.2677 6.5756 41.198 6.54506 41.1213C6.51453 41.0446 6.49996 40.9625 6.50224 40.88V39.6304C6.50224 39.2737 6.76917 39.002 7.12587 39.002Z" fill="#0361FF"/>
<defs>
<linearGradient id="paint0_linear_4218_17077" x1="4.5" y1="-8.25152e-07" x2="15.5" y2="20.5" gradientUnits="userSpaceOnUse">
<stop stop-color="white"/>
<stop offset="1" stop-color="white" stop-opacity="0"/>
</linearGradient>
<linearGradient id="paint1_linear_4218_17077" x1="44.5" y1="47" x2="28.5" y2="28.5" gradientUnits="userSpaceOnUse">
<stop stop-color="white"/>
<stop offset="1" stop-color="white" stop-opacity="0"/>
</linearGradient>
</defs>
</svg>
