<svg width="48" height="48" viewBox="0 0 48 48" fill="none" xmlns="http://www.w3.org/2000/svg">
<rect x="0.5" y="0.5" width="47" height="47" rx="11.5" fill="white" fill-opacity="0.23"/>
<rect x="0.5" y="0.5" width="47" height="47" rx="11.5" stroke="url(#paint0_linear_4218_16993)"/>
<rect x="0.5" y="0.5" width="47" height="47" rx="11.5" stroke="url(#paint1_linear_4218_16993)"/>
<path d="M5.87565 32.125V34.6266H7.12528V37.1259H5.87329V42.1268H16.5011C14.8433 42.1268 13.2535 41.4682 12.0813 40.296C10.9091 39.1238 10.2505 37.534 10.2505 35.8763C10.2529 34.5225 10.6948 33.2061 11.5096 32.125H5.87565Z" fill="#CDDFFF"/>
<path d="M10.2575 32.125C9.52986 33.0958 9.10045 34.2575 9.02172 35.4682C8.94299 36.679 9.21833 37.8865 9.81416 38.9434C10.41 40.0003 11.3005 40.8609 12.3772 41.4203C13.4538 41.9797 14.67 42.2137 15.8773 42.0937C14.3356 41.9391 12.9063 41.2174 11.8666 40.0686C10.8269 38.9197 10.2509 37.4257 10.2505 35.8763C10.2528 34.5225 10.6947 33.2061 11.5095 32.125H10.2575Z" fill="#B3D0FF"/>
<path d="M40.8747 22.749C40.9011 24.9818 40.4841 27.1977 39.648 29.2682C38.8118 31.3387 37.573 33.2227 36.0034 34.811C34.4338 36.3992 32.5646 37.6602 30.5042 38.5208C28.4437 39.3815 26.2329 39.8246 23.9999 39.8246C21.767 39.8246 19.5562 39.3815 17.4957 38.5208C15.4353 37.6602 13.5661 36.3992 11.9965 34.811C10.4269 33.2227 9.18812 31.3387 8.35194 29.2682C7.51575 27.1977 7.09879 24.9818 7.1252 22.749C7.17775 18.3081 8.97875 14.067 12.1377 10.9452C15.2966 7.82345 19.5588 6.07275 23.9999 6.07275C28.4411 6.07275 32.7033 7.82345 35.8622 10.9452C39.0211 14.067 40.8221 18.3081 40.8747 22.749Z" fill="#E4EFF8"/>
<path d="M24.7288 5.90147C20.349 6.03702 16.1937 7.87081 13.1416 11.015C10.0896 14.1592 8.38019 18.3672 8.37492 22.749C8.37755 27.0967 10.058 31.2756 13.0659 34.4147C16.0739 37.5538 20.1773 39.4109 24.5209 39.599C24.3478 39.6104 24.1746 39.6191 24.0012 39.625C19.5603 39.5724 15.3192 37.7714 12.1974 34.6125C9.07565 31.4536 7.32495 27.1914 7.32495 22.7502C7.32495 18.309 9.07565 14.0469 12.1974 10.888C15.3192 7.72903 19.5603 5.92803 24.0012 5.87549C24.2445 5.87785 24.4855 5.88966 24.7288 5.90147Z" fill="#C4DCF0"/>
<path d="M32.125 23.375L23.3752 26.3869C23.3752 32.6941 25.7966 36.7052 28.0927 39.1052C31.1555 38.3386 33.9418 36.7281 36.135 34.4569C38.3281 32.1856 39.8402 29.3447 40.4992 26.2569L32.125 23.375Z" fill="#C4DCF0"/>
<path d="M17.1247 7.36133C14.4655 8.54963 12.1592 10.4059 10.43 12.7496H19.7255C20.0569 12.7496 20.3748 12.618 20.6091 12.3836C20.8435 12.1493 20.9751 11.8314 20.9751 11.5C20.9751 11.1686 20.8435 10.8507 20.6091 10.6164C20.3748 10.382 20.0569 10.2504 19.7255 10.2504H18.3743C18.2099 10.2507 18.0471 10.2185 17.8952 10.1556C17.7432 10.0928 17.6053 10.0006 17.4891 9.88421C17.373 9.76786 17.281 9.6297 17.2185 9.47767C17.1559 9.32565 17.124 9.16276 17.1247 8.99837V7.36133ZM26.6138 14.6253C26.2824 14.6253 25.9645 14.7569 25.7302 14.9913C25.4958 15.2256 25.3642 15.5435 25.3642 15.8749C25.3642 16.2063 25.4958 16.5242 25.7302 16.7585C25.9645 16.9929 26.2824 17.1245 26.6138 17.1245H30.8753C31.5675 17.1245 32.1273 17.682 32.1273 18.3765C32.1273 19.0686 32.6824 19.6261 33.3746 19.6261H40.5724C40.2395 17.8744 39.6312 16.1865 38.77 14.6253H26.6138ZM8.33944 16.5009C7.54176 18.4885 7.12969 20.6097 7.12524 22.7514C7.12761 23.1672 7.14887 23.5853 7.18194 24.001H21.4995C21.8313 24.001 22.1494 23.8692 22.384 23.6347C22.6186 23.4001 22.7504 23.082 22.7504 22.7502C22.7504 22.4185 22.6186 22.1003 22.384 21.8658C22.1494 21.6312 21.8313 21.4994 21.4995 21.4994H18.3743C18.2101 21.4997 18.0475 21.4676 17.8957 21.4049C17.7439 21.3422 17.6061 21.2502 17.49 21.1341C17.3739 21.018 17.2818 20.8801 17.2191 20.7284C17.1565 20.5766 17.1243 20.414 17.1247 20.2498C17.125 20.0856 17.0929 19.9229 17.0302 19.7712C16.9675 19.6194 16.8754 19.4816 16.7593 19.3655C16.6432 19.2494 16.5054 19.1573 16.3536 19.0946C16.2018 19.0319 16.0392 18.9998 15.875 19.0001H12.7498C12.5854 19.0005 12.4225 18.9683 12.2706 18.9054C12.1187 18.8426 11.9807 18.7503 11.8646 18.634C11.7485 18.5176 11.6565 18.3795 11.5939 18.2275C11.5314 18.0754 11.4995 17.9125 11.5001 17.7481C11.5001 17.584 11.4677 17.4214 11.4047 17.2697C11.3418 17.1181 11.2495 16.9804 11.1331 16.8645C11.0168 16.7486 10.8788 16.6569 10.7269 16.5945C10.575 16.5321 10.4123 16.5003 10.2481 16.5009H8.33944Z" fill="#CDDFFF"/>
<path d="M23.2712 5.90168C27.651 6.03723 31.8063 7.87101 34.8584 11.0152C37.9104 14.1594 39.6198 18.3674 39.6251 22.7493C39.6225 27.0969 37.9421 31.2758 34.9341 34.4149C31.9261 37.554 27.8227 39.4111 23.4791 39.5992C23.6516 39.611 23.8264 39.6205 23.9988 39.6252C26.2316 39.6516 28.4475 39.2346 30.518 38.3984C32.5885 37.5623 34.4725 36.3235 36.0608 34.7539C37.649 33.1843 38.91 31.3151 39.7706 29.2547C40.6312 27.1942 41.0744 24.9834 41.0744 22.7504C41.0744 20.5175 40.6312 18.3067 39.7706 16.2462C38.91 14.1857 37.649 12.3166 36.0608 10.747C34.4725 9.17739 32.5885 7.93861 30.518 7.10242C28.4475 6.26624 26.2316 5.84927 23.9988 5.87569C23.7561 5.87836 23.5136 5.8886 23.2712 5.90168Z" fill="#C4DCF0"/>
<path d="M37.5085 14.6255C38.3689 16.1869 38.9765 17.8748 39.3086 19.6264H40.5724C40.2455 17.8757 39.6435 16.1879 38.7889 14.6255H37.5085Z" fill="#B3D0FF"/>
<path d="M8.33944 16.5009C7.54176 18.4885 7.12969 20.6097 7.12524 22.7514C7.12869 23.1685 7.1476 23.5853 7.18194 24.001H8.43157C8.39718 23.5845 8.37826 23.1669 8.37488 22.749C8.37962 20.6082 8.79168 18.4877 9.58907 16.5009H8.33944ZM17.127 7.36133C14.467 8.54929 12.1599 10.4056 10.43 12.7496H11.682C13.1318 10.791 14.9886 9.16953 17.1247 7.99677L17.127 7.36133Z" fill="#F8F8F8"/>
<path d="M17.1246 7.36133C16.6994 7.55503 16.2837 7.76764 15.875 7.99677V9.00073C15.875 9.69287 16.4325 10.2504 17.127 10.2504H18.3743C18.2099 10.2507 18.047 10.2185 17.8951 10.1556C17.7432 10.0928 17.6052 10.0006 17.4891 9.88421C17.373 9.76786 17.281 9.6297 17.2184 9.47767C17.1559 9.32565 17.124 9.16276 17.1246 8.99837V7.36133Z" fill="#B3D0FF"/>
<path d="M17.7484 29.6255C16.3671 29.6277 15.0255 30.0874 13.9331 30.9328C12.8407 31.7781 12.0592 32.9615 11.7104 34.298C14.6113 37.381 18.5648 39.2613 22.787 39.5658C23.5734 38.4961 23.9987 37.2037 24.0012 35.876C24.0012 34.2183 23.3427 32.6284 22.1705 31.4562C20.9983 30.284 19.4061 29.6255 17.7484 29.6255Z" fill="#C4DCF0"/>
<path d="M18.4758 10.2505C18.8073 10.2505 19.1251 10.3821 19.3595 10.6165C19.5938 10.8508 19.7255 11.1687 19.7255 11.5001C19.7255 11.8315 19.5938 12.1494 19.3595 12.3837C19.1251 12.6181 18.8073 12.7498 18.4758 12.7498H19.7255C20.0569 12.7498 20.3747 12.6181 20.6091 12.3837C20.8434 12.1494 20.9751 11.8315 20.9751 11.5001C20.9751 11.1687 20.8434 10.8508 20.6091 10.6165C20.3747 10.3821 20.0569 10.2505 19.7255 10.2505H18.4758Z" fill="#B3D0FF"/>
<path d="M22.7491 35.8761C22.7653 36.707 22.6156 37.5328 22.3088 38.3051C22.002 39.0775 21.5442 39.7809 20.9623 40.3742C20.3804 40.9675 19.686 41.4389 18.9198 41.7606C18.1536 42.0824 17.3308 42.2481 16.4998 42.2481C15.6687 42.2481 14.846 42.0824 14.0798 41.7606C13.3135 41.4389 12.6192 40.9675 12.0372 40.3742C11.4553 39.7809 10.9976 39.0775 10.6908 38.3051C10.384 37.5328 10.2343 36.707 10.2504 35.8761C10.2823 34.2397 10.9547 32.6811 12.1232 31.5351C13.2917 30.389 14.8631 29.7471 16.4998 29.7471C18.1365 29.7471 19.7079 30.389 20.8764 31.5351C22.0449 32.6811 22.7173 34.2397 22.7491 35.8761Z" fill="#CDDFFF"/>
<path d="M17.1033 29.6609C15.5667 29.8209 14.1437 30.5443 13.109 31.6916C12.0743 32.8389 11.5011 34.3287 11.5001 35.8737C11.501 37.4261 12.0796 38.9226 13.1232 40.0718C14.1668 41.2211 15.6007 41.9409 17.1459 42.0911C16.3011 42.1814 15.4468 42.0986 14.6352 41.8476C13.8235 41.5967 13.0715 41.1829 12.4252 40.6316C11.7788 40.0802 11.2516 39.4029 10.8758 38.641C10.5 37.8791 10.2834 37.0485 10.2394 36.2001C10.1953 35.3517 10.3247 34.5032 10.6196 33.7065C10.9144 32.9097 11.3687 32.1814 11.9545 31.5661C12.5402 30.9508 13.2453 30.4614 14.0266 30.1277C14.8079 29.7941 15.649 29.6232 16.4986 29.6255C16.7018 29.6255 16.9025 29.6397 17.1033 29.6609Z" fill="#F8F8F8"/>
<path d="M15.8963 29.6609C17.4329 29.8209 18.8559 30.5443 19.8906 31.6916C20.9253 32.8389 21.4985 34.3287 21.4995 35.8737C21.4986 37.4261 20.92 38.9226 19.8764 40.0718C18.8328 41.2211 17.3989 41.9409 15.8538 42.0911C16.6985 42.1814 17.5528 42.0986 18.3645 41.8476C19.1761 41.5967 19.9281 41.1829 20.5745 40.6316C21.2208 40.0802 21.748 39.4029 22.1238 38.641C22.4997 37.8791 22.7162 37.0485 22.7603 36.2001C22.8043 35.3517 22.6749 34.5032 22.3801 33.7065C22.0852 32.9097 21.631 32.1814 21.0452 31.5661C20.4594 30.9508 19.7543 30.4614 18.973 30.1277C18.1917 29.7941 17.3506 29.6232 16.501 29.6255C16.2979 29.6255 16.0994 29.6397 15.8963 29.6609Z" fill="#B3D0FF"/>
<path d="M7.12528 39.6252H5.87329V37.126H7.12528V39.6252Z" fill="#F8F8F8"/>
<path d="M7.12528 42.1268H5.87329V39.6228H7.12528V42.1268ZM8.37728 37.1259H7.12528V34.6266H8.37728V37.1259ZM7.12528 34.6266H5.87329V32.125H7.12528V34.6266Z" fill="#F8F8F8"/>
<path d="M9.00098 16.501C9.69312 16.501 10.2506 17.0585 10.2506 17.7506C10.2506 18.4428 10.8081 19.0002 11.5002 19.0002H12.7522C12.5876 19.0009 12.4246 18.9689 12.2724 18.9062C12.1202 18.8435 11.9819 18.7513 11.8655 18.6349C11.7492 18.5186 11.657 18.3803 11.5943 18.2281C11.5316 18.0759 11.4996 17.9128 11.5002 17.7483C11.5002 17.5841 11.4678 17.4215 11.4048 17.2699C11.3419 17.1182 11.2496 16.9805 11.1333 16.8646C11.0169 16.7487 10.8789 16.657 10.727 16.5946C10.5751 16.5322 10.4124 16.5004 10.2482 16.501H9.00098ZM14.6231 19.0002C15.3176 19.0002 15.8751 19.5577 15.8751 20.2522C15.8751 20.942 16.4326 21.4995 17.1271 21.4995H18.3744C18.2102 21.4998 18.0476 21.4677 17.8958 21.405C17.7441 21.3423 17.6062 21.2503 17.4901 21.1342C17.374 21.0181 17.2819 20.8802 17.2192 20.7285C17.1566 20.5767 17.1244 20.4141 17.1248 20.2499C17.1251 20.0857 17.093 19.923 17.0303 19.7713C16.9676 19.6195 16.8755 19.4817 16.7594 19.3656C16.6433 19.2495 16.5055 19.1574 16.3537 19.0947C16.202 19.032 16.0393 18.9999 15.8751 19.0002H14.6231ZM20.2524 21.4995C20.5841 21.4995 20.9023 21.6313 21.1368 21.8659C21.3714 22.1004 21.5032 22.4186 21.5032 22.7503C21.5032 23.0821 21.3714 23.4002 21.1368 23.6348C20.9023 23.8694 20.5841 24.0011 20.2524 24.0011H21.5044C21.8361 24.0011 22.1543 23.8694 22.3888 23.6348C22.6234 23.4002 22.7552 23.0821 22.7552 22.7503C22.7552 22.4186 22.6234 22.1004 22.3888 21.8659C22.1543 21.6313 21.8361 21.4995 21.5044 21.4995H20.2524Z" fill="#B3D0FF"/>
<path d="M42.1267 26.3869L33.3745 23.375L24.6248 26.3869C24.6248 38.3753 33.3745 42.1265 33.3745 42.1265C33.3745 42.1265 42.1267 38.3753 42.1267 26.3869Z" fill="#CDDFFF"/>
<path d="M39.0015 28.4352L33.3746 26.5005L27.7524 28.4375C27.7524 35.8763 33.3746 38.3755 33.3746 38.3755C33.3746 38.3755 39.0015 35.8763 39.0015 28.4352Z" fill="#E4EFF8"/>
<path d="M33.3746 26.5005L32.751 26.7155L37.7495 28.4352C37.7495 34.388 34.1919 37.1448 32.751 38.0235C33.11 38.2432 33.3746 38.3779 33.3746 38.3779C33.3746 38.3779 39.0015 35.8739 39.0015 28.4352L33.3746 26.5005Z" fill="#C4DCF0"/>
<path d="M33.3746 26.5005L27.7524 28.4375C27.7524 35.2928 32.4769 37.9243 33.2234 38.2999C31.558 37.0267 28.9997 34.2628 28.9997 29.2431L34.6266 27.306L38.992 28.8108C38.9944 28.6856 39.0015 28.5627 39.0015 28.4352L33.3746 26.5005Z" fill="#F8F8F8"/>
<path d="M33.3746 23.375L32.751 23.59L40.8771 26.3869C40.8771 36.4453 34.7353 40.6903 32.751 41.8029C33.1313 42.0155 33.3746 42.1265 33.3746 42.1265C33.3746 42.1265 42.1268 38.3753 42.1268 26.3869L33.3746 23.375Z" fill="#B3D0FF"/>
<path d="M33.3745 23.3753L24.6248 26.3871C24.6248 38.3756 33.3745 42.1268 33.3745 42.1268C33.3745 42.1268 33.6202 42.0158 34.0005 41.8032C32.0162 40.6929 25.8744 36.4432 25.8744 26.3871L34.0005 23.5902L33.3745 23.3753ZM26.6138 14.6255C26.2823 14.6255 25.9645 14.7571 25.7301 14.9915C25.4958 15.2258 25.3641 15.5437 25.3641 15.8751C25.3641 16.2065 25.4958 16.5244 25.7301 16.7587C25.9645 16.9931 26.2823 17.1248 26.6138 17.1248H27.8658C27.5343 17.1248 27.2165 16.9931 26.9821 16.7587C26.7478 16.5244 26.6161 16.2065 26.6161 15.8751C26.6161 15.5437 26.7478 15.2258 26.9821 14.9915C27.2165 14.7571 27.5343 14.6255 27.8658 14.6255H26.6138ZM30.8753 17.1248C31.5674 17.1248 32.1273 17.6822 32.1273 18.3767C32.1273 19.0689 32.6824 19.6264 33.3745 19.6264H34.6265C34.4619 19.627 34.2989 19.595 34.1467 19.5323C33.9945 19.4696 33.8562 19.3774 33.7398 19.2611C33.6235 19.1447 33.5313 19.0064 33.4686 18.8542C33.4059 18.7021 33.3739 18.539 33.3745 18.3744C33.3748 18.2102 33.3427 18.0476 33.28 17.8958C33.2174 17.744 33.1253 17.6062 33.0092 17.4901C32.8931 17.374 32.7552 17.2819 32.6035 17.2192C32.4517 17.1565 32.2891 17.1244 32.1249 17.1248H30.8753Z" fill="#F8F8F8"/>
<path d="M6.50151 22.7515C6.50312 25.8246 7.31377 28.8432 8.85194 31.5037H5.81173C5.6578 31.5194 5.51517 31.5916 5.41135 31.7064C5.30753 31.8211 5.24987 31.9702 5.24951 32.1249V34.6289C5.24951 34.9691 5.52826 35.2478 5.87315 35.2502H6.50151V36.4998H5.87315C5.70753 36.5004 5.54891 36.5667 5.43203 36.684C5.31514 36.8013 5.24951 36.9602 5.24951 37.1258V42.1243C5.24951 42.4692 5.52826 42.7503 5.87315 42.7503H16.4962C17.5373 42.7523 18.5652 42.517 19.5017 42.0623C20.4382 41.6075 21.2588 40.9453 21.901 40.1259C24.247 40.4094 26.6263 40.2117 28.8933 39.5448C31.0429 41.7889 33.1288 42.7007 33.1288 42.7007C33.2061 42.7337 33.2893 42.7506 33.3733 42.7506C33.4573 42.7506 33.5405 42.7337 33.6178 42.7007C33.6178 42.7007 35.9399 41.7015 38.2124 39.1692C40.4849 36.6415 42.7479 32.5312 42.7479 26.3847C42.7477 26.2548 42.7072 26.1281 42.6318 26.0223C42.5565 25.9165 42.4501 25.8367 42.3274 25.7941L41.288 25.435C41.6735 22.9406 41.5151 20.3924 40.8237 17.9649C40.1324 15.5374 38.9243 13.2881 37.2824 11.3711C35.6405 9.45413 33.6036 7.9148 31.3111 6.85862C29.0187 5.80243 26.5251 5.25435 24.0011 5.25195C19.3594 5.25321 14.9082 7.09748 11.6259 10.3794C8.34353 13.6613 6.49866 18.1122 6.49678 22.7539L6.50151 22.7515ZM37.6927 13.997H26.6113C26.1143 14.0001 25.6385 14.1995 25.2877 14.5516C24.9369 14.9038 24.7393 15.3803 24.7381 15.8774C24.7381 16.9049 25.5838 17.7483 26.6113 17.7483H30.8752C31.2319 17.7483 31.5036 18.0412 31.5036 18.3766C31.5036 19.4042 32.3304 20.2499 33.3745 20.2499H40.0596C40.3024 21.8305 40.3127 23.4381 40.0904 25.0216L33.58 22.7822C33.4486 22.7354 33.3051 22.7354 33.1737 22.7822L24.4192 25.7941C24.2969 25.8371 24.191 25.9171 24.1161 26.0228C24.0413 26.1286 24.001 26.255 24.0011 26.3847C24.0011 32.0257 25.8956 35.9518 27.9744 38.5054C26.2367 38.9445 24.4382 39.0922 22.6522 38.9424C23.1717 37.8941 23.4155 36.7308 23.3605 35.5622C23.3056 34.3935 22.9537 33.2582 22.338 32.2634C21.7224 31.2685 20.8634 30.447 19.8421 29.8764C18.8207 29.3057 17.6708 29.0048 16.5009 29.002C14.3678 29.002 12.4615 29.9776 11.2 31.5037H10.3189C8.98999 29.4259 8.15221 27.0725 7.86925 24.6224H21.4994C21.9953 24.6206 22.4703 24.4229 22.8211 24.0725C23.172 23.7221 23.3702 23.2473 23.3727 22.7515C23.3708 22.2553 23.1729 21.7799 22.822 21.429C22.4711 21.0781 21.9957 20.8801 21.4994 20.8782H18.3765C18.2103 20.877 18.0512 20.8104 17.9336 20.6928C17.816 20.5753 17.7494 20.4162 17.7482 20.2499C17.7463 19.754 17.5487 19.279 17.1983 18.9282C16.8479 18.5773 16.3731 18.3791 15.8773 18.3766H12.752C12.6692 18.3782 12.5868 18.3631 12.51 18.332C12.4332 18.301 12.3634 18.2547 12.3049 18.196C12.2464 18.1373 12.2004 18.0674 12.1697 17.9904C12.139 17.9135 12.1241 17.8311 12.126 17.7483C12.1229 17.2522 11.9242 16.7774 11.5729 16.4271C11.2217 16.0768 10.7465 15.8792 10.2504 15.8774H9.27243C9.68818 14.9868 10.163 14.1671 10.7276 13.3734C13.1938 13.3781 16.8694 13.3734 19.723 13.3734C20.2193 13.3715 20.6948 13.174 21.0464 12.8238C21.398 12.4735 21.5973 11.9987 21.601 11.5025C21.5979 11.0054 21.3991 10.5295 21.0475 10.178C20.696 9.82643 20.2201 9.62758 19.723 9.62448H18.3765C18.2937 9.62707 18.2112 9.61275 18.1342 9.58239C18.0571 9.55203 17.987 9.50626 17.9281 9.4479C17.8693 9.38953 17.823 9.31978 17.7921 9.24291C17.7612 9.16605 17.7462 9.08368 17.7482 9.00085V7.74649C19.7296 6.92186 21.8549 6.49871 24.0011 6.50158C26.7294 6.49916 29.4142 7.1847 31.8074 8.49482C34.2005 9.80494 36.2247 11.6973 37.6927 13.997ZM16.4962 8.33469V9.00085C16.4962 10.0284 17.3466 10.8741 18.3742 10.8741H19.7207C19.8037 10.8722 19.8863 10.8871 19.9634 10.918C20.0405 10.9489 20.1106 10.9951 20.1693 11.0538C20.228 11.1126 20.2743 11.1826 20.3051 11.2597C20.336 11.3368 20.351 11.4194 20.349 11.5025C20.351 11.5853 20.336 11.6677 20.3051 11.7445C20.2742 11.8214 20.2279 11.8912 20.1691 11.9495C20.1102 12.0079 20.0402 12.0537 19.9631 12.084C19.886 12.1144 19.8035 12.1287 19.7207 12.1261H11.7055C13.0503 10.5709 14.6774 9.28442 16.5009 8.33469H16.4962ZM26.6113 15.2443H38.4132C39.0226 16.4207 39.4998 17.6774 39.8116 18.9979H33.3745C33.2924 18.9982 33.211 18.9823 33.1351 18.9511C33.0592 18.9199 32.9901 18.874 32.932 18.8161C32.8738 18.7581 32.8277 18.6893 32.7962 18.6135C32.7647 18.5376 32.7485 18.4564 32.7485 18.3743C32.7491 18.1279 32.7011 17.8838 32.6072 17.6559C32.5134 17.4281 32.3755 17.2211 32.2015 17.0466C32.0275 16.8722 31.8208 16.7338 31.5932 16.6393C31.3656 16.5449 31.1216 16.4963 30.8752 16.4963H26.6113C26.529 16.4985 26.4471 16.484 26.3706 16.4536C26.2941 16.4233 26.2245 16.3776 26.1662 16.3195C26.1078 16.2614 26.0619 16.192 26.0313 16.1156C26.0006 16.0392 25.9858 15.9573 25.9877 15.875C25.9877 15.5159 26.2546 15.2443 26.6113 15.2443ZM8.75037 17.1246H10.2504C10.6071 17.1246 10.874 17.3892 10.874 17.7459C10.8771 18.243 11.076 18.7189 11.4275 19.0704C11.779 19.4219 12.2549 19.6208 12.752 19.6239H15.8773C16.2316 19.6239 16.4986 19.8885 16.4986 20.2475C16.4986 21.2751 17.3253 22.1255 18.3765 22.1255H21.4994C21.8561 22.1255 22.1278 22.3901 22.1278 22.7491C22.1294 22.8318 22.1143 22.9139 22.0832 22.9905C22.0521 23.0671 22.0057 23.1365 21.947 23.1946C21.8882 23.2528 21.8182 23.2983 21.7413 23.3285C21.6643 23.3587 21.5821 23.373 21.4994 23.3704H7.77476C7.68766 21.2447 8.01914 19.1225 8.75037 17.1246ZM33.3745 24.0342L41.4274 26.8028C41.4085 32.4391 39.325 36.0581 37.284 38.3329C35.3044 40.5369 33.5965 41.2621 33.3745 41.3613C33.1548 41.2621 31.4422 40.5345 29.4626 38.3329C27.4216 36.0581 25.3688 32.3895 25.2507 26.8288L33.3745 24.0342ZM33.1737 25.9075L27.5492 27.8422C27.4256 27.884 27.3182 27.9634 27.2419 28.0693C27.1657 28.1752 27.1244 28.3023 27.124 28.4327C27.1051 36.2754 33.1217 38.9424 33.1217 38.9424C33.2823 39.0132 33.4666 39.0132 33.6296 38.9424C33.6296 38.9424 39.6297 36.2825 39.6297 28.4304C39.6287 28.3003 39.5873 28.1738 39.5111 28.0684C39.4349 27.9629 39.3277 27.8839 39.2045 27.8422L33.58 25.9075C33.5045 25.8766 33.4224 25.8653 33.3414 25.8744C33.2705 25.8815 33.2138 25.898 33.1737 25.9075ZM33.3745 27.1595L38.3635 28.8768C38.0966 35.1959 33.8446 37.388 33.3745 37.6691C32.9351 37.4282 28.6807 35.2029 28.3783 28.8792L33.3745 27.1595ZM16.4986 30.2517C17.2376 30.2501 17.9698 30.3944 18.653 30.6763C19.3362 30.9582 19.957 31.3722 20.48 31.8945C21.0029 32.4167 21.4177 33.0371 21.7004 33.7199C21.9832 34.4028 22.1284 35.1347 22.1278 35.8738C22.1287 36.6131 21.9837 37.3453 21.7011 38.0284C21.4185 38.7116 21.0038 39.3322 20.4808 39.8547C19.9579 40.3772 19.3369 40.7914 18.6535 41.0735C17.9702 41.3555 17.2378 41.4999 16.4986 41.4983C15.7598 41.4996 15.028 41.355 14.3452 41.073C13.6624 40.7909 13.042 40.3768 12.5195 39.8546C11.997 39.3323 11.5827 38.712 11.3003 38.0293C11.018 37.3466 10.8731 36.615 10.874 35.8762C10.8728 35.1372 11.0174 34.4053 11.2996 33.7223C11.5819 33.0393 11.9961 32.4188 12.5186 31.8963C13.0412 31.3737 13.6617 30.9595 14.3447 30.6773C15.0276 30.395 15.7596 30.2504 16.4986 30.2517ZM15.8773 32.7556C15.3808 32.7575 14.9052 32.9554 14.5539 33.3062C14.2026 33.6571 14.0041 34.1324 14.0017 34.6289C14.0017 35.6565 14.8473 36.5045 15.8773 36.5022V37.7471H14.6253C13.7749 37.7282 13.7749 39.0156 14.6253 38.9991H15.8773C15.9104 39.7975 17.0679 39.8471 17.1269 38.9991C17.6236 38.9972 18.0993 38.7989 18.4503 38.4475C18.8012 38.0961 18.9989 37.6201 19.0002 37.1234C18.9965 36.628 18.7978 36.1539 18.4473 35.8038C18.0967 35.4537 17.6224 35.2556 17.1269 35.2525V34.0053H18.3765C19.1962 33.9817 19.2175 32.8005 18.3765 32.7533H17.1245C17.1245 32.6714 17.1084 32.5903 17.0771 32.5146C17.0457 32.439 16.9998 32.3702 16.9419 32.3123C16.884 32.2544 16.8152 32.2085 16.7396 32.1771C16.6639 32.1458 16.5828 32.1296 16.5009 32.1296C16.419 32.1296 16.3379 32.1458 16.2623 32.1771C16.1866 32.2085 16.1178 32.2544 16.0599 32.3123C16.002 32.3702 15.9561 32.439 15.9248 32.5146C15.8934 32.5903 15.8773 32.6714 15.8773 32.7533V32.7556ZM6.50151 32.7462H10.385C10.1797 33.1455 10.0143 33.564 9.89134 33.9958H6.50151V32.7462ZM15.8773 34.0053V35.2525C15.7119 35.2525 15.5533 35.1868 15.4363 35.0699C15.3194 34.9529 15.2536 34.7943 15.2536 34.6289C15.2536 34.4635 15.3194 34.3049 15.4363 34.1879C15.5533 34.071 15.7119 34.0053 15.8773 34.0053ZM7.75114 35.2478H9.65511C9.63538 35.4559 9.62513 35.6648 9.6244 35.8738C9.6244 36.0864 9.63858 36.2919 9.65511 36.4975H7.75114V35.2478ZM17.1269 36.5022C17.4836 36.5069 17.7482 36.7856 17.7482 37.1234C17.7495 37.2055 17.7343 37.287 17.7035 37.363C17.6728 37.4391 17.6271 37.5083 17.5692 37.5664C17.5113 37.6245 17.4423 37.6705 17.3663 37.7015C17.2904 37.7325 17.209 37.748 17.1269 37.7471V36.5022ZM6.50151 37.7471H9.88897C10.0142 38.1841 10.1795 38.5999 10.385 38.9991H6.49914L6.50151 37.7471ZM6.50151 40.2487H11.2C11.5906 40.7246 12.0435 41.1458 12.5465 41.5007H6.49914L6.50151 40.2487Z" fill="#0361FF"/>
<defs>
<linearGradient id="paint0_linear_4218_16993" x1="4.5" y1="-8.25152e-07" x2="15.5" y2="20.5" gradientUnits="userSpaceOnUse">
<stop stop-color="white"/>
<stop offset="1" stop-color="white" stop-opacity="0"/>
</linearGradient>
<linearGradient id="paint1_linear_4218_16993" x1="44.5" y1="47" x2="28.5" y2="28.5" gradientUnits="userSpaceOnUse">
<stop stop-color="white"/>
<stop offset="1" stop-color="white" stop-opacity="0"/>
</linearGradient>
</defs>
</svg>
