<svg width="22" height="20" viewBox="0 0 22 20" fill="none" xmlns="http://www.w3.org/2000/svg">
    <path fill-rule="evenodd" clip-rule="evenodd"
          d="M10.1562 20H5.27016C2.82616 20 0.837158 18.011 0.837158 15.565V4.436C0.837158 1.99 2.82616 0 5.27016 0H10.1452C12.5912 0 14.5812 1.99 14.5812 4.436V5.368C14.5812 5.782 14.2452 6.118 13.8312 6.118C13.4172 6.118 13.0812 5.782 13.0812 5.368V4.436C13.0812 2.816 11.7642 1.5 10.1452 1.5H5.27016C3.65316 1.5 2.33716 2.816 2.33716 4.436V15.565C2.33716 17.184 3.65316 18.5 5.27016 18.5H10.1562C11.7682 18.5 13.0812 17.188 13.0812 15.576V14.633C13.0812 14.219 13.4172 13.883 13.8312 13.883C14.2452 13.883 14.5812 14.219 14.5812 14.633V15.576C14.5812 18.016 12.5952 20 10.1562 20Z"
          fill="#DB2B24"/>
    <mask id="mask0_295_419" style="mask-type:luminance" maskUnits="userSpaceOnUse" x="7" y="9" width="15" height="2">
        <path fill-rule="evenodd" clip-rule="evenodd" d="M7.83301 9.25H21.3739V10.75H7.83301V9.25Z" fill="white"/>
    </mask>
    <g mask="url(#mask0_295_419)">
        <path fill-rule="evenodd" clip-rule="evenodd"
              d="M20.624 10.75H8.58301C8.16901 10.75 7.83301 10.414 7.83301 10C7.83301 9.586 8.16901 9.25 8.58301 9.25H20.624C21.038 9.25 21.374 9.586 21.374 10C21.374 10.414 21.038 10.75 20.624 10.75Z"
              fill="#DB2B24"/>
    </g>
    <mask id="mask1_295_419" style="mask-type:luminance" maskUnits="userSpaceOnUse" x="16" y="6" width="6" height="8">
        <path fill-rule="evenodd" clip-rule="evenodd" d="M16.9465 6.33525H21.3739V13.666H16.9465V6.33525Z"
              fill="white"/>
    </mask>
    <g mask="url(#mask1_295_419)">
        <path fill-rule="evenodd" clip-rule="evenodd"
              d="M17.6963 13.666C17.5043 13.666 17.3113 13.593 17.1653 13.445C16.8733 13.151 16.8743 12.677 17.1673 12.385L19.5613 10L17.1673 7.616C16.8743 7.324 16.8723 6.85 17.1653 6.556C17.4573 6.262 17.9313 6.262 18.2253 6.554L21.1533 9.469C21.2953 9.609 21.3743 9.801 21.3743 10C21.3743 10.199 21.2953 10.391 21.1533 10.531L18.2253 13.447C18.0793 13.593 17.8873 13.666 17.6963 13.666Z"
              fill="#DB2B24"/>
    </g>
</svg>
