<svg width="25" height="24" viewBox="0 0 25 24" fill="none" xmlns="http://www.w3.org/2000/svg">
    <path d="M19.6429 19.1429C20.4006 19.1429 21.1273 18.8418 21.6632 18.306C22.199 17.7702 22.5 17.0435 22.5 16.2857V13.4286C22.5 12.6708 22.199 11.9441 21.6632 11.4083C21.1273 10.8724 20.4006 10.5714 19.6429 10.5714C19.264 10.5714 18.9006 10.7219 18.6327 10.9898C18.3648 11.2578 18.2143 11.6211 18.2143 12V17.7143C18.2143 18.0932 18.3648 18.4565 18.6327 18.7244C18.9006 18.9923 19.264 19.1429 19.6429 19.1429ZM19.6429 19.1429C19.6429 19.9006 19.3418 20.6273 18.806 21.1632C18.2702 21.699 17.5435 22 16.7857 22H13.2143M22.5 15.5714V12C22.5 10.6868 22.2413 9.38642 21.7388 8.17317C21.2362 6.95991 20.4997 5.85752 19.5711 4.92893C18.6425 4.00035 17.5401 3.26375 16.3268 2.7612C15.1136 2.25866 13.8132 2 12.5 2C11.1868 2 9.88642 2.25866 8.67317 2.7612C7.45991 3.26375 6.35752 4.00035 5.42893 4.92893C4.50035 5.85752 3.76375 6.95991 3.2612 8.17317C2.75866 9.38642 2.5 10.6868 2.5 12V15.5714M5.35714 19.1429C5.73602 19.1429 6.09939 18.9923 6.3673 18.7244C6.6352 18.4565 6.78571 18.0932 6.78571 17.7143V12C6.78571 11.6211 6.6352 11.2578 6.3673 10.9898C6.09939 10.7219 5.73602 10.5714 5.35714 10.5714C4.59938 10.5714 3.87266 10.8724 3.33684 11.4083C2.80102 11.9441 2.5 12.6708 2.5 13.4286V16.2857C2.5 17.0435 2.80102 17.7702 3.33684 18.306C3.87266 18.8418 4.59938 19.1429 5.35714 19.1429Z"
          stroke="#999BA7" stroke-width="1.5"/>
</svg>
