<svg width="25" height="24" viewBox="0 0 25 24" fill="none" xmlns="http://www.w3.org/2000/svg">
    <path d="M11.9922 2.78894H8.25324C5.17824 2.78894 3.25024 4.96594 3.25024 8.04794V16.3619C3.25024 19.4439 5.16924 21.6209 8.25324 21.6209H17.0772C20.1622 21.6209 22.0812 19.4439 22.0812 16.3619V12.3339"
          stroke="#999BA7" stroke-width="1.5" stroke-linecap="round" stroke-linejoin="round"/>
    <path fill-rule="evenodd" clip-rule="evenodd"
          d="M9.32763 10.9209L16.8006 3.44787C17.7316 2.51787 19.2406 2.51787 20.1716 3.44787L21.3886 4.66487C22.3196 5.59587 22.3196 7.10587 21.3886 8.03587L13.8796 15.5449C13.4726 15.9519 12.9206 16.1809 12.3446 16.1809H8.59863L8.69263 12.4009C8.70663 11.8449 8.93363 11.3149 9.32763 10.9209Z"
          stroke="#999BA7" stroke-width="1.5" stroke-linecap="round" stroke-linejoin="round"/>
    <path d="M15.665 4.60242L20.231 9.16842" stroke="#999BA7" stroke-width="1.5" stroke-linecap="round"
          stroke-linejoin="round"/>
</svg>
