<svg width="102" height="33" viewBox="0 0 102 33" fill="none" xmlns="http://www.w3.org/2000/svg">
    <g clip-path="url(#clip0_1132_16293)">
        <path d="M45.6763 16.8416C45.9144 16.8615 46.1539 16.8312 46.3795 16.7527C46.6051 16.6742 46.8118 16.5493 46.9861 16.386C47.0707 16.2781 47.1469 16.1639 47.2139 16.0443C47.2958 16.1685 47.3913 16.2831 47.4987 16.386C47.8141 16.7079 48.244 16.8921 48.6946 16.8986C48.9321 16.8993 49.167 16.8488 49.3832 16.7505C49.5994 16.6523 49.7919 16.5085 49.9475 16.3291C50.2641 16.0001 50.4411 15.5613 50.4411 15.1047C50.4411 14.6481 50.2641 14.2092 49.9475 13.8803C49.6185 13.5636 49.1797 13.3867 48.7231 13.3867C48.2665 13.3867 47.8276 13.5636 47.4987 13.8803C47.3799 13.972 47.2827 14.0886 47.2139 14.222C47.1511 14.0999 47.0747 13.9852 46.9861 13.8803C46.8282 13.7037 46.6353 13.5618 46.4196 13.4638C46.2039 13.3658 45.9702 13.3137 45.7333 13.3108C45.4964 13.3137 45.2626 13.3658 45.047 13.4638C44.8313 13.5618 44.6383 13.7037 44.4804 13.8803C44.1981 14.1132 43.998 14.4306 43.9097 14.7858C43.8213 15.1409 43.8494 15.5151 43.9897 15.8531C44.13 16.1912 44.3752 16.4752 44.6891 16.6634C45.003 16.8516 45.369 16.934 45.7333 16.8986L45.6763 16.8416Z"
              fill="#348ACA"/>
        <path d="M81.554 13.8798C81.369 13.8796 81.1862 13.9203 81.0188 13.9991C80.8514 14.0778 80.7036 14.1927 80.5858 14.3354C80.2968 14.6216 80.133 15.0107 80.1302 15.4174C80.1627 15.8605 80.239 16.2992 80.358 16.7272C80.4813 17.1737 80.5576 17.6317 80.5858 18.094C80.5858 19.176 79.8455 19.6886 78.3079 19.6886H76.5425C75.8032 19.6693 75.0751 19.5034 74.4006 19.2003C73.726 18.8972 73.1184 18.4631 72.613 17.9232L69.7656 15.0188L65.1527 10.8615C65.0582 10.7967 64.9787 10.7123 64.9198 10.6141C64.8608 10.5158 64.8237 10.406 64.8111 10.292C64.8111 10.1212 64.9819 9.95036 65.2097 9.83646C67.8776 8.79972 70.6186 7.96218 73.4103 7.33072C74.3215 7.15987 74.7201 6.64733 74.7201 5.907C74.7201 4.88192 74.1506 4.42633 73.0117 4.42633C72.7826 4.42507 72.5539 4.44413 72.3283 4.48328C69.0494 5.11135 65.8824 6.22459 62.9317 7.78631C62.4782 8.07237 62.1146 8.48071 61.8829 8.9643C61.6512 9.4479 61.5607 9.9871 61.6219 10.5198C61.5922 11.011 61.6903 11.5016 61.9067 11.9436C62.8939 13.2248 64.0423 14.3733 65.3236 15.3605C67.032 16.8411 67.8863 17.8662 67.8863 18.3788C67.8863 19.1191 67.2029 19.5177 65.7222 19.6886H61.1663C59.7996 19.6886 59.0023 19.1191 58.7745 18.0371L58.5467 16.8981C58.4706 16.6783 58.3221 16.491 58.1254 16.3668C57.9288 16.2426 57.6958 16.189 57.4647 16.2147C57.0091 16.2147 56.6104 16.4995 56.3257 17.1259C56.1083 17.7167 55.8416 18.2882 55.5284 18.8343C54.6172 19.9733 52.1684 20.5428 48.2959 20.5428H46.4166C43.74 20.5428 41.9177 20.2011 40.9496 19.5747C40.6369 19.3745 40.3828 19.0952 40.2128 18.7652C40.0428 18.4352 39.963 18.0661 39.9814 17.6954C39.9832 17.313 40.0214 16.9316 40.0953 16.5564C40.1891 16.1832 40.2464 15.8017 40.2662 15.4174C40.2974 15.2612 40.2895 15.0996 40.2433 14.9472C40.1971 14.7947 40.114 14.6559 40.0014 14.5433C39.8887 14.4306 39.75 14.3475 39.5975 14.3013C39.445 14.2551 39.2834 14.2473 39.1272 14.2785C38.4438 14.2785 37.8743 14.8479 37.4757 16.1008C37.2103 16.9682 37.076 17.8703 37.077 18.7774C37.077 22.3462 40.1143 24.1306 46.1888 24.1306C52.0545 24.1306 55.6993 23.2194 57.0091 21.3401C57.5786 22.6499 58.7745 23.2763 60.5399 23.2763H61.6789C63.5346 23.3432 65.3912 23.1709 67.2029 22.7638C67.9567 22.5806 68.6441 22.1902 69.1876 21.6367C69.731 21.0832 70.1088 20.3886 70.2781 19.6316C71.9866 22.0614 74.1127 23.2763 76.6564 23.2763H78.0231C78.7576 23.3075 79.4906 23.187 80.1764 22.9225C80.8623 22.658 81.4863 22.255 82.0096 21.7387C82.5189 21.1896 82.9124 20.5436 83.1668 19.8391C83.4212 19.1347 83.5312 18.3863 83.4902 17.6384C83.5472 15.1896 82.9207 13.9368 81.6109 13.9368L81.554 13.8798ZM79.0482 25.2126C78.5976 25.219 78.1677 25.4032 77.8523 25.7251C77.6222 25.9252 77.446 26.1797 77.3398 26.4655C77.2543 26.1835 77.0973 25.9285 76.8842 25.7251C76.7328 25.5554 76.549 25.4176 76.3437 25.3198C76.1383 25.222 75.9155 25.1662 75.6882 25.1557C75.4519 25.1619 75.2193 25.2155 75.004 25.3133C74.7888 25.4111 74.5954 25.5512 74.4354 25.7251C74.2656 25.8765 74.1278 26.0603 74.03 26.2657C73.9322 26.471 73.8764 26.6938 73.8659 26.9211C73.858 27.1625 73.8997 27.403 73.9885 27.6277C74.0772 27.8524 74.2112 28.0565 74.382 28.2273C74.5528 28.3981 74.7569 28.5321 74.9816 28.6208C75.2063 28.7096 75.4468 28.7513 75.6882 28.7434C75.9161 28.7362 76.14 28.6818 76.3458 28.5838C76.5516 28.4858 76.7349 28.3463 76.8842 28.1739C77.0935 27.9675 77.2498 27.7135 77.3398 27.4336C77.4253 27.7155 77.5822 27.9706 77.7953 28.1739C77.951 28.3534 78.1434 28.4971 78.3596 28.5954C78.5759 28.6937 78.8107 28.7442 79.0482 28.7434C79.2801 28.7361 79.5083 28.6831 79.7196 28.5875C79.931 28.4919 80.1215 28.3556 80.2802 28.1863C80.4388 28.0171 80.5626 27.8182 80.6443 27.6011C80.7261 27.384 80.7643 27.1529 80.7567 26.9211C80.7567 26.4679 80.5767 26.0334 80.2563 25.713C79.9359 25.3926 79.5013 25.2126 79.0482 25.2126ZM100.746 16.3856C100.475 15.9034 100.076 15.505 99.5943 15.2338C99.1122 14.9627 98.5649 14.8292 98.0121 14.8479C97.044 14.8479 96.0759 15.4174 95.1077 16.4425L93.684 18.4357C93.4461 18.8606 93.0842 19.2028 92.6466 19.4165C92.209 19.6302 91.7166 19.7053 91.2352 19.6316H90.8366C89.1851 19.6316 88.3878 18.6635 88.3878 16.6703V6.36259C88.3878 4.93887 87.8753 4.25549 86.8502 4.25549C86.5987 4.24292 86.3486 4.30008 86.1275 4.42067C85.9064 4.54127 85.7229 4.7206 85.5973 4.93887C85.3474 5.37012 85.2286 5.86489 85.2556 6.36259L85.5973 16.1578C85.5792 17.8426 85.8489 19.5182 86.3946 21.1123C87.021 22.593 88.3878 23.2763 90.438 23.2763H91.5769C92.1128 23.2915 92.6461 23.1985 93.1452 23.0028C93.6442 22.8071 94.0986 22.5127 94.4813 22.1374C94.8965 22.6365 95.4201 23.0344 96.0122 23.3009C96.6042 23.5673 97.2493 23.6953 97.8982 23.675C98.4181 23.6961 98.935 23.5875 99.4023 23.3588C99.8696 23.1301 100.273 22.7886 100.575 22.3652C101.19 21.5455 101.511 20.5423 101.486 19.5177C101.538 18.4175 101.261 17.3268 100.689 16.3856H100.746ZM97.8982 20.7137C97.5022 20.7042 97.1132 20.6069 96.7593 20.4289C96.3037 20.2011 96.0759 19.9164 96.0759 19.6316C96.0801 19.4114 96.1334 19.1948 96.2319 18.9978C96.3304 18.8008 96.4717 18.6282 96.6454 18.4927C96.9472 18.1761 97.35 17.9747 97.7843 17.9232C97.9812 17.9263 98.1738 17.9805 98.3435 18.0803C98.5132 18.1801 98.6541 18.3222 98.7525 18.4927C98.9764 18.8302 99.0953 19.2266 99.0942 19.6316C99.0942 20.372 98.6955 20.7137 97.8982 20.7137Z"
              fill="#348ACA"/>
        <path d="M16.3478 32.1604C24.997 32.1604 32.0086 25.1488 32.0086 16.4995C32.0086 7.85024 24.997 0.838623 16.3478 0.838623C7.69849 0.838623 0.686874 7.85024 0.686874 16.4995C0.686874 25.1488 7.69849 32.1604 16.3478 32.1604Z"
              fill="#348ACA"/>
        <path d="M25.972 14.6782C25.913 13.5742 25.5274 12.5125 24.8642 11.628C24.201 10.7434 23.29 10.0757 22.2467 9.70967C21.2035 9.34362 20.075 9.29568 19.0045 9.57192C17.934 9.84815 16.9696 10.4361 16.2337 11.2613C15.5083 10.4431 14.5586 9.85606 13.5024 9.57303C12.4463 9.28999 11.3302 9.32344 10.2929 9.66921C9.25562 10.015 8.34272 10.6578 7.66762 11.518C6.99251 12.3781 6.58494 13.4176 6.49551 14.5073V20.9995C6.50957 21.3575 6.65808 21.697 6.91141 21.9504C7.16475 22.2037 7.50429 22.3522 7.86228 22.3663H7.91923C8.28716 22.3665 8.64092 22.2244 8.90634 21.9696C9.17176 21.7148 9.32823 21.3671 9.34295 20.9995V14.906C9.34295 14.1734 9.63394 13.4709 10.1519 12.9529C10.6699 12.435 11.3724 12.144 12.105 12.144C12.8375 12.144 13.54 12.435 14.058 12.9529C14.576 13.4709 14.867 14.1734 14.867 14.906V20.0314C14.8667 20.3993 15.0088 20.753 15.2636 21.0185C15.5184 21.2839 15.8661 21.4404 16.2337 21.4551C16.6113 21.4551 16.9735 21.3051 17.2405 21.0381C17.5075 20.7711 17.6575 20.4089 17.6575 20.0314V14.906C17.6575 14.1734 17.9485 13.4709 18.4664 12.9529C18.9844 12.435 19.6869 12.144 20.4195 12.144C21.152 12.144 21.8545 12.435 22.3725 12.9529C22.8905 13.4709 23.1815 14.1734 23.1815 14.906V20.9995C23.1813 21.1839 23.2185 21.3664 23.2907 21.536C23.3629 21.7057 23.4687 21.859 23.6017 21.9866C23.7347 22.1143 23.8922 22.2138 24.0646 22.279C24.2371 22.3443 24.421 22.3739 24.6052 22.3663C24.9677 22.3663 25.3153 22.2223 25.5716 21.9659C25.828 21.7096 25.972 21.362 25.972 20.9995V14.7351C25.9708 14.7162 25.9708 14.6971 25.972 14.6782ZM20.6757 22.9357C20.6188 22.8218 20.391 23.0496 20.391 23.0496C19.6507 23.8469 18.0561 24.4164 16.4046 24.4164C14.7531 24.4164 13.1585 23.8469 12.3612 23.0496C12.3612 23.0496 12.1334 22.8218 12.0765 22.9357C12.0195 23.0496 12.0765 23.2205 12.0765 23.2205C12.562 23.9041 13.215 24.4517 13.9729 24.8107C14.7307 25.1696 15.568 25.328 16.4046 25.2706C17.2217 25.3032 18.0341 25.133 18.7694 24.7753C19.5047 24.4176 20.1401 23.8834 20.6188 23.2205C20.6188 23.2205 20.7896 23.0496 20.6757 22.9357Z"
              fill="white"/>
    </g>
    <defs>
        <clipPath id="clip0_1132_16293">
            <rect width="101.227" height="31.3321" fill="white" transform="translate(0.0843811 0.833984)"/>
        </clipPath>
    </defs>
</svg>
