<svg width="56" height="56" viewBox="0 0 56 56" fill="none" xmlns="http://www.w3.org/2000/svg">
    <rect x="0.953125" y="0.046875" width="55.0471" height="55.0471" rx="27.5236" fill="#0361FF"/>
    <g clip-path="url(#clip0_63_6256)">
        <path fill-rule="evenodd" clip-rule="evenodd"
              d="M28.8354 16.2411C27.945 16.225 27.0602 16.3846 26.2315 16.7109C25.4029 17.0372 24.6467 17.5237 24.0063 18.1425C23.3659 18.7614 22.8538 19.5004 22.4994 20.3174C22.1449 21.1344 21.955 22.0132 21.9406 22.9037V32.2161C21.9406 32.781 21.7162 33.3227 21.3168 33.7222C20.9173 34.1216 20.3755 34.3461 19.8106 34.3461H17.1481C16.3008 34.3461 15.4881 34.0094 14.8889 33.4103C14.2897 32.8111 13.9531 31.9984 13.9531 31.1511V26.8911C13.9531 26.0437 14.2897 25.231 14.8889 24.6318C15.4881 24.0327 16.3008 23.6961 17.1481 23.6961H18.7456V22.8654C18.7651 21.5562 19.0422 20.2638 19.5612 19.0618C20.0802 17.8598 20.8309 16.7718 21.7704 15.86C22.7099 14.9481 23.8199 14.2303 25.0369 13.7475C26.2538 13.2647 27.554 13.0263 28.8631 13.0461C30.1722 13.0263 31.4724 13.2647 32.6894 13.7475C33.9064 14.2303 35.0163 14.9481 35.9558 15.86C36.8954 16.7718 37.6461 17.8598 38.1651 19.0618C38.6841 20.2638 38.9612 21.5562 38.9806 22.8654V23.6961H40.5781C41.4255 23.6961 42.2382 24.0327 42.8373 24.6318C43.4365 25.231 43.7731 26.0437 43.7731 26.8911V31.1511C43.7731 31.9984 43.4365 32.8111 42.8373 33.4103C42.2382 34.0094 41.4255 34.3461 40.5781 34.3461H38.9806V35.4111C38.9809 36.8504 38.4512 38.2395 37.4926 39.3132C36.534 40.3869 35.2136 41.0701 33.7834 41.2323C33.5057 41.7282 33.1007 42.1411 32.6102 42.4282C32.1197 42.7154 31.5615 42.8665 30.9931 42.8661H27.7981C26.9508 42.8661 26.1381 42.5294 25.5389 41.9303C24.9397 41.3311 24.6031 40.5184 24.6031 39.6711C24.6031 38.8237 24.9397 38.011 25.5389 37.4118C26.1381 36.8127 26.9508 36.4761 27.7981 36.4761H30.9931C32.1476 36.4761 33.1593 37.0874 33.7195 38.0054C34.3066 37.8705 34.8306 37.5404 35.2059 37.0692C35.5811 36.598 35.7855 36.0134 35.7856 35.4111V22.9016C35.771 22.0065 35.5791 21.1233 35.2211 20.3029C34.863 19.4824 34.3459 18.7411 33.6996 18.1218C33.0534 17.5024 32.2907 17.0173 31.4558 16.6945C30.6209 16.3717 29.7303 16.2176 28.8354 16.2411Z"
              fill="white"/>
    </g>
    <defs>
        <clipPath id="clip0_63_6256">
            <rect width="29.82" height="29.82" fill="white" transform="translate(13.9531 13.0469)"/>
        </clipPath>
    </defs>
</svg>
