<svg width="56" height="56" viewBox="0 0 56 56" fill="none" xmlns="http://www.w3.org/2000/svg">
    <rect x="0.952896" width="55.0471" height="55.0471" rx="27.5236" fill="#6FC802"/>
    <g clip-path="url(#clip0_1140_9135)">
        <path d="M34.1849 30.4C34.2809 29.608 34.3529 28.816 34.3529 28C34.3529 27.184 34.2809 26.392 34.1849 25.6H38.2409C38.4329 26.368 38.5529 27.172 38.5529 28C38.5529 28.828 38.4329 29.632 38.2409 30.4M32.0609 37.072C32.7809 35.74 33.3329 34.3 33.7169 32.8H37.2569C36.0943 34.8019 34.2498 36.3184 32.0609 37.072ZM31.7609 30.4H26.1449C26.0249 29.608 25.9529 28.816 25.9529 28C25.9529 27.184 26.0249 26.38 26.1449 25.6H31.7609C31.8689 26.38 31.9529 27.184 31.9529 28C31.9529 28.816 31.8689 29.608 31.7609 30.4ZM28.9529 37.552C27.9569 36.112 27.1529 34.516 26.6609 32.8H31.2449C30.7529 34.516 29.9489 36.112 28.9529 37.552ZM24.1529 23.2H20.6489C21.7995 21.1927 23.6427 19.6738 25.8329 18.928C25.1129 20.26 24.5729 21.7 24.1529 23.2ZM20.6489 32.8H24.1529C24.5729 34.3 25.1129 35.74 25.8329 37.072C23.6472 36.318 21.8067 34.8013 20.6489 32.8ZM19.6649 30.4C19.4729 29.632 19.3529 28.828 19.3529 28C19.3529 27.172 19.4729 26.368 19.6649 25.6H23.7209C23.6249 26.392 23.5529 27.184 23.5529 28C23.5529 28.816 23.6249 29.608 23.7209 30.4M28.9529 18.436C29.9489 19.876 30.7529 21.484 31.2449 23.2H26.6609C27.1529 21.484 27.9569 19.876 28.9529 18.436ZM37.2569 23.2H33.7169C33.3413 21.7137 32.7852 20.2791 32.0609 18.928C34.2689 19.684 36.1049 21.208 37.2569 23.2ZM28.9529 16C22.3169 16 16.9529 21.4 16.9529 28C16.9529 31.1826 18.2172 34.2348 20.4676 36.4853C21.5819 37.5996 22.9048 38.4835 24.3607 39.0866C25.8166 39.6896 27.377 40 28.9529 40C32.1355 40 35.1877 38.7357 37.4382 36.4853C39.6886 34.2348 40.9529 31.1826 40.9529 28C40.9529 26.4241 40.6425 24.8637 40.0395 23.4078C39.4364 21.9519 38.5525 20.629 37.4382 19.5147C36.3239 18.4004 35.001 17.5165 33.5451 16.9134C32.0892 16.3104 30.5288 16 28.9529 16Z"
              fill="white"/>
    </g>
    <defs>
        <clipPath id="clip0_1140_9135">
            <rect width="24" height="24" fill="white" transform="translate(16.9529 16)"/>
        </clipPath>
    </defs>
</svg>
