<svg width="56" height="56" viewBox="0 0 56 56" fill="none" xmlns="http://www.w3.org/2000/svg">
    <rect x="0.952896" y="0.046875" width="55.0471" height="55.0471" rx="27.5236" fill="url(#paint0_linear_1140_9207)"/>
    <g clip-path="url(#clip0_1140_9207)">
        <path d="M30.1867 16.0484C31.0624 16.045 31.938 16.0538 32.8134 16.0748L33.0462 16.0832C33.315 16.0927 33.5802 16.1047 33.9006 16.1191C35.1774 16.1791 36.0485 16.3807 36.8129 16.6771C37.6049 16.9819 38.2721 17.3947 38.9392 18.0619C39.5493 18.6614 40.0214 19.3866 40.3228 20.187C40.6192 20.9514 40.8208 21.8238 40.8808 23.1005C40.8952 23.4197 40.9072 23.6861 40.9168 23.9549L40.924 24.1877C40.9453 25.0627 40.9545 25.9379 40.9516 26.8132L40.9528 27.7084V29.2803C40.9557 30.156 40.9465 31.0316 40.9252 31.907L40.918 32.1398C40.9084 32.4086 40.8964 32.6738 40.882 32.9942C40.822 34.2709 40.618 35.1421 40.3228 35.9065C40.0224 36.7078 39.5501 37.4335 38.9392 38.0328C38.3392 38.6428 37.6137 39.1149 36.8129 39.4164C36.0485 39.7127 35.1774 39.9143 33.9006 39.9743C33.5802 39.9887 33.315 40.0007 33.0462 40.0103L32.8134 40.0175C31.938 40.0389 31.0624 40.0481 30.1867 40.0451L29.2916 40.0463H27.7208C26.8452 40.0493 25.9695 40.0401 25.0941 40.0187L24.8613 40.0115C24.5765 40.0012 24.2917 39.9892 24.0069 39.9755C22.7302 39.9155 21.859 39.7115 21.0934 39.4164C20.2927 39.1156 19.5674 38.6434 18.9683 38.0328C18.3576 37.4332 17.885 36.7075 17.5836 35.9065C17.2872 35.1421 17.0856 34.2709 17.0256 32.9942C17.0122 32.7094 17.0002 32.4247 16.9896 32.1398L16.9836 31.907C16.9615 31.0316 16.9515 30.156 16.9536 29.2803V26.8132C16.9502 25.9379 16.959 25.0627 16.98 24.1877L16.9884 23.9549C16.998 23.6861 17.01 23.4197 17.0244 23.1005C17.0844 21.8226 17.286 20.9526 17.5824 20.187C17.884 19.3862 18.3575 18.6612 18.9695 18.0631C19.5682 17.452 20.293 16.979 21.0934 16.6771C21.859 16.3807 22.729 16.1791 24.0069 16.1191L24.8613 16.0832L25.0941 16.0772C25.9691 16.055 26.8444 16.045 27.7196 16.0472L30.1867 16.0484ZM28.9532 22.0481C28.1582 22.0369 27.3689 22.1838 26.6312 22.4802C25.8935 22.7767 25.2221 23.2168 24.6559 23.775C24.0898 24.3331 23.6402 24.9983 23.3334 25.7317C23.0266 26.4652 22.8685 27.2523 22.8685 28.0473C22.8685 28.8424 23.0266 29.6295 23.3334 30.363C23.6402 31.0964 24.0898 31.7615 24.6559 32.3197C25.2221 32.8779 25.8935 33.318 26.6312 33.6145C27.3689 33.9109 28.1582 34.0578 28.9532 34.0465C30.5444 34.0465 32.0705 33.4144 33.1957 32.2892C34.3209 31.1641 34.953 29.638 34.953 28.0467C34.953 26.4555 34.3209 24.9294 33.1957 23.8042C32.0705 22.6791 30.5444 22.0481 28.9532 22.0481ZM28.9532 24.4481C29.4314 24.4393 29.9065 24.5258 30.3509 24.7027C30.7952 24.8796 31.1999 25.1433 31.5412 25.4783C31.8825 25.8133 32.1537 26.213 32.3388 26.654C32.5239 27.095 32.6193 27.5685 32.6194 28.0467C32.6195 28.525 32.5242 28.9985 32.3393 29.4396C32.1543 29.8806 31.8833 30.2804 31.5421 30.6155C31.2009 30.9507 30.7963 31.2145 30.352 31.3915C29.9077 31.5685 29.4326 31.6553 28.9544 31.6466C27.9996 31.6466 27.084 31.2674 26.4089 30.5922C25.7338 29.9171 25.3545 29.0015 25.3545 28.0467C25.3545 27.092 25.7338 26.1764 26.4089 25.5012C27.084 24.8261 27.9996 24.4469 28.9544 24.4469L28.9532 24.4481ZM35.253 20.2482C34.8659 20.2637 34.4997 20.4284 34.2313 20.7078C33.9629 20.9871 33.813 21.3595 33.813 21.747C33.813 22.1344 33.9629 22.5068 34.2313 22.7862C34.4997 23.0655 34.8659 23.2302 35.253 23.2457C35.6508 23.2457 36.0323 23.0877 36.3136 22.8064C36.5949 22.5251 36.7529 22.1436 36.7529 21.7458C36.7529 21.3479 36.5949 20.9664 36.3136 20.6851C36.0323 20.4038 35.6508 20.2458 35.253 20.2458V20.2482Z"
              fill="white"/>
    </g>
    <defs>
        <linearGradient id="paint0_linear_1140_9207" x1="19.4529" y1="0.046875" x2="28.4765" y2="55.094"
                        gradientUnits="userSpaceOnUse">
            <stop stop-color="#405DE6"/>
            <stop offset="0.130208" stop-color="#5B51D8"/>
            <stop offset="0.260417" stop-color="#833AB4"/>
            <stop offset="0.40625" stop-color="#C13584"/>
            <stop offset="0.536458" stop-color="#E1306C"/>
            <stop offset="0.645833" stop-color="#FD1D1D"/>
            <stop offset="0.75" stop-color="#FD1D1D"/>
            <stop offset="0.90625" stop-color="#FD4F2B"/>
            <stop offset="1" stop-color="#FCAF45"/>
        </linearGradient>
        <clipPath id="clip0_1140_9207">
            <rect width="24" height="24" fill="white" transform="translate(16.9529 16.0469)"/>
        </clipPath>
    </defs>
</svg>
