<svg xmlns="http://www.w3.org/2000/svg" width="19" height="19" viewBox="0 0 19 19" fill="none">
<path fill-rule="evenodd" clip-rule="evenodd" d="M6.03383 4.18982L4.5262 2.13395C4.42367 1.99415 4.22993 1.95852 4.08437 2.0527C2.11195 3.32898 1.56975 5.27857 2.36108 6.71577C3.22651 8.28755 4.56127 10.2151 6.60863 12.2625C8.656 14.3099 10.5836 15.6446 12.1554 16.5101C13.5926 17.3014 15.5422 16.7592 16.8184 14.7868C16.9126 14.6412 16.877 14.4475 16.7372 14.3449L14.6813 12.8373C14.379 12.6156 13.9781 12.5816 13.6427 12.7493L12.8233 13.159C12.1263 13.5075 11.1709 13.6299 10.2665 13.1646C9.66179 12.8536 8.72984 12.2624 7.66929 11.2018C6.60874 10.1413 6.01758 9.20935 5.7065 8.60468C5.24121 7.70026 5.36364 6.74483 5.71213 6.04785L6.12185 5.2284C6.28952 4.89307 6.25554 4.49214 6.03383 4.18982ZM2.99787 0.373561C0.457357 2.01742 -0.850401 5.0297 0.609098 7.68042C1.56162 9.41039 3.00846 11.4908 5.19442 13.6767C7.38038 15.8627 9.46075 17.3095 11.1907 18.262C13.8414 19.7215 16.8537 18.4138 18.4976 15.8733C19.1672 14.8384 18.9139 13.461 17.9199 12.7321L15.8641 11.2245C14.9571 10.5594 13.7543 10.4574 12.7483 10.9604L11.9289 11.3702C11.6916 11.4888 11.4172 11.5075 11.1814 11.3862C10.7517 11.1651 9.9903 10.6944 9.08351 9.78763C8.17671 8.88084 7.70599 8.1194 7.48495 7.68974C7.36362 7.4539 7.38237 7.17949 7.50098 6.94228L7.91071 6.12282C8.41369 5.11686 8.31175 3.91406 7.64664 3.00709L6.13901 0.951227C5.41012 -0.0427187 4.03269 -0.296031 2.99787 0.373561Z" fill="#0361FF"/>
</svg>