<svg width="17" height="17" viewBox="0 0 17 17" fill="none" xmlns="http://www.w3.org/2000/svg">
<path d="M15.209 7.04232H10.2507C10.0896 7.04232 9.95899 6.91172 9.95899 6.75065V1.79232C9.95899 0.986959 9.30601 0.333984 8.50065 0.333984C7.69529 0.333984 7.04232 0.986959 7.04232 1.79232V6.75065C7.04232 6.91172 6.91172 7.04232 6.75065 7.04232H1.79232C0.986959 7.04232 0.333984 7.69529 0.333984 8.50065C0.333984 9.30601 0.986959 9.95898 1.79232 9.95898H6.75065C6.91172 9.95898 7.04232 10.0896 7.04232 10.2507V15.209C7.04232 16.0143 7.69529 16.6673 8.50065 16.6673C9.30601 16.6673 9.95899 16.0143 9.95899 15.209V10.2507C9.95899 10.0896 10.0896 9.95898 10.2507 9.95898H15.209C16.0143 9.95898 16.6673 9.30601 16.6673 8.50065C16.6673 7.69529 16.0143 7.04232 15.209 7.04232Z" fill="#00DC82"/>
</svg>
