<svg width="10" height="11" viewBox="0 0 10 11" fill="none" xmlns="http://www.w3.org/2000/svg">
    <path d="M8.83337 4.66665H6.00004C5.908 4.66665 5.83337 4.59202 5.83337 4.49998V1.66665C5.83337 1.20644 5.46025 0.833313 5.00004 0.833313C4.53984 0.833313 4.16671 1.20644 4.16671 1.66665V4.49998C4.16671 4.59202 4.09208 4.66665 4.00004 4.66665H1.16671C0.706502 4.66665 0.333374 5.03977 0.333374 5.49998C0.333374 5.96018 0.706502 6.33331 1.16671 6.33331H4.00004C4.09208 6.33331 4.16671 6.40794 4.16671 6.49998V9.33331C4.16671 9.79352 4.53984 10.1666 5.00004 10.1666C5.46025 10.1666 5.83337 9.79352 5.83337 9.33331V6.49998C5.83337 6.40794 5.908 6.33331 6.00004 6.33331H8.83337C9.29358 6.33331 9.66671 5.96018 9.66671 5.49998C9.66671 5.03977 9.29358 4.66665 8.83337 4.66665Z"
          fill="white"/>
</svg>
