<svg width="20" height="20" viewBox="0 0 20 20" fill="none" xmlns="http://www.w3.org/2000/svg">
    <path d="M10.05 16C9.7 16 9.404 15.879 9.162 15.637C8.92 15.395 8.79933 15.0993 8.8 14.75C8.8 14.4 8.92067 14.104 9.162 13.862C9.40333 13.62 9.69933 13.4993 10.05 13.5C10.4 13.5 10.6957 13.621 10.937 13.863C11.1783 14.105 11.2993 14.4007 11.3 14.75C11.3 15.1 11.179 15.396 10.937 15.638C10.695 15.88 10.3993 16.0007 10.05 16ZM10.95 12.15H9.1C9.1 11.6 9.03733 11.1667 8.912 10.85C8.78667 10.5333 8.43267 10.1 7.85 9.55C7.41667 9.11667 7.075 8.704 6.825 8.312C6.575 7.92 6.45 7.44933 6.45 6.9C6.45 5.96667 6.79167 5.25 7.475 4.75C8.15833 4.25 8.96667 4 9.9 4C10.85 4 11.6207 4.25 12.212 4.75C12.8033 5.25 13.216 5.85 13.45 6.55L11.8 7.2C11.7167 6.9 11.529 6.575 11.237 6.225C10.945 5.875 10.4993 5.7 9.9 5.7C9.36667 5.7 8.96667 5.846 8.7 6.138C8.43333 6.43 8.3 6.75067 8.3 7.1C8.3 7.43333 8.4 7.746 8.6 8.038C8.8 8.33 9.05 8.60067 9.35 8.85C10.0833 9.5 10.5333 9.99167 10.7 10.325C10.8667 10.6583 10.95 11.2667 10.95 12.15ZM10 20C11.3833 20 12.6833 19.7377 13.9 19.213C15.1167 18.6883 16.175 17.9757 17.075 17.075C17.975 16.175 18.6873 15.1167 19.212 13.9C19.7367 12.6833 19.9993 11.3833 20 10C20 8.61667 19.7373 7.31667 19.212 6.1C18.6867 4.88333 17.9743 3.825 17.075 2.925C16.175 2.025 15.1167 1.31267 13.9 0.788C12.6833 0.263333 11.3833 0.000666667 10 0C8.61667 0 7.31667 0.262667 6.1 0.788C4.88333 1.31333 3.825 2.02567 2.925 2.925C2.025 3.825 1.31233 4.88333 0.787001 6.1C0.261667 7.31667 -0.000667572 8.61667 0 10C0 11.3833 0.262667 12.6833 0.788 13.9C1.31333 15.1167 2.02567 16.175 2.925 17.075C3.825 17.975 4.88333 18.6877 6.1 19.213C7.31667 19.7383 8.61667 20.0007 10 20Z"
          fill="#0361FF"/>
</svg>
