<svg width="14" height="14" viewBox="0 0 14 14" fill="none" xmlns="http://www.w3.org/2000/svg">
    <path opacity="0.4"
          d="M7.64957 1.07607L9.13388 4.05892C9.24324 4.27503 9.45195 4.4251 9.69267 4.45845L13.0267 4.94403C13.2214 4.97138 13.3981 5.0741 13.5175 5.23085C13.6355 5.38559 13.6862 5.58169 13.6575 5.77446C13.6342 5.93454 13.5588 6.08261 13.4435 6.196L11.0276 8.53786C10.8509 8.70128 10.7709 8.9434 10.8136 9.18019L11.4084 12.4725C11.4717 12.8701 11.2083 13.2449 10.8136 13.3203C10.6509 13.3463 10.4842 13.319 10.3375 13.2443L7.3635 11.6948C7.14279 11.5834 6.88207 11.5834 6.66135 11.6948L3.68738 13.2443C3.32197 13.4384 2.86921 13.3063 2.66583 12.9461C2.59048 12.8027 2.56381 12.6393 2.58848 12.4799L3.18327 9.18686C3.22595 8.95074 3.14527 8.70728 2.96923 8.54386L0.553376 6.20334C0.265981 5.92587 0.257312 5.46897 0.534038 5.18149C0.54004 5.17549 0.546708 5.16882 0.553376 5.16215C0.668067 5.04542 0.818766 4.97138 0.981468 4.95204L4.31552 4.46579C4.55557 4.43177 4.76428 4.28303 4.8743 4.06559L6.30528 1.07607C6.43264 0.819938 6.69669 0.660524 6.98342 0.667194H7.07277C7.3215 0.697209 7.53821 0.851287 7.64957 1.07607Z"
          fill="url(#paint0_linear_90_6908)"/>
    <path d="M6.99337 11.6117C6.86424 11.6157 6.73843 11.6504 6.62527 11.7125L3.66584 13.2584C3.30374 13.4312 2.87041 13.2971 2.66739 12.9508C2.59217 12.8094 2.56488 12.6473 2.59017 12.4885L3.18126 9.20243C3.2212 8.96356 3.14132 8.7207 2.96759 8.55256L0.550656 6.21264C0.263766 5.93175 0.258441 5.4707 0.53934 5.18313C0.543334 5.17913 0.546662 5.17579 0.550656 5.17246C0.665146 5.05903 0.812918 4.9843 0.972005 4.96095L4.30885 4.46988C4.55048 4.43919 4.76015 4.2884 4.86666 4.06955L6.31708 1.0424C6.45487 0.798204 6.71913 0.652752 6.9987 0.668097C6.99337 0.86626 6.99337 11.477 6.99337 11.6117Z"
          fill="url(#paint1_linear_90_6908)"/>
    <defs>
        <linearGradient id="paint0_linear_90_6908" x1="13.6654" y1="13.3337" x2="-2.06829" y2="8.53173"
                        gradientUnits="userSpaceOnUse">
            <stop stop-color="#FB9400"/>
            <stop offset="1" stop-color="#FFAB38"/>
        </linearGradient>
        <linearGradient id="paint1_linear_90_6908" x1="6.9987" y1="13.3337" x2="-1.40521" y2="12.0512"
                        gradientUnits="userSpaceOnUse">
            <stop stop-color="#FB9400"/>
            <stop offset="1" stop-color="#FFAB38"/>
        </linearGradient>
    </defs>
</svg>
