<svg width="25" height="24" viewBox="0 0 25 24" fill="none" xmlns="http://www.w3.org/2000/svg">
    <path d="M21.9736 8.41996V5.99996C21.9736 5.12655 21.593 4.31844 20.9586 3.71591C20.3294 3.12824 19.443 2.75837 18.4626 2.74993L21.9736 8.41996ZM21.9736 8.41996C21.9736 9.03413 21.7706 9.46939 21.4656 9.75475M21.9736 8.41996L21.4656 9.75475M21.4656 9.75475C21.1551 10.0452 20.6635 10.25 19.9656 10.25M21.4656 9.75475L19.9656 10.25M19.9656 10.25H17.0596M19.9656 10.25H17.0596M17.0596 10.25V4.00996C17.0596 3.35978 17.6482 2.74313 18.4625 2.74993L17.0596 10.25Z"
          stroke="#999BA7" stroke-width="1.5"/>
    <path d="M4.0756 21.1899L4.07214 21.1924C3.96807 21.2677 3.8449 21.2727 3.73853 21.2219C3.63391 21.172 3.58691 21.0911 3.58691 20.9999V6.99994V5.99994C3.58691 5.00016 3.82478 4.21006 4.30925 3.67414C4.78079 3.15253 5.59693 2.74994 7.02423 2.74994H8.07106H16.7916C16.7678 2.90122 16.7562 3.05015 16.7498 3.18874C16.7403 3.39341 16.7412 3.61745 16.7421 3.82737C16.7423 3.88625 16.7425 3.94402 16.7425 3.99994V20.9999C16.7425 21.0818 16.6998 21.1624 16.5909 21.2144C16.4807 21.2671 16.3551 21.2612 16.2523 21.1888C16.2521 21.1886 16.2518 21.1884 16.2515 21.1882L14.4672 19.9123C13.7635 19.3986 12.7747 19.4695 12.1486 20.0676L10.3899 21.7476C10.2717 21.8605 10.0587 21.8607 9.94015 21.7482C9.93994 21.748 9.93974 21.7478 9.93953 21.7476L8.20342 20.0792L8.2018 20.0776C7.5648 19.4691 6.57766 19.3998 5.8652 19.9102C5.86518 19.9102 5.86515 19.9102 5.86512 19.9103L4.0756 21.1899Z"
          stroke="#999BA7" stroke-width="1.5"/>
    <path d="M13.3055 12.26H10.165C9.7358 12.26 9.37988 12.6 9.37988 13.01C9.37988 13.42 9.7358 13.76 10.165 13.76H13.3055C13.7347 13.76 14.0906 13.42 14.0906 13.01C14.0906 12.6 13.7347 12.26 13.3055 12.26Z"
          fill="#999BA7"/>
    <path d="M10.165 9.76001H13.3055C13.7347 9.76001 14.0906 9.42001 14.0906 9.01001C14.0906 8.60001 13.7347 8.26001 13.3055 8.26001H10.165C9.7358 8.26001 9.37988 8.60001 9.37988 9.01001C9.37988 9.42001 9.7358 9.76001 10.165 9.76001Z"
          fill="#999BA7"/>
    <path d="M6.99361 8.01001C6.40738 8.01001 5.94678 8.46001 5.94678 9.01001C5.94678 9.56001 6.41785 10.01 6.99361 10.01C7.56936 10.01 8.04044 9.56001 8.04044 9.01001C8.04044 8.46001 7.56936 8.01001 6.99361 8.01001Z"
          fill="#999BA7"/>
    <path d="M6.99361 12.01C6.40738 12.01 5.94678 12.46 5.94678 13.01C5.94678 13.56 6.41785 14.01 6.99361 14.01C7.56936 14.01 8.04044 13.56 8.04044 13.01C8.04044 12.46 7.56936 12.01 6.99361 12.01Z"
          fill="#999BA7"/>
</svg>
