<svg width="36" height="36" viewBox="0 0 36 36" fill="none" xmlns="http://www.w3.org/2000/svg">
<path d="M34.3125 17.9999C34.3125 19.66 32.2481 20.9736 31.7616 22.4716C31.2575 24.0241 32.1381 26.2969 31.1976 27.5892C30.2477 28.8944 27.8077 28.7546 26.5026 29.7044C25.2103 30.6449 24.5945 33.0138 23.0421 33.5179C21.5441 34.0043 19.6602 32.4657 18 32.4657C16.3398 32.4657 14.4559 34.0043 12.9579 33.5179C11.4054 33.0138 10.7896 30.6448 9.49732 29.7043C8.19214 28.7545 5.75214 28.8943 4.80227 27.5891C3.86183 26.2968 4.74245 24.0241 4.23835 22.4716C3.75194 20.9736 1.6875 19.66 1.6875 17.9999C1.6875 16.3397 3.75194 15.0261 4.23835 13.5281C4.74246 11.9756 3.86188 9.70276 4.80237 8.41049C5.75225 7.10531 8.19225 7.24513 9.49744 6.29526C10.7897 5.35482 11.4054 2.98587 12.9579 2.48177C14.4559 1.99536 16.3398 3.53405 18 3.53405C19.6602 3.53405 21.5441 1.99537 23.0421 2.48177C24.5946 2.98588 25.2104 5.35486 26.5027 6.29535C27.8079 7.24523 30.2479 7.10545 31.1977 8.41064C32.1382 9.70287 31.2575 11.9756 31.7616 13.5281C32.2481 15.0261 34.3125 16.3397 34.3125 17.9999Z" fill="#FCB316"/>
<path d="M20.25 3.53423C21.2571 3.53423 22.3462 2.96946 23.3818 2.63256C23.2731 2.57344 23.1611 2.5206 23.0421 2.48194C21.8745 2.10285 20.4728 2.95175 19.125 3.34567C19.5064 3.45715 19.8838 3.53423 20.25 3.53423ZM11.7473 29.7045C10.4421 28.7546 8.00214 28.8944 7.05227 27.5892C6.11183 26.297 6.99246 24.0243 6.48836 22.4718C6.00194 20.9738 3.93751 19.6602 3.93751 18C3.93751 16.3398 6.00194 15.0263 6.48836 13.5283C6.99246 11.9757 6.11191 9.70294 7.05237 8.41068C8.00228 7.1055 10.4423 7.2453 11.7474 6.29543C12.9406 5.42713 13.5587 3.34423 14.8682 2.63255C14.1966 2.41409 13.5472 2.2906 12.9579 2.48194C11.4055 2.98604 10.7897 5.355 9.49744 6.29543C8.19227 7.2453 5.75227 7.1055 4.80237 8.41068C3.8619 9.70294 4.74245 11.9757 4.23835 13.5283C3.75193 15.0263 1.6875 16.3398 1.6875 18C1.6875 19.6602 3.75193 20.9738 4.23835 22.4718C4.74245 24.0243 3.86183 26.297 4.80226 27.5892C5.75213 28.8944 8.19213 28.7546 9.4973 29.7045C10.7896 30.645 11.4054 33.014 12.9579 33.5181C13.5472 33.7094 14.1966 33.586 14.8682 33.3675C13.5586 32.6558 12.9405 30.5729 11.7473 29.7045ZM20.25 32.4658C19.8838 32.4658 19.5064 32.5429 19.125 32.6544C20.4728 33.0483 21.8745 33.8972 23.0421 33.5181C23.1611 33.4795 23.273 33.4266 23.3818 33.3675C22.3461 33.0306 21.2571 32.4658 20.25 32.4658Z" fill="#F78F1E"/>
<path d="M18 29.25C24.2132 29.25 29.25 24.2132 29.25 18C29.25 11.7868 24.2132 6.75 18 6.75C11.7868 6.75 6.75 11.7868 6.75 18C6.75 24.2132 11.7868 29.25 18 29.25Z" fill="#0361FF"/>
<path d="M7.875 19.125C7.875 12.9118 12.9118 7.875 19.125 7.875C21.9451 7.875 24.5162 8.92001 26.4906 10.6344C24.428 8.25883 21.3931 6.75 18 6.75C11.7868 6.75 6.75 11.7868 6.75 18C6.75 21.3931 8.25883 24.428 10.6344 26.4906C8.92001 24.5162 7.875 21.9451 7.875 19.125Z" fill="#3374BA"/>
<path d="M15.4635 23.1553L11.1035 18.7954L12.6948 17.2046L15.4635 19.9732L23.3058 12.1309L24.8971 13.7216L15.4635 23.1553Z" fill="#EDEFF0"/>
<path d="M24.4836 29.1586C24.5453 29.2559 24.5202 29.3855 24.4247 29.4523C24.2977 29.5412 24.1706 29.6281 24.0428 29.7132C23.943 29.7795 23.8083 29.7525 23.7419 29.6528C23.7409 29.6515 23.74 29.65 23.7392 29.6488C23.6762 29.5495 23.7038 29.4176 23.8021 29.352C23.9271 29.2687 24.0518 29.1838 24.1758 29.0968C24.2739 29.0281 24.4092 29.0519 24.478 29.1501C24.4799 29.1529 24.4818 29.1557 24.4836 29.1586ZM29.7126 23.7964C29.7566 23.8658 29.7592 23.9575 29.7115 24.0309C28.6251 25.7048 27.2546 27.221 25.6378 28.5368C25.5449 28.6123 25.4082 28.5984 25.3325 28.5054C25.2592 28.4136 25.2709 28.2758 25.3639 28.2002C26.9455 26.913 28.2858 25.4307 29.3474 23.7946C29.4127 23.694 29.547 23.6655 29.6476 23.7307C29.6745 23.7482 29.6965 23.7709 29.7126 23.7964Z" fill="white"/>
</svg>
