<svg width="33" height="32" viewBox="0 0 33 32" fill="none" xmlns="http://www.w3.org/2000/svg">
<rect x="0.5" width="32" height="32" rx="8" fill="#F9F9F9"/>
<path fill-rule="evenodd" clip-rule="evenodd" d="M16.4951 21.4257C16.0811 21.4257 15.7451 21.0897 15.7451 20.6757V18.1387C15.7451 17.7247 16.0811 17.3887 16.4951 17.3887C16.9091 17.3887 17.2451 17.7247 17.2451 18.1387V20.6757C17.2451 21.0897 16.9091 21.4257 16.4951 21.4257Z" fill="#999BA7"/>
<mask id="mask0_3953_40404" style="mask-type:luminance" maskUnits="userSpaceOnUse" x="6" y="8" width="21" height="11">
<path fill-rule="evenodd" clip-rule="evenodd" d="M6.5 8.58008H26.4898V18.8911H6.5V8.58008Z" fill="white"/>
</mask>
<g mask="url(#mask0_3953_40404)">
<path fill-rule="evenodd" clip-rule="evenodd" d="M8 15.3931C10.376 16.6841 13.372 17.3911 16.49 17.3911C19.614 17.3911 22.613 16.6841 24.99 15.3931V12.3911C24.99 11.1161 23.959 10.0801 22.69 10.0801H10.31C9.036 10.0801 8 11.1121 8 12.3811V15.3931ZM16.49 18.8911C12.945 18.8911 9.528 18.0331 6.871 16.4771C6.641 16.3431 6.5 16.0971 6.5 15.8301V12.3811C6.5 10.2851 8.209 8.58008 10.31 8.58008H22.69C24.786 8.58008 26.49 10.2891 26.49 12.3911V15.8301C26.49 16.0971 26.348 16.3431 26.119 16.4771C23.462 18.0331 20.042 18.8911 16.49 18.8911Z" fill="#999BA7"/>
</g>
<mask id="mask1_3953_40404" style="mask-type:luminance" maskUnits="userSpaceOnUse" x="12" y="6" width="9" height="5">
<path fill-rule="evenodd" clip-rule="evenodd" d="M12.2451 6H20.7451V10.0759H12.2451V6Z" fill="white"/>
</mask>
<g mask="url(#mask1_3953_40404)">
<path fill-rule="evenodd" clip-rule="evenodd" d="M19.9951 10.076C19.5811 10.076 19.2451 9.74 19.2451 9.326V8.96C19.2451 8.155 18.5901 7.5 17.7851 7.5H15.2051C14.4001 7.5 13.7451 8.155 13.7451 8.96V9.326C13.7451 9.74 13.4091 10.076 12.9951 10.076C12.5811 10.076 12.2451 9.74 12.2451 9.326V8.96C12.2451 7.328 13.5731 6 15.2051 6H17.7851C19.4171 6 20.7451 7.328 20.7451 8.96V9.326C20.7451 9.74 20.4091 10.076 19.9951 10.076Z" fill="#999BA7"/>
</g>
<path fill-rule="evenodd" clip-rule="evenodd" d="M22.2946 25.74H10.6946C8.61957 25.74 6.87257 24.119 6.71557 22.049L6.52557 19.54C6.49457 19.127 6.80457 18.766 7.21757 18.735C7.63257 18.72 7.99057 19.013 8.02257 19.427L8.21157 21.935C8.30957 23.227 9.39957 24.24 10.6946 24.24H22.2946C23.5896 24.24 24.6806 23.227 24.7776 21.935L24.9676 19.427C24.9996 19.013 25.3666 18.719 25.7726 18.735C26.1856 18.766 26.4946 19.127 26.4636 19.54L26.2736 22.049C26.1166 24.119 24.3696 25.74 22.2946 25.74Z" fill="#999BA7"/>
</svg>
