<svg width="24" height="25" viewBox="0 0 24 25" fill="none" xmlns="http://www.w3.org/2000/svg">
<g clip-path="url(#clip0_2644_22200)">
<path fill-rule="evenodd" clip-rule="evenodd" d="M10.5001 18.9678C8.80859 18.9676 7.16685 18.3956 5.84143 17.3447C4.51601 16.2939 3.58473 14.8258 3.1988 13.179C2.81288 11.5321 2.99498 9.80316 3.71553 8.27284C4.43608 6.74253 5.65277 5.50071 7.16805 4.74904C8.68332 3.99736 10.4082 3.77997 12.0626 4.13216C13.717 4.48434 15.2038 5.38543 16.2815 6.6891C17.3592 7.99277 17.9646 9.62247 17.9994 11.3136C18.0342 13.0047 17.4963 14.6579 16.4731 16.0048L20.8421 20.2508L19.4481 21.6848L15.0611 17.4218C13.7532 18.4267 12.1494 18.9703 10.5001 18.9678ZM16.0001 11.4678C16.0001 12.9265 15.4206 14.3254 14.3891 15.3569C13.3577 16.3883 11.9587 16.9678 10.5001 16.9678C9.04136 16.9678 7.64242 16.3883 6.61097 15.3569C5.57952 14.3254 5.00005 12.9265 5.00005 11.4678C5.00005 10.0091 5.57952 8.61014 6.61097 7.57869C7.64242 6.54724 9.04136 5.96778 10.5001 5.96778C11.9587 5.96778 13.3577 6.54724 14.3891 7.57869C15.4206 8.61014 16.0001 10.0091 16.0001 11.4678Z" fill="#A1A3A8"/>
</g>
<defs>
<clipPath id="clip0_2644_22200">
<rect width="24" height="24" fill="white" transform="translate(0 0.967773)"/>
</clipPath>
</defs>
</svg>
