<svg width="82" height="83" viewBox="0 0 82 83" fill="none" xmlns="http://www.w3.org/2000/svg">
<g filter="url(#filter0_d_2525_15135)">
<rect x="5" y="1.5" width="72" height="72" rx="10" fill="url(#paint0_linear_2525_15135)"/>
</g>
<g filter="url(#filter1_d_2525_15135)">
<path d="M28.5643 39.416L29.0598 38.743C29.4593 38.1956 29.696 35.0596 29.7404 31.894C30.0945 31.8494 31.0792 31.736 31.6856 31.6351V33.3954C31.6836 34.6759 31.9597 35.9416 32.4947 37.105C33.0298 38.2683 33.811 39.3017 34.7845 40.1335C34.2761 41.025 34.5611 42.3213 34.5109 43.3213C34.3926 43.3731 34.1531 43.4875 34.0376 43.5431C32.9806 42.0789 31.2206 41.7323 29.7033 41.7311C29.4379 41.7238 29.1794 41.6441 28.9559 41.5007C28.7325 41.3573 28.5524 41.1556 28.4351 40.9173C28.3179 40.679 28.268 40.4133 28.2908 40.1487C28.3135 39.8841 28.4081 39.6308 28.5643 39.416ZM47.9574 33.3954V31.2431C47.9576 31.1495 47.938 31.0569 47.8998 30.9715C47.8616 30.8861 47.8057 30.8097 47.7358 30.7475C47.6659 30.6853 47.5835 30.6386 47.4942 30.6106C47.405 30.5825 47.3107 30.5738 47.2178 30.5848C43.4546 31.0344 40.4949 30.0515 38.2018 27.6633C38.1252 27.5916 38.0328 27.5391 37.9321 27.5098C37.8314 27.4806 37.7252 27.4755 37.6222 27.4949C37.5192 27.5144 37.4222 27.5579 37.3391 27.6218C37.256 27.6858 37.1892 27.7684 37.144 27.863C36.4765 29.3222 34.9034 29.9936 33.6603 30.3334C33.178 30.4506 33.1336 30.9332 33.1649 31.3467L33.1648 33.3954C33.0205 38.2155 38.1784 42.0083 42.7357 40.4662C44.2458 39.9975 45.5667 39.0589 46.5059 37.787C47.4452 36.5151 47.9537 34.9765 47.9574 33.3954ZM37.4449 41.705C36.9437 41.5194 36.4618 41.2851 36.0061 41.0057V43.3287C37.3042 44.9682 39.4962 47.8697 40.8129 49.5824C42.1312 47.8542 44.2854 45.0248 45.6117 43.3046V40.6922C44.4318 41.5044 43.0736 42.0204 41.6521 42.1967C40.2306 42.373 38.7875 42.2043 37.4449 41.705ZM52.2768 47.367C51.656 48.1624 50.6993 49.399 50.0802 50.1924C49.8035 50.559 49.653 51.0053 49.6512 51.4646C49.6512 51.4646 49.6473 59.2595 49.6512 60H31.9666C31.9659 58.053 31.9676 53.4686 31.9666 51.4646C31.9344 50.823 31.6687 50.2154 31.2197 49.756L29.4075 47.3375L35.1693 44.6453C36.3565 46.1825 38.8622 49.4724 40.073 51.0504V54.4158C40.0759 54.61 40.155 54.7954 40.2934 54.9318C40.4318 55.0681 40.6183 55.1446 40.8126 55.1446C41.0069 55.1446 41.1934 55.0682 41.3318 54.9318C41.4702 54.7954 41.5494 54.6101 41.5522 54.4158V51.0578C42.7487 49.4902 45.2742 46.1676 46.4412 44.6453L52.2768 47.367ZM47.5062 51.4572H44.6069C44.413 51.4606 44.2282 51.54 44.0922 51.6783C43.9563 51.8166 43.8801 52.0028 43.8801 52.1968C43.8801 52.3907 43.9562 52.5769 44.0922 52.7153C44.2281 52.8536 44.4129 52.933 44.6069 52.9364H47.5061C47.7004 52.9336 47.8858 52.8544 48.0221 52.716C48.1585 52.5776 48.235 52.3911 48.235 52.1968C48.235 52.0026 48.1585 51.8161 48.0222 51.6777C47.8858 51.5393 47.7005 51.4601 47.5062 51.4572ZM54.0298 48.188L53.6526 48.0105L51.7813 50.4069C51.6359 50.6571 51.0906 51.1419 51.1304 51.4646C51.1306 53.4759 51.1304 58.0478 51.1304 60H53.0239C53.6122 59.9995 54.1763 59.7656 54.5923 59.3496C55.0084 58.9336 55.2423 58.3694 55.2428 57.7811V50.0963C55.2425 49.6959 55.1282 49.3039 54.9135 48.966C54.6987 48.6281 54.3922 48.3582 54.0298 48.188ZM28.0392 47.981C27.5738 48.1123 27.162 48.3879 26.863 48.7679C26.564 49.148 26.3931 49.6131 26.375 50.0963V57.7811C26.3767 58.369 26.6111 58.9324 27.0268 59.3482C27.4426 59.7639 28.006 59.9982 28.5939 60H30.4873V51.4646C30.5257 51.1533 29.9921 50.6415 29.8512 50.3995C29.3958 49.8017 28.4867 48.5851 28.0392 47.981ZM49.4367 33.3954C49.438 34.5744 49.2037 35.7417 48.7478 36.8289C48.2918 37.9161 47.6233 38.9013 46.7814 39.7267C47.3939 40.6924 47.0403 42.2257 47.1291 43.3287C47.2447 43.3791 47.4725 43.4924 47.5876 43.5432C48.0302 42.9932 48.5882 42.5472 49.2221 42.2367C49.856 41.9261 50.5504 41.7586 51.2562 41.7459C52.0099 41.7716 52.8365 41.7061 53.194 40.9248C53.6337 40.093 53.0683 39.3749 52.5653 38.7504C52.1289 38.1365 51.8775 34.4383 51.8701 30.9547C51.2171 31.1137 50.1902 31.3121 49.4367 31.4428V33.3954ZM33.0983 18.7212C32.9932 18.5061 32.9546 18.2646 32.9875 18.0274C33.0204 17.7903 33.1234 17.5683 33.2831 17.39C35.4929 15.0674 41.4494 14.4141 44.7845 15.5333C47.0373 16.2451 49.1486 17.2161 48.527 18.7212L46.7148 22.4489C46.5888 22.703 46.3777 22.905 46.1184 23.0198C45.859 23.1347 45.5676 23.1551 45.2947 23.0776C42.3663 22.2207 39.2543 22.2156 36.323 23.0628C36.0492 23.1456 35.7548 23.1277 35.493 23.0124C35.2313 22.8971 35.0193 22.692 34.8956 22.4341L33.0983 18.7212ZM39.4517 19.2981H40.1987L40.1987 19.7418C40.0206 20.9537 41.5902 20.9668 41.4191 19.7493V19.2981H42.1735C42.3351 19.2961 42.4893 19.2306 42.6029 19.1157C42.7164 19.0008 42.7801 18.8457 42.7801 18.6842C42.7801 18.5226 42.7164 18.3676 42.6029 18.2527C42.4893 18.1378 42.3351 18.0722 42.1735 18.0703H41.4191L41.419 17.7153C41.6135 16.3613 40.003 16.3696 40.1987 17.7153V18.0703H39.4517C39.2909 18.0733 39.1377 18.1393 39.025 18.2541C38.9124 18.3689 38.8493 18.5233 38.8493 18.6842C38.8493 18.845 38.9124 18.9995 39.025 19.1142C39.1377 19.229 39.2909 19.295 39.4517 19.2981ZM35.8053 27.249C35.9491 26.9417 36.1636 26.6727 36.4311 26.4639C36.6986 26.2552 37.0116 26.1126 37.3447 26.0477C37.6778 25.9828 38.0214 25.9975 38.3477 26.0906C38.674 26.1838 38.9737 26.3526 39.2224 26.5835L40.0878 27.4044C41.8777 28.8763 44.2149 29.4532 47.0402 29.1129C47.424 29.0675 47.8129 29.1267 48.1657 29.2843C48.5186 29.4418 48.8223 29.6919 49.0447 30.0079C49.9122 29.8745 51.06 29.5974 51.8479 29.4532C51.698 26.7365 50.6673 24.1427 48.9116 22.0642C48.8195 22.0047 48.7163 21.9645 48.6083 21.9459L48.0462 23.0997C47.7657 23.6665 47.2952 24.1169 46.7167 24.3723C46.1382 24.6278 45.4884 24.6721 44.8806 24.4977C42.2308 23.7173 39.4134 23.7096 36.7594 24.4755C36.1496 24.6622 35.493 24.6246 34.9084 24.3696C34.3238 24.1146 33.8497 23.6589 33.5717 23.0849L33.0169 21.9459C32.8264 21.9699 32.652 22.065 32.5287 22.2122C30.8326 24.4438 29.8596 27.1408 29.7403 29.9413C29.7403 30.0893 29.7477 30.2446 29.7403 30.3999C30.2233 30.3455 31.224 30.227 31.8705 30.0967C32.5662 28.426 34.9655 29.0252 35.8053 27.249Z" fill="white"/>
</g>
<defs>
<filter id="filter0_d_2525_15135" x="0" y="0.5" width="82" height="82" filterUnits="userSpaceOnUse" color-interpolation-filters="sRGB">
<feFlood flood-opacity="0" result="BackgroundImageFix"/>
<feColorMatrix in="SourceAlpha" type="matrix" values="0 0 0 0 0 0 0 0 0 0 0 0 0 0 0 0 0 0 127 0" result="hardAlpha"/>
<feOffset dy="4"/>
<feGaussianBlur stdDeviation="2.5"/>
<feComposite in2="hardAlpha" operator="out"/>
<feColorMatrix type="matrix" values="0 0 0 0 0.337255 0 0 0 0 0.662745 0 0 0 0 0.984314 0 0 0 0.27 0"/>
<feBlend mode="normal" in2="BackgroundImageFix" result="effect1_dropShadow_2525_15135"/>
<feBlend mode="normal" in="SourceGraphic" in2="effect1_dropShadow_2525_15135" result="shape"/>
</filter>
<filter id="filter1_d_2525_15135" x="18.375" y="9" width="44.8678" height="61" filterUnits="userSpaceOnUse" color-interpolation-filters="sRGB">
<feFlood flood-opacity="0" result="BackgroundImageFix"/>
<feColorMatrix in="SourceAlpha" type="matrix" values="0 0 0 0 0 0 0 0 0 0 0 0 0 0 0 0 0 0 127 0" result="hardAlpha"/>
<feOffset dy="2"/>
<feGaussianBlur stdDeviation="4"/>
<feComposite in2="hardAlpha" operator="out"/>
<feColorMatrix type="matrix" values="0 0 0 0 0 0 0 0 0 0 0 0 0 0 0 0 0 0 0.25 0"/>
<feBlend mode="normal" in2="BackgroundImageFix" result="effect1_dropShadow_2525_15135"/>
<feBlend mode="normal" in="SourceGraphic" in2="effect1_dropShadow_2525_15135" result="shape"/>
</filter>
<linearGradient id="paint0_linear_2525_15135" x1="41" y1="1.5" x2="41" y2="73.5" gradientUnits="userSpaceOnUse">
<stop stop-color="#5B90E9"/>
<stop offset="1" stop-color="#56AEFF"/>
</linearGradient>
</defs>
</svg>
