<svg width="82" height="83" viewBox="0 0 82 83" fill="none" xmlns="http://www.w3.org/2000/svg">
<g filter="url(#filter0_d_2525_15160)">
<rect x="5" y="0.5" width="72" height="72" rx="10" fill="url(#paint0_linear_2525_15160)"/>
</g>
<g filter="url(#filter1_dd_2525_15160)">
<path d="M20.3897 24.9377V23.6486C20.3909 23.2242 20.56 22.8176 20.8601 22.5176C21.1602 22.2175 21.5668 22.0484 21.9911 22.0472H59.8487C60.2731 22.0484 60.6797 22.2175 60.9798 22.5176C61.2798 22.8176 61.4489 23.2242 61.4502 23.6486V24.9377C61.4502 25.148 61.4088 25.3563 61.3284 25.5506C61.2479 25.7449 61.13 25.9215 60.9812 26.0702C60.8325 26.2189 60.656 26.3369 60.4617 26.4174C60.2673 26.4978 60.0591 26.5392 59.8487 26.5391H21.9911C21.7808 26.5392 21.5725 26.4978 21.3782 26.4174C21.1839 26.3369 21.0073 26.2189 20.8586 26.0702C20.7099 25.9215 20.5919 25.7449 20.5115 25.5506C20.431 25.3563 20.3896 25.148 20.3897 24.9377ZM61.7384 54.508H20.1014C19.6771 54.5093 19.2705 54.6784 18.9704 54.9784C18.6704 55.2785 18.5012 55.6851 18.5 56.1094V57.3986C18.5012 57.8229 18.6704 58.2295 18.9704 58.5296C19.2705 58.8296 19.6771 58.9988 20.1014 59H61.7384C62.1628 58.9988 62.5694 58.8296 62.8694 58.5296C63.1695 58.2295 63.3386 57.8229 63.3399 57.3986V56.1094C63.3386 55.6851 63.1695 55.2785 62.8694 54.9784C62.5694 54.6784 62.1628 54.5093 61.7384 54.508ZM39.0383 20.1655V20.4457H42.8016V20.1655C42.8016 19.9184 42.7529 19.6737 42.6584 19.4454C42.5638 19.2171 42.4252 19.0097 42.2505 18.8349C42.0757 18.6602 41.8683 18.5216 41.64 18.427C41.4117 18.3325 41.167 18.2838 40.9199 18.2838C40.6728 18.2838 40.4281 18.3325 40.1998 18.427C39.9715 18.5216 39.7641 18.6602 39.5894 18.8349C39.4147 19.0097 39.276 19.2171 39.1815 19.4454C39.0869 19.6737 39.0383 19.9184 39.0383 20.1655ZM37.4368 20.1655C37.4368 19.7081 37.5269 19.2551 37.702 18.8326C37.877 18.41 38.1336 18.026 38.457 17.7026C38.7804 17.3791 39.1644 17.1226 39.587 16.9475C40.0096 16.7725 40.4625 16.6824 40.9199 16.6824C41.3773 16.6824 41.8303 16.7725 42.2528 16.9475C42.6754 17.1226 43.0594 17.3791 43.3828 17.7026C43.7063 18.026 43.9628 18.41 44.1379 18.8326C44.3129 19.2551 44.403 19.7081 44.403 20.1655V20.4457H58.1753L56.1014 16.5463C55.6912 15.7771 55.0797 15.1339 54.3322 14.6854C53.5847 14.2369 52.7294 14 51.8576 14H29.71C28.828 13.999 27.9629 14.2414 27.2099 14.7006C26.4568 15.1597 25.8452 15.8178 25.4422 16.6023L23.4644 20.4457H37.4368V20.1655ZM45.2518 52.9066V43.7064H41.6806V52.9066H45.2518ZM36.5 52.9066H40.0792V43.7064H36.5V52.9066ZM28.4368 41.6886H31.7518V38.3737H28.4368V41.6886ZM46.8532 52.9066V43.7064C46.852 43.2821 46.6828 42.8755 46.3828 42.5754C46.0827 42.2753 45.6761 42.1062 45.2518 42.105H36.5C36.0757 42.1062 35.6691 42.2754 35.369 42.5754C35.0689 42.8755 34.8998 43.2821 34.8986 43.7064V52.9066H23.3603V28.1406H58.0952V52.9066H46.8532ZM33.3532 37.573C33.3526 37.3608 33.268 37.1575 33.118 37.0074C32.968 36.8574 32.7647 36.7729 32.5525 36.7722H27.6361C27.4239 36.7729 27.2206 36.8574 27.0706 37.0075C26.9206 37.1575 26.836 37.3608 26.8354 37.573V42.4893C26.835 42.5946 26.8555 42.6989 26.8956 42.7962C26.9357 42.8935 26.9947 42.9819 27.0691 43.0563C27.1435 43.1308 27.232 43.1897 27.3293 43.2298C27.4266 43.2699 27.5309 43.2904 27.6361 43.29H32.5525C32.6577 43.2904 32.762 43.2699 32.8593 43.2298C32.9567 43.1897 33.0451 43.1308 33.1195 43.0563C33.1939 42.9819 33.2529 42.8935 33.293 42.7962C33.3331 42.6989 33.3536 42.5946 33.3532 42.4893V37.573ZM34.4982 29.766C34.4976 29.5538 34.4131 29.3505 34.263 29.2005C34.113 29.0505 33.9097 28.9659 33.6975 28.9653H28.7811C28.569 28.9659 28.3657 29.0505 28.2156 29.2005C28.0656 29.3505 27.981 29.5538 27.9804 29.766V34.6824C27.981 34.8946 28.0656 35.0979 28.2156 35.2479C28.3657 35.3979 28.569 35.4825 28.7811 35.4831H33.6975C33.9097 35.4825 34.113 35.3979 34.263 35.2479C34.4131 35.0979 34.4976 34.8946 34.4982 34.6824V29.766ZM44.1788 29.766C44.1782 29.5538 44.0937 29.3505 43.9436 29.2005C43.7936 29.0505 43.5903 28.9659 43.3781 28.9653H38.4617C38.2496 28.9659 38.0463 29.0505 37.8962 29.2005C37.7462 29.3505 37.6616 29.5538 37.661 29.766V34.6824C37.6616 34.8946 37.7462 35.0979 37.8962 35.2479C38.0463 35.3979 38.2496 35.4825 38.4617 35.4831H43.3781C43.5903 35.4825 43.7936 35.3979 43.9436 35.2479C44.0937 35.0979 44.1782 34.8946 44.1788 34.6824V29.766ZM54.4199 36.7722H49.5036C49.2914 36.7729 49.0881 36.8574 48.938 37.0074C48.788 37.1575 48.7035 37.3608 48.7028 37.573V42.4893C48.7025 42.5946 48.7229 42.6989 48.763 42.7962C48.8032 42.8935 48.8621 42.9819 48.9366 43.0563C49.011 43.1308 49.0994 43.1897 49.1967 43.2298C49.294 43.2699 49.3983 43.2904 49.5036 43.29H54.4199C54.5252 43.2904 54.6295 43.2699 54.7268 43.2298C54.8241 43.1897 54.9125 43.1308 54.9869 43.0563C55.0614 42.9819 55.1203 42.8935 55.1604 42.7962C55.2005 42.6989 55.221 42.5946 55.2206 42.4893V37.573C55.22 37.3608 55.1355 37.1575 54.9854 37.0075C54.8354 36.8574 54.6321 36.7729 54.4199 36.7722ZM47.3416 34.6824C47.3422 34.8946 47.4268 35.0979 47.5768 35.2479C47.7269 35.3979 47.9302 35.4825 48.1423 35.4831H53.0587C53.2709 35.4825 53.4742 35.3979 53.6242 35.2479C53.7743 35.0979 53.8588 34.8946 53.8594 34.6824V29.766C53.8588 29.5538 53.7743 29.3505 53.6242 29.2005C53.4742 29.0505 53.2709 28.9659 53.0587 28.9653H48.1423C47.9302 28.9659 47.7269 29.0505 47.5768 29.2005C47.4268 29.3505 47.3422 29.5538 47.3416 29.766V34.6824ZM29.5818 33.8817H32.8968V30.5667H29.5818V33.8817ZM52.258 30.5667H48.9431V33.8817H52.258V30.5667ZM53.6192 38.3737H50.3043V41.6886H53.6192V38.3737ZM39.2625 33.8817H42.5774V30.5667H39.2625V33.8817Z" fill="white"/>
</g>
<defs>
<filter id="filter0_d_2525_15160" x="0" y="0.5" width="82" height="82" filterUnits="userSpaceOnUse" color-interpolation-filters="sRGB">
<feFlood flood-opacity="0" result="BackgroundImageFix"/>
<feColorMatrix in="SourceAlpha" type="matrix" values="0 0 0 0 0 0 0 0 0 0 0 0 0 0 0 0 0 0 127 0" result="hardAlpha"/>
<feOffset dy="5"/>
<feGaussianBlur stdDeviation="2.5"/>
<feComposite in2="hardAlpha" operator="out"/>
<feColorMatrix type="matrix" values="0 0 0 0 0 0 0 0 0 0.972549 0 0 0 0 0.219608 0 0 0 0.27 0"/>
<feBlend mode="normal" in2="BackgroundImageFix" result="effect1_dropShadow_2525_15160"/>
<feBlend mode="normal" in="SourceGraphic" in2="effect1_dropShadow_2525_15160" result="shape"/>
</filter>
<filter id="filter1_dd_2525_15160" x="10.5" y="8" width="60.8398" height="61" filterUnits="userSpaceOnUse" color-interpolation-filters="sRGB">
<feFlood flood-opacity="0" result="BackgroundImageFix"/>
<feColorMatrix in="SourceAlpha" type="matrix" values="0 0 0 0 0 0 0 0 0 0 0 0 0 0 0 0 0 0 127 0" result="hardAlpha"/>
<feOffset dy="2"/>
<feGaussianBlur stdDeviation="1.5"/>
<feComposite in2="hardAlpha" operator="out"/>
<feColorMatrix type="matrix" values="0 0 0 0 0 0 0 0 0 0 0 0 0 0 0 0 0 0 0.25 0"/>
<feBlend mode="normal" in2="BackgroundImageFix" result="effect1_dropShadow_2525_15160"/>
<feColorMatrix in="SourceAlpha" type="matrix" values="0 0 0 0 0 0 0 0 0 0 0 0 0 0 0 0 0 0 127 0" result="hardAlpha"/>
<feOffset dy="2"/>
<feGaussianBlur stdDeviation="4"/>
<feComposite in2="hardAlpha" operator="out"/>
<feColorMatrix type="matrix" values="0 0 0 0 0 0 0 0 0 0 0 0 0 0 0 0 0 0 0.25 0"/>
<feBlend mode="normal" in2="effect1_dropShadow_2525_15160" result="effect2_dropShadow_2525_15160"/>
<feBlend mode="normal" in="SourceGraphic" in2="effect2_dropShadow_2525_15160" result="shape"/>
</filter>
<linearGradient id="paint0_linear_2525_15160" x1="41" y1="0.5" x2="41" y2="72.5" gradientUnits="userSpaceOnUse">
<stop stop-color="#00FF38"/>
<stop offset="1" stop-color="#06BE3A"/>
</linearGradient>
</defs>
</svg>
