<svg width="82" height="83" viewBox="0 0 82 83" fill="none" xmlns="http://www.w3.org/2000/svg">
<g filter="url(#filter0_d_2525_15165)">
<rect x="5" y="0.5" width="72" height="72" rx="10" fill="url(#paint0_linear_2525_15165)"/>
</g>
<g filter="url(#filter1_dd_2525_15165)">
<path fill-rule="evenodd" clip-rule="evenodd" d="M46.1172 56.5054H20.7421C19.5023 56.5054 18.5 55.4701 18.5 54.2755V51.9393H24.2239C24.9097 51.9393 25.4637 51.3818 25.4637 50.6916V47.8245C25.4637 47.1609 24.9097 46.6034 24.2239 46.6034H18.5V31.7104H23.7755C24.1448 31.7104 24.4349 31.445 24.4349 31.0733C24.4349 30.7016 24.1448 30.4096 23.7755 30.4096H18.5V28.1797H23.7755C24.1448 28.1797 24.4349 27.9142 24.4349 27.5425C24.4349 27.1709 24.1448 26.8789 23.7755 26.8789H18.5V24.3303H50.1002V39.0109H45.9326C44.9039 39.0109 44.0598 39.8604 44.0598 40.8957V43.4443C44.0598 44.0548 44.3499 44.6123 44.7984 44.9574L45.6952 55.2577C45.7479 55.709 45.8798 56.1338 46.1172 56.5054ZM62.8406 44.1079H45.9326C45.5633 44.1079 45.2732 43.8159 45.2732 43.4443V40.8957C45.2732 40.5506 45.5633 40.2321 45.9326 40.2321H62.8406C63.2098 40.2321 63.5 40.5506 63.5 40.8957V43.4443C63.4472 43.8159 63.2098 44.1079 62.8406 44.1079ZM60.4138 56.5054H48.3066C47.5416 56.5054 46.9613 55.9214 46.9349 55.1515L46.0645 45.3556H62.7351L61.891 55.1781C61.7855 55.9214 61.1788 56.5054 60.4138 56.5054ZM51.9994 50.5854C51.6301 50.5854 51.34 50.2934 51.34 49.9218V48.8068C51.34 48.4351 51.6301 48.1431 51.9994 48.1431C52.3687 48.1431 52.6588 48.4351 52.6588 48.8068V49.9218C52.6588 50.32 52.3687 50.5854 51.9994 50.5854ZM54.4261 50.5854C54.0569 50.5854 53.7667 50.2934 53.7667 49.9218V48.8068C53.7667 48.4351 54.0569 48.1431 54.4261 48.1431C54.7954 48.1431 55.0856 48.4351 55.0856 48.8068V49.9218C55.0328 50.32 54.7954 50.5854 54.4261 50.5854ZM56.8001 50.5854C56.4308 50.5854 56.1407 50.2934 56.1407 49.9218V48.8068C56.1407 48.4351 56.4308 48.1431 56.8001 48.1431C57.1694 48.1431 57.4596 48.4351 57.4596 48.8068V49.9218C57.4596 50.32 57.1694 50.5854 56.8001 50.5854ZM51.9994 53.718C51.6301 53.718 51.34 53.426 51.34 53.0543V51.9128C51.34 51.5411 51.6301 51.2491 51.9994 51.2491C52.3687 51.2491 52.6588 51.5411 52.6588 51.9128V53.0543C52.6588 53.4525 52.3687 53.718 51.9994 53.718ZM54.4261 53.718C54.0569 53.718 53.7667 53.426 53.7667 53.0543V51.9128C53.7667 51.5411 54.0569 51.2491 54.4261 51.2491C54.7954 51.2491 55.0856 51.5411 55.0856 51.9128V53.0543C55.0328 53.4525 54.7954 53.718 54.4261 53.718ZM56.8001 53.718C56.4308 53.718 56.1407 53.426 56.1407 53.0543V51.9128C56.1407 51.5411 56.4308 51.2491 56.8001 51.2491C57.1694 51.2491 57.4596 51.5411 57.4596 51.9128V53.0543C57.4596 53.4525 57.1694 53.718 56.8001 53.718ZM33.3769 48.1431C27.7849 48.1431 23.2479 43.6035 23.2479 37.949C23.2479 32.321 27.7849 27.7549 33.3769 27.7549C38.9689 27.7549 43.5059 32.321 43.5059 37.949C43.5059 43.6035 38.9689 48.1431 33.3769 48.1431ZM33.3769 29.0557C28.5234 29.0557 24.5404 33.0378 24.5404 37.949C24.5404 42.8868 28.4971 46.8688 33.3769 46.8688C38.2831 46.8688 42.2397 42.8868 42.2397 37.949C42.2397 33.0378 38.2831 29.0557 33.3769 29.0557ZM35.5662 42.2762C35.4607 42.2762 35.3552 42.2762 35.2233 42.2231C34.3792 42.1169 33.6671 41.6391 33.1923 40.8426C32.8757 40.2852 32.4273 39.9135 31.847 39.8073C30.449 39.4622 28.6817 40.3117 27.8904 40.763C28.8927 42.8071 30.9766 44.1876 33.3769 44.1876C35.6717 44.1876 37.6764 42.9133 38.7315 41.0285C37.8083 41.6656 36.6741 42.2762 35.5662 42.2762ZM27.442 39.5949C28.4707 39.0374 30.4226 38.1614 32.1372 38.5596C33.0868 38.772 33.8253 39.3295 34.3265 40.2055C34.6166 40.6834 34.9596 40.8957 35.408 40.9754C36.6741 41.1081 38.4941 39.7277 39.4701 38.772C39.5229 38.533 39.5229 38.2676 39.5229 38.0021C39.5229 34.5775 36.7796 31.8166 33.3769 31.8166C29.9742 31.8166 27.2309 34.5775 27.2309 38.0021C27.2309 38.533 27.3101 39.0905 27.442 39.5949ZM40.7362 38.9843C40.7626 39.1171 40.7362 39.2498 40.6835 39.3826C40.024 42.8337 36.9906 45.4353 33.3769 45.4353C29.2884 45.4353 25.9648 42.0904 25.9648 37.949C25.9648 33.8342 29.2884 30.4893 33.3769 30.4893C37.4918 30.4893 40.8154 33.8342 40.8154 37.949C40.8154 38.3207 40.789 38.6658 40.7362 38.9843ZM18.5 23.0561V19.6315C18.5 18.3838 19.5287 17.375 20.7421 17.375H47.8845C49.1243 17.375 50.1002 18.4103 50.1002 19.6315V23.0561H18.5ZM23.0369 21.4102H21.4015C21.0322 21.4102 20.7421 21.0916 20.7421 20.7465C20.7421 20.3748 21.0322 20.0828 21.4015 20.0828H23.0369C23.4062 20.0828 23.6964 20.3748 23.6964 20.7465C23.6964 21.0916 23.4062 21.4102 23.0369 21.4102ZM26.9672 21.4102H25.279C24.9097 21.4102 24.6196 21.0916 24.6196 20.7465C24.6196 20.3748 24.9097 20.0828 25.279 20.0828H26.9672C27.3365 20.0828 27.6266 20.3748 27.6266 20.7465C27.6266 21.0916 27.2837 21.4102 26.9672 21.4102ZM30.8447 21.4102H29.1829C28.8136 21.4102 28.5234 21.0916 28.5234 20.7465C28.5234 20.3748 28.8136 20.0828 29.1829 20.0828H30.8447C31.1876 20.0828 31.5041 20.3748 31.5041 20.7465C31.5041 21.0916 31.1612 21.4102 30.8447 21.4102ZM47.2515 21.596H42.2925C41.9232 21.596 41.6331 21.2774 41.6331 20.9323C41.6331 20.5607 41.9232 20.2686 42.2925 20.2686H47.2515C47.6208 20.2686 47.9109 20.5607 47.9109 20.9323C47.9109 21.2774 47.5944 21.596 47.2515 21.596ZM18.5 50.6651V47.9042H24.1712V50.6651H18.5Z" fill="white"/>
</g>
<defs>
<filter id="filter0_d_2525_15165" x="0" y="0.5" width="82" height="82" filterUnits="userSpaceOnUse" color-interpolation-filters="sRGB">
<feFlood flood-opacity="0" result="BackgroundImageFix"/>
<feColorMatrix in="SourceAlpha" type="matrix" values="0 0 0 0 0 0 0 0 0 0 0 0 0 0 0 0 0 0 127 0" result="hardAlpha"/>
<feOffset dy="5"/>
<feGaussianBlur stdDeviation="2.5"/>
<feComposite in2="hardAlpha" operator="out"/>
<feColorMatrix type="matrix" values="0 0 0 0 0.0156863 0 0 0 0 0.380392 0 0 0 0 0.992157 0 0 0 0.27 0"/>
<feBlend mode="normal" in2="BackgroundImageFix" result="effect1_dropShadow_2525_15165"/>
<feBlend mode="normal" in="SourceGraphic" in2="effect1_dropShadow_2525_15165" result="shape"/>
</filter>
<filter id="filter1_dd_2525_15165" x="10.5" y="11.375" width="61" height="55.1305" filterUnits="userSpaceOnUse" color-interpolation-filters="sRGB">
<feFlood flood-opacity="0" result="BackgroundImageFix"/>
<feColorMatrix in="SourceAlpha" type="matrix" values="0 0 0 0 0 0 0 0 0 0 0 0 0 0 0 0 0 0 127 0" result="hardAlpha"/>
<feOffset dy="2"/>
<feGaussianBlur stdDeviation="1.5"/>
<feComposite in2="hardAlpha" operator="out"/>
<feColorMatrix type="matrix" values="0 0 0 0 0 0 0 0 0 0 0 0 0 0 0 0 0 0 0.25 0"/>
<feBlend mode="normal" in2="BackgroundImageFix" result="effect1_dropShadow_2525_15165"/>
<feColorMatrix in="SourceAlpha" type="matrix" values="0 0 0 0 0 0 0 0 0 0 0 0 0 0 0 0 0 0 127 0" result="hardAlpha"/>
<feOffset dy="2"/>
<feGaussianBlur stdDeviation="4"/>
<feComposite in2="hardAlpha" operator="out"/>
<feColorMatrix type="matrix" values="0 0 0 0 0 0 0 0 0 0 0 0 0 0 0 0 0 0 0.25 0"/>
<feBlend mode="normal" in2="effect1_dropShadow_2525_15165" result="effect2_dropShadow_2525_15165"/>
<feBlend mode="normal" in="SourceGraphic" in2="effect2_dropShadow_2525_15165" result="shape"/>
</filter>
<linearGradient id="paint0_linear_2525_15165" x1="41" y1="0.5" x2="41" y2="72.5" gradientUnits="userSpaceOnUse">
<stop stop-color="#5292FF"/>
<stop offset="1" stop-color="#2275FF"/>
</linearGradient>
</defs>
</svg>
