<svg width="82" height="83" viewBox="0 0 82 83" fill="none" xmlns="http://www.w3.org/2000/svg">
<g filter="url(#filter0_d_2525_15140)">
<rect x="5" y="0.5" width="72" height="72" rx="10" fill="url(#paint0_linear_2525_15140)"/>
</g>
<g filter="url(#filter1_dd_2525_15140)">
<path d="M24.3564 23.4648C23.7114 23.4648 23.1868 23.9894 23.1868 24.6344C23.1868 25.2794 23.7114 25.804 24.3564 25.804C25.0012 25.804 25.5257 25.2794 25.5257 24.6344C25.5257 23.9894 25.0012 23.4648 24.3564 23.4648ZM63.5 23.7641V35.2938H61.091V33.688C61.091 32.4172 60.0572 31.3832 58.7864 31.3832H23.2149C21.9442 31.3832 20.9103 32.4173 20.9103 33.688V35.2938H18.5V23.7641C18.5 21.4812 20.3562 19.625 22.6391 19.625H59.3609C61.6438 19.6251 63.5 21.4813 63.5 23.7641ZM26.4633 24.6344C26.4633 23.4726 25.5183 22.5273 24.3565 22.5273C23.1947 22.5273 22.2494 23.4726 22.2494 24.6344C22.2494 25.7962 23.1947 26.7415 24.3565 26.7415C25.5183 26.7415 26.4633 25.7962 26.4633 24.6344ZM32.1098 24.6367C32.1098 23.4721 31.1666 22.5246 30.007 22.5246C28.8424 22.5246 27.8951 23.4722 27.8951 24.6367C27.8951 25.7962 28.8424 26.7392 30.007 26.7392C31.1666 26.7392 32.1098 25.7962 32.1098 24.6367ZM30.0071 23.4621C29.3595 23.4621 28.8326 23.989 28.8326 24.6367C28.8326 25.2789 29.3595 25.8017 30.0071 25.8017C30.6495 25.8017 31.1723 25.2789 31.1723 24.6367C31.1723 23.9889 30.6495 23.4621 30.0071 23.4621ZM63.34 36.2313L62.028 39.2281C61.5172 40.4047 60.3546 41.1593 59.0749 41.1593H22.925C21.6453 41.1593 20.4828 40.4046 19.9719 39.2281L18.66 36.2313C23.3458 36.2313 57.9203 36.2313 63.34 36.2313ZM58.6186 38.2272C58.6186 37.9681 58.4088 37.7584 58.1498 37.7584H23.8502C23.5913 37.7584 23.3814 37.9681 23.3814 38.2272C23.3814 38.4863 23.5912 38.696 23.8502 38.696H58.1499C58.4088 38.696 58.6186 38.4863 58.6186 38.2272ZM58.7864 32.3207H23.2149C22.461 32.3207 21.8478 32.9341 21.8478 33.688V35.2938H60.1534V33.688C60.1535 32.9341 59.5403 32.3207 58.7864 32.3207Z" fill="white"/>
<path d="M29.0759 52.9078C28.901 52.9078 28.7332 52.8384 28.6096 52.7148C28.4859 52.5913 28.4164 52.4236 28.4164 52.2489C28.4164 52.0741 28.4859 51.9065 28.6096 51.7829C28.7332 51.6593 28.901 51.5899 29.0759 51.5899C31.2323 51.5876 33.2998 50.7306 34.8246 49.207C36.3495 47.6833 37.2072 45.6175 37.2095 43.4628C37.2095 43.288 37.279 43.1204 37.4027 42.9968C37.5263 42.8732 37.6941 42.8038 37.869 42.8038C38.0439 42.8038 38.2116 42.8732 38.3353 42.9968C38.459 43.1204 38.5285 43.288 38.5285 43.4628C38.5257 45.9669 37.5289 48.3677 35.7568 50.1384C33.9847 51.909 31.582 52.905 29.0759 52.9078ZM24.8798 48.7467C23.9847 48.7468 23.0966 48.5898 22.2559 48.2828C22.096 48.2198 21.967 48.0969 21.8964 47.9403C21.8258 47.7837 21.8193 47.6057 21.8781 47.4443C21.9369 47.2829 22.0564 47.1508 22.2113 47.0762C22.3661 47.0016 22.544 46.9903 22.707 47.0449C24.2959 47.6206 26.0484 47.5431 27.5801 46.8294C29.1119 46.1157 30.2977 44.8241 30.8776 43.2378C30.9071 43.1565 30.9525 43.0818 31.0109 43.0179C31.0694 42.9541 31.1399 42.9023 31.2183 42.8657C31.2968 42.8291 31.3817 42.8082 31.4682 42.8044C31.5548 42.8006 31.6412 42.8138 31.7226 42.8433C31.804 42.8729 31.8788 42.9181 31.9427 42.9766C32.0066 43.035 32.0584 43.1054 32.095 43.1838C32.1317 43.2622 32.1525 43.3471 32.1564 43.4335C32.1602 43.52 32.147 43.6063 32.1174 43.6877C31.5754 45.1705 30.5904 46.4511 29.2959 47.356C28.0013 48.2609 26.4597 48.7464 24.8798 48.7467ZM52.8217 52.9078C50.3155 52.905 47.9128 51.909 46.1407 50.1384C44.3687 48.3677 43.3719 45.9669 43.3691 43.4628C43.3691 43.288 43.4385 43.1204 43.5622 42.9968C43.6859 42.8732 43.8536 42.8038 44.0285 42.8038C44.2035 42.8038 44.3712 42.8732 44.4949 42.9968C44.6186 43.1204 44.688 43.288 44.688 43.4628C44.6906 45.6174 45.5483 47.6831 47.0731 49.2067C48.5979 50.7303 50.6653 51.5874 52.8217 51.5899C52.9966 51.5899 53.1643 51.6593 53.288 51.7829C53.4117 51.9065 53.4811 52.0741 53.4811 52.2489C53.4811 52.4236 53.4117 52.5913 53.288 52.7148C53.1643 52.8384 52.9966 52.9078 52.8217 52.9078ZM57.0142 48.7467C55.4343 48.7464 53.8927 48.2609 52.5982 47.356C51.3036 46.4511 50.3186 45.1705 49.7766 43.6877C49.7436 43.6056 49.7274 43.5178 49.7291 43.4294C49.7307 43.341 49.7502 43.2539 49.7863 43.1731C49.8223 43.0924 49.8743 43.0198 49.9391 42.9595C50.0038 42.8993 50.0801 42.8527 50.1632 42.8225C50.2464 42.7923 50.3348 42.7791 50.4231 42.7838C50.5115 42.7884 50.598 42.8108 50.6775 42.8495C50.7571 42.8883 50.828 42.9426 50.8861 43.0093C50.9441 43.0761 50.9882 43.1538 51.0156 43.2378C51.5958 44.824 52.7818 46.1155 54.3137 46.8292C55.8455 47.5428 57.598 47.6204 59.187 47.0449C59.2689 47.0126 59.3565 46.9971 59.4445 46.9991C59.5326 47.0012 59.6193 47.0209 59.6996 47.0571C59.7799 47.0932 59.8521 47.145 59.912 47.2095C59.972 47.274 60.0183 47.3498 60.0485 47.4325C60.0786 47.5152 60.0919 47.603 60.0874 47.6909C60.083 47.7788 60.0611 47.8649 60.0228 47.9442C59.9846 48.0234 59.9308 48.0942 59.8647 48.1524C59.7986 48.2105 59.7216 48.2549 59.6381 48.2828C58.7973 48.5893 57.9092 48.7463 57.0142 48.7467Z" fill="white"/>
</g>
<defs>
<filter id="filter0_d_2525_15140" x="0" y="0.5" width="82" height="82" filterUnits="userSpaceOnUse" color-interpolation-filters="sRGB">
<feFlood flood-opacity="0" result="BackgroundImageFix"/>
<feColorMatrix in="SourceAlpha" type="matrix" values="0 0 0 0 0 0 0 0 0 0 0 0 0 0 0 0 0 0 127 0" result="hardAlpha"/>
<feOffset dy="5"/>
<feGaussianBlur stdDeviation="2.5"/>
<feComposite in2="hardAlpha" operator="out"/>
<feColorMatrix type="matrix" values="0 0 0 0 0.0156863 0 0 0 0 0.380392 0 0 0 0 0.992157 0 0 0 0.27 0"/>
<feBlend mode="normal" in2="BackgroundImageFix" result="effect1_dropShadow_2525_15140"/>
<feBlend mode="normal" in="SourceGraphic" in2="effect1_dropShadow_2525_15140" result="shape"/>
</filter>
<filter id="filter1_dd_2525_15140" x="10.5" y="13.625" width="61" height="49.2828" filterUnits="userSpaceOnUse" color-interpolation-filters="sRGB">
<feFlood flood-opacity="0" result="BackgroundImageFix"/>
<feColorMatrix in="SourceAlpha" type="matrix" values="0 0 0 0 0 0 0 0 0 0 0 0 0 0 0 0 0 0 127 0" result="hardAlpha"/>
<feOffset dy="2"/>
<feGaussianBlur stdDeviation="1.5"/>
<feComposite in2="hardAlpha" operator="out"/>
<feColorMatrix type="matrix" values="0 0 0 0 0 0 0 0 0 0 0 0 0 0 0 0 0 0 0.25 0"/>
<feBlend mode="normal" in2="BackgroundImageFix" result="effect1_dropShadow_2525_15140"/>
<feColorMatrix in="SourceAlpha" type="matrix" values="0 0 0 0 0 0 0 0 0 0 0 0 0 0 0 0 0 0 127 0" result="hardAlpha"/>
<feOffset dy="2"/>
<feGaussianBlur stdDeviation="4"/>
<feComposite in2="hardAlpha" operator="out"/>
<feColorMatrix type="matrix" values="0 0 0 0 0 0 0 0 0 0 0 0 0 0 0 0 0 0 0.25 0"/>
<feBlend mode="normal" in2="effect1_dropShadow_2525_15140" result="effect2_dropShadow_2525_15140"/>
<feBlend mode="normal" in="SourceGraphic" in2="effect2_dropShadow_2525_15140" result="shape"/>
</filter>
<linearGradient id="paint0_linear_2525_15140" x1="41" y1="0.5" x2="41" y2="72.5" gradientUnits="userSpaceOnUse">
<stop stop-color="#5292FF"/>
<stop offset="1" stop-color="#2275FF"/>
</linearGradient>
</defs>
</svg>
