<svg width="82" height="83" viewBox="0 0 82 83" fill="none" xmlns="http://www.w3.org/2000/svg">
<g filter="url(#filter0_d_2525_15155)">
<rect x="5" y="0.5" width="72" height="72" rx="10" fill="url(#paint0_linear_2525_15155)"/>
</g>
<g filter="url(#filter1_dd_2525_15155)">
<path d="M60.1414 19.625H38.0555C37.1507 19.6421 36.2894 20.0169 35.6601 20.6673C35.0307 21.3177 34.6846 22.1908 34.6973 23.0957C34.6968 26.7816 34.6976 36.833 34.6973 40.6503C35.0236 40.6437 60.1944 40.6489 63.4997 40.6503V23.0957C63.5124 22.1908 63.1662 21.3177 62.5369 20.6673C61.9075 20.0169 61.0463 19.6421 60.1414 19.625ZM50.7736 30.7282C50.5571 31.3075 49.8523 31.223 49.3596 31.2182V36.4646C49.3589 36.6774 49.2741 36.8814 49.1236 37.032C48.973 37.1825 48.769 37.2673 48.5562 37.268H39.7507C39.5379 37.2673 39.3339 37.1825 39.1833 37.032C39.0328 36.8814 38.948 36.6774 38.9473 36.4646V31.2183C38.4702 31.2248 37.7133 31.302 37.5253 30.7201C37.4573 30.52 37.4584 30.3028 37.5283 30.1033C37.5982 29.9038 37.7329 29.7335 37.9109 29.6195L43.575 23.7947C43.6507 23.7183 43.7408 23.6577 43.8401 23.6164C43.9394 23.575 44.0459 23.5537 44.1535 23.5537C44.261 23.5537 44.3675 23.575 44.4668 23.6164C44.5661 23.6577 44.6562 23.7183 44.7319 23.7947L50.6129 29.8525C50.7231 29.9663 50.7972 30.1102 50.8258 30.266C50.8544 30.4218 50.8362 30.5826 50.7736 30.7282ZM58.3498 35.3639H52.276C52.0653 35.3602 51.8645 35.274 51.7168 35.1237C51.5691 34.9734 51.4864 34.7711 51.4864 34.5604C51.4864 34.3497 51.5691 34.1475 51.7168 33.9972C51.8645 33.8469 52.0653 33.7607 52.276 33.7571H58.3498C58.5608 33.7602 58.7621 33.8462 58.9102 33.9965C59.0583 34.1469 59.1414 34.3494 59.1414 34.5605C59.1414 34.7715 59.0583 34.9741 58.9102 35.1244C58.7621 35.2747 58.5608 35.3608 58.3498 35.3639ZM63.4997 42.2572V48.6925C63.5 48.7981 63.4795 48.9028 63.4393 49.0004C63.399 49.098 63.3398 49.1868 63.2652 49.2614C63.1905 49.3361 63.1018 49.3953 63.0041 49.4355C62.9065 49.4758 62.8019 49.4963 62.6963 49.4959L61.7884 49.496C62.6215 42.3618 52.3664 40.8565 51.103 47.8891C51.0065 48.4204 51.0065 48.9647 51.103 49.4959H35.5007C35.2876 49.4959 35.0833 49.4112 34.9326 49.2606C34.782 49.1099 34.6973 48.9056 34.6973 48.6925L34.6973 42.2572C34.993 42.2525 62.694 42.2588 63.4997 42.2572ZM33.227 49.4959H32.2951C32.3407 49.2306 32.3622 48.9617 32.3593 48.6925C32.3602 47.9383 32.2053 47.192 31.9045 46.5003C31.6036 45.8087 31.1633 45.1865 30.611 44.6729C30.0587 44.1592 29.4063 43.7651 28.6947 43.5151C27.9831 43.2651 27.2275 43.1647 26.4753 43.2201C25.7231 43.2756 24.9904 43.4856 24.3231 43.8372C23.6558 44.1888 23.0683 44.6743 22.5972 45.2634C22.1262 45.8525 21.7818 46.5324 21.5856 47.2607C21.3894 47.989 21.3456 48.75 21.457 49.4959H19.3119C19.2063 49.4963 19.1016 49.4758 19.004 49.4355C18.9064 49.3953 18.8176 49.3361 18.743 49.2614C18.6683 49.1868 18.6091 49.098 18.5689 49.0004C18.5286 48.9028 18.5081 48.7981 18.5085 48.6925L18.5084 44.6513C18.9757 44.6426 20.323 44.6634 20.7741 44.6513C21.3494 44.6923 21.9178 44.5056 22.3566 44.1313C22.7955 43.7571 23.0697 43.2254 23.1201 42.6508C23.0697 42.0763 22.7955 41.5446 22.3566 41.1704C21.9178 40.7961 21.3494 40.6094 20.7741 40.6503H18.5084C18.5366 40.3364 18.4593 39.3403 18.5326 39.0435H30.6802C30.8931 39.0429 31.0971 38.9581 31.2476 38.8075C31.3982 38.657 31.483 38.453 31.4836 38.2401V32.2306C31.483 32.0177 31.3981 31.8137 31.2476 31.6632C31.0971 31.5126 30.8931 31.4278 30.6802 31.4272C29.2958 31.4273 24.2364 31.427 22.9433 31.4272L24.4457 29.2097C24.517 29.1002 24.6147 29.0104 24.7299 28.9487C24.845 28.8869 24.9738 28.8551 25.1045 28.8562L33.0904 28.8564C33.0899 29.0327 33.0567 49.074 33.227 49.4959ZM18.9584 37.4367C19.0709 37.1957 21.8587 33.034 21.8587 33.034H29.8768V37.4367H18.9584ZM18.5085 43.0445V42.2572C18.9625 42.2581 20.3413 42.2558 20.7741 42.2572C21.7401 42.2969 21.7397 43.0048 20.7741 43.0445C20.3347 43.0456 18.9701 43.043 18.5085 43.0445ZM26.8801 52.565C21.7518 52.4 21.7586 44.9821 26.88 44.812C31.9896 44.9791 31.9987 52.4015 26.8801 52.565ZM53.4651 51.0627C50.4171 46.9385 56.3347 42.4105 59.5068 46.443C62.3114 50.4972 56.6366 54.8421 53.4651 51.0627ZM44.1535 25.514L48.2107 29.6837C48.0729 29.7496 47.9567 29.8534 47.8756 29.9828C47.7945 30.1123 47.7519 30.2621 47.7527 30.4149V35.6611H46.0093V33.3553C46.0097 33.2497 45.9892 33.1451 45.9489 33.0475C45.9087 32.9498 45.8495 32.8611 45.7748 32.7864C45.7002 32.7117 45.6115 32.6526 45.5138 32.6123C45.4162 32.5721 45.3115 32.5516 45.2059 32.5519H43.0849C42.872 32.5525 42.668 32.6374 42.5175 32.7879C42.3669 32.9385 42.2821 33.1425 42.2815 33.3553V35.6611H40.5542V30.4149C40.5545 30.2612 40.5108 30.1107 40.4282 29.9811C40.3456 29.8515 40.2276 29.7483 40.0882 29.6837L44.1535 25.514ZM43.8883 34.1588H44.4025V35.6611H43.8883V34.1588Z" fill="white"/>
</g>
<defs>
<filter id="filter0_d_2525_15155" x="0" y="0.5" width="82" height="82" filterUnits="userSpaceOnUse" color-interpolation-filters="sRGB">
<feFlood flood-opacity="0" result="BackgroundImageFix"/>
<feColorMatrix in="SourceAlpha" type="matrix" values="0 0 0 0 0 0 0 0 0 0 0 0 0 0 0 0 0 0 127 0" result="hardAlpha"/>
<feOffset dy="5"/>
<feGaussianBlur stdDeviation="2.5"/>
<feComposite in2="hardAlpha" operator="out"/>
<feColorMatrix type="matrix" values="0 0 0 0 0.439216 0 0 0 0 0.305882 0 0 0 0 0.988235 0 0 0 0.27 0"/>
<feBlend mode="normal" in2="BackgroundImageFix" result="effect1_dropShadow_2525_15155"/>
<feBlend mode="normal" in="SourceGraphic" in2="effect1_dropShadow_2525_15155" result="shape"/>
</filter>
<filter id="filter1_dd_2525_15155" x="10.5" y="13.625" width="61" height="48.9399" filterUnits="userSpaceOnUse" color-interpolation-filters="sRGB">
<feFlood flood-opacity="0" result="BackgroundImageFix"/>
<feColorMatrix in="SourceAlpha" type="matrix" values="0 0 0 0 0 0 0 0 0 0 0 0 0 0 0 0 0 0 127 0" result="hardAlpha"/>
<feOffset dy="2"/>
<feGaussianBlur stdDeviation="1.5"/>
<feComposite in2="hardAlpha" operator="out"/>
<feColorMatrix type="matrix" values="0 0 0 0 0 0 0 0 0 0 0 0 0 0 0 0 0 0 0.25 0"/>
<feBlend mode="normal" in2="BackgroundImageFix" result="effect1_dropShadow_2525_15155"/>
<feColorMatrix in="SourceAlpha" type="matrix" values="0 0 0 0 0 0 0 0 0 0 0 0 0 0 0 0 0 0 127 0" result="hardAlpha"/>
<feOffset dy="2"/>
<feGaussianBlur stdDeviation="4"/>
<feComposite in2="hardAlpha" operator="out"/>
<feColorMatrix type="matrix" values="0 0 0 0 0 0 0 0 0 0 0 0 0 0 0 0 0 0 0.25 0"/>
<feBlend mode="normal" in2="effect1_dropShadow_2525_15155" result="effect2_dropShadow_2525_15155"/>
<feBlend mode="normal" in="SourceGraphic" in2="effect2_dropShadow_2525_15155" result="shape"/>
</filter>
<linearGradient id="paint0_linear_2525_15155" x1="41" y1="0.5" x2="41" y2="72.5" gradientUnits="userSpaceOnUse">
<stop stop-color="#7351FF"/>
<stop offset="1" stop-color="#5E3CE6"/>
</linearGradient>
</defs>
</svg>
