<svg width="82" height="83" viewBox="0 0 82 83" fill="none" xmlns="http://www.w3.org/2000/svg">
<g filter="url(#filter0_d_2525_15150)">
<rect x="5" y="0.5" width="72" height="72" rx="10" fill="url(#paint0_linear_2525_15150)"/>
</g>
<g filter="url(#filter1_dd_2525_15150)">
<path d="M55.4375 49.4787C52.0261 49.4787 49.25 46.6348 49.25 43.1403C49.25 39.6457 52.0261 36.8019 55.4375 36.8019C58.8489 36.8019 61.625 39.6457 61.625 43.1403C61.625 46.6348 58.8489 49.4787 55.4375 49.4787ZM55.4375 38.9147C53.1626 38.9147 51.3125 40.8098 51.3125 43.1403C51.3125 45.4707 53.1626 47.3659 55.4375 47.3659C57.7124 47.3659 59.5625 45.4707 59.5625 43.1403C59.5625 40.8098 57.7124 38.9147 55.4375 38.9147Z" fill="white"/>
<path d="M54.7816 30.4676C53.2719 29.2337 46.3769 24.125 35.8438 24.125C33.8514 24.125 28.7673 24.3342 24.1865 26.2378H19.3438C18.9271 26.2378 18.5497 26.4956 18.3909 26.8907C18.23 27.2857 18.3187 27.7379 18.6136 28.0421L19.6201 29.0732C17.3823 31.1311 16.25 33.7256 16.25 36.8019C16.25 40.4295 16.5697 45.2531 19.3438 45.2531H19.7789C19.5026 44.6044 19.3438 43.8924 19.3438 43.1403C19.3438 40.2225 21.6517 37.8583 24.5 37.8583C27.3483 37.8583 29.6562 40.2225 29.6562 43.1403C29.6562 43.8924 29.4974 44.6044 29.2211 45.2531H50.7164C50.4401 44.6044 50.2812 43.8924 50.2812 43.1403C50.2812 40.2225 52.5892 37.8583 55.4375 37.8583C58.2858 37.8583 60.5938 40.2225 60.5938 43.1403C60.5938 43.8924 60.4349 44.6044 60.1586 45.2531H62.6562C63.902 45.2531 65.75 43.922 65.75 42.0839V37.8583C65.75 35.8553 62.3737 30.6346 54.7816 30.4676ZM48.2188 34.6891H37.9062C37.337 34.6891 36.875 34.2158 36.875 33.6327V29.407C36.875 28.8239 37.337 28.3506 37.9062 28.3506C38.4755 28.3506 38.9375 28.8239 38.9375 29.407V32.5763H48.2188C48.788 32.5763 49.25 33.0495 49.25 33.6327C49.25 34.2158 48.788 34.6891 48.2188 34.6891Z" fill="white"/>
<path d="M24.5 49.4787C21.0886 49.4787 18.3125 46.6348 18.3125 43.1403C18.3125 39.6457 21.0886 36.8019 24.5 36.8019C27.9114 36.8019 30.6875 39.6457 30.6875 43.1403C30.6875 46.6348 27.9114 49.4787 24.5 49.4787ZM24.5 38.9147C22.2251 38.9147 20.375 40.8098 20.375 43.1403C20.375 45.4707 22.2251 47.3659 24.5 47.3659C26.7749 47.3659 28.625 45.4707 28.625 43.1403C28.625 40.8098 26.7749 38.9147 24.5 38.9147Z" fill="white"/>
</g>
<defs>
<filter id="filter0_d_2525_15150" x="0" y="0.5" width="82" height="82" filterUnits="userSpaceOnUse" color-interpolation-filters="sRGB">
<feFlood flood-opacity="0" result="BackgroundImageFix"/>
<feColorMatrix in="SourceAlpha" type="matrix" values="0 0 0 0 0 0 0 0 0 0 0 0 0 0 0 0 0 0 127 0" result="hardAlpha"/>
<feOffset dy="5"/>
<feGaussianBlur stdDeviation="2.5"/>
<feComposite in2="hardAlpha" operator="out"/>
<feColorMatrix type="matrix" values="0 0 0 0 1 0 0 0 0 0.654902 0 0 0 0 0.0117647 0 0 0 0.27 0"/>
<feBlend mode="normal" in2="BackgroundImageFix" result="effect1_dropShadow_2525_15150"/>
<feBlend mode="normal" in="SourceGraphic" in2="effect1_dropShadow_2525_15150" result="shape"/>
</filter>
<filter id="filter1_dd_2525_15150" x="8.25" y="18.125" width="65.5" height="41.3536" filterUnits="userSpaceOnUse" color-interpolation-filters="sRGB">
<feFlood flood-opacity="0" result="BackgroundImageFix"/>
<feColorMatrix in="SourceAlpha" type="matrix" values="0 0 0 0 0 0 0 0 0 0 0 0 0 0 0 0 0 0 127 0" result="hardAlpha"/>
<feOffset dy="2"/>
<feGaussianBlur stdDeviation="1.5"/>
<feComposite in2="hardAlpha" operator="out"/>
<feColorMatrix type="matrix" values="0 0 0 0 0 0 0 0 0 0 0 0 0 0 0 0 0 0 0.25 0"/>
<feBlend mode="normal" in2="BackgroundImageFix" result="effect1_dropShadow_2525_15150"/>
<feColorMatrix in="SourceAlpha" type="matrix" values="0 0 0 0 0 0 0 0 0 0 0 0 0 0 0 0 0 0 127 0" result="hardAlpha"/>
<feOffset dy="2"/>
<feGaussianBlur stdDeviation="4"/>
<feComposite in2="hardAlpha" operator="out"/>
<feColorMatrix type="matrix" values="0 0 0 0 0 0 0 0 0 0 0 0 0 0 0 0 0 0 0.25 0"/>
<feBlend mode="normal" in2="effect1_dropShadow_2525_15150" result="effect2_dropShadow_2525_15150"/>
<feBlend mode="normal" in="SourceGraphic" in2="effect2_dropShadow_2525_15150" result="shape"/>
</filter>
<linearGradient id="paint0_linear_2525_15150" x1="41" y1="0.5" x2="41" y2="72.5" gradientUnits="userSpaceOnUse">
<stop stop-color="#FFA800"/>
<stop offset="0.953125" stop-color="#FF9922"/>
</linearGradient>
</defs>
</svg>
