<svg width="48" height="48" viewBox="0 0 48 48" fill="none" xmlns="http://www.w3.org/2000/svg">
    <rect x="1.53888" y="1" width="45.3593" height="45.3593" rx="11" fill="#FCFCFC" stroke="#EFEFEF" stroke-width="2"/>
    <g clip-path="url(#clip0_1368_10210)">
        <path d="M31.3748 12H18.6248C15.5182 12 12.9998 14.5184 12.9998 17.625V30.375C12.9998 33.4816 15.5182 36 18.6248 36H31.3748C34.4814 36 36.9998 33.4816 36.9998 30.375V17.625C36.9998 14.5184 34.4814 12 31.3748 12Z"
              fill="url(#paint0_radial_1368_10210)"/>
        <path d="M31.3748 12H18.6248C15.5182 12 12.9998 14.5184 12.9998 17.625V30.375C12.9998 33.4816 15.5182 36 18.6248 36H31.3748C34.4814 36 36.9998 33.4816 36.9998 30.375V17.625C36.9998 14.5184 34.4814 12 31.3748 12Z"
              fill="url(#paint1_radial_1368_10210)"/>
        <path d="M25.0007 14.625C22.4546 14.625 22.135 14.6362 21.1351 14.6816C20.137 14.7274 19.4557 14.8853 18.8597 15.1172C18.243 15.3566 17.7199 15.677 17.1989 16.1982C16.6773 16.7194 16.357 17.2424 16.1168 17.8588C15.8843 18.4551 15.7262 19.1366 15.6813 20.1342C15.6365 21.1342 15.6248 21.4539 15.6248 24.0001C15.6248 26.5463 15.6361 26.8648 15.6814 27.8647C15.7274 28.8628 15.8853 29.5441 16.117 30.1402C16.3566 30.7568 16.677 31.2799 17.1982 31.8009C17.7192 32.3225 18.2422 32.6436 18.8584 32.883C19.455 33.1148 20.1363 33.2728 21.1342 33.3186C22.1343 33.364 22.4536 33.3752 24.9995 33.3752C27.5459 33.3752 27.8644 33.364 28.8644 33.3186C29.8624 33.2728 30.5445 33.1148 31.141 32.883C31.7574 32.6436 32.2797 32.3225 32.8006 31.8009C33.3221 31.2799 33.6423 30.7568 33.8826 30.1404C34.1131 29.5441 34.2713 28.8626 34.3182 27.8649C34.3631 26.865 34.3748 26.5463 34.3748 24.0001C34.3748 21.4539 34.3631 21.1344 34.3182 20.1344C34.2713 19.1363 34.1131 18.4552 33.8826 17.8591C33.6423 17.2424 33.3221 16.7194 32.8006 16.1982C32.2791 15.6768 31.7576 15.3564 31.1404 15.1173C30.5428 14.8853 29.8611 14.7273 28.8631 14.6816C27.863 14.6362 27.5447 14.625 24.9978 14.625H25.0007ZM24.1596 16.3145C24.4093 16.3141 24.6878 16.3145 25.0007 16.3145C27.5039 16.3145 27.8005 16.3235 28.789 16.3684C29.7031 16.4102 30.1992 16.5629 30.5297 16.6913C30.9672 16.8611 31.2791 17.0643 31.607 17.3925C31.9352 17.7206 32.1382 18.0331 32.3086 18.4706C32.4369 18.8006 32.5898 19.2968 32.6314 20.2108C32.6763 21.1991 32.6861 21.4959 32.6861 23.9979C32.6861 26.4999 32.6763 26.7968 32.6314 27.7851C32.5896 28.6991 32.4369 29.1952 32.3086 29.5253C32.1387 29.9629 31.9352 30.2744 31.607 30.6023C31.2789 30.9305 30.9674 31.1335 30.5297 31.3035C30.1996 31.4324 29.7031 31.5848 28.789 31.6266C27.8007 31.6715 27.5039 31.6812 25.0007 31.6812C22.4973 31.6812 22.2006 31.6715 21.2124 31.6266C20.2983 31.5844 19.8022 31.4317 19.4715 31.3033C19.034 31.1333 18.7215 30.9303 18.3933 30.6022C18.0652 30.274 17.8622 29.9623 17.6918 29.5246C17.5635 29.1945 17.4106 28.6984 17.3689 27.7843C17.324 26.796 17.315 26.4992 17.315 23.9956C17.315 21.4921 17.324 21.1968 17.3689 20.2085C17.4108 19.2944 17.5635 18.7983 17.6918 18.4678C17.8618 18.0303 18.0652 17.7178 18.3934 17.3897C18.7216 17.0616 19.034 16.8584 19.4716 16.6882C19.802 16.5592 20.2983 16.4069 21.2124 16.3649C22.0773 16.3258 22.4124 16.3141 24.1596 16.3121V16.3145ZM30.005 17.8711C29.3839 17.8711 28.88 18.3745 28.88 18.9957C28.88 19.6168 29.3839 20.1207 30.005 20.1207C30.6261 20.1207 31.13 19.6168 31.13 18.9957C31.13 18.3746 30.6261 17.8707 30.005 17.8707V17.8711ZM25.0007 19.1856C22.3419 19.1856 20.1862 21.3413 20.1862 24.0001C20.1862 26.6589 22.3419 28.8136 25.0007 28.8136C27.6595 28.8136 29.8144 26.6589 29.8144 24.0001C29.8144 21.3413 27.6593 19.1856 25.0005 19.1856H25.0007ZM25.0007 20.875C26.7265 20.875 28.1257 22.2741 28.1257 24.0001C28.1257 25.7259 26.7265 27.1252 25.0007 27.1252C23.2747 27.1252 21.8757 25.7259 21.8757 24.0001C21.8757 22.2741 23.2747 20.875 25.0007 20.875Z"
              fill="white"/>
    </g>
    <defs>
        <radialGradient id="paint0_radial_1368_10210" cx="0" cy="0" r="1" gradientUnits="userSpaceOnUse"
                        gradientTransform="translate(19.3748 37.8485) rotate(-90) scale(23.7858 22.1227)">
            <stop stop-color="#FFDD55"/>
            <stop offset="0.1" stop-color="#FFDD55"/>
            <stop offset="0.5" stop-color="#FF543E"/>
            <stop offset="1" stop-color="#C837AB"/>
        </radialGradient>
        <radialGradient id="paint1_radial_1368_10210" cx="0" cy="0" r="1" gradientUnits="userSpaceOnUse"
                        gradientTransform="translate(8.97972 13.7288) rotate(78.681) scale(10.6324 43.827)">
            <stop stop-color="#3771C8"/>
            <stop offset="0.128" stop-color="#3771C8"/>
            <stop offset="1" stop-color="#6600FF" stop-opacity="0"/>
        </radialGradient>
        <clipPath id="clip0_1368_10210">
            <rect width="24" height="24" fill="white" transform="translate(12.9998 12)"/>
        </clipPath>
    </defs>
</svg>
