<svg width="48" height="48" viewBox="0 0 48 48" fill="none" xmlns="http://www.w3.org/2000/svg">
    <rect x="1.46112" y="1" width="45.3593" height="45.3593" rx="11" fill="#FCFCFC" stroke="#EFEFEF" stroke-width="2"/>
    <g clip-path="url(#clip0_1368_10187)">
        <path d="M13.153 23.8563C13.1524 25.8728 13.6834 27.8417 14.6931 29.5771L13.0564 35.5066L19.1719 33.9156C20.8634 34.8292 22.7585 35.308 24.6844 35.3081H24.6895C31.0471 35.3081 36.2224 30.1748 36.2251 23.8653C36.2263 20.8079 35.0275 17.9329 32.8493 15.77C30.6715 13.6072 27.7751 12.4155 24.689 12.4141C18.3306 12.4141 13.1557 17.5471 13.1531 23.8563"
              fill="url(#paint0_linear_1368_10187)"/>
        <path d="M12.7411 23.8527C12.7405 25.9417 13.2905 27.981 14.3362 29.7786L12.6408 35.9207L18.9756 34.2726C20.721 35.2168 22.6862 35.7147 24.6859 35.7154H24.6911C31.2768 35.7154 36.638 30.3975 36.6408 23.8621C36.6419 20.6949 35.3999 17.7166 33.1439 15.4761C30.8877 13.2359 27.8877 12.0013 24.6911 12C18.1042 12 12.7437 17.3172 12.7411 23.8527ZM16.5136 29.469L16.2771 29.0965C15.2828 27.5277 14.758 25.7149 14.7587 23.8534C14.7609 18.4213 19.2162 14.0019 24.6948 14.0019C27.3479 14.003 29.8413 15.0292 31.7167 16.8912C33.592 18.7533 34.6239 21.2287 34.6232 23.8614C34.6208 29.2935 30.1653 33.7135 24.6911 33.7135H24.6871C22.9047 33.7126 21.1565 33.2376 19.6319 32.34L19.2691 32.1265L15.5099 33.1045L16.5136 29.4689V29.469Z"
              fill="url(#paint1_linear_1368_10187)"/>
        <path d="M21.7044 18.8977C21.4807 18.4044 21.2453 18.3945 21.0326 18.3858C20.8584 18.3784 20.6592 18.3789 20.4603 18.3789C20.2612 18.3789 19.9377 18.4532 19.6642 18.7495C19.3904 19.0461 18.6191 19.7627 18.6191 21.2203C18.6191 22.678 19.689 24.0866 19.8382 24.2845C19.9875 24.482 21.9038 27.5689 24.9387 28.7564C27.4609 29.7433 27.9742 29.547 28.5216 29.4975C29.0691 29.4482 30.2882 28.7811 30.5369 28.0892C30.7858 27.3975 30.7858 26.8046 30.7112 26.6807C30.6366 26.5572 30.4375 26.4831 30.1389 26.335C29.8402 26.1868 28.3722 25.4701 28.0986 25.3712C27.8248 25.2724 27.6258 25.2231 27.4267 25.5198C27.2276 25.8159 26.6558 26.4831 26.4815 26.6807C26.3074 26.8787 26.1331 26.9034 25.8346 26.7552C25.5358 26.6065 24.5742 26.2941 23.4334 25.2849C22.5458 24.4996 21.9465 23.5298 21.7723 23.2331C21.5982 22.937 21.7537 22.7764 21.9034 22.6288C22.0376 22.496 22.2021 22.2828 22.3515 22.1099C22.5004 21.9369 22.5501 21.8134 22.6497 21.6158C22.7493 21.4181 22.6994 21.2451 22.6249 21.0969C22.5501 20.9487 21.9699 19.4835 21.7044 18.8977Z"
              fill="white"/>
    </g>
    <defs>
        <linearGradient id="paint0_linear_1368_10187" x1="1171.49" y1="2321.67" x2="1171.49" y2="12.4141"
                        gradientUnits="userSpaceOnUse">
            <stop stop-color="#1FAF38"/>
            <stop offset="1" stop-color="#60D669"/>
        </linearGradient>
        <linearGradient id="paint1_linear_1368_10187" x1="1212.64" y1="2404.07" x2="1212.64" y2="12"
                        gradientUnits="userSpaceOnUse">
            <stop stop-color="#F9F9F9"/>
            <stop offset="1" stop-color="white"/>
        </linearGradient>
        <clipPath id="clip0_1368_10187">
            <rect width="24" height="24" fill="white" transform="translate(12.6408 12)"/>
        </clipPath>
    </defs>
</svg>
