<svg width="18" height="20" viewBox="0 0 18 20" fill="none" xmlns="http://www.w3.org/2000/svg">
    <path fill-rule="evenodd" clip-rule="evenodd"
          d="M14 5.5C15.1046 5.5 16 4.60457 16 3.5C16 2.39543 15.1046 1.5 14 1.5C12.8954 1.5 12 2.39543 12 3.5C12 4.60457 12.8954 5.5 14 5.5ZM14 7C15.933 7 17.5 5.433 17.5 3.5C17.5 1.567 15.933 0 14 0C12.067 0 10.5 1.567 10.5 3.5C10.5 4.15869 10.682 4.77489 10.9984 5.30106L6.77786 8.37051C6.13808 7.53719 5.13178 7 4 7C2.067 7 0.5 8.567 0.5 10.5C0.5 12.433 2.067 14 4 14C5.2449 14 6.33801 13.35 6.95848 12.371L10.6819 15.3832C10.5639 15.7339 10.5 16.1095 10.5 16.5C10.5 18.433 12.067 20 14 20C15.933 20 17.5 18.433 17.5 16.5C17.5 14.567 15.933 13 14 13C13.0024 13 12.1022 13.4174 11.4647 14.0871L7.48125 10.8645C7.49365 10.7447 7.5 10.6231 7.5 10.5C7.5 10.2452 7.47277 9.99678 7.42108 9.75746L12.0386 6.39923C12.5981 6.77846 13.2732 7 14 7ZM4 12.5C5.10457 12.5 6 11.6046 6 10.5C6 9.39543 5.10457 8.5 4 8.5C2.89543 8.5 2 9.39543 2 10.5C2 11.6046 2.89543 12.5 4 12.5ZM16 16.5C16 17.6046 15.1046 18.5 14 18.5C12.8954 18.5 12 17.6046 12 16.5C12 15.3954 12.8954 14.5 14 14.5C15.1046 14.5 16 15.3954 16 16.5Z"
          fill="#29303C"/>
</svg>
