<svg width="49" height="48" viewBox="0 0 49 48" fill="none" xmlns="http://www.w3.org/2000/svg">
    <rect x="1.82037" y="1" width="45.3593" height="45.3593" rx="11" fill="#FCFCFC" stroke="#EFEFEF" stroke-width="2"/>
    <g clip-path="url(#clip0_1368_10194)">
        <path d="M31.355 12H17.9264C15.0072 12 12.6407 14.3665 12.6407 17.2857V30.7143C12.6407 33.6335 15.0072 36 17.9264 36H31.355C34.2742 36 36.6407 33.6335 36.6407 30.7143V17.2857C36.6407 14.3665 34.2742 12 31.355 12Z"
              fill="url(#paint0_linear_1368_10194)"/>
        <path d="M24.6407 16.1543C22.3044 16.1543 20.0638 16.9273 18.4118 18.3033C16.7599 19.6793 15.8318 21.5456 15.8317 23.4915C15.8339 24.7573 16.2291 26.001 16.979 27.102C17.7289 28.2029 18.8079 29.1235 20.1112 29.7743C19.7641 30.5514 19.2435 31.2802 18.5709 31.9304C19.8752 31.7014 21.0995 31.2204 22.1486 30.5249C22.9575 30.7251 23.7968 30.8274 24.6407 30.8288C26.977 30.8288 29.2175 30.0557 30.8695 28.6797C32.5215 27.3038 33.4496 25.4375 33.4496 23.4915C33.4496 21.5456 32.5215 19.6793 30.8695 18.3033C29.2175 16.9273 26.977 16.1543 24.6407 16.1543Z"
              fill="white"/>
    </g>
    <defs>
        <linearGradient id="paint0_linear_1368_10194" x1="24.8312" y1="34.4069" x2="24.8312" y2="14.9785"
                        gradientUnits="userSpaceOnUse">
            <stop stop-color="#0CBD2A"/>
            <stop offset="1" stop-color="#5BF675"/>
        </linearGradient>
        <clipPath id="clip0_1368_10194">
            <rect width="24" height="24" fill="white" transform="translate(12.6407 12)"/>
        </clipPath>
    </defs>
</svg>
