<svg width="48" height="48" viewBox="0 0 48 48" fill="none" xmlns="http://www.w3.org/2000/svg">
    <rect x="1.10187" y="1" width="45.3593" height="45.3593" rx="11" fill="#FCFCFC" stroke="#EFEFEF" stroke-width="2"/>
    <g clip-path="url(#clip0_1368_10182)">
        <path d="M23.6409 12C20.4591 12 17.4047 13.2651 15.1566 15.5147C12.9061 17.7652 11.6416 20.8173 11.6409 24C11.6409 27.1813 12.9066 30.2357 15.1566 32.4853C17.4047 34.7349 20.4591 36 23.6409 36C26.8228 36 29.8772 34.7349 32.1253 32.4853C34.3753 30.2357 35.6409 27.1813 35.6409 24C35.6409 20.8187 34.3753 17.7643 32.1253 15.5147C29.8772 13.2651 26.8228 12 23.6409 12Z"
              fill="url(#paint0_linear_1368_10182)"/>
        <path d="M17.0728 23.874C20.5716 22.35 22.9041 21.3452 24.0703 20.8598C27.4041 19.4736 28.0959 19.2328 28.5478 19.2247C28.6472 19.2231 28.8684 19.2476 29.0128 19.3644C29.1328 19.4628 29.1666 19.5959 29.1834 19.6894C29.1984 19.7828 29.2191 19.9956 29.2022 20.1617C29.0222 22.0592 28.2403 26.6638 27.8428 28.7891C27.6759 29.6884 27.3441 29.9899 27.0234 30.0193C26.3259 30.0835 25.7972 29.5588 25.1222 29.1165C24.0666 28.4241 23.4703 27.9932 22.4447 27.3176C21.2597 26.5369 22.0284 26.1077 22.7034 25.4065C22.8797 25.2229 25.9509 22.4301 26.0091 22.1768C26.0166 22.1451 26.0241 22.027 25.9528 21.9647C25.8834 21.9023 25.7803 21.9236 25.7053 21.9405C25.5984 21.9645 23.9128 23.0798 20.6428 25.2861C20.1647 25.615 19.7316 25.7753 19.3416 25.7668C18.9141 25.7576 18.0891 25.5246 17.4759 25.3255C16.7259 25.0811 16.1278 24.952 16.1803 24.537C16.2066 24.321 16.5047 24.1 17.0728 23.874Z"
              fill="white"/>
    </g>
    <defs>
        <linearGradient id="paint0_linear_1368_10182" x1="1211.64" y1="12" x2="1211.64" y2="2412"
                        gradientUnits="userSpaceOnUse">
            <stop stop-color="#2AABEE"/>
            <stop offset="1" stop-color="#229ED9"/>
        </linearGradient>
        <clipPath id="clip0_1368_10182">
            <rect width="24" height="24" fill="white" transform="translate(11.6409 12)"/>
        </clipPath>
    </defs>
</svg>
