<svg width="48" height="48" viewBox="0 0 48 48" fill="none" xmlns="http://www.w3.org/2000/svg">
    <rect x="1.17963" y="1" width="45.3593" height="45.3593" rx="11" fill="#FCFCFC" stroke="#EFEFEF" stroke-width="2"/>
    <g clip-path="url(#clip0_1368_10201)">
        <path d="M17.4545 33.1707V23.8123L14.5787 21.157L11.9999 19.6836V31.5192C11.9999 32.433 12.7335 33.1707 13.6363 33.1707H17.4545Z"
              fill="#4285F4"/>
        <path d="M30.5454 33.1706H34.3635C35.2691 33.1706 35.9999 32.4302 35.9999 31.5191V19.6836L33.0791 21.3713L30.5454 23.8122V33.1706Z"
              fill="#34A853"/>
        <path d="M17.4545 23.8126L17.0632 20.156L17.4545 16.6562L23.9999 21.6107L30.5454 16.6562L30.9831 19.967L30.5454 23.8126L23.9999 28.7671L17.4545 23.8126Z"
              fill="#EA4335"/>
        <path d="M30.5454 16.6561V23.8125L35.9999 19.6838V17.4818C35.9999 15.4396 33.6899 14.2753 32.0728 15.5001L30.5454 16.6561Z"
              fill="#FBBC04"/>
        <path d="M11.9999 19.6839L14.5086 21.5828L17.4545 23.8125V16.6562L15.9271 15.5002C14.3071 14.2753 11.9999 15.4396 11.9999 17.4818V19.6838V19.6839Z"
              fill="#C5221F"/>
    </g>
    <defs>
        <clipPath id="clip0_1368_10201">
            <rect width="24" height="18.2609" fill="white" transform="translate(11.9999 15)"/>
        </clipPath>
    </defs>
</svg>
