<svg width="17" height="18" viewBox="0 0 17 18" fill="none" xmlns="http://www.w3.org/2000/svg">
    <g clip-path="url(#clip0_104_3429)">
        <path d="M6.60231 9.36249C6.25356 9.24624 6.25356 8.75376 6.60231 8.63751L8.64937 7.95586C9.09936 7.80582 9.50823 7.55303 9.84355 7.21753C10.1789 6.88202 10.4314 6.47302 10.5812 6.02294L11.2629 3.97694C11.3791 3.62819 11.8716 3.62819 11.9879 3.97694L12.6695 6.024C12.8195 6.47399 13.0723 6.88286 13.4078 7.21818C13.7433 7.5535 14.1524 7.80607 14.6024 7.95586L16.6484 8.63751C16.7248 8.66257 16.7913 8.71111 16.8384 8.77621C16.8856 8.8413 16.911 8.91962 16.911 9C16.911 9.08037 16.8856 9.1587 16.8384 9.22379C16.7913 9.28888 16.7248 9.33742 16.6484 9.36249L14.6014 10.0441C14.1515 10.1941 13.7427 10.4467 13.4074 10.782C13.0721 11.1173 12.8194 11.5261 12.6695 11.976L11.9879 14.0231C11.9628 14.0994 11.9143 14.1659 11.8492 14.2131C11.7841 14.2602 11.7057 14.2856 11.6254 14.2856C11.545 14.2856 11.4667 14.2602 11.4016 14.2131C11.3365 14.1659 11.2879 14.0994 11.2629 14.0231L10.5812 11.976C10.4313 11.5261 10.1787 11.1173 9.84336 10.782C9.50804 10.4467 9.09925 10.1941 8.64937 10.0441L6.60231 9.36249ZM1.2136 13.445C1.16783 13.4298 1.12801 13.4006 1.09978 13.3615C1.07155 13.3225 1.05636 13.2755 1.05636 13.2273C1.05636 13.1791 1.07155 13.1321 1.09978 13.093C1.12801 13.0539 1.16783 13.0247 1.2136 13.0096L2.44162 12.6006C2.98905 12.4178 3.41812 11.9887 3.60095 11.4412L4.00994 10.2132C4.02509 10.1675 4.05429 10.1276 4.09337 10.0994C4.13245 10.0712 4.17943 10.056 4.22764 10.056C4.27585 10.056 4.32284 10.0712 4.36192 10.0994C4.401 10.1276 4.43019 10.1675 4.44535 10.2132L4.85434 11.4412C4.94429 11.7112 5.09589 11.9566 5.29712 12.1578C5.49835 12.359 5.74368 12.5106 6.01367 12.6006L7.24169 13.0096C7.28745 13.0247 7.32728 13.0539 7.35551 13.093C7.38374 13.1321 7.39893 13.1791 7.39893 13.2273C7.39893 13.2755 7.38374 13.3225 7.35551 13.3615C7.32728 13.4006 7.28745 13.4298 7.24169 13.445L6.01367 13.854C5.74368 13.9439 5.49835 14.0955 5.29712 14.2967C5.09589 14.498 4.94429 14.7433 4.85434 15.0133L4.44535 16.2413C4.43019 16.2871 4.401 16.3269 4.36192 16.3551C4.32284 16.3834 4.27585 16.3986 4.22764 16.3986C4.17943 16.3986 4.13245 16.3834 4.09337 16.3551C4.05429 16.3269 4.02509 16.2871 4.00994 16.2413L3.60095 15.0133C3.511 14.7433 3.3594 14.498 3.15817 14.2967C2.95694 14.0955 2.71161 13.9439 2.44162 13.854L1.2136 13.445ZM0.104995 5.97433C0.0749037 5.9639 0.0488105 5.94435 0.0303433 5.9184C0.0118761 5.89245 0.00195266 5.86139 0.00195266 5.82955C0.00195266 5.7977 0.0118761 5.76664 0.0303433 5.74069C0.0488105 5.71474 0.0749037 5.69519 0.104995 5.68476L0.922972 5.4121C1.28863 5.29057 1.57503 5.00417 1.69656 4.63851L1.96922 3.82053C1.97965 3.79044 1.9992 3.76435 2.02515 3.74588C2.0511 3.72741 2.08216 3.71749 2.11401 3.71749C2.14586 3.71749 2.17691 3.72741 2.20286 3.74588C2.22881 3.76435 2.24836 3.79044 2.25879 3.82053L2.53145 4.63851C2.5914 4.81871 2.69253 4.98245 2.82681 5.11674C2.9611 5.25103 3.12484 5.35216 3.30504 5.4121L4.12302 5.68476C4.15311 5.69519 4.1792 5.71474 4.19767 5.74069C4.21614 5.76664 4.22606 5.7977 4.22606 5.82955C4.22606 5.86139 4.21614 5.89245 4.19767 5.9184C4.1792 5.94435 4.15311 5.9639 4.12302 5.97433L3.30504 6.24699C3.12484 6.30694 2.9611 6.40806 2.82681 6.54235C2.69253 6.67664 2.5914 6.84038 2.53145 7.02058L2.25879 7.8375C2.24836 7.86759 2.22881 7.89369 2.20286 7.91215C2.17691 7.93062 2.14586 7.94054 2.11401 7.94054C2.08216 7.94054 2.0511 7.93062 2.02515 7.91215C1.9992 7.89369 1.97966 7.86759 1.96922 7.8375L1.69656 7.01952C1.57503 6.65386 1.28863 6.36747 0.922972 6.24593L0.106052 5.97433L0.104995 5.97433Z"
              fill="white"/>
    </g>
    <defs>
        <clipPath id="clip0_104_3429">
            <rect width="16.9091" height="16.9091" fill="white" transform="translate(0 17.4546) rotate(-90)"/>
        </clipPath>
    </defs>
</svg>
