<svg width="25" height="24" viewBox="0 0 25 24" fill="none" xmlns="http://www.w3.org/2000/svg">
    <path fill-rule="evenodd" clip-rule="evenodd"
          d="M13.9412 4.17701L15.7686 7.82776C15.9477 8.18616 16.2934 8.43467 16.6943 8.49218L20.7822 9.08062C21.7923 9.22644 22.1942 10.4505 21.4632 11.1519L18.5071 13.9924C18.2166 14.2718 18.0843 14.6733 18.1531 15.0676L18.8507 19.0778C19.0225 20.0698 17.9667 20.8267 17.0639 20.3574L13.4101 18.4627C13.0519 18.2768 12.6229 18.2768 12.2637 18.4627L8.60992 20.3574C7.70715 20.8267 6.65131 20.0698 6.82416 19.0778L7.52076 15.0676C7.58948 14.6733 7.45724 14.2718 7.16673 13.9924L4.21059 11.1519C3.47963 10.4505 3.88156 9.22644 4.89158 9.08062L8.97957 8.49218C9.38045 8.43467 9.72719 8.18616 9.90629 7.82776L11.7327 4.17701C12.1846 3.27433 13.4893 3.27433 13.9412 4.17701Z"
          stroke="#999BA7" stroke-width="1.5" stroke-linecap="round" stroke-linejoin="round"/>
</svg>
