<svg width="256" height="19" viewBox="0 0 256 19" fill="none" xmlns="http://www.w3.org/2000/svg">
    <path d="M48 18.5L9 18.5C4.02944 18.5 0 14.4706 0 9.5C0 4.52944 4.02944 0.5 9 0.5L48 0.5V18.5Z" fill="#D9D9D9"/>
    <rect x="100" y="18.5" width="48" height="18" transform="rotate(-180 100 18.5)" fill="#D9D9D9"/>
    <rect x="152" y="18.5" width="48" height="18" transform="rotate(-180 152 18.5)" fill="#D9D9D9"/>
    <rect x="204" y="18.5" width="48" height="18" transform="rotate(-180 204 18.5)" fill="#FFB800"/>
    <path d="M256 9.5C256 14.4706 251.971 18.5 247 18.5L208 18.5V0.5L247 0.5C251.971 0.5 256 4.52944 256 9.5Z"
          fill="#FFB800"/>
</svg>
