<svg width="22" height="22" viewBox="0 0 22 22" fill="none" xmlns="http://www.w3.org/2000/svg">
    <path d="M17.9798 18.1429C18.7375 18.1429 19.4643 17.8418 20.0001 17.306C20.5359 16.7702 20.8369 16.0435 20.8369 15.2857V12.4286C20.8369 11.6708 20.5359 10.9441 20.0001 10.4083C19.4643 9.87245 18.7375 9.57143 17.9798 9.57143C17.6009 9.57143 17.2375 9.72194 16.9696 9.98985C16.7017 10.2578 16.5512 10.6211 16.5512 11V16.7143C16.5512 17.0932 16.7017 17.4565 16.9696 17.7244C17.2375 17.9923 17.6009 18.1429 17.9798 18.1429ZM17.9798 18.1429C17.9798 18.9006 17.6788 19.6273 17.1429 20.1632C16.6071 20.699 15.8804 21 15.1226 21H11.5512M20.8369 14.5714V11C20.8369 9.68678 20.5783 8.38642 20.0757 7.17317C19.5732 5.95991 18.8366 4.85752 17.908 3.92893C16.9794 3.00035 15.877 2.26375 14.6637 1.7612C13.4505 1.25866 12.1501 1 10.8369 1C9.5237 1 8.22334 1.25866 7.01008 1.7612C5.79682 2.26375 4.69443 3.00035 3.76585 3.92893C2.83726 4.85752 2.10067 5.95991 1.59812 7.17317C1.09557 8.38642 0.836914 9.68678 0.836914 11V14.5714M3.69406 18.1429C4.07294 18.1429 4.4363 17.9923 4.70421 17.7244C4.97212 17.4565 5.12263 17.0932 5.12263 16.7143V11C5.12263 10.6211 4.97212 10.2578 4.70421 9.98985C4.4363 9.72194 4.07294 9.57143 3.69406 9.57143C2.9363 9.57143 2.20957 9.87245 1.67375 10.4083C1.13793 10.9441 0.836914 11.6708 0.836914 12.4286V15.2857C0.836914 16.0435 1.13793 16.7702 1.67375 17.306C2.20957 17.8418 2.9363 18.1429 3.69406 18.1429Z"
          stroke="#999BA7" stroke-width="1.5"/>
</svg>
