<svg width="24" height="24" viewBox="0 0 24 24" fill="none" xmlns="http://www.w3.org/2000/svg">
<path fill-rule="evenodd" clip-rule="evenodd" d="M9.79107 14.6172C5.5889 14.6172 2 15.2523 2 17.7972C2 20.3422 5.56704 21.0002 9.79107 21.0002C13.9943 21.0002 17.5821 20.364 17.5821 17.8202C17.5821 15.2764 14.0162 14.6172 9.79107 14.6172Z" stroke="#999BA7" stroke-width="1.5" stroke-linecap="round" stroke-linejoin="round"/>
<path fill-rule="evenodd" clip-rule="evenodd" d="M9.79119 10.9873C12.5493 10.9873 14.7848 8.75172 14.7848 5.99363C14.7848 3.23555 12.5493 1 9.79119 1C7.0342 1 4.79862 3.23555 4.79862 5.99363C4.78881 8.74188 7.00796 10.9774 9.7573 10.9873H9.79119Z" stroke="#999BA7" stroke-width="1.5" stroke-linecap="round" stroke-linejoin="round"/>
<path d="M19.9873 7.4707V11.8543" stroke="#999BA7" stroke-width="1.5" stroke-linecap="round" stroke-linejoin="round"/>
<path d="M22.2238 9.66272H17.7527" stroke="#999BA7" stroke-width="1.5" stroke-linecap="round" stroke-linejoin="round"/>
</svg>
