<svg width="24" height="24" viewBox="0 0 24 24" fill="none" xmlns="http://www.w3.org/2000/svg">
<path d="M19.1429 19.1429C19.9006 19.1429 20.6273 18.8418 21.1632 18.306C21.699 17.7702 22 17.0435 22 16.2857V13.4286C22 12.6708 21.699 11.9441 21.1632 11.4083C20.6273 10.8724 19.9006 10.5714 19.1429 10.5714C18.764 10.5714 18.4006 10.7219 18.1327 10.9898C17.8648 11.2578 17.7143 11.6211 17.7143 12V17.7143C17.7143 18.0932 17.8648 18.4565 18.1327 18.7244C18.4006 18.9923 18.764 19.1429 19.1429 19.1429ZM19.1429 19.1429C19.1429 19.9006 18.8418 20.6273 18.306 21.1632C17.7702 21.699 17.0435 22 16.2857 22H12.7143M22 15.5714V12C22 10.6868 21.7413 9.38642 21.2388 8.17317C20.7362 6.95991 19.9997 5.85752 19.0711 4.92893C18.1425 4.00035 17.0401 3.26375 15.8268 2.7612C14.6136 2.25866 13.3132 2 12 2C10.6868 2 9.38642 2.25866 8.17317 2.7612C6.95991 3.26375 5.85752 4.00035 4.92893 4.92893C4.00035 5.85752 3.26375 6.95991 2.7612 8.17317C2.25866 9.38642 2 10.6868 2 12V15.5714M4.85714 19.1429C5.23602 19.1429 5.59939 18.9923 5.8673 18.7244C6.1352 18.4565 6.28571 18.0932 6.28571 17.7143V12C6.28571 11.6211 6.1352 11.2578 5.8673 10.9898C5.59939 10.7219 5.23602 10.5714 4.85714 10.5714C4.09938 10.5714 3.37266 10.8724 2.83684 11.4083C2.30102 11.9441 2 12.6708 2 13.4286V16.2857C2 17.0435 2.30102 17.7702 2.83684 18.306C3.37266 18.8418 4.09938 19.1429 4.85714 19.1429Z" stroke="#999BA7" stroke-width="1.5"/>
</svg>
