<svg width="48" height="48" viewBox="0 0 48 48" fill="none" xmlns="http://www.w3.org/2000/svg">
    <rect width="48" height="48" rx="12" fill="#FF981F" fill-opacity="0.08"/>
    <path opacity="0.3" fill-rule="evenodd" clip-rule="evenodd"
          d="M32.2449 20.5433C32.2449 22.7919 32.2275 23.4354 32.1554 23.8483C31.8407 25.6534 30.5305 27.1749 28.7676 27.7824C27.957 28.0617 27.7798 28.0697 22.3864 28.0697H17.3203L17.3444 29.2203C17.3649 30.2076 17.3866 30.4264 17.4968 30.7616C17.666 31.2763 18.1349 31.968 18.5362 32.2949C18.9186 32.6063 19.5689 32.927 19.999 33.016C20.2104 33.0597 22.0593 33.0799 25.8656 33.0799C31.708 33.0799 31.7873 33.0832 32.3083 33.3456C32.4554 33.4196 33.6482 34.2462 34.959 35.1824C36.2699 36.1186 37.4211 36.9329 37.5172 36.992C37.9178 37.2379 38.5093 37.0621 38.7266 36.6325C38.8232 36.4414 38.8283 35.9684 38.814 28.4484L38.7989 20.4671L38.6419 20.0371C38.2774 19.0391 37.4753 18.2453 36.5019 17.9195C36.144 17.7997 35.9928 17.79 34.1819 17.7711L32.2449 17.751V20.5433Z"
          fill="#FF981F"/>
    <path fill-rule="evenodd" clip-rule="evenodd"
          d="M11.476 11.1089C10.926 11.2672 10.4035 11.5773 9.99038 11.9904C9.5464 12.4344 9.27492 12.915 9.11506 13.5398C9.00326 13.977 9 14.213 9 21.8317C9 29.3559 9.00437 29.6817 9.10801 29.8765C9.26484 30.1712 9.60192 30.3522 9.94168 30.324C10.1914 30.3032 10.4201 30.1538 12.7672 28.4777C14.1718 27.4747 15.4652 26.5858 15.6414 26.5025L15.9618 26.351L21.8459 26.3206C28.3711 26.287 27.8916 26.3163 28.7203 25.9001C29.2117 25.6533 29.8857 24.9564 30.1379 24.4342C30.5033 23.6778 30.4951 23.8393 30.496 17.4666C30.4971 10.9998 30.5235 11.4183 30.0953 11.1322L29.8973 11L20.8614 11.0041C12.4826 11.008 11.8001 11.0156 11.476 11.1089ZM25.8177 15.8699C26.3791 16.2859 26.3815 17.0096 25.8225 17.3504C25.6367 17.4637 25.5184 17.4662 20.3252 17.4664L15.0178 17.4666L14.8198 17.3344C14.4637 17.0965 14.3178 16.6046 14.4998 16.2549C14.6128 16.0378 14.8366 15.8391 15.0366 15.7785C15.129 15.7506 17.5555 15.7322 20.4289 15.7378C25.6306 15.748 25.6539 15.7485 25.8177 15.8699ZM25.8177 19.9479C26.3791 20.364 26.3815 21.0876 25.8225 21.4285C25.6367 21.5418 25.5184 21.5443 20.3252 21.5444L15.0178 21.5447L14.8198 21.4124C14.4637 21.1745 14.3178 20.6827 14.4998 20.3329C14.6128 20.1158 14.8366 19.9172 15.0366 19.8566C15.129 19.8286 17.5555 19.8103 20.4289 19.8159C25.6306 19.826 25.6539 19.8266 25.8177 19.9479Z"
          fill="#FF981F"/>
</svg>
