<svg width="32" height="32" viewBox="0 0 32 32" fill="none" xmlns="http://www.w3.org/2000/svg">
<path fill-rule="evenodd" clip-rule="evenodd" d="M23.6932 11.1757H29.3346C29.3346 6.64612 26.6206 4 22.022 4H9.98056C5.38204 4 2.66797 6.64612 2.66797 11.118V20.882C2.66797 25.3539 5.38204 28 9.98056 28H22.022C26.6206 28 29.3346 25.3539 29.3346 20.882V20.4661H23.6932C21.0749 20.4661 18.9524 18.3967 18.9524 15.844C18.9524 13.2913 21.0749 11.222 23.6932 11.222V11.1757ZM23.6932 13.1632H28.3391C28.8889 13.1632 29.3346 13.5978 29.3346 14.1338V17.5079C29.3282 18.0414 28.8862 18.4723 28.3391 18.4786H23.7998C22.4743 18.496 21.3153 17.6112 21.0146 16.3524C20.8641 15.5711 21.0754 14.7648 21.5921 14.1496C22.1087 13.5345 22.8778 13.1734 23.6932 13.1632ZM23.8946 16.7106H24.3332C24.8961 16.7106 25.3524 16.2657 25.3524 15.7169C25.3524 15.1681 24.8961 14.7232 24.3332 14.7232H23.8946C23.6254 14.7201 23.3661 14.8222 23.1746 15.0067C22.9831 15.1912 22.8754 15.4428 22.8754 15.7053C22.8753 16.2561 23.3298 16.7043 23.8946 16.7106ZM8.98501 11.1757H16.5109C17.0739 11.1757 17.5302 10.7308 17.5302 10.182C17.5302 9.63317 17.0739 9.18825 16.5109 9.18825H8.98501C8.42668 9.18822 7.97224 9.62613 7.96575 10.1704C7.96571 10.7212 8.42017 11.1694 8.98501 11.1757Z" fill="#4ADE80"/>
</svg>
