<svg width="35" height="30" viewBox="0 0 35 30" fill="none" xmlns="http://www.w3.org/2000/svg">
<g id="Wallet">
<path id="Wallet_2" fill-rule="evenodd" clip-rule="evenodd" d="M27.1155 8.96967H34.1673C34.1673 3.30766 30.7747 0 25.0266 0H9.97473C4.22658 0 0.833984 3.30766 0.833984 8.89745V21.1026C0.833984 26.6923 4.22658 30 9.97473 30H25.0266C30.7747 30 34.1673 26.6923 34.1673 21.1026V20.5826H27.1155C23.8427 20.5826 21.1895 17.9959 21.1895 14.805C21.1895 11.6141 23.8427 9.02744 27.1155 9.02744V8.96967ZM27.1155 11.454H32.9229C33.6102 11.454 34.1673 11.9972 34.1673 12.6673V16.8849C34.1593 17.5518 33.6068 18.0904 32.9229 18.0982H27.2488C25.592 18.12 24.1431 17.014 23.7673 15.4405C23.5791 14.4638 23.8433 13.4559 24.4891 12.687C25.1349 11.9181 26.0962 11.4668 27.1155 11.454ZM27.3673 15.8883H27.9155C28.6191 15.8883 29.1895 15.3322 29.1895 14.6461C29.1895 13.9601 28.6191 13.4039 27.9155 13.4039H27.3673C27.0308 13.4001 26.7067 13.5277 26.4673 13.7584C26.2279 13.9891 26.0932 14.3035 26.0932 14.6317C26.0932 15.3201 26.6613 15.8804 27.3673 15.8883ZM8.73028 8.96967H18.1377C18.8413 8.96967 19.4118 8.41353 19.4118 7.72749C19.4118 7.04146 18.8413 6.48532 18.1377 6.48532H8.73028C8.03237 6.48527 7.46432 7.03266 7.45621 7.71305C7.45616 8.40146 8.02424 8.96175 8.73028 8.96967Z" fill="#0361FF"/>
</g>
</svg>
