<svg width="48" height="48" viewBox="0 0 48 48" fill="none" xmlns="http://www.w3.org/2000/svg">
<rect x="0.5" y="0.5" width="47" height="47" rx="11.5" fill="white" fill-opacity="0.23"/>
<rect x="0.5" y="0.5" width="47" height="47" rx="11.5" stroke="url(#paint0_linear_4218_17107)"/>
<rect x="0.5" y="0.5" width="47" height="47" rx="11.5" stroke="url(#paint1_linear_4218_17107)"/>
<path d="M42.1267 28.9996C42.1267 32.106 39.5566 34.6218 36.3888 34.6218C33.221 34.6218 30.6509 32.106 30.6509 28.9996C30.6509 25.8932 33.221 23.3774 36.3888 23.3774C39.5566 23.3774 42.1267 25.8932 42.1267 28.9996Z" fill="#E2E7FA"/>
<path d="M36.3865 23.375C34.8655 23.3762 33.4073 23.9691 32.3322 25.0233C31.2572 26.0776 30.6533 27.5069 30.6533 28.9972C30.6539 29.8744 30.864 30.7393 31.2668 31.5228C31.6696 32.3062 32.2539 32.9865 32.9731 33.5091C32.2791 32.5579 31.905 31.4184 31.903 30.2492C31.903 28.7585 32.5072 27.3288 33.5827 26.2745C34.6583 25.2202 36.1171 24.6276 37.6385 24.627C38.8705 24.6295 40.069 25.0204 41.0567 25.742C40.5273 25.0116 39.8276 24.4157 39.0156 24.004C38.2037 23.5923 37.3031 23.3766 36.3889 23.375H36.3865Z" fill="#E6EFFF"/>
<path d="M32.125 39.625H42.1268V42.1266H32.125V39.625Z" fill="#CDDFFF"/>
<path d="M40.8748 39.6249V42.1265H42.1267V39.6226L40.8748 39.6249Z" fill="#3581FF"/>
<path d="M30.8754 37.126H40.8748V39.6252H30.8754V37.126Z" fill="#CDDFFF"/>
<path d="M39.6251 37.126V39.6252H40.8771V37.126H39.6251Z" fill="#3581FF"/>
<path d="M32.1249 34.6265H42.1267V37.1258H32.1249V34.6265ZM5.87561 32.7485H10.8741V41.4983H5.87561V32.7485Z" fill="#CDDFFF"/>
<path d="M15.2514 32.7488C13.7963 32.7488 12.1261 33.8425 10.8741 33.8425V40.8749H12.1261C12.7805 40.8749 18.3767 42.1269 20.2523 42.1269C21.6366 42.1269 28.8084 35.0638 28.8084 35.0638C29.4651 34.4992 29.8052 33.8071 29.5477 32.9827C29.354 32.3637 28.7682 32.1133 28.1375 32.1275C27.9249 32.1322 27.7123 32.1677 27.5044 32.2267L20.7814 34.1213C18.9294 33.7315 17.1105 32.8008 15.2514 32.7488Z" fill="#E2E7FA"/>
<path d="M29.2619 32.5146C29.1981 33.0202 28.9052 33.4666 28.4587 33.8517C28.4587 33.8517 21.2846 40.9148 19.8979 40.9148C18.0247 40.9148 12.4309 39.6628 11.7718 39.6628H10.8741V40.8747H12.1261C12.7805 40.8747 18.3767 42.1266 20.2523 42.1266C21.6366 42.1266 28.8084 35.0635 28.8084 35.0635C29.4651 34.4989 29.8052 33.8068 29.5477 32.9824C29.4933 32.8055 29.3935 32.6448 29.2619 32.5146Z" fill="#E6EFFF"/>
<path d="M21.4996 29.6255C19.3098 29.6279 17.3184 30.9011 16.4019 32.8901C18.1665 33.2208 20.5736 34.0429 20.5736 34.0429C20.6451 34.0634 20.7147 34.0903 20.7815 34.1232L26.4178 32.5311C25.9322 31.6517 25.2199 30.9184 24.355 30.4074C23.4901 29.8965 22.5042 29.6265 21.4996 29.6255Z" fill="#CDDFFF"/>
<path d="M26.4178 32.5312C26.2079 32.1579 25.9558 31.81 25.6666 31.4941L20.7815 32.8713C19.5673 32.46 18.3372 32.0975 17.094 31.7847C16.821 32.125 16.5887 32.496 16.4019 32.8902C17.8759 33.1879 19.3783 33.6249 20.7815 34.121L26.4178 32.5312Z" fill="#68A0FF"/>
<path d="M21.4996 29.6255C19.3098 29.6279 17.3184 30.9011 16.4019 32.8901C16.6806 32.9421 16.9877 33.0224 17.2877 33.0933C17.7869 32.2682 18.49 31.5856 19.3295 31.111C20.1689 30.6365 21.1164 30.386 22.0807 30.3838C23.6752 30.3861 25.1634 31.0688 26.2146 32.2192C25.7087 31.4267 25.0119 30.7739 24.1881 30.3207C23.3643 29.8675 22.4398 29.6285 21.4996 29.6255Z" fill="#F8F8F8"/>
<path d="M27.6438 25.336C25.8957 26.2029 24.6201 25.8604 24.013 24.9627C23.4082 24.0627 23.7012 22.9454 25.4492 22.0808C27.1973 21.2138 29.98 21.2847 30.3462 21.828C30.71 22.3713 29.3918 24.4714 27.6438 25.336Z" fill="#CDDFFF"/>
<path d="M26.8595 24.4571C25.5768 25.0926 24.5516 25.0713 23.8547 24.665C23.8982 24.7682 23.9512 24.867 24.013 24.9603C24.6201 25.8603 25.8957 26.2005 27.6438 25.3359C29.3919 24.4713 30.7124 22.3713 30.3462 21.8279C30.2446 21.6791 29.9541 21.5681 29.5643 21.502C29.3233 22.3524 28.2296 23.7815 26.8595 24.4571Z" fill="#3581FF"/>
<path d="M25.4492 22.0806C23.7012 22.9451 23.4082 24.0625 24.013 24.9625C24.1476 25.1609 24.3201 25.3286 24.5209 25.4657C24.124 24.6152 24.5043 23.6231 26.0918 22.8388C27.4288 22.1774 29.3611 22.0664 30.3651 22.2932C30.4052 22.0994 30.4123 21.9294 30.3462 21.8278C30.1619 21.5561 29.3753 21.4026 28.4162 21.4262C27.4571 21.4498 26.3233 21.6483 25.4492 22.0806Z" fill="#F8F8F8"/>
<path d="M15.3553 26.6258C17.1034 27.4903 18.379 27.1502 18.9837 26.2502C19.5908 25.3525 19.2955 24.2352 17.5475 23.3682C15.7994 22.5036 13.019 22.5745 12.6529 23.1178C12.2867 23.6611 13.6072 25.7612 15.3553 26.6258Z" fill="#CDDFFF"/>
<path d="M15.3554 26.6258C17.1034 27.4904 18.379 27.1503 18.9838 26.2502C19.3854 25.6526 19.3806 24.9628 18.8279 24.3108C18.7948 24.5471 18.7027 24.7833 18.5538 25.0006C17.9491 25.8983 16.6735 26.2408 14.9254 25.3762C13.9333 24.8849 13.0947 24.0014 12.6081 23.2266C12.4427 23.8974 13.7065 25.8085 15.3554 26.6258Z" fill="#3581FF"/>
<path d="M14.5829 22.7162C13.6238 22.6926 12.8348 22.8462 12.653 23.1178C12.5396 23.2832 12.6033 23.6068 12.7734 23.9895C13.2813 23.4958 15.927 23.458 17.616 24.2966C18.4901 24.7265 19.0003 25.2179 19.2153 25.7187C19.4161 24.9368 18.9672 24.0722 17.5499 23.3706C16.6759 22.9359 15.542 22.7375 14.5829 22.7162Z" fill="#F8F8F8"/>
<path d="M27.1265 15.2515C27.1265 15.9901 26.981 16.7215 26.6983 17.4039C26.4157 18.0863 26.0014 18.7063 25.4791 19.2286C24.9568 19.7509 24.3368 20.1652 23.6544 20.4479C22.972 20.7305 22.2406 20.876 21.502 20.876C20.7633 20.876 20.0319 20.7305 19.3496 20.4479C18.6672 20.1652 18.0471 19.7509 17.5248 19.2286C17.0025 18.7063 16.5882 18.0863 16.3056 17.4039C16.0229 16.7215 15.8774 15.9901 15.8774 15.2515C15.8774 13.7598 16.47 12.3291 17.5248 11.2743C18.5796 10.2195 20.0102 9.62695 21.502 9.62695C22.9937 9.62695 24.4243 10.2195 25.4791 11.2743C26.5339 12.3291 27.1265 13.7598 27.1265 15.2515Z" fill="#E2E7FA"/>
<path d="M21.4996 9.62939C21.7049 9.63078 21.9099 9.6434 22.1138 9.66719C20.7409 9.82324 19.4734 10.479 18.5533 11.5094C17.6331 12.5398 17.1246 13.8727 17.1247 15.2539C17.1265 16.6387 17.6395 17.9741 18.5654 19.0041C19.4913 20.0342 20.7649 20.6864 22.1421 20.8359C21.9289 20.8616 21.7144 20.875 21.4996 20.8761C20.0083 20.8754 18.5783 20.2828 17.524 19.2285C16.4697 18.1743 15.8774 16.7446 15.8774 15.2539C15.8771 14.5156 16.0223 13.7845 16.3047 13.1022C16.5871 12.42 17.0011 11.8 17.5232 11.2778C18.0452 10.7555 18.6651 10.3411 19.3474 10.0583C20.0296 9.77543 20.761 9.6297 21.4996 9.62939Z" fill="#F8F8F8"/>
<path d="M21.4995 9.6294C21.2951 9.63087 21.0908 9.64348 20.8877 9.66719C22.2602 9.82377 23.5271 10.4798 24.4468 11.5101C25.3665 12.5405 25.8746 13.8731 25.8744 15.2539C25.8727 16.6383 25.36 17.9734 24.4346 19.0034C23.5092 20.0334 22.2362 20.6859 20.8594 20.8359C21.0718 20.8615 21.2856 20.8749 21.4995 20.8761C22.2384 20.8764 22.97 20.7312 23.6527 20.4488C24.3354 20.1664 24.9557 19.7523 25.4782 19.2302C26.0007 18.7081 26.4153 18.0882 26.6981 17.406C26.9809 16.7237 27.1264 15.9924 27.1264 15.2539C27.1267 14.5152 26.9814 13.7837 26.6987 13.1011C26.4161 12.4186 26.0016 11.7984 25.479 11.2761C24.9565 10.7537 24.3361 10.3395 23.6532 10.0569C22.9704 9.77436 22.2386 9.62908 21.4995 9.6294Z" fill="#E6EFFF"/>
<path d="M5.87561 32.7487V41.5008H7.12524V32.7511L5.87561 32.7487ZM32.1249 39.6252V42.1268H33.3769V39.6228L32.1249 39.6252ZM30.8753 37.1259V39.6252H32.1249L32.1273 37.1259H30.8753ZM40.9409 25.584C41.3067 26.3585 41.4977 27.2014 41.5007 28.0549C41.5007 28.8337 41.3442 29.6049 41.0402 30.3245C40.7361 31.044 40.2905 31.6977 39.7287 32.2483C39.1669 32.7989 38.4999 33.2356 37.7659 33.5335C37.032 33.8313 36.2453 33.9845 35.451 33.9841C34.5276 33.9822 33.6169 33.7729 32.7887 33.3723C33.8076 34.1803 35.0781 34.6221 36.3888 34.6243C37.1425 34.6243 37.8889 34.4788 38.5852 34.1961C39.2815 33.9134 39.9141 33.4991 40.447 32.9768C40.9798 32.4545 41.4024 31.8344 41.6906 31.152C41.9789 30.4696 42.127 29.7383 42.1267 28.9998C42.1252 27.7645 41.7084 26.564 40.9409 25.584ZM35.8762 39.6252V42.1268H37.1258V39.6228L35.8762 39.6252ZM34.6242 37.1259V39.6252H35.8762V37.1259H34.6242Z" fill="#F8F8F8"/>
<path d="M40.8748 34.6265V37.1257H42.1267V34.6265H40.8748Z" fill="#3581FF"/>
<path d="M32.125 34.6265V37.1257H33.377V34.6265H32.125ZM35.8763 34.6265V37.1257H37.1259V34.6265H35.8763Z" fill="#F8F8F8"/>
<path d="M10.8741 33.8447C12.1261 33.8447 13.7963 32.751 15.249 32.751C16.8152 32.751 20.5735 34.0431 20.5735 34.0431C20.7322 34.0856 20.881 34.159 21.0113 34.259C21.1416 34.3589 21.251 34.4836 21.3332 34.6259C21.4153 34.7681 21.4686 34.9252 21.4901 35.088C21.5115 35.2509 21.5007 35.4164 21.4582 35.575C21.4157 35.7337 21.3424 35.8825 21.2424 36.0128C21.1424 36.1431 21.0177 36.2525 20.8755 36.3347C20.7332 36.4168 20.5762 36.4701 20.4133 36.4916C20.2505 36.513 20.085 36.5022 19.9263 36.4597L16.305 35.4888" fill="#E2E7FA"/>
<path d="M16.3026 35.4888L19.9263 36.4573C20.1657 36.5231 20.4193 36.516 20.6547 36.4369C20.89 36.3577 21.0964 36.2101 21.2473 36.013C21.3983 35.8159 21.487 35.5782 21.502 35.3303C21.5171 35.0825 21.4578 34.8358 21.3318 34.6218C21.1958 34.8617 20.9839 35.0496 20.7296 35.1561C20.4752 35.2625 20.1926 35.2815 19.9263 35.21L16.8081 34.3738C16.012 34.1612 15.8136 35.2998 16.3026 35.4888ZM10.8741 33.8423V40.8747H12.1261V33.8423H10.8741Z" fill="#E6EFFF"/>
<path d="M27.7005 33.0984C27.9084 33.0394 28.1257 33.0039 28.3336 33.0016C28.8722 32.9897 29.373 33.1669 29.6281 33.6039C29.6384 33.3937 29.6112 33.1833 29.5478 32.9827C29.3541 32.3637 28.7683 32.1133 28.1375 32.1275C27.9249 32.1322 27.7123 32.1677 27.5045 32.2267C25.2532 32.7724 22.2603 33.5921 20.5736 34.0457C20.5736 34.0457 16.8153 32.7512 15.2515 32.7512C13.7963 32.7512 12.1262 33.8425 10.8742 33.8425L10.8506 34.7165C12.1026 34.7165 13.7727 33.6228 15.2255 33.6228C17.1791 33.7882 19.0405 34.3953 20.8807 35.0166L27.7005 33.0984Z" fill="#F8F8F8"/>
<path d="M9.62451 32.7485V41.5007H10.8765V32.7509L9.62451 32.7485Z" fill="#3581FF"/>
<path d="M37.114 26.4908C36.9488 26.4939 36.7915 26.5622 36.6764 26.6808C36.5614 26.7994 36.4979 26.9587 36.4998 27.1239V29.0019C36.4996 29.1662 36.5641 29.324 36.6793 29.4412L37.3077 30.0672C37.3659 30.1254 37.4349 30.1715 37.5109 30.203C37.5869 30.2345 37.6684 30.2507 37.7506 30.2507C37.8329 30.2507 37.9143 30.2345 37.9903 30.203C38.0663 30.1715 38.1354 30.1254 38.1935 30.0672C38.2517 30.0091 38.2978 29.94 38.3293 29.864C38.3608 29.788 38.377 29.7066 38.377 29.6243C38.377 29.5421 38.3608 29.4606 38.3293 29.3846C38.2978 29.3086 38.2517 29.2396 38.1935 29.1814L37.7494 28.7444V27.1239C37.7504 27.0403 37.7346 26.9573 37.703 26.8799C37.6713 26.8025 37.6245 26.7323 37.5653 26.6733C37.5061 26.6142 37.4356 26.5677 37.3581 26.5364C37.2806 26.505 37.1976 26.4895 37.114 26.4908Z" fill="#E6EFFF"/>
<path d="M21.4996 5.25187C21.3344 5.25187 21.1758 5.31717 21.0586 5.43355C20.9413 5.54993 20.8748 5.70794 20.8736 5.87315V7.11805C20.8683 7.20334 20.8806 7.28879 20.9096 7.36915C20.9386 7.44952 20.9838 7.52309 21.0423 7.58533C21.1009 7.64758 21.1715 7.69718 21.25 7.73109C21.3284 7.76499 21.4129 7.78249 21.4984 7.78249C21.5838 7.78249 21.6684 7.76499 21.7468 7.73109C21.8252 7.69718 21.8959 7.64758 21.9544 7.58533C22.0129 7.52309 22.0581 7.44952 22.0871 7.36915C22.1162 7.28879 22.1284 7.20334 22.1232 7.11805V5.87315C22.1226 5.70794 22.0567 5.54968 21.9398 5.43286C21.823 5.31604 21.6648 5.2525 21.4996 5.25187ZM14.427 8.16689C14.3101 8.28421 14.2445 8.44305 14.2445 8.60863C14.2445 8.77421 14.3101 8.93305 14.427 9.05037L15.3081 9.93149C15.4273 10.0369 15.5821 10.093 15.7412 10.0883C15.9002 10.0837 16.0515 10.0186 16.1643 9.90641C16.2771 9.79421 16.3429 9.64327 16.3484 9.48426C16.354 9.32525 16.2987 9.17011 16.1939 9.05037L15.3128 8.16689C15.2547 8.10868 15.1856 8.0625 15.1096 8.03099C15.0336 7.99948 14.9522 7.98327 14.8699 7.98327C14.7876 7.98327 14.7062 7.99948 14.6302 8.03099C14.5542 8.0625 14.4851 8.10868 14.427 8.16689ZM27.6863 8.16689L26.8052 9.05037C26.689 9.1676 26.6239 9.32593 26.6239 9.49093C26.6239 9.65594 26.689 9.81427 26.8052 9.93149C27.0485 10.1724 27.443 10.1724 27.6863 9.93149L28.5674 9.05037C28.6843 8.93305 28.7499 8.77421 28.7499 8.60863C28.7499 8.44305 28.6843 8.28421 28.5674 8.16689C28.2745 7.88578 27.9107 7.95429 27.6863 8.16689ZM30.1478 32.7863C30.054 32.5049 29.8938 32.2502 29.6808 32.0438C29.4678 31.8374 29.2083 31.6853 28.9241 31.6004C28.4031 31.4517 27.8502 31.4567 27.332 31.6146L26.706 31.7918C26.1977 31.0187 25.5226 30.3693 24.7304 29.8914C23.9381 29.4135 23.0488 29.1193 22.1279 29.0303V27.6248C22.683 26.9373 23.2996 26.3279 23.961 25.82C24.3437 26.1483 24.7949 26.3444 25.3122 26.4176C26.0847 26.531 26.9658 26.3609 27.9225 25.8885C29.5194 25.1609 31.6407 22.6357 30.8659 21.4664C30.3438 20.4104 26.5595 20.6963 25.1729 21.5089C24.2138 21.9813 23.576 22.5577 23.276 23.2475C23.167 23.4907 23.1075 23.7532 23.101 24.0197C23.0945 24.2862 23.1412 24.5512 23.2382 24.7995C22.8224 25.1066 22.4468 25.4444 22.1279 25.7633V21.4569C23.6676 21.2992 25.0942 20.5768 26.1325 19.429C27.1708 18.2812 27.747 16.7895 27.7501 15.2418C27.747 13.5853 27.0873 11.9975 25.9157 10.8263C24.7442 9.65519 23.1561 8.99618 21.4996 8.99368C19.8422 8.99555 18.2532 9.65461 17.081 10.8263C15.9088 11.9981 15.2492 13.5868 15.2467 15.2442C15.2494 16.7938 15.8267 18.2873 16.867 19.4358C17.9073 20.5843 19.3365 21.3061 20.8783 21.4616V26.6491C20.5526 26.3501 20.2017 26.0798 19.8294 25.8413C19.9354 25.4081 19.8981 24.9522 19.7231 24.542C19.4255 23.8522 18.7853 23.2759 17.8263 22.8034C16.3569 21.9931 12.6813 21.7073 12.1332 22.7609C11.271 23.9538 13.5978 26.5169 15.079 27.1783C16.0357 27.6507 16.9168 27.8255 17.6892 27.7122C18.2963 27.6248 18.816 27.3578 19.2247 26.935C19.8578 27.3602 20.4791 27.9838 20.8783 28.4232V29.0303C19.8794 29.1297 18.9193 29.4687 18.0795 30.0185C17.2397 30.5684 16.5451 31.3128 16.0546 32.1886C15.7872 32.1464 15.5173 32.1227 15.2467 32.1178C14.3632 32.1178 13.5364 32.4296 12.7758 32.706C12.3104 32.8713 11.8781 33.0178 11.5025 33.1123V32.7461C11.5025 32.6637 11.4862 32.5821 11.4546 32.506C11.423 32.4299 11.3767 32.3608 11.3183 32.3026C11.2599 32.2445 11.1907 32.1984 11.1144 32.1671C11.0382 32.1358 10.9566 32.1198 10.8742 32.1201H5.87327C5.70765 32.1207 5.54903 32.187 5.43215 32.3043C5.31526 32.4216 5.24963 32.5805 5.24963 32.7461V41.4959C5.24963 41.8408 5.52838 42.1219 5.87327 42.1219H10.8742C10.9566 42.1222 11.0382 42.1062 11.1144 42.0749C11.1907 42.0436 11.2599 41.9975 11.3183 41.9394C11.3767 41.8812 11.423 41.8121 11.4546 41.736C11.4862 41.6599 11.5025 41.5783 11.5025 41.4959H12.1261C13.312 41.6565 14.5734 41.9211 15.6176 42.1101C17.3396 42.4243 19.1727 42.7455 20.2476 42.7455C20.8523 42.8282 22.0665 41.8715 22.5508 41.5148C23.4437 40.8345 24.4784 39.9439 25.4681 39.0557C26.7432 37.9074 27.9939 36.7323 29.2194 35.5312C29.9824 34.8698 30.4808 33.8564 30.1478 32.7886V32.7863ZM21.5019 10.2386C24.2705 10.2386 26.5028 12.4733 26.5028 15.2418C26.5037 15.8989 26.3749 16.5497 26.1238 17.1569C25.8726 17.7641 25.504 18.3157 25.0392 18.7801C24.5743 19.2445 24.0224 19.6125 23.415 19.8631C22.8076 20.1137 22.1566 20.2419 21.4996 20.2404C20.8429 20.2416 20.1924 20.1133 19.5854 19.8627C18.9784 19.6121 18.4269 19.2442 17.9623 18.7801C17.4977 18.316 17.1293 17.7647 16.8782 17.158C16.627 16.5512 16.4981 15.9009 16.4987 15.2442C16.4987 12.4756 18.731 10.2409 21.4996 10.2409L21.5019 10.2386ZM21.5019 11.4953C21.4197 11.4956 21.3384 11.5121 21.2625 11.5439C21.1867 11.5756 21.1179 11.622 21.06 11.6803C21.0021 11.7387 20.9562 11.8079 20.925 11.8839C20.8939 11.96 20.878 12.0415 20.8783 12.1237C20.3822 12.1243 19.9064 12.3206 19.5543 12.6701C19.2022 13.0195 19.0023 13.4938 18.9979 13.9898C18.9979 15.0198 19.8483 15.8678 20.8783 15.8655V17.1104H19.6263C19.4603 17.1104 19.301 17.1763 19.1836 17.2937C19.0663 17.4111 19.0003 17.5703 19.0003 17.7364C19.0003 17.9024 19.0663 18.0616 19.1836 18.179C19.301 18.2964 19.4603 18.3624 19.6263 18.3624H20.8783C20.873 18.4477 20.8853 18.5331 20.9143 18.6135C20.9434 18.6938 20.9885 18.7674 21.0471 18.8296C21.1056 18.8919 21.1763 18.9415 21.2547 18.9754C21.3331 19.0093 21.4177 19.0268 21.5031 19.0268C21.5885 19.0268 21.6731 19.0093 21.7515 18.9754C21.8299 18.9415 21.9006 18.8919 21.9591 18.8296C22.0177 18.7674 22.0628 18.6938 22.0919 18.6135C22.1209 18.5331 22.1332 18.4477 22.1279 18.3624C22.624 18.3599 23.099 18.1617 23.4498 17.811C23.8005 17.4602 23.9987 16.9852 24.0012 16.4891C23.9987 15.9928 23.8006 15.5175 23.4499 15.1664C23.0992 14.8153 22.6242 14.6166 22.1279 14.6135V13.3686H23.3728C23.5384 13.3692 23.6976 13.3042 23.8153 13.1877C23.9331 13.0713 23.9999 12.9129 24.0012 12.7473C24.0009 12.6651 23.9844 12.5837 23.9526 12.5079C23.9209 12.4321 23.8745 12.3633 23.8162 12.3053C23.7578 12.2474 23.6886 12.2016 23.6126 12.1704C23.5365 12.1392 23.455 12.1234 23.3728 12.1237H22.1279C22.1282 12.0411 22.1122 11.9592 22.0807 11.8828C22.0493 11.8065 22.003 11.7371 21.9446 11.6786C21.8862 11.6202 21.8168 11.574 21.7404 11.5425C21.664 11.511 21.5845 11.495 21.5019 11.4953ZM20.8759 14.6135C20.7909 14.6185 20.7058 14.6062 20.6258 14.5771C20.5458 14.548 20.4726 14.5029 20.4107 14.4445C20.3488 14.386 20.2995 14.3155 20.2659 14.2373C20.2322 14.1592 20.215 14.0749 20.2151 13.9898C20.2153 13.9046 20.2329 13.8204 20.2668 13.7424C20.3007 13.6643 20.3503 13.594 20.4124 13.5358C20.4745 13.4776 20.5479 13.4328 20.6281 13.404C20.7082 13.3752 20.7933 13.3632 20.8783 13.3686L20.8759 14.6135ZM12.1356 14.6135C11.9696 14.6135 11.8103 14.6794 11.6929 14.7968C11.5756 14.9142 11.5096 15.0734 11.5096 15.2395C11.5096 15.4055 11.5756 15.5647 11.6929 15.6821C11.8103 15.7995 11.9696 15.8655 12.1356 15.8655H13.3805C13.5465 15.8655 13.7058 15.7995 13.8231 15.6821C13.9405 15.5647 14.0065 15.4055 14.0065 15.2395C14.0065 15.0734 13.9405 14.9142 13.8231 14.7968C13.7058 14.6794 13.5465 14.6135 13.3805 14.6135H12.1356ZM29.621 14.6135C29.455 14.6135 29.2957 14.6794 29.1783 14.7968C29.0609 14.9142 28.995 15.0734 28.995 15.2395C28.995 15.4055 29.0609 15.5647 29.1783 15.6821C29.2957 15.7995 29.455 15.8655 29.621 15.8655H30.8659C31.0319 15.8655 31.1911 15.7995 31.3085 15.6821C31.4259 15.5647 31.4919 15.4055 31.4919 15.2395C31.4919 15.0734 31.4259 14.9142 31.3085 14.7968C31.1911 14.6794 31.0319 14.6135 30.8659 14.6135H29.621ZM22.1279 15.8655C22.4775 15.8773 22.7516 16.1489 22.7516 16.4891C22.7519 16.571 22.7359 16.6521 22.7047 16.7278C22.6734 16.8034 22.6275 16.8722 22.5695 16.9299C22.5114 16.9877 22.4426 17.0334 22.3668 17.0644C22.291 17.0954 22.2098 17.111 22.1279 17.1104V15.8655ZM27.365 24.7664C26.3209 25.2838 25.1233 25.4633 24.5303 24.6034C23.9161 23.694 25.0477 22.9735 25.7256 22.631C27.0957 21.9695 29.1627 21.9223 29.7462 22.1821C29.5076 23.0798 28.3359 24.2916 27.365 24.7664ZM30.0249 28.9878C30.0249 31.0358 31.0407 32.8501 32.5903 33.991H32.125C31.9593 33.9923 31.801 34.0591 31.6845 34.1769C31.5681 34.2946 31.5031 34.4538 31.5037 34.6194V36.4903H30.8753C30.7097 36.4915 30.5513 36.5584 30.4349 36.6761C30.3185 36.7939 30.2534 36.953 30.2541 37.1186V39.6203C30.2541 39.9628 30.5328 40.2415 30.8753 40.2439H31.5037V42.1195C31.5037 42.4644 31.7824 42.7408 32.125 42.7432H42.1244C42.29 42.7432 42.4489 42.6775 42.5662 42.5606C42.6835 42.4438 42.7497 42.2851 42.7504 42.1195V39.6226C42.7507 39.5402 42.7347 39.4586 42.7034 39.3823C42.6721 39.3061 42.626 39.2368 42.5679 39.1785C42.5097 39.1201 42.4406 39.0737 42.3645 39.0421C42.2884 39.0105 42.2068 38.9943 42.1244 38.9943H41.5007V37.7423H42.1244C42.2896 37.7423 42.4481 37.677 42.5654 37.5606C42.6826 37.4442 42.7491 37.2862 42.7504 37.121V34.6217C42.7507 34.5393 42.7347 34.4577 42.7034 34.3815C42.6721 34.3052 42.626 34.2359 42.5679 34.1776C42.5097 34.1192 42.4406 34.0729 42.3645 34.0413C42.2884 34.0097 42.2068 33.9934 42.1244 33.9934H40.1873C40.9782 33.42 41.6225 32.668 42.0679 31.7986C42.5132 30.9292 42.7471 29.967 42.7504 28.9901C42.7548 28.1667 42.5954 27.3506 42.2814 26.5894C41.9674 25.8282 41.5051 25.1371 40.9214 24.5563C40.3377 23.9754 39.6443 23.5165 38.8816 23.2063C38.1188 22.896 37.302 22.7406 36.4786 22.7491C32.8809 22.7491 30.0249 25.5412 30.0249 28.9901V28.9878ZM18.4641 25.8979C17.7885 26.8617 16.468 26.4673 15.6294 26.0633C14.6325 25.5483 13.5813 24.4688 13.2506 23.479C14.1955 23.1719 16.1018 23.3609 17.2688 23.9231C18.2822 24.4239 19.0003 25.142 18.4641 25.8979ZM35.8762 24.02V24.62C35.8762 24.786 35.9422 24.9452 36.0596 25.0626C36.177 25.18 36.3362 25.246 36.5022 25.246C36.6682 25.246 36.8275 25.18 36.9449 25.0626C37.0623 24.9452 37.1282 24.786 37.1282 24.62V24.053C39.4007 24.3743 41.1747 26.1389 41.4582 28.3689H40.8724C40.7902 28.3689 40.7088 28.3851 40.6328 28.4165C40.5569 28.448 40.4879 28.4941 40.4297 28.5522C40.3716 28.6103 40.3255 28.6793 40.294 28.7553C40.2626 28.8312 40.2464 28.9127 40.2464 28.9949C40.2464 29.0771 40.2626 29.1585 40.294 29.2344C40.3255 29.3104 40.3716 29.3794 40.4297 29.4375C40.4879 29.4956 40.5569 29.5417 40.6328 29.5732C40.7088 29.6047 40.7902 29.6209 40.8724 29.6209H41.4559C41.3071 30.7157 40.8027 31.7313 40.0204 32.5115C39.2381 33.2917 38.2211 33.7933 37.1258 33.939V33.3721C37.1161 33.213 37.046 33.0637 36.9299 32.9545C36.8138 32.8453 36.6604 32.7845 36.501 32.7845C36.3417 32.7845 36.1883 32.8453 36.0722 32.9545C35.9561 33.0637 35.886 33.213 35.8762 33.3721V33.9721C34.7364 33.8701 33.665 33.384 32.8376 32.5935C32.0101 31.803 31.4757 30.7548 31.3218 29.6209H32.1202C32.2024 29.6209 32.2838 29.6047 32.3598 29.5732C32.4357 29.5417 32.5048 29.4956 32.5629 29.4375C32.621 29.3794 32.6671 29.3104 32.6986 29.2344C32.73 29.1585 32.7462 29.0771 32.7462 28.9949C32.7462 28.9127 32.73 28.8312 32.6986 28.7553C32.6671 28.6793 32.621 28.6103 32.5629 28.5522C32.5048 28.4941 32.4357 28.448 32.3598 28.4165C32.2838 28.3851 32.2024 28.3689 32.1202 28.3689H31.3194C31.6124 26.0657 33.4927 24.2491 35.8786 24.0223L35.8762 24.02ZM35.8762 27.1192V28.9972C35.8762 29.1626 35.94 29.3185 36.0557 29.4366L36.6841 30.065C36.7422 30.1232 36.8113 30.1693 36.8873 30.2009C36.9633 30.2324 37.0448 30.2486 37.127 30.2486C37.2093 30.2486 37.2908 30.2324 37.3668 30.2009C37.4428 30.1693 37.5118 30.1232 37.57 30.065C37.6285 30.0068 37.675 29.9376 37.7067 29.8614C37.7384 29.7851 37.7548 29.7034 37.7548 29.6209C37.7548 29.5383 37.7384 29.4566 37.7067 29.3803C37.675 29.3041 37.6285 29.2349 37.57 29.1768L37.1258 28.7397V27.1192C37.1161 26.9602 37.046 26.8108 36.9299 26.7016C36.8138 26.5925 36.6604 26.5317 36.501 26.5317C36.3417 26.5317 36.1883 26.5925 36.0722 26.7016C35.9561 26.8108 35.886 26.9602 35.8762 27.1192ZM25.4256 32.1579L20.8027 33.4619C20.7791 33.4548 20.7555 33.443 20.7318 33.4383C20.6964 33.4241 19.7987 33.1123 18.6672 32.791C18.2467 32.6705 17.7932 32.5524 17.3562 32.4461C17.7946 31.8085 18.3732 31.2796 19.0476 30.9001C19.7219 30.5205 20.4742 30.3003 21.2468 30.2563C22.0446 30.2161 22.8405 30.3678 23.5676 30.6987C24.2947 31.0295 24.9318 31.53 25.4256 32.1579ZM28.9525 33.1642C29.0895 33.6485 29.0564 33.991 28.369 34.6123C28.369 34.6123 26.5855 36.3722 24.6319 38.125C23.6563 38.999 22.6382 39.8801 21.7972 40.525C21.3555 40.8793 20.5287 41.5124 20.2499 41.4983C19.4515 41.4983 17.5522 41.1959 15.8443 40.8841C15.0884 40.7707 12.6151 40.2274 12.1261 40.2463H11.5025V34.4068C12.0836 34.3028 12.6458 34.0808 13.1986 33.88C13.9522 33.6083 14.6774 33.3721 15.2467 33.3721C15.8585 33.3721 17.2073 33.6792 18.3247 33.9957C19.0239 34.1918 19.7255 34.4162 20.4106 34.6454C20.7555 34.7399 20.9468 35.0658 20.8547 35.4107C20.8351 35.4911 20.7993 35.5667 20.7496 35.6329C20.6998 35.699 20.6371 35.7543 20.5652 35.7955C20.4934 35.8366 20.4139 35.8626 20.3317 35.872C20.2495 35.8814 20.1662 35.874 20.0869 35.8501L16.4656 34.8816C16.3853 34.8576 16.301 34.85 16.2177 34.8592C16.1344 34.8685 16.0538 34.8943 15.9807 34.9353C15.9075 34.9762 15.8434 35.0314 15.792 35.0977C15.7406 35.1639 15.7031 35.2397 15.6815 35.3207C15.66 35.4017 15.655 35.4862 15.6667 35.5692C15.6785 35.6522 15.7068 35.732 15.75 35.8038C15.7931 35.8757 15.8503 35.9381 15.918 35.9874C15.9858 36.0368 16.0627 36.072 16.1443 36.0911L19.7657 37.0596C20.7578 37.3242 21.7972 36.7289 22.0641 35.7367C22.1771 35.3041 22.1301 34.8453 21.9319 34.4446L27.6721 32.8241C28.1682 32.6989 28.7611 32.6989 28.9525 33.1642ZM6.50163 33.3721H10.2505V40.8746H6.50399L6.50163 33.3721ZM8.37489 34.6217C8.20887 34.6217 8.04964 34.6877 7.93225 34.8051C7.81485 34.9225 7.7489 35.0817 7.7489 35.2477C7.7489 35.4138 7.81485 35.573 7.93225 35.6904C8.04964 35.8078 8.20887 35.8737 8.37489 35.8737C8.54092 35.8737 8.70014 35.8078 8.81754 35.6904C8.93494 35.573 9.00089 35.4138 9.00089 35.2477C9.00089 35.0817 8.93494 34.9225 8.81754 34.8051C8.70014 34.6877 8.54092 34.6217 8.37489 34.6217ZM32.7486 35.2454H41.5007V36.4974H32.7486V35.2454ZM31.5037 37.747H40.2511V38.999H31.5037V37.747ZM32.7486 40.2486H41.5007V41.4983H32.7486V40.2486Z" fill="#0361FF"/>
<defs>
<linearGradient id="paint0_linear_4218_17107" x1="4.5" y1="-8.25152e-07" x2="15.5" y2="20.5" gradientUnits="userSpaceOnUse">
<stop stop-color="white"/>
<stop offset="1" stop-color="white" stop-opacity="0"/>
</linearGradient>
<linearGradient id="paint1_linear_4218_17107" x1="44.5" y1="47" x2="28.5" y2="28.5" gradientUnits="userSpaceOnUse">
<stop stop-color="white"/>
<stop offset="1" stop-color="white" stop-opacity="0"/>
</linearGradient>
</defs>
</svg>
